<?xml version="1.0" encoding="UTF-8"?><svg id="Layer_2" xmlns="http://www.w3.org/2000/svg" viewBox="0 0 945.71 60.67"><defs><style>.cls-1{fill:#ff2600;}</style></defs><g id="Layer_1-2"><path class="cls-1" d="M0,53.8c1.47-1.47,2.93-2.01,3.78-4.09,1.7-4.17.77-27.63.77-27.86,0-2.47-.15-7.41-1-9.65-.31-.85-2.47-2.32-3.32-2.7-.15-.15-.15-.39-.15-.62,0-.93.62-2.55.85-3.55.31-1.31.31-2.39,1.93-2.47,1.24-.08,2.55-.15,3.78-.15h11.89c.46.31.77.31,1,.85.39.85.69,3.55.69,4.48,0,.69-2.7,2.01-3.09,3.4-1.31,4.79-.93,10.03-.93,14.9,0,.54-.31,1.93.54,1.93l.46-.23c2.01-2.32,9.96-15.13,9.96-16.29,0-1.47-2.39-1.54-2.39-2.93,0-.69.69-5.87,1.78-5.87,1.62,0,3.32.31,4.94.31,2.01,0,4.32,0,6.33-.15,1.16-.08,2.32-.31,3.47-.31.46,0,1,.08,1.47.15.46.69,1.54,4.55,1.54,5.33,0,1.16-4.32,2.7-5.25,4.55-.31.62-.77,1.08-1.16,1.62-1.93,2.7-7.1,10.03-7.1,13.12,0,1.93,5.71,15.21,6.72,18.22.23.69.93,1.31,1.31,1.93,2.16,1.31,4.01,1.31,5.87,2.47.15.93.31,1.78.31,2.7s-1,5.25-1.47,6.1c-.62,0-1.16.15-1.78.15-1,0-1.93-.31-2.86-.31-2.78,0-5.56.46-8.26.46-3.09,0-3.71.85-4.63-2.39-.31-1.08-.85-1.85-1.23-2.78,0-.08-.15-.39-.15-.46,0-1.08,2.78-.77,2.78-3.32s-3.63-10.5-5.17-12.12h-.15c-1.62,0-5.02,7.18-5.56,8.57.69,3.09,2.01,5.33,5.09,6.64-.46,1.7-1.47,3.71-2.16,5.33-4.01,0-8.03.31-12.04.31-1.54,0-2.93.39-4.48.39h-.46c-.77-1.93-1.7-3.7-2.47-5.63Z"/><path class="cls-1" d="M48.08,11.11c0-.77.69-2.39,1-3.16.54-1.31.39-3.63.77-4.32.46-.85,2.86-.46,3.78-.46,2.16,0,4.4-.23,6.64-.23,2.39,0,4.71.46,6.79.46,1.78,0,3.55-.23,5.33-.23,2.24.08,4.55.08,6.79.08,3.32,0,6.72-.62,10.11-.62.93,0,2.16-.15,2.78.69,0,.77-.08,1.54-.08,2.32,0,1.16.15,2.32.15,3.47,0,3.71-.23,7.41-.23,11.11-1.39.54-3.32.77-4.79,1.08-1.78-3.63-6.17-8.03-10.5-8.03-1.16,0-2.32.08-3.47.08-2.78,0-3.94-.54-6.1,1.62-.23.23-.31.46-.31.77,0,2.01-.15,4.01-.15,6.02s.69,2.7,1.7,4.25c.31.08.62.08,1,.08,3.09,0,7.49-1.39,8.8-4.32.39-.85,2.47-1.24,3.4-1.24h.46c.31,1.47.39,10.88.39,12.97,0,1.78-.46,3.78-.08,5.56-.93.39-1.78.54-2.78.77-2.78-2.78-5.17-4.32-9.26-4.32-.54,0-2.01.77-2.47,1.08-2.01,1.31-1.47,3.32-1.47,5.4,0,1.62-.15,2.62.93,3.94,1.16,1.47,4.63,2.39,6.41,2.39,6.02,0,11.73-2.39,14.9-7.8.69-.15,1.31-.39,2.01-.39h1.24c1,1,.46,10.27.46,12.27,0,1.16.31,2.24.31,3.32,0,.69-.39,1.47-.54,2.16-.46.31-.93.62-1.39,1-1.85,0-3.63.31-5.4.31-7.41,0-14.82-.31-22.31-.31-4.09,0-8.34.23-12.43.23-1.16-.54-2.39-3.94-2.39-5.17,0-2.55,4.55-4.4,4.86-7.26.15-1.39.23-2.86.23-4.25,0-1.54-.15-3.09-.15-4.63l-.23-17.68c0-.62.15-1.24.15-1.85,0-3.55-1.93-4.4-4.48-6.33l-.31-.23c-.08-.23-.08-.39-.08-.62Z"/><path class="cls-1" d="M101.11,45.15c0-8.18.69-16.44.69-24.7,0-3.63-1.08-7.72-4.94-8.88,0-.77.93-3.7,1.16-4.63.15-.69-.08-1.62.39-2.24.39-.54.77-1.16,1.16-1.7.23-.08.39-.08.62-.08,1.85,0,3.63.23,5.48.23,2.55,0,5.09-.23,7.64-.23.46.31.77.85.93,1.31,1.31,4.01,2.78,7.8,5.02,11.5,1.16,1.93,1.7,4.09,2.86,6.02.85,1.47,1.47,3.24,2.01,4.86.15.46,2.16,4.01,2.39,4.25.15.15.31.39.46.62.46.77.69,1.47,1.39,2.16.08-3.7.77-7.41.77-11.11,0-2.16-.15-4.4-.23-6.64-1.31-2.01-1.31-3.01-3.55-4.17-.31-.15-.46-.39-.46-.77,0-2.08.93-5.33,1.62-7.49.54-.31,1.62-.54,2.24-.54,1.39,0,2.78.23,4.17.23,1.54,0,3.16-.15,4.71-.15,1.24,0,2.39-.39,3.47-.39.77,0,2.47.85,2.7,1.62l1.08,5.63c0,1-4.25,3.55-4.25,9.19,0,1.78-.15,3.63-.15,5.4l-.08,23.16c0,1,.31,2.62.93,3.4.54.62,2.01.62,2.01,1.62,0,.31-.08.69-.23.93-1,1.54-.85,3.4-1.62,4.94-.23.46-.54.77-1.08.77-.69,0-1.47-.31-2.16-.31-.39,0-.77.15-1.16.15-2.78,0-5.63-.23-8.41-.23-1.23,0-2.86.54-3.7.54-.15,0-.31-.23-.31-.39-.39-1.78-.85-3.32-1.31-5.02-.08-.31-.31-.69-.23-1,.93-.93,1.47-1.47,1.47-2.78,0-2.08-1.93-4.48-2.93-6.25-.77-1.31-1.47-2.86-2.01-4.25-1.23-3.16-3.55-6.56-5.63-9.26-.31,0-.54,0-.85-.08-.77,1.47-.93,10.11-.93,12.35,0,2.47-.15,5.71,1.78,7.64.46.46,2.93,2.55,2.93,3.16,0,1.78-.93,3.78-1.16,5.56-.31.08-.62.15-.93.15-.93,0-1.78-.23-2.7-.23-4.17,0-8.34.46-12.43.46-.54,0-1.08-.15-1.54-.39-1.08-1.39-1.85-3.86-2.16-5.56,3.32-2.78,5.09-3.7,5.09-8.41Z"/><path class="cls-1" d="M154.6,45.15c0-8.18.69-16.44.69-24.7,0-3.63-1.08-7.72-4.94-8.88,0-.77.93-3.7,1.16-4.63.15-.69-.08-1.62.39-2.24.39-.54.77-1.16,1.16-1.7.23-.08.39-.08.62-.08,1.85,0,3.63.23,5.48.23,2.55,0,5.09-.23,7.64-.23.46.31.77.85.93,1.31,1.31,4.01,2.78,7.8,5.02,11.5,1.16,1.93,1.7,4.09,2.86,6.02.85,1.47,1.47,3.24,2.01,4.86.15.46,2.16,4.01,2.39,4.25.15.15.31.39.46.62.46.77.69,1.47,1.39,2.16.08-3.7.77-7.41.77-11.11,0-2.16-.15-4.4-.23-6.64-1.31-2.01-1.31-3.01-3.55-4.17-.31-.15-.46-.39-.46-.77,0-2.08.93-5.33,1.62-7.49.54-.31,1.62-.54,2.24-.54,1.39,0,2.78.23,4.17.23,1.54,0,3.16-.15,4.71-.15,1.24,0,2.39-.39,3.47-.39.77,0,2.47.85,2.7,1.62l1.08,5.63c0,1-4.25,3.55-4.25,9.19,0,1.78-.15,3.63-.15,5.4l-.08,23.16c0,1,.31,2.62.93,3.4.54.62,2.01.62,2.01,1.62,0,.31-.08.69-.23.93-1,1.54-.85,3.4-1.62,4.94-.23.46-.54.77-1.08.77-.69,0-1.47-.31-2.16-.31-.39,0-.77.15-1.16.15-2.78,0-5.63-.23-8.41-.23-1.23,0-2.86.54-3.7.54-.15,0-.31-.23-.31-.39-.39-1.78-.85-3.32-1.31-5.02-.08-.31-.31-.69-.23-1,.93-.93,1.47-1.47,1.47-2.78,0-2.08-1.93-4.48-2.93-6.25-.77-1.31-1.47-2.86-2.01-4.25-1.23-3.16-3.55-6.56-5.63-9.26-.31,0-.54,0-.85-.08-.77,1.47-.93,10.11-.93,12.35,0,2.47-.15,5.71,1.78,7.64.46.46,2.93,2.55,2.93,3.16,0,1.78-.93,3.78-1.16,5.56-.31.08-.62.15-.93.15-.93,0-1.78-.23-2.7-.23-4.17,0-8.34.46-12.43.46-.54,0-1.08-.15-1.54-.39-1.08-1.39-1.85-3.86-2.16-5.56,3.32-2.78,5.09-3.7,5.09-8.41Z"/><path class="cls-1" d="M203.76,11.11c0-.77.69-2.39,1-3.16.54-1.31.39-3.63.77-4.32.46-.85,2.86-.46,3.78-.46,2.16,0,4.4-.23,6.64-.23,2.39,0,4.71.46,6.79.46,1.78,0,3.55-.23,5.33-.23,2.24.08,4.55.08,6.79.08,3.32,0,6.72-.62,10.11-.62.93,0,2.16-.15,2.78.69,0,.77-.08,1.54-.08,2.32,0,1.16.15,2.32.15,3.47,0,3.71-.23,7.41-.23,11.11-1.39.54-3.32.77-4.79,1.08-1.78-3.63-6.17-8.03-10.5-8.03-1.16,0-2.32.08-3.47.08-2.78,0-3.94-.54-6.1,1.62-.23.23-.31.46-.31.77,0,2.01-.15,4.01-.15,6.02s.69,2.7,1.7,4.25c.31.08.62.08,1,.08,3.09,0,7.49-1.39,8.8-4.32.39-.85,2.47-1.24,3.4-1.24h.46c.31,1.47.39,10.88.39,12.97,0,1.78-.46,3.78-.08,5.56-.93.39-1.78.54-2.78.77-2.78-2.78-5.17-4.32-9.26-4.32-.54,0-2.01.77-2.47,1.08-2.01,1.31-1.47,3.32-1.47,5.4,0,1.62-.15,2.62.93,3.94,1.16,1.47,4.63,2.39,6.41,2.39,6.02,0,11.73-2.39,14.9-7.8.69-.15,1.31-.39,2.01-.39h1.24c1,1,.46,10.27.46,12.27,0,1.16.31,2.24.31,3.32,0,.69-.39,1.47-.54,2.16-.46.31-.93.62-1.39,1-1.85,0-3.63.31-5.4.31-7.41,0-14.82-.31-22.31-.31-4.09,0-8.34.23-12.43.23-1.16-.54-2.39-3.94-2.39-5.17,0-2.55,4.55-4.4,4.86-7.26.15-1.39.23-2.86.23-4.25,0-1.54-.15-3.09-.15-4.63l-.23-17.68c0-.62.15-1.24.15-1.85,0-3.55-1.93-4.4-4.48-6.33l-.31-.23c-.08-.23-.08-.39-.08-.62Z"/><path class="cls-1" d="M253,50.09c2.16-.93,3.63-1.39,4.4-3.86.54-1.7.85-3.94.85-5.71,0-5.56.15-9.42.15-13.74,0-3.4-.15-8.57-.93-11.89-.69-2.86-4.48-1.7-4.48-3.78,0-.77.69-2.16.77-3.71,0-1.16.77-4.94,2.24-4.94,1.31,0,2.7.39,4.09.39,4.17,0,8.41-.69,12.58-.69h5.56c6.56,0,13.12,1.93,17.91,6.72.93.93,2.55,2.08,2.86,3.32.08.31.23.54.39.85,1.16,2.39,3.63,8.65,3.94,11.27,1.31,11.27-.31,18.76-7.1,27.86-2.78,3.7-8.49,6.1-13.04,6.48-.93.08-1.78.39-2.7.39-3.16,0-6.25-.54-9.42-.54-2.24,0-4.48-.08-6.72-.08-2.47,0-4.94.62-7.41.62h-1.62c-.54-1.08-.69-2.08-1-3.24-.23-.77-1.85-3.4-1.85-3.78,0-.85.31-1.16.54-1.93ZM270.99,22.38c0,5.71.08,8.8.08,14.2v7.56c0,.62.15,1.16.46,1.7,1,.69,2.24,1.08,3.47,1.08,4.25,0,10.03-2.08,12.5-5.71.62-.93,1.16-2.08,1.54-3.09,3.47-9.03.46-22.85-11.5-22.85h-4.79c-1.85.93-1.78,5.4-1.78,7.1Z"/><path class="cls-1" d="M301.94,3.01c5.79-.31,11.73-.54,17.52-.54,1.47,0,3.01.15,4.48.15.15,1.08.15,2.32.15,3.47,0,.93.23,1.93.23,2.86,0,.54-2.78,3.16-2.78,5.79,0,1.39,4.4,11.42,5.56,11.42.31,0,.62-.31.77-.62.46-.93,4.4-9.34,4.4-10.03,0-2.86-.54-3.86-2.55-5.79-.08-.31-.08-.62-.08-.93,0-1.39.15-4.4.77-5.63,3.01-.08,6.17-.46,9.19-.46.77,0,1.54.15,2.32.15,2.93.08,5.94,0,8.88,0,.15,0,.23.08.39.08.31.39.46.85.46,1.39,0,2.08-.62,4.55-1.16,6.64-.15.62-.46,1.08-1.16,1.08-1.7.08-4.71,1.7-5.56,3.24-1,1.85-1.93,3.86-2.62,5.87-.54,1.62-1.24,3.16-1.93,4.71-.77,1.78-1.23,3.63-1.93,5.4-.62,1.62-1.39,3.32-2.08,4.94-.93,2.16-1.39,4.63-1.39,6.79v1.78c0,2.7.54,3.55,2.32,5.48.85.93,1.85.85,2.62,1.54v.23c0,.08,0,.15-.08.23-1,1.85-1.08,4.09-1.54,6.1l-.15.23c-1.62.31-3.4.85-5.02.85-1,0-2.01-.15-2.93-.15h-10.19c-.23-.54-1.78-5.63-1.78-5.94,0-1.23,2.32-1.78,3.09-3.09,1-1.7,1.08-3.94,1.08-5.87,0-3.86-.69-5.33-1.85-8.18-.77-1.93-8.1-17.75-9.57-21.23-.93-2.16-5.87-2.01-6.18-3.94-.15-1-1.54-7.1-1.93-7.49.08-.15.15-.39.23-.54Z"/><path class="cls-1" d="M373.25,16.98c.77-4.55,6.17-11.96,10.11-13.51,1.54-.62,3.01-1.31,4.55-1.93.46-.15,5.02-.62,5.48-.62,3.09,0,7.26.08,10.11,1.08,1.93.69,3.86,1.85,5.94,1.85.69-.54,1.08-1.31,1.54-2.01.31-.08.62-.08.93-.08.69,0,2.39,0,2.86.46v.46c0,.46,0,.93-.08,1.31-.54,2.7-.15,5.79-.15,8.57,0,1.47.15,3.01.15,4.48v.93c-1.39.46-3.09.46-4.48.46-.77-1.54-2.7-3.09-4.17-4.17-2.32-1.7-7.1-2.55-9.96-2.55-4.01,0-6.72.77-8.57,4.63-2.55,6.33,8.41,6.18,11.42,6.95,8.72.85,12.58,3.4,17.21,10.57,1,1.54,1.54,4.17,1.54,5.94,0,4.4-1.31,10.73-5.17,13.51-1.16.85-1.85,2.16-3.16,2.78-2.7,1.31-6.87,2.93-9.88,2.93h-3.94c-1.47,0-4.4-.46-5.79-.85-.54-.15-1-.39-1.54-.46-1.7-.23-3.47-1.23-5.17-1.23-2.39,0-3.16.54-4.79,2.16h-.54c-3.63,0-2.86-.46-2.86-3.55v-11.89c0-1.78-.46-3.47-.46-5.25,0-.93,3.4-.77,4.01-.77h1.08c.15.15.31.39.46.62,2.08,3.16,3.94,6.02,7.41,7.72,1.7.85,3.32,1.62,5.25,1.62,1.16,0,2.16.39,3.32.39,3.32,0,8.26-1.93,8.26-5.87,0-.62-.08-1.16-.31-1.7-1.47-3.47-3.32-4.25-6.95-4.25-7.33,0-17.52-2.24-21.46-9.03-1.62-2.86-2.93-5.71-2.24-9.73Z"/><path class="cls-1" d="M422.65,14.67l.93-7.1c.15-1.08,0-3.32.39-4.25,5.79-.15,11.73-.31,17.52-.31h12.2c2.47,0,4.86-.46,7.33-.46,2.01,0,4.25.23,6.25.46.39.69,1.31,6.87,1.39,8.1.15,2.39,1.08,4.86,1.08,7.26v.46c-.23.15-.54.23-.69.46-.62.93-3.16,1.16-4.25,1.16-2.01,0-2.86-6.64-8.57-6.64-5.4,0-4.32,7.49-4.32,11.58,0,5.09.08,10.19.08,15.28,0,4.48,2.24,8.49,6.64,9.88-.08.69-1.31,6.95-1.47,7.18-.46.69-1.24.93-2.01.93-2.78,0-5.48.54-8.18.54-2.24,0-4.48-.31-6.72-.31-1.47,0-2.86.39-4.32.39-.08,0-.23-.08-.31-.08-.31-1.31-2.01-6.56-2.01-7.56,0-.39.23-.93.54-1.16.46-.31,1.16-.54,1.7-.77,1.78-.77,2.55-2.47,3.63-3.94.23-1.08.31-2.16.31-3.24.15-12.2,1.39-27.56-2.39-28.02-3.94-.46-6.48,1.16-8.18,4.48-.93,1.85-1.24,2.32-1.93,2.32-.62,0-1.7-.39-4.09-.39-.77,0-1.39-.15-1.39-1.08,0-.69.69-4.09.85-5.17Z"/><path class="cls-1" d="M472.82,52.33c.85-.62,1.78-1.16,2.62-1.78.85-.62,1.54-1.47,2.39-2.16,0-.31.08-.54.08-.85l.15-29.02c0-1.16-.62-2.08-.62-3.24,0-1.47-2.93-2.86-4.09-3.24-.15-.15-.23-.39-.23-.62,0-2.32,1.39-4.63,1.47-7.02.23-.23.39-.46.62-.69.31-.08.54-.08.85-.08,4.94,0,9.8-.85,14.74-.85,1.62,0,3.16.31,4.71.31,2.47,0,4.79-.15,7.26.31,1.78.31,3.32,1.24,5.02,1.85,4.09,1.47,8.41,3.78,9.96,8.26.54,1.54,1.24,3.55,1.24,5.17,0,4.09-1.85,10.11-5.09,12.74l-.85.69c-1.31,1.08-2.86,1.47-4.17,2.39-.08.08-.31.23-.31.39s3.94,9.42,4.48,10.73c.31.77,1,1.7,1.62,2.24.85.69,4.32,1.47,5.71,2.16.15.85.23,1.78.23,2.7,0,1.16-.93,4.86-1.47,5.94l-.62.15c-1.39,0-2.78-.31-4.09-.31-1.62,0-6.41,0-7.72.46-.23.08-.54.08-.77.08-1.31,0-2.7.08-3.94-.08-.54-.08-.69-.08-.93-.62-.77-1.78-1.54-5.17-2.24-6.64-.08-.15-.23-.31-.23-.46,0-.93,2.86-1,2.86-3.32,0-1.54-3.01-8.03-3.86-9.34-.62-.93-1.62-1.47-2.7-1.47-2.93,0-3.63,2.39-3.63,4.94,0,1.85-.69,6.87,2.16,7.72.77.23,1.47.62,2.24.93.15.15.31.39.31.62,0,.08-2.62,7.18-2.78,7.49-.15,0-.39.08-.54.08-2.55,0-5.09.23-7.64.23-1,0-2.55-.39-3.4-.23-1.93.39-3.78.69-5.63,1.16-.69-.46-2.93-5.25-3.09-6.1-.08-.54-.08-1.08-.08-1.62ZM491.26,18.99v2.62c0,1.08.62,2.24,1.39,3.01.46.15,3.86.62,4.32.62,2.86,0,7.49-1.93,7.49-5.25,0-4.25-3.01-4.94-6.56-4.94h-2.32c-2.7,0-4.32,1-4.32,3.94Z"/><path class="cls-1" d="M523.68,11.11c0-.77.69-2.39,1-3.16.54-1.31.39-3.63.77-4.32.46-.85,2.86-.46,3.78-.46,2.16,0,4.4-.23,6.64-.23,2.39,0,4.71.46,6.79.46,1.78,0,3.55-.23,5.33-.23,2.24.08,4.55.08,6.79.08,3.32,0,6.72-.62,10.11-.62.93,0,2.16-.15,2.78.69,0,.77-.08,1.54-.08,2.32,0,1.16.15,2.32.15,3.47,0,3.71-.23,7.41-.23,11.11-1.39.54-3.32.77-4.79,1.08-1.78-3.63-6.17-8.03-10.5-8.03-1.16,0-2.32.08-3.47.08-2.78,0-3.94-.54-6.1,1.62-.23.23-.31.46-.31.77,0,2.01-.15,4.01-.15,6.02s.69,2.7,1.7,4.25c.31.08.62.08,1,.08,3.09,0,7.49-1.39,8.8-4.32.39-.85,2.47-1.24,3.4-1.24h.46c.31,1.47.39,10.88.39,12.97,0,1.78-.46,3.78-.08,5.56-.93.39-1.78.54-2.78.77-2.78-2.78-5.17-4.32-9.26-4.32-.54,0-2.01.77-2.47,1.08-2.01,1.31-1.47,3.32-1.47,5.4,0,1.62-.15,2.62.93,3.94,1.16,1.47,4.63,2.39,6.41,2.39,6.02,0,11.73-2.39,14.9-7.8.69-.15,1.31-.39,2.01-.39h1.24c1,1,.46,10.27.46,12.27,0,1.16.31,2.24.31,3.32,0,.69-.39,1.47-.54,2.16-.46.31-.93.62-1.39,1-1.85,0-3.63.31-5.4.31-7.41,0-14.82-.31-22.31-.31-4.09,0-8.34.23-12.43.23-1.16-.54-2.39-3.94-2.39-5.17,0-2.55,4.55-4.4,4.86-7.26.15-1.39.23-2.86.23-4.25,0-1.54-.15-3.09-.15-4.63l-.23-17.68c0-.62.15-1.24.15-1.85,0-3.55-1.93-4.4-4.48-6.33l-.31-.23c-.08-.23-.08-.39-.08-.62Z"/><path class="cls-1" d="M572.38,11.11c0-.77.69-2.39,1-3.16.54-1.31.39-3.63.77-4.32.46-.85,2.86-.46,3.78-.46,2.16,0,4.4-.23,6.64-.23,2.39,0,4.71.46,6.79.46,1.78,0,3.55-.23,5.33-.23,2.24.08,4.55.08,6.79.08,3.32,0,6.72-.62,10.11-.62.93,0,2.16-.15,2.78.69,0,.77-.08,1.54-.08,2.32,0,1.16.15,2.32.15,3.47,0,3.71-.23,7.41-.23,11.11-1.39.54-3.32.77-4.79,1.08-1.78-3.63-6.17-8.03-10.5-8.03-1.16,0-2.32.08-3.47.08-2.78,0-3.94-.54-6.1,1.62-.23.23-.31.46-.31.77,0,2.01-.15,4.01-.15,6.02s.69,2.7,1.7,4.25c.31.08.62.08,1,.08,3.09,0,7.49-1.39,8.8-4.32.39-.85,2.47-1.24,3.4-1.24h.46c.31,1.47.39,10.88.39,12.97,0,1.78-.46,3.78-.08,5.56-.93.39-1.78.54-2.78.77-2.78-2.78-5.17-4.32-9.26-4.32-.54,0-2.01.77-2.47,1.08-2.01,1.31-1.47,3.32-1.47,5.4,0,1.62-.15,2.62.93,3.94,1.16,1.47,4.63,2.39,6.41,2.39,6.02,0,11.73-2.39,14.9-7.8.69-.15,1.31-.39,2.01-.39h1.24c1,1,.46,10.27.46,12.27,0,1.16.31,2.24.31,3.32,0,.69-.39,1.47-.54,2.16-.46.31-.93.62-1.39,1-1.85,0-3.63.31-5.4.31-7.41,0-14.82-.31-22.31-.31-4.09,0-8.34.23-12.43.23-1.16-.54-2.39-3.94-2.39-5.17,0-2.55,4.55-4.4,4.86-7.26.15-1.39.23-2.86.23-4.25,0-1.54-.15-3.09-.15-4.63l-.23-17.68c0-.62.15-1.24.15-1.85,0-3.55-1.93-4.4-4.48-6.33l-.31-.23c-.08-.23-.08-.39-.08-.62Z"/><path class="cls-1" d="M618.84,14.67l.93-7.1c.15-1.08,0-3.32.39-4.25,5.79-.15,11.73-.31,17.52-.31h12.2c2.47,0,4.86-.46,7.33-.46,2.01,0,4.25.23,6.25.46.39.69,1.31,6.87,1.39,8.1.15,2.39,1.08,4.86,1.08,7.26v.46c-.23.15-.54.23-.69.46-.62.93-3.16,1.16-4.25,1.16-2.01,0-2.86-6.64-8.57-6.64-5.4,0-4.32,7.49-4.32,11.58,0,5.09.08,10.19.08,15.28,0,4.48,2.24,8.49,6.64,9.88-.08.69-1.31,6.95-1.47,7.18-.46.69-1.24.93-2.01.93-2.78,0-5.48.54-8.18.54-2.24,0-4.48-.31-6.72-.31-1.47,0-2.86.39-4.32.39-.08,0-.23-.08-.31-.08-.31-1.31-2.01-6.56-2.01-7.56,0-.39.23-.93.54-1.16.46-.31,1.16-.54,1.7-.77,1.78-.77,2.55-2.47,3.63-3.94.23-1.08.31-2.16.31-3.24.15-12.2,1.39-27.56-2.39-28.02-3.94-.46-6.48,1.16-8.18,4.48-.93,1.85-1.24,2.32-1.93,2.32-.62,0-1.7-.39-4.09-.39-.77,0-1.39-.15-1.39-1.08,0-.69.69-4.09.85-5.17Z"/><path class="cls-1" d="M684.52,14.67l.93-7.1c.15-1.08,0-3.32.39-4.25,5.79-.15,11.73-.31,17.52-.31h12.2c2.47,0,4.86-.46,7.33-.46,2.01,0,4.25.23,6.25.46.39.69,1.31,6.87,1.39,8.1.15,2.39,1.08,4.86,1.08,7.26v.46c-.23.15-.54.23-.69.46-.62.93-3.16,1.16-4.25,1.16-2.01,0-2.86-6.64-8.57-6.64-5.4,0-4.32,7.49-4.32,11.58,0,5.09.08,10.19.08,15.28,0,4.48,2.24,8.49,6.64,9.88-.08.69-1.31,6.95-1.47,7.18-.46.69-1.24.93-2.01.93-2.78,0-5.48.54-8.18.54-2.24,0-4.48-.31-6.72-.31-1.47,0-2.86.39-4.32.39-.08,0-.23-.08-.31-.08-.31-1.31-2.01-6.56-2.01-7.56,0-.39.23-.93.54-1.16.46-.31,1.16-.54,1.7-.77,1.78-.77,2.55-2.47,3.63-3.94.23-1.08.31-2.16.31-3.24.15-12.2,1.39-27.56-2.39-28.02-3.94-.46-6.48,1.16-8.18,4.48-.93,1.85-1.24,2.32-1.93,2.32-.62,0-1.7-.39-4.09-.39-.77,0-1.39-.15-1.39-1.08,0-.69.69-4.09.85-5.17Z"/><path class="cls-1" d="M729.44,52.49l.23-.15c1.47-.23,5.02-2.47,5.63-3.78,1.62-3.4,7.87-27.02,7.87-29.49,0-2.93-.15-7.02-3.09-8.49.23-2.24.31-4.86.77-7.1.23-.08.54-.15.77-.15,4.94,0,9.8-.39,14.74-.39,2.7,0,5.48.15,8.18.15,1.47,0,2.86-.15,4.32-.15.85.54,1.31,5.33,1.31,6.41,0,.46-.08,1-.15,1.47-.08.62-2.86,1.7-2.86,4.32,0,1.08,0,2.24.08,3.32.23,3.32,5.33,28.25,7.41,30.57.77.85,4.48,3.24,4.71,3.78-.77,1.93-1.16,4.01-1.47,6.02-1.24.23-7.49.15-9.19.15-1.93,0-7.87.08-9.03-.31-.69-2.01-1.24-3.86-2.01-5.79,1.39-1.39,3.16-2.16,3.16-4.01s-.46-3.94-.85-5.87l-.39-.23c-.85-.08-1.7-.15-2.55-.15-1,0-2.08.08-3.16.08-2.32,0-4.17.15-4.71,2.86-.23,1.16-.69,2.47-.69,3.7,0,1.31,1.78,3.01,2.93,3.47-.62,2.08-1.31,4.25-1.93,6.33-.93-.31-1.85-.46-2.78-.46-2.08,0-4.25.54-6.33.54-.85,0-1.7-.31-2.55-.31-2.32,0-4.71.31-7.02.31h-.31c-.46-.46-1.16-3.94-1.16-4.63s-.08-1.31.08-2.01ZM751.44,32.11c.54.62,2.01,1.08,2.78,1.08,1.16,0,3.86-.39,3.86-1.85,0-1.31-.62-2.86-.85-4.17-.39-2.39-1.08-4.94-1.24-7.41,0-.54-.15-1-.46-1.39-1.85.31-4.09,11.73-4.09,13.74Z"/><path class="cls-1" d="M784.63,17.91c5.09-10.27,16.13-16.44,27.56-16.44,2.55,0,7.26,1.85,7.95,1.85,2.32,0,1.16-3.16,4.25-3.16,1.54,0,3.16-.15,4.63-.15h.46c.08.08.15.15.15.23,0,1-.15,1.93-.15,2.93,0,6.41.93,12.89.93,19.37,0,1.23-3.4,1-4.17,1-1.16,0-4.25-2.93-5.09-3.78-2.93-3.16-5.48-3.47-9.34-4.79-.69-.23-1.39-.31-2.16-.31-2.08,0-5.48,1-7.95,3.24-6.95,6.33-6.64,23.93,1.16,27.86,1.85.93,5.79,1.85,7.72,1.85,1,0,1.93-.23,2.86-.23,3.16,0,6.87-3.94,7.87-6.72.31-.85.69-1.62,1.08-2.39,0-.62.77-1.16,1.31-1.16.62,0,1.23.23,1.85.23.77,0,1.62-.23,2.39-.23h4.55c1.23,0,1.7.85,1.7,2.08,0,3.7-1.08,7.18-3.09,10.19-.93,1.39-1.39,2.78-2.7,3.94-1.16,1.08-5.17,4.55-6.25,5.09-3.24,1.62-7.18,2.24-10.73,2.24-5.33,0-10.42-1-15.36-2.78-3.16-1.16-4.17-2.55-6.41-4.79-.69-.69-1.62-1.16-2.24-1.93-1.24-1.54-1.93-3.47-2.93-5.17-4.01-6.64-3.01-21.69.15-28.1Z"/><path class="cls-1" d="M839.82,19.91c1.93-5.79,7.33-12.81,13.12-15.28.54-.23.93-.39,1.31-.77,2.24-2.24,4.63-1.54,7.26-2.32.54-.15,1.08-.31,1.7-.31.39,0,.85.15,1.31.15,3.86,0,7.33,0,11.19.77,3.16.62,7.26,3.09,9.42,5.48.69.77,1.31,1.62,2.08,2.39,1.23,1.24,2.01,1.93,2.78,3.47,1,2.01,1.78,4.01,2.62,6.02,3.24,7.72,3.47,16.83-1.31,27.02-1.78,3.78-3.16,5.17-6.1,8.1-4.32,4.32-14.05,6.02-20.07,6.02-2.32,0-5.17-.46-7.41-1.31-.62-.23-1.16-.31-1.78-.46-2.08-.54-3.63-1.62-5.48-2.62-2.93-1.54-7.41-8.26-8.57-11.04-4.4-7.8-4.79-17.44-2.08-25.32ZM853.17,37.74c2.32,5.79,6.64,10.57,13.35,10.57,5.94,0,10.5-3.86,12.74-9.26,1.85-4.4,2.39-7.49,1.62-12.12-.23-1.39-1-2.93-1.47-4.17-1.54-4.17-3.78-5.87-7.02-8.65-2.32-.85-4.17-1.7-6.72-1.7-6.18,0-10.81,5.56-12.74,10.81-1.47,4.09-1.7,9.65.23,14.51Z"/><path class="cls-1" d="M901.26,16.98c.77-4.55,6.17-11.96,10.11-13.51,1.54-.62,3.01-1.31,4.55-1.93.46-.15,5.02-.62,5.48-.62,3.09,0,7.26.08,10.11,1.08,1.93.69,3.86,1.85,5.94,1.85.69-.54,1.08-1.31,1.54-2.01.31-.08.62-.08.93-.08.69,0,2.39,0,2.86.46v.46c0,.46,0,.93-.08,1.31-.54,2.7-.15,5.79-.15,8.57,0,1.47.15,3.01.15,4.48v.93c-1.39.46-3.09.46-4.48.46-.77-1.54-2.7-3.09-4.17-4.17-2.32-1.7-7.1-2.55-9.96-2.55-4.01,0-6.72.77-8.57,4.63-2.55,6.33,8.41,6.18,11.42,6.95,8.72.85,12.58,3.4,17.21,10.57,1,1.54,1.54,4.17,1.54,5.94,0,4.4-1.31,10.73-5.17,13.51-1.16.85-1.85,2.16-3.16,2.78-2.7,1.31-6.87,2.93-9.88,2.93h-3.94c-1.47,0-4.4-.46-5.79-.85-.54-.15-1-.39-1.54-.46-1.7-.23-3.47-1.23-5.17-1.23-2.39,0-3.16.54-4.79,2.16h-.54c-3.63,0-2.86-.46-2.86-3.55v-11.89c0-1.78-.46-3.47-.46-5.25,0-.93,3.4-.77,4.01-.77h1.08c.15.15.31.39.46.62,2.08,3.16,3.94,6.02,7.41,7.72,1.7.85,3.32,1.62,5.25,1.62,1.16,0,2.16.39,3.32.39,3.32,0,8.26-1.93,8.26-5.87,0-.62-.08-1.16-.31-1.7-1.47-3.47-3.32-4.25-6.95-4.25-7.33,0-17.52-2.24-21.46-9.03-1.62-2.86-2.93-5.71-2.24-9.73Z"/></g></svg>