<?xml version="1.0" encoding="UTF-8"?><svg id="Layer_2" xmlns="http://www.w3.org/2000/svg" viewBox="0 0 268.57 301.81"><defs><style>.cls-1{fill:#fff;}</style></defs><g id="Layer_1-2"><path class="cls-1" d="M262.27,250.44c-4.39-12.21-13.06-17.08-27.78-15.72-7.7.7-15.39,3.01-23.03,6.87l-14.24-32.17c-.06-.24-.16-.46-.29-.66l-20.62-46.58c2.82-.58,5.71-1.26,8.7-2.09,14.53-4.05,22.01-9.95,28.78-15.93.87.65,1.75,1.31,2.61,1.97,4.72,3.61,9.6,7.33,15.57,9.38,3.65,1.22,7.71,1.92,11.76,1.92,7.32,0,14.58-2.32,19.18-8.14.04-.05.07-.1.1-.14,3.4-5.08,4.39-11.23,2.84-17.79-2.04-8.68-8.41-17.16-16.23-21.62-.03-.02-.07-.04-.1-.05-.44-.22-.91-.48-1.41-.76-1.96-1.07-4.39-2.4-6.83-2.65,2.97-11.91,1.89-24.5-3.53-35.25-4.92-10.1-13.26-18.82-24.16-25.22-6.88-3.86-14.66-6.98-23.17-9.31,10.77-5.07,20.29-12.85,27.24-22.49.46-.64.55-1.48.23-2.21-.32-.73-1-1.23-1.79-1.32-10.56-1.24-19.92,3.94-28.98,8.95-5.95,3.29-12.07,6.67-18.41,8.1l-.11-11.68s0-.03,0-.04c-.05-4.01-4.83-7.02-11.16-7.02s-11.16,3.05-11.16,7.09c0,.3.03.58.08.87l.09,10.07-1.65-.13c-8.12-4.21-12.11-15.09-8.54-23.54.32-.76.2-1.64-.33-2.28-.52-.64-1.36-.94-2.17-.78-8.32,1.63-15.06,9.24-15.67,17.7-.44,6.01,2.25,12.04,6.7,16.04-6.25-.05-12.61-1.6-19.24-3.21-9.4-2.29-19.12-4.66-28.79-2.42-2.06.48-5.06,1.38-7.25,3.68-.67.7-.81,1.76-.34,2.61.46.85,1.42,1.31,2.38,1.13,5.74-1.09,11.2,2.16,16.99,5.59,1.67.99,3.4,2.02,5.13,2.93-3.15,1.25-6.32,3.12-8.66,4.48-4.6,2.68-8.82,6-12.5,9.85-2.09,2.19-4.01,4.55-5.71,7.05-4.22,6.21-7.1,13.29-8.57,20.66-10.46,1.54-21.46,4.4-30.63,8.14C6.24,103.05-2.77,114.23.82,127.55c1.77,6.56,5.69,11.61,11.67,15.02,6.73,3.84,15.45,5.19,24.37,5.19,14.49,0,29.5-3.55,37.34-5.73l.49-.14c.09-.03.18-.07.26-.1,1.55,1.74,3.2,3.37,4.99,4.86,4.32,3.58,9.32,6.26,14.44,8.53,3.93,1.74,7.97,3.25,12.1,4.39l23.67,96.25c-6.16.44-13,1.62-20.58,3.83-2.75.88-6.17,1.98-9.48,3.37-7.77,3.26-12.64,7.15-15.35,12.32-3.84,8.06,1.45,17.49,8.78,21.23,6.56,3.45,17.05,5.2,28.23,5.2,16.69,0,34.92-3.89,43.85-11.8,4.64-3.93,7.36-8.73,7.65-13.4.19-.5.21-1.06.01-1.57,0-.03,0-.07,0-.1-.2-3.14-1.65-7.67-7.41-11.42l-.19-.13s-.07-.05-.11-.07c-2.73-1.65-6.03-3.25-9.92-4.57l-19.17-94.13c2.49.07,4.91.13,7.27.16l41.06,97.34c-5.7,6.92-7.98,14.22-6.1,20.4.97,3.2,3.32,6.95,8.69,9.69,2.1,2.12,5.59,3.21,10.37,3.21.16,0,.33-.02.5-.02.32.05.62.1.95.14.09.01.19.02.28.02.36,0,.7-.09,1-.25.95-.07,1.95-.18,2.98-.32,8.32-1.16,18.37-4.57,28.32-9.61,9.94-5.04,18.64-11.13,24.49-17.16,6.49-6.68,8.77-12.5,6.58-16.82-.16-.32-.36-.63-.56-.92ZM64.01,124.7c-1.14,3.48-4.87,4.22-8.12,4.49-10.3.86-22.19,1.63-31.93-2.54-2.75-1.18-4.91-3.56-3.85-6.73,1.11-3.34,6.66-5.91,9.32-7.64,4.42-2.87,8.82-4.41,14-5.18,5.23-.78,9.51-3.05,14.57-4.24,4.34-1.02,6.31,5.2,2.68,6.83.11.21.2.42.26.65,1.16,4.15,4.49,9.99,3.06,14.35Z"/><path d="M266.28,294.06h-57.92c7.45-1.67,15.76-4.79,23.43-8.68,9.95-5.04,18.65-11.14,24.5-17.17,6.51-6.7,8.79-12.54,6.59-16.88-.17-.33-.36-.64-.57-.93-4.4-12.22-13.09-17.1-27.83-15.74-7.69.7-15.37,3-23,6.85l-14.22-32.12c-.06-.25-.17-.48-.31-.69l-20.61-46.55c2.81-.57,5.67-1.25,8.65-2.08,14.51-4.04,21.99-9.93,28.74-15.89.88.65,1.75,1.31,2.62,1.98,4.72,3.61,9.6,7.34,15.58,9.39,3.65,1.22,7.72,1.93,11.77,1.93,7.34,0,14.61-2.32,19.22-8.16.04-.05.07-.1.11-.15,3.41-5.1,4.4-11.26,2.85-17.82-2.05-8.69-8.42-17.19-16.25-21.65-.03-.02-.07-.04-.11-.06-.44-.22-.91-.48-1.41-.76-1.95-1.07-4.36-2.38-6.79-2.64,2.96-11.91,1.87-24.49-3.55-35.22-4.93-10.11-13.28-18.84-24.18-25.24-6.85-3.84-14.59-6.95-23.06-9.28,10.73-5.07,20.21-12.83,27.14-22.45.47-.66.57-1.52.24-2.26-.33-.74-1.02-1.26-1.83-1.35-10.58-1.25-19.95,3.94-29.01,8.96-6.19,3.43-12.11,6.7-18.33,8.09l-.11-11.63s0-.03,0-.04c-.05-4.04-4.85-7.08-11.21-7.08s-11.21,3.07-11.21,7.14c0,.3.03.59.08.87l.09,10.01-1.58-.13c-8.09-4.2-12.06-15.05-8.51-23.47.33-.78.2-1.68-.33-2.33-.53-.66-1.38-.96-2.22-.8-8.34,1.64-15.09,9.27-15.71,17.74-.43,5.98,2.21,11.98,6.62,15.99-6.21-.07-12.52-1.61-19.1-3.21-9.41-2.29-19.13-4.66-28.81-2.42-2.07.48-5.08,1.39-7.28,3.69-.68.72-.83,1.8-.35,2.67.48.87,1.46,1.34,2.44,1.15,5.71-1.08,11.17,2.16,16.95,5.59,1.66.99,3.38,2,5.1,2.91-3.13,1.25-6.28,3.1-8.6,4.45-4.6,2.68-8.82,6-12.5,9.85-2.09,2.19-4.01,4.55-5.71,7.05-4.21,6.19-7.09,13.25-8.56,20.6-10.47,1.54-21.48,4.41-30.66,8.16C6.2,103.02-2.83,114.22.77,127.56c1.77,6.57,5.7,11.64,11.69,15.05,6.74,3.84,15.47,5.19,24.4,5.19,14.5,0,29.51-3.55,37.35-5.74l.49-.14c.1-.03.19-.07.28-.11,1.54,1.72,3.18,3.34,4.96,4.82,4.32,3.58,9.31,6.26,14.44,8.53,3.91,1.73,7.93,3.23,12.05,4.37l23.66,96.22c-6.15.44-12.97,1.63-20.53,3.83-2.75.88-6.17,1.98-9.48,3.37-7.78,3.26-12.66,7.16-15.38,12.34-3.16,6.62-.15,14.17,5.07,18.75h-21.99c-1.26,0-2.29,1.02-2.29,2.29s1.02,2.29,2.29,2.29h30.6c6.35,2.11,14.64,3.17,23.37,3.17s18.04-1.1,26.11-3.28c.21.06.43.11.66.11h117.76c1.26,0,2.29-1.02,2.29-2.29s-1.02-2.29-2.29-2.29ZM198.39,290.82c-3.19-.5-5.96-1.3-8.24-2.37-.04-.06-.08-.12-.12-.18-1.16-2.3,1.05-6.75,5.78-11.62,1.02-1.05,2.17-2.1,3.37-3.16l13.07,14.88c-5.48,1.62-10.19,2.38-13.87,2.45ZM216.99,286.82l-14.27-16.24c2.68-2.07,5.66-4.09,8.87-6.03l15.75,17.93c-3.63,1.74-7.1,3.18-10.35,4.35ZM251.04,250.84c3.55,0,6.04.68,7.23,1.87.18.55.37,1.1.53,1.69.06.23.17.43.3.62-.1,2.2-1.84,5.31-4.88,8.71l-10.65-12.12c2.83-.52,5.35-.77,7.48-.77ZM238.52,252.76c.07.1.13.21.22.3l12.24,13.93c-2.02,1.87-4.33,3.73-6.85,5.56l-14.75-16.79c3.25-1.26,6.31-2.26,9.14-3.01ZM225.06,257.78l15.29,17.4c-2.74,1.79-5.69,3.52-8.79,5.16l-15.93-18.13c1.14-.63,2.3-1.24,3.48-1.84,1.99-1.01,3.93-1.92,5.83-2.75.04.06.07.11.12.17ZM221.36,242.26c.84,2.77,2.07,7.6,1.76,11.17-2.05.89-4.08,1.85-6.07,2.86-9.95,5.04-18.65,11.14-24.51,17.17-4.16,4.28-6.58,8.2-7.22,11.61-1.08-1.16-1.86-2.47-2.3-3.9-1.84-6.08,2.14-14.29,10.43-21.46,9.22-8.31,18.56-14.14,27.91-17.45ZM207.4,243.6s.05.07.06.1c-5.73,3.32-11.42,7.5-17.05,12.57-.8.69-1.55,1.4-2.28,2.11l-7.11-16.86c5.87-5.26,13.48-8.63,21.27-9.43l5.1,11.51ZM198.03,222.43c-7.73.84-15.26,4.19-21.08,9.4l-4.66-11.04c5.31-5.04,14.3-7.82,21.28-8.44l4.47,10.09ZM191.62,207.94c-7.14.88-15.45,3.63-21.2,8.4l-21.75-51.58c7.81-.03,15.24-.45,23.07-1.73l19.89,44.92ZM245.94,112.91c.53.29,1.03.56,1.5.8,6.65,3.81,12.28,11.32,14.01,18.7.86,3.67,1.19,9.11-2.15,14.15-5.8,7.24-17.18,7.56-25.88,4.66-5.26-1.8-9.63-5.15-14.27-8.69-.64-.49-1.28-.96-1.91-1.44.27-.24.53-.47.8-.71.79-.7,1.6-1.33,2.2-1.96,1.84-1.55,3.6-3.17,5.27-4.87,1.09.64,2.19,1.39,3.35,2.17,3.73,2.52,7.93,5.35,12.89,5.35.46,0,.93-.02,1.4-.07.04,0,.08-.01.12-.02,3.64-.59,6.35-3.62,6.44-7.27-.05-7.1-7.14-10.89-11.41-13.18-.59-.3-1.52-.79-1.97-1.29,1.46-2.7,2.66-5.5,3.64-8.35,1.46-.42,4.14,1.04,5.97,2.04ZM228.67,130.12c1.36-1.56,2.65-3.17,3.88-4.84.49-.68.94-1.38,1.4-2.08.71.54,1.49.98,2.24,1.37,4.52,2.42,8.93,5.11,8.96,9.08-.04,1.34-1.13,2.53-2.55,2.79-3.89.39-7.43-2-11.18-4.52-.9-.61-1.82-1.22-2.75-1.8ZM157.45,23.02c2.55,0,4.85-.5,6.69-1.34l.06,6.47c-.1,0-.21.02-.31.02l-12.9-1.03-.05-5.37c1.81.79,4.04,1.25,6.51,1.25ZM150.9,38.8v-.58c.01-.82.04-1.65.07-2.47.04-1.08.08-2.17.07-3.25v-.76s12.63,1.01,12.63,1.01c.09,0,.19,0,.28,0,.1,0,.2-.02.29-.02l.06,6.26-.03,1.96c0,.74-2.33,2.56-6.64,2.56-2.41,0-5.38-.56-6.45-2.12-.32-.47-.3-1.69-.28-2.59ZM90.86,37.32c-3.32-1.97-6.71-3.99-10.26-5.22,7.72-1.03,15.6.89,23.9,2.91,9.04,2.2,18.38,4.48,27.73,2.69,1.02-.19,1.77-1.04,1.85-2.08.08-1.03-.55-1.99-1.52-2.33-6.14-2.17-10.41-8.69-9.94-15.18.37-5.12,3.66-9.83,8.17-12.21-1.68,9.77,3.42,20.66,12.41,25.04.26.12.53.2.82.22l2.44.2v1.17c.02,1.01-.02,2.03-.05,3.04-.03.87-.06,1.74-.07,2.61v.53c-.04,1.51-.08,3.59,1.08,5.27,2.55,3.71,8,4.11,10.22,4.11,6.39,0,11.21-3.07,11.21-7.1l.03-1.99-.06-6.85c7.28-1.43,13.98-5.14,20.51-8.75,7.41-4.1,14.48-8.01,21.95-8.52-9.37,11.24-22.61,19.28-36.92,22.32-1.12.24-1.89,1.27-1.81,2.41s1.01,2.05,2.15,2.11c10.01.57,21.33,1.77,28.88,8.74,1.97,1.82,3.62,3.98,5.36,6.26.86,1.12,1.74,2.29,2.68,3.41,1.87,2.25,3.91,4.33,6.01,6.32-3.12-1.16-6.19-3.15-9.35-5.21-2.16-1.41-4.4-2.86-6.7-4.06-9.12-4.77-19.76-5.55-30.01-5.55-.5,0-1,0-1.5,0-5.33.04-10.96.24-16.17,2.22-2.86,1.09-5.43,2.65-7.92,4.17-.68.41-1.36.82-2.04,1.23-3.13,1.84-7.29,4.02-11.76,4.6-2.3.29-4.55.11-6.53-.51,2.91-.7,5.92-1.43,8.74-2.85,5.02-2.52,9.36-8.11,7.93-13.92-.1-.42-.32-.79-.6-1.07-.48-.64-1.28-1.01-2.14-.89-13,1.77-29.7,2.87-43.65-4.38-1.67-.87-3.32-1.85-5.07-2.89ZM14.73,138.64c-4.96-2.83-8.08-6.84-9.54-12.27-2.9-10.76,5.22-20.13,24.14-27.86,14.26-5.83,33.1-9.45,46.89-9.03,1.58.05,3.66.15,5.69.51.62.11,2.13.61,2.81,2.91.24.79.1,1.64-.37,2.33-.44.64-1.09,1.03-1.78,1.09-11.03.83-21.73,2.6-31.78,5.28-2.05.55-4.18,1.05-6.24,1.53-6.72,1.58-13.66,3.21-19.89,6.78-5.64,3.23-8.57,8.21-7.65,12.99.95,4.91,5.7,8.43,12.71,9.41,13.45,1.89,30.22-.8,35.45-2.77.35-.13.65-.35.88-.61.33.6.66,1.21,1.01,1.81,1.46,2.5,3.05,4.94,4.78,7.26-12.77,3.45-41.4,9.62-57.11.66ZM64.07,125.12c-.17.02-.34.06-.51.12-4.71,1.78-20.69,4.28-33.19,2.52-4.99-.7-8.3-2.85-8.85-5.74-.54-2.8,1.54-5.92,5.43-8.15,5.65-3.24,12.26-4.79,18.66-6.29,2.09-.49,4.26-1,6.37-1.56,1.85-.49,3.73-.94,5.63-1.37,0,.03,0,.06.01.09.97,7.1,3.3,13.95,6.46,20.39ZM68.72,116.32c-1.78-4.25-2.92-8.69-3.41-13.24,5.73-1.01,11.61-1.76,17.6-2.21,2.08-.16,3.98-1.27,5.21-3.05,1.26-1.83,1.62-4.1.99-6.23-.98-3.3-3.38-5.58-6.41-6.11-2.32-.4-4.6-.52-6.34-.57-3-.09-6.23,0-9.59.26,4.17-15.7,15.48-29.4,30.6-36.88l.15-.08c.85-.42,1.71-.83,2.58-1.23,12.7,4.51,26.48,3.87,37.89,2.44-.31,2.86-2.89,5.6-5.65,6.98-2.38,1.2-5.03,1.83-7.84,2.51-1.79.43-3.65.88-5.47,1.49-.76.26-1.34.89-1.51,1.68s.08,1.61.67,2.16c3.54,3.32,8.98,4.87,14.57,4.15,5.3-.68,9.99-3.13,13.5-5.19.7-.41,1.4-.84,2.09-1.26,2.42-1.47,4.7-2.86,7.17-3.8,4.49-1.71,9.45-1.89,14.57-1.92,9.42-.07,20.24.27,29.36,5.03,2.11,1.1,4.16,2.43,6.33,3.84,5.3,3.44,10.77,6.99,17.14,6.99.64,0,1.3-.04,1.96-.11.9-.1,1.65-.73,1.92-1.59.27-.86,0-1.8-.67-2.4-3.81-3.36-7.75-6.84-11-10.76-.87-1.05-1.73-2.17-2.56-3.26-1.66-2.17-3.38-4.4-5.43-6.39,1.44.7,2.85,1.43,4.21,2.19,10.09,5.93,17.82,13.98,22.36,23.31,7.72,15.3,5.81,34.75-4.86,49.53-6.47,8.83-23.28,26.52-56.93,32.36-.39-.04-.79,0-1.17.17-.02,0-.04.02-.06.03-9.37,1.53-20.01,2.14-32.08,1.41-2.65-.18-5.57-.47-8.67-.89l-22.29-5.25c-15.62-5.51-31.14-15.63-38.92-34.1ZM111.44,160.73s.07.01.1.02c5.8,1.12,12.65,3.44,18.55,3.63.58.02,1.15.04,1.72.05l11.37,55.84c-5.76-1.21-11.55-.35-16.51,2.41l-15.24-61.96ZM129.88,235.73l-2.06-8.39c4.68-3.04,10.47-3.84,16.11-2.17.09.03.17.03.26.05l1.56,7.67c-5.59-1.14-11.21-.13-15.87,2.84ZM147.83,243.1l2.88,14.14c-4.61-1.1-9.91-1.76-15.95-1.68l-2.39-9.74c4.57-2.83,10.03-3.79,15.46-2.72ZM126.27,285.19c-3.29-8.79-10.3-16.17-18.84-20.08,1.23-.42,2.41-.8,3.47-1.14,8.14-2.37,15.36-3.5,21.74-3.78.11.02.23.03.35.03.16,0,.32-.02.48-.06.75-.02,1.5-.04,2.23-.04,12.5,0,21.47,3.39,27.47,6.99l.18.12c3.17,2.06,4.95,4.53,5.33,7.34-12.76,7.33-27.71,11.06-42.4,10.62ZM165.64,290c4.65-3.93,7.37-8.74,7.67-13.43.19-.51.21-1.07.01-1.6,0-.03,0-.06,0-.09-.2-3.15-1.66-7.7-7.44-11.46l-.19-.13s-.07-.05-.11-.07c-2.73-1.64-6.02-3.25-9.91-4.56l-.82-4.04s0,0,0,0l-18.33-90.04c2.45.07,4.83.12,7.17.16l41.05,97.34c-5.7,6.93-7.97,14.23-6.09,20.42.97,3.22,3.34,6.98,8.72,9.73.76.76,1.7,1.36,2.77,1.84h-30.5c2.28-1.21,4.31-2.56,6-4.06Z"/><path d="M56.84,294.06h-10.91c-1.26,0-2.29,1.02-2.29,2.29s1.02,2.29,2.29,2.29h10.91c1.26,0,2.29-1.02,2.29-2.29s-1.02-2.29-2.29-2.29Z"/><path d="M180.83,107.78c4.82,1.64,11.13-4.07,14.09-12.75,2.96-8.68,1.45-17.05-3.38-18.7-4.52-1.54-10.33,3.37-13.48,11.13,1.32-.24,2.72-.04,3.96.69,2.75,1.63,3.65,5.17,2.03,7.91-1.63,2.75-5.17,3.65-7.91,2.03-.06-.04-.11-.09-.18-.13.06,4.91,1.78,8.75,4.88,9.81Z"/><path d="M148.52,104.2c4.47,2.44,11.66-2.1,16.06-10.15,4.4-8.05,4.34-16.56-.13-19-4.19-2.29-10.76,1.55-15.19,8.66,1.34,0,2.68.42,3.78,1.36,2.43,2.07,2.72,5.72.64,8.14-2.07,2.43-5.72,2.72-8.14.65-.06-.05-.1-.11-.15-.16-.78,4.85.26,8.93,3.13,10.5Z"/><path d="M147.14,128.72c5.23,1.76,10.71,2.63,16.05,2.63,7.24,0,14.22-1.61,19.99-4.73.39,1.8,1.02,3.27,2.33,5.35.44.69,1.18,1.07,1.94,1.07.42,0,.84-.11,1.22-.35,1.07-.68,1.39-2.09.71-3.16-1.56-2.47-1.81-3.5-2.1-6.48-.15-1.56.14-3.19.83-4.6.55-1.14.08-2.51-1.05-3.06-1.13-.55-2.5-.08-3.06,1.05-.84,1.73-1.27,3.61-1.31,5.52-.35.02-.7.11-1.02.29-8.98,5.17-21.64,5.99-33.06,2.14-8.5-2.87-14.94-8.03-17.79-14.23,1.54-2.37,2.45-5.03,3.16-7.13.41-1.2-.24-2.5-1.43-2.9-1.19-.41-2.5.24-2.9,1.43-1.07,3.15-2.11,5.92-4.02,7.8-1.11,1.1-2.57,1.9-4.09,2.25-1.23.28-2,1.51-1.71,2.75.24,1.06,1.19,1.77,2.23,1.77.17,0,.34-.02.52-.06,1.8-.42,3.48-1.21,4.95-2.31,3.68,6.64,10.55,11.9,19.63,14.97Z"/></g></svg>