<?xml version="1.0" encoding="UTF-8"?><svg id="Layer_2" xmlns="http://www.w3.org/2000/svg" viewBox="0 0 812.64 39.86"><defs><style>.cls-1{fill:#231f20;stroke:#231f20;stroke-miterlimit:10;stroke-width:.8px;}</style></defs><g id="Layer_1-2"><path class="cls-1" d="M12.84,2.23c.57,0,1.49,0,2.74-.03,1.25-.02,2.35-.02,3.32-.02s1.88.03,2.76.1c3.07.2,5.65.56,7.74,1.06,2.29.57,3.97,1.84,5.04,3.8,1.06,1.96,1.17,4.05.33,6.28-.34.95-.69,1.77-1.06,2.48-1.32,2.26-1.25,4.46.2,6.58.74,1.11,1.33,2.28,1.77,3.49.68,1.96.7,3.78.08,5.47-.63,1.69-1.83,3.09-3.62,4.2-1.15.67-2.37,1.17-3.67,1.49-1.3.32-2.71.5-4.23.53-.91.03-2.15.04-3.72.03-1.57-.02-2.81,0-3.72.02-1.72.04-4.2.08-7.44.15-3.24.07-5.13.1-5.67.1-.64,0-1.13-.02-1.47-.05-1.32-.13-1.84-.81-1.57-2.03.51-2.06.72-5.19.66-9.41-.1-8.17-.21-14.34-.3-18.53,0-.61-.17-1.75-.51-3.44-.1-.5-.12-.92-.05-1.24.07-.32.24-.56.53-.73.28-.17.68-.25,1.19-.25.38-.03,2.08-.05,5.12-.05h5.57ZM12.34,15.95c.41.1.83.18,1.27.23.44.05.95.1,1.54.15.59.05,1.02.09,1.29.13.77,0,1.59-.07,2.43-.2,1.52-.2,2.65-.46,3.39-.76,1.08-.4,1.57-1.23,1.47-2.48-.1-1.25-.68-2.04-1.72-2.38-1.05-.34-1.82-.51-2.33-.51-1.65-.1-3.36-.1-5.11,0-1.01.04-1.84.2-2.48.51-1.32.61-1.97,1.48-1.97,2.63,0,1.42.74,2.31,2.22,2.68ZM14.46,29.87h2.58c1.79,0,2.95-.03,3.49-.1.94-.1,1.71-.42,2.3-.96.59-.54.89-1.18.89-1.92.03-1.55-.96-2.51-2.99-2.88-2.63-.51-5.13-.51-7.49,0-.88.17-1.59.52-2.13,1.06s-.81,1.15-.81,1.82c.03.68.32,1.28.86,1.82.54.54,1.23.89,2.08,1.06.33.03.74.07,1.21.1Z"/><path class="cls-1" d="M47.64,2.59c1.62,0,2.48.02,2.58.05,1.38.03,2.38.74,2.99,2.13,1.31,2.87,2.34,5.01,3.09,6.43.47.95,1.17,1.89,2.08,2.84.71.67,1.51,1.02,2.41,1.04.89.02,1.71-.31,2.46-.99.47-.4.79-.78.96-1.11,2.09-3.95,3.42-6.51,4-7.69.47-1.01.97-1.71,1.49-2.1.52-.39,1.32-.58,2.38-.58h3.62c.61,0,1.06.04,1.37.1.74.13,1.2.38,1.37.73s.05.85-.35,1.49c-.34.57-.99,1.62-1.95,3.14-.96,1.52-1.7,2.68-2.2,3.49-2.8,4.72-5.4,9.18-7.79,13.36-1.35,2.4-1.79,5.37-1.31,8.91.03.24.09.56.18.99.08.42.14.72.18.88.13.68.08,1.18-.15,1.52-.24.34-.68.56-1.32.66-.51.07-1.69.08-3.54.05-.14,0-.3,0-.48-.02s-.39-.04-.61-.08c-.22-.03-.4-.05-.53-.05-.68-.07-1.14-.24-1.39-.53-.26-.29-.36-.78-.33-1.49.03-.37.08-1.01.15-1.92.07-.91.1-1.62.1-2.13.1-2.46-.47-4.74-1.72-6.83-.17-.34-1.17-2.08-3.01-5.24-1.84-3.15-3.23-5.54-4.18-7.16-.44-.71-1.15-1.89-2.13-3.54-.98-1.65-1.72-2.92-2.23-3.8-.94-1.62-.47-2.46,1.42-2.53h2.43Z"/><path class="cls-1" d="M141.85,31.39s-.22,3.58-.25,3.75c-.1.61-.28,1.03-.53,1.27-.26.24-.68.35-1.29.35-1.49-.03-3.39.41-5.72,1.32-3.58,1.42-7.27,1.75-11.09.99-3.81-.76-7.11-2.47-9.87-5.14-4.72-4.62-6.21-10.45-4.46-17.46,2.03-8.2,7.65-13.36,16.86-15.49,2.83-.64,6.09-.25,9.77,1.16,2.36.91,4.13,1.4,5.31,1.47.68.03,1.15.19,1.42.48.27.29.41.77.41,1.45-.04,2.09-.12,3.96-.25,5.62-.17,1.52-1,2.07-2.48,1.67-.44-.1-.96-.36-1.57-.76-.27-.17-.7-.46-1.29-.88-.59-.42-1.05-.73-1.39-.94-4.12-2.6-8.25-2.97-12.4-1.11-1.62.71-2.99,1.72-4.1,3.04-1.11,1.32-1.88,2.74-2.3,4.28-.42,1.54-.56,3.14-.41,4.81.15,1.67.6,3.25,1.34,4.73,1.11,2.2,2.65,3.85,4.61,4.96,1.96,1.12,4.05,1.62,6.28,1.52,2.23-.1,4.4-.74,6.53-1.92.4-.23.81-.49,1.22-.76.4-.27.9-.63,1.5-1.09.59-.46.97-.75,1.14-.89.84-.64,1.55-.83,2.13-.56.57.3.88.96.91,1.97v2.18Z"/><path class="cls-1" d="M168.98,24.15c-2.76.27-4.25.42-4.45.46-1.86.27-3.04,1.4-3.54,3.39-.34,1.42-.29,3.53.15,6.33,0,.13.04.4.13.78.08.39.14.7.18.94.07.57-.02,1.03-.26,1.37s-.61.52-1.11.56c-1.52.03-3.54-.05-6.08-.25-.37-.03-.65-.19-.84-.48-.19-.29-.24-.63-.18-1.04.24-1.21.38-2.45.43-3.7.05-1.25.06-2.86.02-4.83-.03-1.97-.05-3.21-.05-3.72,0-3.07-.1-7.93-.3-14.58,0-.27-.14-1.76-.4-4.46-.1-.88,0-1.5.3-1.87.3-.37.88-.57,1.72-.61,1.38-.03,3.17.07,5.37.3.94.07,1.37.73,1.26,1.97-.07,1.08-.19,3.02-.35,5.82,0,.24.02.54.05.91.07,1.11.28,2.02.63,2.73s.87,1.27,1.54,1.67c.67.41,1.57.71,2.68.91,1.99.34,4.49.23,7.49-.3,1.29-.2,2.24-.65,2.89-1.34.64-.69.99-1.66,1.06-2.91.14-1.96.08-4.33-.15-7.14-.1-1.01,0-1.71.28-2.08.28-.37.9-.56,1.85-.56,1.28,0,2.85.08,4.71.25,1.21.13,1.75.86,1.62,2.17-.17,1.65-.27,3.01-.3,4.05-.17,9.31-.23,15.3-.2,17.97,0,1.15.2,4.15.61,9.01.03.44.02.8-.05,1.09-.07.29-.22.51-.45.68-.24.17-.56.25-.96.25-1.68.1-3.58.04-5.67-.2-.51-.03-.84-.19-.98-.48-.15-.29-.2-.77-.13-1.44.17-3.14.23-5.14.2-6.02-.07-1.65-.47-2.89-1.22-3.7-.74-.81-1.94-1.35-3.59-1.62-.47-.07-1.18-.12-2.13-.15-.1,0-1.77-.12-1.77-.15Z"/><path class="cls-1" d="M223.34,2.49c.27,0,.66-.02,1.16-.08.51-.05.88-.08,1.12-.08,1.28-.03,2.13-.02,2.53.05.74.1,1.28.3,1.62.61.34.3.54.81.61,1.52.13,1.55.15,3.09.05,4.61-.07.71-.27,1.17-.61,1.39s-.88.26-1.62.13c-1.89-.34-3.32-.51-4.3-.51-4.09-.06-8.14-.06-12.15,0-1.05,0-2.15.21-3.29.61-1.25.44-1.82,1.37-1.72,2.79.07,1.35.76,2.18,2.08,2.48,1.45.34,2.78.52,4,.56.88,0,2.13-.03,3.74-.1,1.62-.07,2.71-.1,3.29-.1.54-.03,1.38.04,2.53.2,1.08.17,1.67.78,1.77,1.82.14,1.25.15,2.41.05,3.49-.03.37-.15.7-.35.99-.2.29-.47.52-.81.71-.34.19-.69.28-1.06.28-1.05.04-3.56.07-7.54.1-.14,0-.79,0-1.97-.03-1.18-.02-1.84,0-1.98.03-.57.04-1.21.2-1.92.51-1.22.51-1.83,1.37-1.83,2.58,0,.3.05.59.15.86.1.27.23.53.4.76.17.24.38.45.63.63.25.19.51.31.78.38,1.01.3,1.91.44,2.69.4,4.42-.03,9.28-.12,14.58-.25.33,0,.79-.07,1.36-.2.58-.13.93-.2,1.06-.2.74-.14,1.28-.07,1.59.2.32.27.48.76.48,1.47.07,1.38.07,2.82,0,4.3,0,.68-.15,1.18-.45,1.52-.3.34-.79.57-1.47.71-.37.03-.91.05-1.62.05-.54.03-1.84.04-3.9.03-2.06-.02-3.37,0-3.95.02-1.99,0-5.14.04-9.46.1-4.32.07-7.61.12-9.87.15-1.35,0-2.16-.16-2.43-.48-.27-.32-.29-1.16-.05-2.51.27-1.62.42-3.46.46-5.52.1-3.85.1-7.36,0-10.53-.03-1.79-.2-5.84-.51-12.15,0-.44-.09-1.01-.25-1.72-.27-1.01-.26-1.69.02-2.02.28-.34.95-.51,2-.51.54-.03,3.56-.05,9.06-.05h15.29Z"/><path class="cls-1" d="M254.22,2.54c6.08,0,9.42-.02,10.02-.05.71,0,1.73-.03,3.06-.1,1.33-.07,2.23-.1,2.71-.1.61-.03,1.2,0,1.77.1.77.17,1.33.45,1.64.84.32.39.5.99.53,1.8.1,2.36.14,3.75.1,4.15-.1.78-.3,1.25-.58,1.42-.29.17-.84.19-1.65.05-1.72-.3-3.13-.47-4.25-.51-3.37-.07-7.25-.07-11.64,0-1.05,0-2.16.14-3.34.41-.64.17-1.21.49-1.72.96-.64.57-.95,1.22-.94,1.92.02.71.35,1.33.98,1.87.58.47,1.12.74,1.62.81,1.72.27,3.25.41,4.6.41.98,0,2.38-.03,4.2-.08,1.82-.05,2.99-.08,3.49-.08.57,0,1.04.07,1.42.2.67.27,1.06.56,1.16.86.58,1.79.58,3.51,0,5.16-.17.44-.65.79-1.47,1.06-.47.13-1.18.22-2.13.25h-8.56c-.71,0-1.25.02-1.62.05-1.42.2-2.52.73-3.32,1.57-.79.85-1.21,1.98-1.24,3.39,0,1.49.1,3.73.3,6.73.07.71-.02,1.25-.28,1.62-.25.37-.7.57-1.34.61-1.62.13-3.48.15-5.57.05-1.08-.06-1.55-.69-1.42-1.87.27-2.46.43-5.07.48-7.82.05-2.75.04-5.84-.03-9.26-.07-3.42-.1-6.02-.1-7.77.03-.64.02-1.3-.05-1.97-.07-.68-.17-1.52-.3-2.53-.14-1.01-.22-1.67-.26-1.97-.13-1.25.41-1.96,1.62-2.13.3-.03.81-.05,1.52-.05,1.22,0,4.73,0,10.53,0Z"/><path class="cls-1" d="M327.44,24.91c.03-.34.15-2.26.35-5.77-.17-7.39-.29-11.68-.35-12.86,0-.13-.1-.93-.3-2.38-.23-1.42.28-2.16,1.57-2.23,1.72-.1,3.53-.1,5.42,0,.61.04,1.05.21,1.34.53.29.32.4.75.33,1.29-.27,1.79-.43,3.8-.48,6.05-.05,2.24-.04,4.25.03,6.02.07,1.77.05,3.79-.05,6.05-.07,2.09-.28,4.05-.66,5.87-.61,3.27-2.31,5.94-5.12,8-3.1,2.23-6.16,3.29-9.16,3.19-2.8-.1-4.67-.25-5.62-.46-5.16-1.08-8.65-4.2-10.47-9.37-.34-.94-.69-2.53-1.06-4.76-.07-.51-.06-.92.02-1.24.08-.32.28-.56.58-.71.3-.15.72-.23,1.26-.23,1.55-.03,3.09-.03,4.61,0,.71,0,1.19.14,1.44.41.25.27.38.76.38,1.47-.03,2.19.37,3.83,1.21,4.91,1.52,1.89,3.31,2.87,5.36,2.94,2.63.1,4.63-.32,5.97-1.27,1.96-1.38,3.09-3.2,3.39-5.46Z"/><path class="cls-1" d="M373.91,37.97c-2.06-.23-3.17-.35-3.34-.35-1.15-.13-1.92-.74-2.33-1.82-.78-1.99-2.18-3.02-4.2-3.09-3.92-.17-6.65-.22-8.2-.15-2.02.07-3.36,1.06-4,2.99-.54,1.62-1.65,2.4-3.34,2.33-2.56-.1-4-.17-4.3-.2-.88-.1-1.4-.33-1.57-.68s-.09-.92.25-1.7c2.74-6.24,4.44-10.17,5.12-11.79,1.48-3.71,3.49-8.82,6.02-15.34.3-.81.57-1.91.81-3.29.14-.77.38-1.35.74-1.72.35-.37.89-.57,1.59-.61,1.68-.03,3.88.05,6.58.25.47.03.84.22,1.11.55.27.34.42.76.46,1.27.03.44.09.88.18,1.32.08.44.21.94.38,1.49.17.56.3.96.38,1.22.09.25.26.73.53,1.42.27.69.44,1.11.51,1.24,2.46,6.41,3.93,10.21,4.4,11.39.81,1.99,2.62,6.29,5.42,12.91.54,1.28.15,2.02-1.17,2.23-.74.1-1.42.15-2.02.15ZM359.99,18.69c-.58,0-1.09.13-1.54.4-.46.27-.81.65-1.06,1.14-.26.49-.38,1.04-.38,1.65,0,.98.28,1.77.84,2.38.56.61,1.27.89,2.15.86.88,0,1.59-.3,2.13-.89s.82-1.34.86-2.25c0-.37-.05-.73-.15-1.09-.1-.35-.24-.66-.4-.91-.17-.25-.38-.48-.61-.68-.23-.2-.51-.36-.84-.46-.32-.1-.65-.15-.98-.15Z"/><path class="cls-1" d="M386.49,31.03v-10.17c0-6.48-.02-10.09-.05-10.83,0-1.28-.12-2.89-.35-4.81-.1-.91-.02-1.53.23-1.87s.82-.56,1.7-.66c.37-.07.81-.1,1.31-.1,10.46,0,16.61.02,18.43.05,1.65.03,3.61.3,5.87.81,2.97.71,4.89,2.6,5.77,5.67.61,2.2.74,4.2.4,6.02-.5,2.87-1.97,5.1-4.4,6.68-.13.1-.47.32-1.01.66-2.8,1.76-3.48,4.12-2.03,7.09.17.3,1.15,2.13,2.94,5.47.07.07.14.16.2.28.06.12.14.23.2.33.07.1.12.2.15.3.44.98.14,1.59-.91,1.82-.64.13-1.38.2-2.23.2-.4,0-.95-.03-1.64-.08-.69-.05-1.14-.09-1.34-.12-.84-.03-1.45-.19-1.82-.46-.37-.27-.69-.79-.96-1.57-1.08-3.14-2.7-6.19-4.86-9.16-1.01-1.38-2.31-2.07-3.9-2.07s-2.67.72-3.24,2.18c-.37.91-.56,1.74-.56,2.48,0,1.75.08,3.86.25,6.33.1,1.35-.42,2.07-1.57,2.18-1.59.13-3.44.15-5.57.05-.91-.03-1.33-.69-1.26-1.97.13-2.46.22-4.03.25-4.71ZM399.3,16.36c.13.04,1.08.05,2.83.05.34-.04,1.07-.08,2.2-.13,1.13-.05,2-.12,2.6-.23.81-.17,1.43-.5,1.87-.99.44-.49.65-1.08.63-1.77-.02-.69-.26-1.28-.71-1.77-.46-.49-1.11-.83-1.95-1.04-.27-.03-.45-.05-.56-.05-3.95-.14-6.38-.21-7.29-.21-.58,0-1.18.17-1.83.51-1.14.57-1.72,1.42-1.72,2.53,0,1.21.56,2.06,1.67,2.53.68.3,1.42.49,2.23.56Z"/><path class="cls-1" d="M455.9,2.49c.27,0,.65-.02,1.16-.08.51-.05.88-.08,1.12-.08,1.28-.03,2.13-.02,2.53.05.74.1,1.28.3,1.62.61s.54.81.61,1.52c.13,1.55.15,3.09.05,4.61-.07.71-.27,1.17-.61,1.39-.34.22-.88.26-1.62.13-1.89-.34-3.32-.51-4.3-.51-4.09-.06-8.14-.06-12.15,0-1.05,0-2.15.21-3.29.61-1.25.44-1.82,1.37-1.72,2.79.07,1.35.76,2.18,2.08,2.48,1.45.34,2.79.52,4,.56.88,0,2.13-.03,3.74-.1,1.62-.07,2.71-.1,3.29-.1.54-.03,1.38.04,2.53.2,1.08.17,1.67.78,1.77,1.82.14,1.25.15,2.41.05,3.49-.03.37-.15.7-.35.99-.2.29-.47.52-.81.71-.34.19-.69.28-1.06.28-1.05.04-3.56.07-7.54.1-.14,0-.79,0-1.97-.03-1.18-.02-1.84,0-1.98.03-.57.04-1.21.2-1.92.51-1.21.51-1.82,1.37-1.82,2.58,0,.3.05.59.15.86.1.27.24.53.4.76.17.24.38.45.63.63.25.19.51.31.78.38,1.01.3,1.91.44,2.69.4,4.42-.03,9.28-.12,14.58-.25.33,0,.79-.07,1.36-.2.58-.13.93-.2,1.06-.2.74-.14,1.28-.07,1.59.2.32.27.48.76.48,1.47.07,1.38.07,2.82,0,4.3,0,.68-.15,1.18-.45,1.52-.3.34-.79.57-1.47.71-.37.03-.91.05-1.62.05-.54.03-1.84.04-3.9.03-2.06-.02-3.37,0-3.95.02-1.99,0-5.14.04-9.46.1-4.32.07-7.61.12-9.87.15-1.35,0-2.16-.16-2.43-.48-.27-.32-.29-1.16-.05-2.51.27-1.62.42-3.46.46-5.52.1-3.85.1-7.36,0-10.53-.03-1.79-.2-5.84-.51-12.15,0-.44-.09-1.01-.25-1.72-.27-1.01-.26-1.69.02-2.02.28-.34.95-.51,2-.51.54-.03,3.56-.05,9.06-.05h15.29Z"/><path class="cls-1" d="M481.02,29.21c.03.41.07.84.13,1.29.05.46.09.89.12,1.32.03.42.07.85.1,1.27.03.42.07.86.13,1.32.05.46.09.88.12,1.29.07.54.07.97,0,1.29-.07.32-.24.56-.53.71-.28.15-.7.23-1.24.23-1.52.07-3.11.07-4.76,0-1.38-.07-1.97-.78-1.77-2.13.27-1.69.43-3.46.48-5.31.05-1.86.05-3.98,0-6.38s-.08-4.17-.08-5.31c.03-1.55-.05-4.25-.25-8.1-.07-1.75-.2-3.54-.4-5.37-.1-.88-.02-1.47.25-1.79.27-.32.83-.48,1.67-.48,1.89-.04,3.59-.04,5.11,0,.71.03,1.24.19,1.59.48.35.29.58.75.68,1.39.2,1.45.82,2.78,1.87,4,2.53,2.9,4.94,5.64,7.24,8.2.77.84,1.64,1.28,2.58,1.32,2.06.13,3.19-.69,3.39-2.48.2-1.58.28-3.96.25-7.14,0-.37-.02-.76-.07-1.16-.05-.41-.12-.87-.21-1.39-.08-.52-.14-.92-.18-1.19-.07-.44-.06-.8.02-1.09.09-.29.25-.51.48-.66.23-.15.57-.23,1.01-.23,1.69-.1,3.44-.1,5.26,0,.61,0,1.04.14,1.29.43.26.29.36.75.33,1.39-.1,8.5-.19,14.09-.25,16.76,0,.44-.04,1.35-.13,2.73-.09,1.38-.11,2.45-.07,3.19.07,1.82.28,4.56.65,8.2.07.74-.02,1.28-.28,1.62-.26.34-.73.5-1.44.5-1.72.04-3.53.04-5.42,0-1.18-.03-1.86-.55-2.03-1.57-.27-1.65-1.18-3.32-2.73-5.01-.58-.64-1.58-1.75-3.02-3.34-1.43-1.59-2.55-2.82-3.36-3.7-.3-.34-.68-.66-1.11-.96-1.15-.81-2.25-1-3.32-.58-1.06.42-1.71,1.32-1.95,2.71-.07.37-.11.76-.13,1.16s-.03.88-.05,1.42c-.02.54-.03.93-.03,1.16Z"/><path class="cls-1" d="M547.23,2.54c1.42.03,2.51.76,3.29,2.18.51.98,1.94,3.31,4.3,6.98.17.2.51.56,1.01,1.06.77.74,1.68,1.12,2.71,1.14,1.03.02,1.92-.35,2.66-1.09,2.26-2.29,4.02-4.99,5.26-8.1.17-.44.33-.79.48-1.04s.35-.47.58-.66c.23-.19.51-.32.81-.4.3-.08.67-.13,1.11-.13,1.96,0,3.76.02,5.42.05.71,0,1.24.08,1.59.25.35.17.59.46.71.86.12.41.11.95-.02,1.62-.2,1.38-.3,2.6-.3,3.64-.03,9.04-.03,16.08,0,21.11,0,1.21.19,3.09.56,5.62.14.81.08,1.38-.18,1.72-.25.34-.78.52-1.59.56-1.59.07-3.16.07-4.71,0-.74-.03-1.26-.23-1.54-.58-.29-.35-.37-.89-.23-1.59.51-3,.52-6.56.05-10.68-.07-.61-.26-1.2-.56-1.77-.44-.78-1.03-1.26-1.8-1.44-.76-.19-1.51-.03-2.25.48-.57.44-1.4,1.26-2.48,2.48-.2.27-.44.58-.71.94-.27.36-.54.7-.81,1.04-.27.34-.51.64-.71.91-.58.61-1.08.9-1.52.88-.44-.02-.93-.36-1.47-1.04-.27-.37-.68-.92-1.21-1.64-.54-.73-.95-1.26-1.21-1.6-.58-.74-1.1-1.3-1.57-1.67-1.05-.94-2.12-1.23-3.21-.86-1.1.37-1.78,1.25-2.05,2.63-.51,2.73-.47,6.01.1,9.82.04.17.09.43.15.78.07.36.1.63.1.84.1.71.03,1.22-.2,1.54-.24.32-.69.5-1.37.53-1.65.07-3.22.07-4.71,0-.81-.07-1.36-.28-1.64-.63-.29-.36-.4-.94-.33-1.75.17-2.9.25-5.43.25-7.59.07-4.02.07-8.03,0-12.05-.03-1.96-.12-4.93-.25-8.91-.03-.2-.15-.91-.35-2.13-.17-.91-.13-1.53.13-1.85.25-.32.83-.5,1.75-.53.13,0,5.84.05,5.97.05Z"/><path class="cls-1" d="M588.12,26.83c-.1-.44-.2-.93-.3-1.47-.3-1.69-.39-3.48-.25-5.37.27-3.34.86-6.01,1.77-8,1.59-3.48,4.08-6.31,7.49-8.5,3.11-1.92,6.43-2.95,9.97-3.09,5.26-.17,9.47,1.77,12.6,5.82,1.82,2.36,3.05,5.52,3.7,9.46.57,3.34.49,6.67-.26,9.97-.81,3.65-2.54,6.57-5.19,8.78-2.65,2.21-5.9,3.55-9.75,4.02-2.9.4-5.75.2-8.55-.61-5.84-1.65-9.58-5.33-11.24-11.04ZM610.7,29.47c2.74-2.5,4.03-5.5,3.9-9.01-.03-.51-.03-.96,0-1.37.07-2.6-.45-4.98-1.57-7.14-1.38-2.63-3.27-4.15-5.67-4.56-3.37-.57-6.17.59-8.4,3.49-1.55,2.03-2.48,4.99-2.78,8.91-.21,2.57.1,4.78.91,6.63,1.21,2.87,3.17,4.62,5.87,5.26,2.77.71,5.35-.04,7.74-2.23Z"/><path class="cls-1" d="M634.18,31.03v-10.17c0-6.48-.02-10.09-.05-10.83,0-1.28-.12-2.89-.35-4.81-.1-.91-.02-1.53.23-1.87s.82-.56,1.7-.66c.37-.07.81-.1,1.31-.1,10.46,0,16.61.02,18.43.05,1.65.03,3.61.3,5.87.81,2.97.71,4.89,2.6,5.77,5.67.61,2.2.74,4.2.4,6.02-.5,2.87-1.97,5.1-4.4,6.68-.13.1-.47.32-1.01.66-2.8,1.76-3.48,4.12-2.03,7.09.17.3,1.15,2.13,2.94,5.47.07.07.14.16.2.28.06.12.14.23.2.33.07.1.12.2.15.3.44.98.14,1.59-.91,1.82-.64.13-1.38.2-2.23.2-.4,0-.95-.03-1.64-.08-.69-.05-1.14-.09-1.34-.12-.84-.03-1.45-.19-1.82-.46-.37-.27-.69-.79-.96-1.57-1.08-3.14-2.7-6.19-4.86-9.16-1.01-1.38-2.31-2.07-3.9-2.07s-2.67.72-3.24,2.18c-.37.91-.56,1.74-.56,2.48,0,1.75.08,3.86.25,6.33.1,1.35-.42,2.07-1.57,2.18-1.59.13-3.44.15-5.56.05-.91-.03-1.33-.69-1.26-1.97.13-2.46.22-4.03.25-4.71ZM646.99,16.36c.13.04,1.08.05,2.83.05.34-.04,1.07-.08,2.2-.13,1.13-.05,2-.12,2.6-.23.81-.17,1.43-.5,1.88-.99.44-.49.65-1.08.63-1.77-.02-.69-.26-1.28-.71-1.77-.46-.49-1.11-.83-1.95-1.04-.27-.03-.45-.05-.56-.05-3.95-.14-6.38-.21-7.29-.21-.58,0-1.18.17-1.83.51-1.14.57-1.72,1.42-1.72,2.53,0,1.21.56,2.06,1.67,2.53.68.3,1.42.49,2.23.56Z"/><path class="cls-1" d="M677.73,31.03v-10.17c0-6.48-.02-10.09-.05-10.83,0-1.28-.12-2.89-.35-4.81-.1-.91-.02-1.53.23-1.87s.82-.56,1.7-.66c.37-.07.81-.1,1.31-.1,10.46,0,16.61.02,18.43.05,1.65.03,3.61.3,5.87.81,2.97.71,4.89,2.6,5.77,5.67.61,2.2.74,4.2.4,6.02-.5,2.87-1.97,5.1-4.4,6.68-.13.1-.47.32-1.01.66-2.8,1.76-3.48,4.12-2.03,7.09.17.3,1.15,2.13,2.94,5.47.07.07.14.16.2.28.06.12.14.23.2.33.07.1.12.2.15.3.44.98.14,1.59-.91,1.82-.64.13-1.38.2-2.23.2-.4,0-.95-.03-1.64-.08-.69-.05-1.14-.09-1.34-.12-.84-.03-1.45-.19-1.82-.46-.37-.27-.69-.79-.96-1.57-1.08-3.14-2.7-6.19-4.86-9.16-1.01-1.38-2.31-2.07-3.9-2.07s-2.67.72-3.24,2.18c-.37.91-.56,1.74-.56,2.48,0,1.75.08,3.86.25,6.33.1,1.35-.42,2.07-1.57,2.18-1.59.13-3.44.15-5.56.05-.91-.03-1.33-.69-1.26-1.97.13-2.46.22-4.03.25-4.71ZM690.54,16.36c.13.04,1.08.05,2.83.05.34-.04,1.07-.08,2.2-.13,1.13-.05,2-.12,2.6-.23.81-.17,1.43-.5,1.88-.99.44-.49.65-1.08.63-1.77-.02-.69-.26-1.28-.71-1.77-.46-.49-1.11-.83-1.95-1.04-.27-.03-.45-.05-.56-.05-3.95-.14-6.38-.21-7.29-.21-.58,0-1.18.17-1.82.51-1.14.57-1.72,1.42-1.72,2.53,0,1.21.56,2.06,1.67,2.53.68.3,1.42.49,2.23.56Z"/><path class="cls-1" d="M720.35,26.83c-.1-.44-.2-.93-.3-1.47-.3-1.69-.39-3.48-.25-5.37.27-3.34.86-6.01,1.77-8,1.59-3.48,4.08-6.31,7.49-8.5,3.11-1.92,6.43-2.95,9.97-3.09,5.26-.17,9.47,1.77,12.6,5.82,1.82,2.36,3.05,5.52,3.7,9.46.57,3.34.49,6.67-.26,9.97-.81,3.65-2.54,6.57-5.19,8.78-2.65,2.21-5.9,3.55-9.75,4.02-2.9.4-5.75.2-8.55-.61-5.84-1.65-9.58-5.33-11.24-11.04ZM742.92,29.47c2.74-2.5,4.03-5.5,3.9-9.01-.03-.51-.03-.96,0-1.37.07-2.6-.45-4.98-1.57-7.14-1.38-2.63-3.27-4.15-5.67-4.56-3.37-.57-6.17.59-8.4,3.49-1.55,2.03-2.48,4.99-2.78,8.91-.21,2.57.1,4.78.91,6.63,1.21,2.87,3.17,4.62,5.87,5.26,2.77.71,5.35-.04,7.74-2.23Z"/><path class="cls-1" d="M770.28,2.49c.74.1,1.25.3,1.52.58.27.29.47.82.61,1.59.68,3.88,1.03,5.87,1.06,5.97.24,1.05.62,2.16,1.17,3.34.54,1.18,1.42,1.79,2.63,1.82,1.04.03,1.87-.56,2.48-1.77.44-.84.74-1.59.91-2.23.51-2.16.99-4.46,1.47-6.88.2-1.01.51-1.7.91-2.05.41-.36,1.1-.53,2.08-.53,1.55,0,3.66.1,6.33.3,1.05.07,1.69.76,1.92,2.08.64,3.34,1.23,6.16,1.77,8.45.17.74.52,1.47,1.06,2.18.58.74,1.31,1.09,2.2,1.04.89-.05,1.61-.46,2.15-1.24.44-.64.71-1.22.81-1.72.98-3.98,1.57-6.67,1.77-8.05.23-1.38.53-2.24.89-2.58.35-.34,1.22-.49,2.61-.46,1.59,0,2.99.09,4.2.25.64.07,1.06.27,1.26.61.2.34.2.83,0,1.47-.27.98-.67,2.35-1.19,4.12-.52,1.77-1,3.39-1.42,4.86-.42,1.47-.82,2.84-1.19,4.12-.88,3.17-2.21,8.18-4,15.03-.1.41-.23,1.25-.4,2.53-.1.91-.36,1.58-.78,2-.42.42-1.09.63-2,.63-1.79,0-4-.1-6.63-.3-1.01-.07-1.64-.78-1.87-2.13-.54-2.73-1.1-5.37-1.67-7.9-.17-.71-.47-1.37-.91-1.97-.68-.91-1.53-1.32-2.55-1.22-1.03.1-1.8.66-2.3,1.67-1.08,2.3-1.86,5.11-2.33,8.45,0,.07-.02.26-.05.58s-.07.57-.1.73c-.17.68-.4,1.15-.71,1.42-.3.27-.77.4-1.42.4-2.36.07-4.49.07-6.38,0-.4,0-.75-.04-1.04-.12s-.53-.23-.73-.43c-.2-.21-.35-.45-.46-.74-.1-.29-.19-.65-.25-1.09-.3-2.06-.64-3.83-1.01-5.31-1.45-5.4-3.54-13.11-6.28-23.13-.1-.3-.26-.74-.48-1.32-.22-.57-.35-.93-.38-1.06-.44-1.25,0-1.97,1.31-2.18h.4c.2,0,4.88.12,5.01.15Z"/></g></svg>