<?xml version="1.0" encoding="UTF-8"?><svg id="Layer_2" xmlns="http://www.w3.org/2000/svg" viewBox="0 0 328.04 418.07"><defs><style>.cls-1{fill:#fff;}</style></defs><g id="Layer_1-2"><path class="cls-1" d="M16.19,412.8H7.82c-1.4,0-2.54,1.14-2.54,2.54s1.14,2.54,2.54,2.54h8.37c1.4,0,2.54-1.14,2.54-2.54s-1.14-2.54-2.54-2.54Z"/><path class="cls-1" d="M327.79,161.61c-.63-2.69-3.17-4.69-6.2-4.87-.3-.02-.64-.01-1.01.02.53-1.07.87-2.23.82-3.52-.07-1.77-.8-3.36-2.01-4.35-1.45-1.2-3.17-1.67-4.96-1.37-1.65.28-3.3,1.22-4.96,2.77-.71-2.95-2.52-6.15-5.84-6.36-2.19-.13-3.95.38-5.23,1.56-2.02,1.86-2.07,4.69-2.1,6.38,0,.23,0,.44-.02.64-.06,1.41-.19,2.64-.4,3.74-.12.64-.2,1.29-.29,1.95-.09.7-.19,1.34-.31,1.94-1.8-2-4.65-4.39-8.02-2.64-3.36,1.74-3.58,5.41-3.19,7.3.37,1.76,1.79,3.05,2.93,4.1.4.37.82.75,1.02,1l.24.3c.22.27.44.54.52.71.05.12.16.48-.02,1.3-.09.41-.22.81-.34,1.21-.17.54-.33,1.08-.46,1.63-.39,1.77-.33,3.61.13,5.35-1.09.64-2.01,1.58-2.59,2.8-.77,1.61-.84,3.49-.2,5.15.47,1.21,1.3,2.25,2.36,2.99-7.24,9.09-21.73,23.09-28.48,27.98-2.03-14.26-7.62-28.66-16.53-41.6-7.08-10.29-16.75-18.04-26.09-25.55-1.72-1.38-3.44-2.76-5.15-4.16-1.96-1.61-4-3.15-5.97-4.63-5.99-4.52-11.64-8.79-15.45-14.95-7.68-12.43-11.91-32.9-3.05-48.49.38-.67.43-1.48.13-2.19-.3-.71-.91-1.24-1.66-1.44-.19-.05-1.81-.47-4.22-1.05.37-.34.64-.79.74-1.32.97-4.81,4.36-16.21,15.04-18.11,1.1-.21,2.2-.28,3.26-.23.08,0,.16,0,.24,0,2.19-.1,4.83,1.38,7.17,2.68,3.33,1.85,8.35,4.64,11.11-.13.04-.08.09-.16.12-.24,2.35-5.33,2.4-12.39.14-17.98-1.78-4.39-4.77-7.55-8.68-9.14-8.72-3.41-17.62,1.43-24.39,6.03-5.4,3.62-9.93,7.7-13.6,12.23-.21-1.55-.07-3.14.45-4.6,1.01-2.81,3.24-5.12,5.61-7.56.81-.83,1.62-1.67,2.38-2.52,3.21-3.58,7.16-9.38,7.78-16.59.6-6.88-2.31-13.65-7.41-17.24-.88-.62-2.07-.6-2.93.05-.86.65-1.2,1.79-.84,2.81.76,2.15.38,4.93-1.06,7.62-1.25,2.35-3.06,4.41-4.98,6.58l-.75.85c-7.89,9.02-12.92,17.11-15.81,25.44-1.99,5.72-2.86,11.48-2.64,16.96-.49-.25-.97-.5-1.51-.74-6.4-2.83-13.07-5.24-19.8-7.14-1.2-.34-2.47.27-2.96,1.42-.49,1.15-.05,2.48,1.03,3.12,3.44,2.02,5.59,5.69,7.87,9.57,1.32,2.25,2.68,4.55,4.35,6.65-2.93.62-4.96,1.14-5.19,1.2-.65.17-1.21.6-1.54,1.19-.03.05-.04.09-.06.14-2.78.6-4.62,1.08-4.62,1.08,3.1,10.28,6.16,36.46-1.91,47.69-7.72,10.73-19.28,17.08-30.08,24.19-12.01,7.9-23.93,15.95-33.89,26.43-19.81,20.83-26.91,50.53-20.75,77.58-6.87,9.46-14.04,22.44-17.28,34.92-2.67.24-5.02,2.1-5.72,4.82-.45,1.73-.16,3.58.79,5.09.05.08.12.14.17.22-2.26.83-4.95,1.73-7.63,2.28-6.62,1.36-9.05,4.95-9.12,7.86-.05,2.2,1.16,4.14,3.21,5.42-.61.72-1.06,1.29-1.46,1.79-.75.95-1.29,1.64-2.66,2.93-1.12,1.11-2.51,2.48-3.06,4.42-.64,2.05-.2,4.13,1.2,5.71,1.21,1.36,2.98,2.12,4.79,2.12.39,0,.79-.04,1.18-.11,1.33-.23,2.42-.54,3.35-.93-.19,3.18.38,6.42,3.05,7.85.86.51,1.83.76,2.81.76s2.03-.27,2.95-.8c1.53-.88,2.47-2.23,3.13-3.63.63.94,1.4,1.74,2.28,2.29.94.58,1.97.87,3.02.87,1.29,0,2.62-.44,3.89-1.31.07-.05.14-.1.21-.16,2.13-1.83,2.55-4.6,2.68-6.57.1-1.95,0-3.64-.08-5.12-.07-1.17-.13-2.26-.09-3.39,1.3.78,2.72,1.38,4.26,1.38.43,0,.86-.05,1.31-.15,2.97-.58,5.12-3.38,4.91-6.43-.32-3.98-3.19-6.33-5.51-8.22-.17-.14-.34-.29-.52-.43.48-1.58.7-2.87.67-3.97,1.83-.76,3.29-2.32,3.82-4.36.45-1.73.16-3.58-.79-5.09-.51-.81-1.2-1.48-1.99-1.99,2.19-5.68,5.68-12.67,9.15-18.86,2.93,5.78,6.56,11.27,10.92,16.32,5.76,6.66,12.7,12.57,20.44,16.81,7.89,4.32,16.22,9.65,24.85,12.5,1.02.46,2.05.89,3.09,1.29,1.76,1.21,2.84,3.25,1.95,5.19-.43.94-1.27,5.96-.89,6.93h.01c-.01.51.02,1.03.16,1.57.73,2.42,2.77,4.04,4.93,5.11-2.29,8.03-2.47,16.39-.54,26.06,1.19,7.21,2.59,14.45,3.95,21.46.35,1.82.7,3.64,1.05,5.46-8.67-2.94-16.86-3.61-24.4-1.98l-.22.04c-8.39,1.53-25.12,10.08-25.96,20.36-.02.2,0,.4.02.59.17,1.05.52,1.93.99,2.68H29.03c-1.4,0-2.54,1.14-2.54,2.54s1.14,2.54,2.54,2.54h65.48c2.57.08,5.17.13,7.81.13,2.36,0,4.75-.04,7.15-.13h158.76c1.4,0,2.54-1.14,2.54-2.54s-1.14-2.54-2.54-2.54h-25.45c1.85-1.33,3.31-2.98,4.04-5.01,1.74-4.84-1.12-10.16-7.85-14.6-8.39-5.54-26.21-6.61-38.91-2.34-.15.05-.29.1-.43.16-.01-.13-.03-.26-.06-.39-2.89-10.78-5.74-19.68-10.97-30.71-3.38-7.13-8.19-16.17-15.42-23.24,1.72-1.38,2.93-3.29,2.77-5.28-.08-.96-.63-3.15-3.83-3.97-.2-1.85-.22-3.58.62-4.41.5-.5,1.51-.81,2.4-1.09,18.67-5.81,63.81-23.6,79.82-63.33,2.71-6.72,4.31-13.93,4.87-21.38,11.06-5.4,32.52-23.03,42.48-40.55,2.21-.21,4.24-1.53,5.26-3.66.74-1.54.81-3.32.26-4.93,2.33-1.44,3.46-3.5,4.45-5.34.48-.89.93-1.73,1.51-2.52.22-.3.43-.6.65-.9.25-.36.5-.72.77-1.06.65-.85,1.41-1.65,2.26-2.54,1.31-1.37,2.41-2.36,3.58-3.4.92-.83,1.88-1.69,3-2.78.17-.17.38-.34.59-.53,1.42-1.22,4.06-3.48,3.16-7.38ZM173.6,363.17c.78,1.9,1.61,4.03,2.45,6.29.03.45.19.89.47,1.28.89,2.4,1.79,4.93,2.68,7.52.04.28.14.56.28.82,2.75,8.1,5.3,16.63,6.68,23.13-.05.14-.11.28-.16.42-1.4,4-.13,6.79,1.18,8.44.51.64,1.14,1.22,1.85,1.75h-53.97c1.32-1,2.42-2.2,3.12-3.56,1.31-2.54,1.14-5.4-.49-8.08-.17-.26-.37-.5-.57-.75.04-.29.03-.59-.04-.89-1.82-7.55-2.89-15.42-3.91-23.03-.34-2.5-.68-5-1.05-7.55l-.19-1.14c-.25-1.49-.48-2.89-.68-4.24.02-.34-.03-.68-.15-1.01-1.11-7.89-.87-13.59,4.89-20.57.25-.3.4-.64.49-.99,1.07.02,2.15.04,3.22.04,4.72,0,9.43-.14,14.07-.29l3.92-.12c.88-.06,1.73-.13,2.57-.2,6.39,6.9,10.48,15.77,13.33,22.74Z"/><path d="M16.19,412.8H7.82c-1.4,0-2.54,1.14-2.54,2.54s1.14,2.54,2.54,2.54h8.37c1.4,0,2.54-1.14,2.54-2.54s-1.14-2.54-2.54-2.54Z"/><path d="M173.67,249.93c-1.28-.71-2-2.52-1.58-3.96.39-1.35-.38-2.76-1.72-3.15-1.35-.39-2.76.38-3.15,1.72-.43,1.48-.41,3.03-.04,4.48-2,2.8-5.09,4.65-8.64,5.12-4.04.54-8.15-.8-10.99-3.57.11-.64.2-1.28.23-1.92.05-1.4-1.04-2.58-2.44-2.63-1.45-.04-2.58,1.04-2.63,2.44-.08,2.25-1.05,4.44-2.64,6.02-1,.99-1,2.59-.02,3.59.5.5,1.15.75,1.8.75s1.29-.24,1.79-.74c.76-.75,1.41-1.6,1.98-2.5,3.17,2.42,7.13,3.75,11.17,3.75.8,0,1.61-.05,2.42-.16,4.26-.56,8.04-2.57,10.81-5.61.37.3.76.57,1.18.8.39.22.81.32,1.23.32.89,0,1.76-.47,2.22-1.31.68-1.23.24-2.77-.99-3.45Z"/><path d="M327.85,161.6c-.63-2.71-3.2-4.73-6.25-4.91-.28-.02-.59,0-.93.02.5-1.06.84-2.21.79-3.46-.07-1.78-.81-3.39-2.03-4.39-1.47-1.21-3.19-1.69-5.01-1.39-1.63.27-3.28,1.19-4.92,2.72-.73-2.94-2.55-6.09-5.87-6.31-2.2-.15-3.98.38-5.27,1.57-2.04,1.88-2.09,4.72-2.12,6.42,0,.23,0,.44-.02.64-.06,1.41-.19,2.63-.4,3.73-.12.64-.21,1.29-.29,1.95-.09.66-.18,1.26-.29,1.83-1.82-1.99-4.65-4.31-8.01-2.57-2.96,1.54-3.75,4.8-3.21,7.36.37,1.77,1.8,3.07,2.95,4.12.4.37.82.75,1.02,1l.23.29c.22.27.44.54.52.71.04.09.16.44-.03,1.27-.09.41-.22.81-.34,1.21-.17.54-.33,1.08-.46,1.63-.39,1.77-.33,3.6.12,5.33-1.08.64-2,1.59-2.58,2.8-.77,1.62-.85,3.52-.2,5.19.47,1.21,1.3,2.24,2.34,2.98-7.21,9.05-21.6,22.95-28.36,27.88-2.04-14.24-7.63-28.61-16.52-41.53-7.09-10.29-16.75-18.05-26.1-25.56-1.72-1.38-3.44-2.76-5.15-4.16-1.96-1.61-4-3.15-5.97-4.64-5.98-4.52-11.63-8.78-15.43-14.94-7.67-12.42-11.9-32.87-3.05-48.43.39-.69.44-1.51.13-2.24-.31-.73-.93-1.27-1.69-1.47-.19-.05-1.77-.46-4.12-1.03.34-.34.59-.77.69-1.28.96-4.8,4.35-16.18,14.99-18.07,1.1-.21,2.19-.28,3.25-.23.08,0,.16,0,.24,0,2.15-.09,4.8,1.38,7.14,2.67,3.35,1.86,8.4,4.66,11.18-.15.05-.08.09-.16.13-.25,2.35-5.34,2.41-12.42.14-18.02-1.78-4.41-4.78-7.58-8.71-9.18-8.75-3.42-17.66,1.43-24.44,6.03-5.37,3.59-9.88,7.65-13.54,12.14-.18-1.5-.04-3.04.46-4.45,1-2.8,3.24-5.1,5.6-7.54.81-.83,1.62-1.67,2.38-2.52,3.21-3.59,7.17-9.39,7.8-16.63.6-6.9-2.32-13.69-7.43-17.29-.9-.64-2.11-.62-3,.05-.88.67-1.23,1.83-.86,2.87.76,2.14.37,4.9-1.05,7.58-1.24,2.34-3.05,4.4-4.97,6.57l-.75.85c-7.9,9.03-12.93,17.12-15.82,25.46-1.98,5.7-2.85,11.42-2.65,16.89-.46-.24-.92-.47-1.43-.7-6.4-2.84-13.07-5.24-19.81-7.15-1.23-.35-2.52.27-3.02,1.45-.5,1.17-.05,2.54,1.05,3.19,3.43,2.02,5.58,5.68,7.85,9.55,1.31,2.23,2.66,4.51,4.3,6.59-2.89.61-4.88,1.13-5.11,1.19-.67.17-1.24.61-1.58,1.21-.03.06-.05.12-.08.18-2.74.59-4.56,1.06-4.56,1.06,3.1,10.28,6.16,36.46-1.91,47.69-7.72,10.73-19.28,17.08-30.08,24.19-12.01,7.9-23.93,15.95-33.89,26.43-19.79,20.81-26.89,50.48-20.76,77.5-6.88,9.46-14.05,22.46-17.31,34.94-2.68.26-5.03,2.13-5.73,4.86-.45,1.74-.16,3.61.8,5.14.04.06.09.1.13.16-2.24.82-4.91,1.71-7.55,2.25-6.65,1.37-9.09,4.98-9.16,7.91-.05,2.2,1.15,4.14,3.18,5.43-.59.7-1.03,1.25-1.41,1.74-.74.95-1.28,1.63-2.66,2.93-1.13,1.11-2.52,2.5-3.08,4.45-.65,2.07-.2,4.17,1.21,5.76,1.22,1.37,3.01,2.14,4.83,2.14.4,0,.8-.04,1.19-.11,1.3-.22,2.37-.53,3.28-.9-.17,3.17.41,6.39,3.09,7.81.87.51,1.85.77,2.84.77,1.02,0,2.05-.27,2.97-.81,1.52-.86,2.45-2.2,3.11-3.57.63.92,1.38,1.69,2.25,2.23.95.59,1.99.88,3.05.88,1.3,0,2.65-.44,3.92-1.32.08-.05.15-.11.22-.17,2.14-1.84,2.57-4.63,2.7-6.61.1-1.96,0-3.64-.08-5.13-.07-1.17-.13-2.22-.1-3.29,1.28.76,2.69,1.35,4.21,1.35.43,0,.87-.05,1.32-.15,2.99-.59,5.16-3.41,4.95-6.49-.32-4.01-3.21-6.36-5.53-8.26-.16-.13-.32-.27-.49-.41.47-1.55.69-2.82.66-3.92,1.82-.77,3.29-2.33,3.82-4.38.45-1.74.16-3.61-.8-5.14-.5-.8-1.18-1.47-1.97-1.98,2.18-5.66,5.66-12.62,9.1-18.78,2.92,5.76,6.54,11.23,10.89,16.27,5.76,6.66,12.7,12.57,20.44,16.81,7.7,4.22,15.83,9.4,24.25,12.29,1.28.59,2.58,1.12,3.88,1.63,1.65,1.22,2.62,3.19,1.76,5.06-.42.91-1.2,5.58-.92,6.79-.03.56,0,1.13.16,1.72.73,2.43,2.76,4.04,4.92,5.12-2.28,8.03-2.45,16.38-.53,26.04,1.19,7.21,2.59,14.46,3.95,21.46.35,1.79.69,3.58,1.03,5.36-8.64-2.92-16.81-3.58-24.34-1.95l-.22.05c-8.41,1.53-25.16,10.1-26,20.41-.02.2,0,.41.02.61.17,1.05.51,1.92.98,2.67H29.03c-1.4,0-2.54,1.14-2.54,2.54s1.14,2.54,2.54,2.54h63.62c3.16.11,6.4.19,9.68.19,2.84,0,5.72-.06,8.6-.19h101.12c.82.02,1.63.03,2.44.03.88,0,1.75-.01,2.6-.03h51.16c1.4,0,2.54-1.14,2.54-2.54s-1.14-2.54-2.54-2.54h-25.36c1.83-1.33,3.28-2.98,4-4.99,1.75-4.86-1.12-10.21-7.87-14.67-8.41-5.55-26.25-6.62-38.96-2.34-.13.04-.24.1-.37.14-.01-.11-.03-.23-.06-.34-2.9-10.79-5.74-19.69-10.98-30.72-3.38-7.12-8.18-16.14-15.39-23.21,1.7-1.39,2.91-3.3,2.74-5.29-.08-.97-.63-3.17-3.83-4.01-.19-1.75-.21-3.53.6-4.32.5-.49,1.5-.8,2.38-1.07,17.52-5.45,33.71-13.4,46.83-22.99,15.76-11.52,26.87-25.1,33.02-40.37,2.71-6.72,4.31-13.92,4.87-21.36,11.07-5.41,32.5-23.02,42.46-40.54,2.21-.22,4.26-1.55,5.28-3.69.74-1.54.82-3.32.27-4.93,2.32-1.44,3.45-3.5,4.43-5.34.48-.89.93-1.73,1.5-2.51.22-.3.43-.6.64-.9.25-.36.51-.72.77-1.07.65-.84,1.4-1.65,2.26-2.54,1.31-1.36,2.41-2.35,3.57-3.4.93-.83,1.88-1.69,3-2.79.17-.17.38-.34.59-.53,1.43-1.23,4.09-3.51,3.17-7.43ZM188.76,40.96c5.76-3.91,13.21-8.07,19.72-5.53,3.28,1.34,5.02,4.2,5.89,6.36,1.73,4.28,1.72,9.85-.02,13.93-.01.02-.02.03-.02.04-.78.06-2.92-1.16-4.24-1.89-2.89-1.61-6.13-3.43-9.71-3.31-1.43-.06-2.88.04-4.31.31-9.64,1.72-16.58,9.76-19.05,22.06-.09.45-.05.89.09,1.3-3.14-.71-6.78-1.47-10.21-2.04,2.51-12.84,9.65-23.07,21.86-31.24ZM159.55,45.51c2.68-7.7,7.4-15.26,14.85-23.78l.73-.84c2.03-2.3,4.12-4.68,5.65-7.55.66-1.25,1.16-2.51,1.5-3.76,1.05,2.31,1.53,5,1.29,7.73-.51,5.84-3.83,10.66-6.52,13.68-.72.8-1.48,1.59-2.24,2.37-2.64,2.72-5.37,5.53-6.74,9.37-1.32,3.69-1.08,7.83.58,11.35-3.32,5.29-5.59,11.11-6.79,17.41-.77-.08-1.58-.12-2.43-.13-.15-.37-.3-.75-.43-1.13.02-.12.05-.25.05-.38.07-1.65-.4-3.17-1.35-4.58-1.09-6.18-.48-13.08,1.84-19.77ZM138.87,60.77c3.3,1.18,6.57,2.49,9.76,3.9,1.3.57,3.14,1.53,4.3,2.72.31,1.43.7,2.83,1.18,4.19-2.43.22-4.91.57-7.24.96-.03-.03-.05-.06-.08-.09-2.25-2.15-3.9-4.97-5.66-7.96-.73-1.25-1.47-2.5-2.26-3.73ZM24.96,294.18c.2-.76.95-1.23,1.72-1.08l10.95,2.16c.55.11.84.46.97.67.13.2.32.62.18,1.16-.19.76-.94,1.23-1.72,1.08l-10.96-2.16c-.55-.11-.84-.46-.97-.67-.13-.2-.32-.62-.18-1.16ZM40.18,315.69c.03.5-.39,1.04-.88,1.13-.05,0-.1.02-.15.03-.8.19-2.62-1.11-3.81-1.98-.07-.05-.14-.1-.21-.15-.32-.59-.86-1.06-1.57-1.26-1.08-.29-2.16.15-2.75,1.02-.06.07-.12.13-.17.2-.33.48-.46,1.02-.43,1.56-.7,3.11-.56,5.57-.42,7.95.08,1.42.17,2.89.09,4.52-.11,1.52-.39,2.51-.87,2.99-.79.51-1.1.32-1.27.21-1.21-.75-2.23-3.71-2.01-5.77.59-1.67,1.12-3.37,1.41-5.12.23-1.38-.7-2.69-2.08-2.92-1.39-.23-2.69.7-2.93,2.08-.24,1.45-.73,2.98-1.28,4.51-.01.04-.03.07-.04.11-.21.57-.42,1.15-.63,1.72-.41,1.1-.82,2.2-1.17,3.28-.46,1.35-.99,2.89-1.85,3.38-.24.14-.53.17-.7.07-.06-.04-.11-.07-.18-.1-.59-.48-.85-3.99.77-8.99.11-.35.14-.7.11-1.04.08-.13.14-.23.23-.37.76-1.18.43-2.75-.75-3.51-1.18-.76-2.75-.43-3.51.75-.37.58-.71,1.12-1.01,1.62-1.72,2.79-2.18,3.54-5.49,4.11-.62.12-1.1-.15-1.34-.41-.22-.25-.27-.52-.14-.94.21-.72.97-1.48,1.75-2.25,1.59-1.5,2.3-2.4,3.11-3.43.73-.93,1.56-1.99,3.39-3.91.97-1.02.93-2.62-.09-3.59-.19-.18-.41-.32-.64-.43-.31-.3-.69-.53-1.13-.65-1.47-.38-2.22-1.1-2.21-1.62.02-.78,1.42-2.3,5.11-3.06,4.2-.87,8.29-2.44,11-3.49.59-.23,1.1-.43,1.54-.59l7.84,1.55c0,.49-.13,1.53-.9,3.62-.38,1.03-.04,2.15.76,2.82.12.18.26.35.43.5.45.39.92.78,1.39,1.16,2.19,1.79,3.54,2.97,3.67,4.7ZM115.37,331.63c.03-.06.25-.25.65-.32,0,0,.01,0,.02,0h.06c1.24-.13,2.37.08,3.91.36,1,.18,2.13.39,3.46.54,5.79.81,10.67,1.18,16.26,1.23,5.91.2,12.94-.22,19.75-.64,3.99-.24,7.76-.47,11.09-.56-.43.49-1.2,1.09-2.08,1.38-.06.02-.12.04-.17.07-3.17,1.31-6.85,1.66-10.88,1.94l-3.85.11c-10.4.32-21.15.65-31.38-.69-3.43-.57-6.44-2.09-6.85-3.41ZM119.34,360.09c-1.13-7.45-.84-14.01.89-20.28.49.11.93.19,1.25.25,3.01.39,6.03.65,9.06.81-4.61,6.45-5.38,12.23-4.82,18.72-2.13-.27-4.32-.11-6.38.5ZM127.59,373.72c.06.02.09.04.13.05.15,1.13.32,2.25.47,3.38.83,6.12,1.68,12.41,2.93,18.63-1.74-.9-3.61-1.7-5.45-2.49-.07-.03-.14-.06-.21-.09-.54-2.83-1.08-5.67-1.63-8.5-.72-3.72-1.45-7.51-2.16-11.33,1.96-.45,4.04-.34,5.92.35ZM120.76,368.37c-.19-1.07-.37-2.15-.55-3.22,1.97-.7,4.14-.81,6.16-.28.17,1.12.36,2.26.56,3.44-2.04-.38-4.14-.36-6.17.07ZM96.25,394.11s.04,0,.06-.01l.27-.06c8.14-1.75,17.24-.45,27.07,3.9,2.16.93,4.46,1.92,6.34,3.01-9.93,1.92-19.93,3.71-30.08,3.02-3.49-.24-6.04-2.68-6.21-6.21-.07-1.51-.27-2.31-.92-2.74,1.22-.4,2.39-.72,3.47-.91ZM135.19,412.8c1.28-1,2.34-2.18,3.04-3.53,1.32-2.56,1.15-5.44-.49-8.14-.16-.26-.37-.49-.56-.74.03-.29.03-.59-.05-.89-1.82-7.55-2.89-15.42-3.91-23.04-.34-2.5-.67-5-1.05-7.54l-.19-1.13c-.25-1.49-.48-2.89-.68-4.23.02-.34-.03-.69-.15-1.02-1.11-7.88-.86-13.56,4.88-20.52.24-.29.4-.63.49-.97,1.06.02,2.11.03,3.17.03,4.72,0,9.42-.14,14.06-.29l3.94-.12c.87-.06,1.71-.13,2.55-.2,6.37,6.89,10.46,15.74,13.3,22.7.78,1.9,1.61,4.03,2.45,6.28.04.45.19.9.48,1.28.89,2.4,1.79,4.92,2.67,7.51.04.29.14.56.28.83,2.75,8.1,5.31,16.64,6.68,23.13-.05.13-.12.25-.17.38-1.41,4.02-.13,6.84,1.19,8.49.5.63,1.12,1.19,1.81,1.72h-53.75ZM202.67,401.55c.31,1.12,1.33,1.85,2.44,1.85.23,0,.46-.03.69-.1,1.35-.38,2.14-1.78,1.76-3.13-.56-1.98-1.5-3.83-2.72-5.46,1.92-.47,3.91-.82,5.91-1.06.16.34.38.66.69.91,1.6,1.3,2.82,3.01,3.54,4.95.38,1.02,1.35,1.65,2.38,1.65.3,0,.59-.05.89-.16,1.31-.49,1.98-1.95,1.49-3.26-.6-1.62-1.48-3.12-2.54-4.47.02,0,.04,0,.05,0,3.92,0,7.71.4,10.99,1.11-3.81,4.33-5.8,12.54-5.8,12.54,0,0-4.34,1.63-8.25,1.71-8.09.18-16.35-.91-23.57-3.95.04-.13.07-.26.12-.41,1.37-3.9,5.24-6.37,8.87-7.88,1.45,1.42,2.51,3.2,3.06,5.15ZM190.26,377.11c1.67,4.8,3.06,9.57,4.47,14.81.1.36.28.66.5.93-2.05,1.07-3.79,2.31-5.24,3.69-1.38-5.48-3.28-11.71-5.31-17.79,1.64-1.07,3.62-1.66,5.58-1.64ZM188.42,372.14c-1.9.22-3.74.8-5.42,1.71-.45-1.28-.91-2.55-1.36-3.78,1.58-1,3.45-1.56,5.31-1.57.52,1.23,1.01,2.45,1.48,3.65ZM184.07,362.06c.25.52.47,1.02.71,1.54-1.73.26-3.41.82-4.95,1.65-.54-1.39-1.07-2.73-1.58-3.98-2.67-6.53-6.39-14.66-12.04-21.64.86-.19,1.71-.42,2.55-.7.13.38.33.75.64,1.04,6.82,6.54,11.42,15.24,14.67,22.08ZM250.31,256.72c-15.2,37.73-58.67,54.82-76.66,60.41-1.29.4-3.06.95-4.43,2.3-2.31,2.27-2.36,5.59-2.16,7.86-2.49.11-5.13.27-7.88.44-6.68.41-13.6.83-19.33.63-5.42-.05-10.11-.4-15.73-1.19-1.22-.14-2.23-.32-3.2-.5-.33-.06-.65-.12-.97-.17.02-.04.04-.08.06-.11.15-.27.29-.54.41-.81.74-1.62.73-3.43-.03-5.1-.93-2.04-2.94-3.74-5.24-4.42-6.87-2.04-13.67-5.92-20.24-9.67-1.84-1.05-3.67-2.09-5.47-3.08-7.07-3.88-13.9-9.49-19.74-16.25-5.8-6.71-10.41-14.35-13.69-22.7-.14-.35-.35-.65-.61-.9,1.73-2.68,3.21-4.72,4.2-5.73.98-1,.97-2.61-.03-3.59-1-.98-2.61-.96-3.59.04-4.55,4.64-15.27,23.37-19.92,35.58l-5.21-1.03c4.69-17.26,17.7-36.48,25.52-43.19,1.06-.91,1.19-2.52.27-3.58-.91-1.06-2.52-1.19-3.58-.27-.69.59-1.42,1.28-2.18,2.05-2.85-24.43,5.07-48.96,21.66-66.4,9.53-10.02,20.78-17.73,33.44-26.06,1.64-1.08,3.31-2.15,4.97-3.21,9.32-5.97,18.95-12.14,25.77-21.62,8.54-11.87,5.57-36.51,2.97-47.31,4.79-1.1,15.35-3.27,21.69-2.61,6.14.65,15.05,2.7,19.69,3.84-6.75,14.74-5,35.05,4.65,50.67,4.3,6.96,10.6,11.72,16.69,16.32,1.93,1.46,3.92,2.96,5.81,4.51,1.72,1.41,3.45,2.8,5.19,4.19,9.06,7.28,18.43,14.8,25.1,24.48,16.53,24.01,21.05,53.19,11.79,76.16ZM260.11,231.4c0-2.16-.09-4.34-.26-6.53,5.72-3.35,23.88-19.96,32.48-31.4l4.88,1.99c-8.82,14.65-26.33,29.8-37.1,35.94ZM321.37,165.18c-.31.26-.59.51-.84.75-1.04,1.02-1.96,1.84-2.84,2.64-1.18,1.06-2.41,2.16-3.85,3.66-.96,1-1.82,1.92-2.63,2.97-.31.4-.6.82-.89,1.24-.19.27-.38.54-.57.81-.79,1.07-1.37,2.16-1.89,3.12-.98,1.82-1.59,2.88-2.86,3.57-.19.1-.35.23-.5.37-.11-.05-.2-.12-.31-.17l-10.34-4.22c-.23-.09-.47-.14-.71-.21-.42-1.14-.54-2.4-.28-3.58.09-.41.22-.82.35-1.22.16-.53.33-1.06.45-1.6.39-1.7.28-3.22-.31-4.51-.35-.75-.82-1.33-1.19-1.79l-.19-.24c-.45-.57-1.02-1.09-1.57-1.6-.48-.44-1.28-1.17-1.4-1.41,0-.01-.27-1.37.65-1.84h0c.65,0,2.28,1.98,2.81,2.63.32.39.62.76.89,1.05,1.15,1.26,2.05,2.94,2.76,5.12.43,1.33,1.86,2.06,3.2,1.63,1.33-.43,2.06-1.87,1.63-3.2-.57-1.74-1.27-3.24-2.08-4.57,1.19-1.83,1.48-3.96,1.72-5.75.07-.56.14-1.12.25-1.67.25-1.34.41-2.79.48-4.44.01-.24.02-.5.02-.77.02-.89.04-2.37.48-2.77.21-.2.78-.29,1.49-.24.6.21,1.62,2.58,1.52,4.35-.08,1.5-.62,3.09-1.15,4.63l-1.31,3.86c-.45,1.33.26,2.77,1.59,3.22,1.33.45,2.77-.26,3.22-1.59l1.31-3.87s.02-.05.02-.07c.29-.2.55-.45.75-.77,2.62-4.28,4.83-6.03,6.02-6.23.29-.05.56-.02.94.29.04.04.17.26.18.67.03.92-1.01,2.3-1.45,2.89-.88,1.17-1.64,2.62-2.38,4.02-.94,1.79-1.91,3.65-2.98,4.63-1.03.95-1.11,2.55-.16,3.59.5.55,1.19.83,1.88.83.61,0,1.22-.22,1.71-.66,1.44-1.32,2.5-3.12,3.48-4.95,0-.01.02-.02.02-.04.5-.99,3.58-2.03,4.79-1.97.75.04,1.49.5,1.6.99.18.76-.09,1.2-1.53,2.43Z"/><path d="M119.14,305.33c-10.52-4.25-21.56-9.11-31-15.93-7.01-5.06-16.14-13.48-19.85-24.9-.43-1.33-1.86-2.06-3.2-1.63-1.33.43-2.06,1.87-1.63,3.2,3.27,10.07,10.78,19.56,21.71,27.45,9.88,7.13,21.25,12.15,32.07,16.52.31.13.63.19.95.19,1.01,0,1.96-.6,2.36-1.59.52-1.3-.1-2.78-1.4-3.3Z"/><path d="M124.8,149.59c.4,0,.81-.09,1.18-.3,18.7-9.9,30.15-32.29,27.22-53.25-.19-1.39-1.5-2.36-2.87-2.16-1.39.19-2.36,1.48-2.16,2.87,2.65,18.91-7.68,39.12-24.56,48.05-1.24.66-1.71,2.19-1.06,3.43.45.86,1.33,1.35,2.25,1.35Z"/><path d="M151.24,205.26c-2.46.81-5.37.93-8.31.09-6.5-1.86-10.59-7.51-9.12-12.62,1.46-5.11,7.92-7.75,14.42-5.89.15.04.29.11.44.16-1.78-4.48-4.35-8.25-7.42-10.9.2-.25.37-.52.47-.84.49-1.6,1.94-3.61,2.92-4.06,1.28-.58,1.84-2.09,1.25-3.36-.58-1.28-2.09-1.84-3.36-1.25-2.77,1.26-4.73,4.58-5.51,6.77-1.18-.54-2.4-.92-3.65-1.13,0,0,0-.02,0-.02-.45-1.29-.35-4.29.17-5.25.66-1.23.2-2.77-1.03-3.44-1.23-.67-2.77-.2-3.44,1.03-1.06,1.97-1.27,5.33-.85,7.81-.82.19-1.63.45-2.41.79-1.27-3.01-4.06-5.2-4.92-5.82-1.14-.82-2.73-.56-3.54.58-.82,1.14-.56,2.73.58,3.54,1.28.92,2.8,2.47,3.3,3.86.08.22.2.4.32.58-.38.34-.76.7-1.13,1.08-2.41-1.73-5.69-2.15-8.43-.99-1.29.55-1.9,2.03-1.35,3.33.55,1.29,2.03,1.9,3.33,1.35,1.07-.45,2.42-.26,3.39.39-2.67,4.47-4.33,10.31-4.45,16.85-.29,15.48,8.11,29.02,18.74,30.26,9.96,1.16,18.36-8.9,19.62-22.89Z"/><path d="M191.27,171.39c1.32-.46,2.03-1.91,1.57-3.23-.46-1.33-1.91-2.03-3.23-1.57-2.33.81-4.26,3.01-5.44,4.94-.72-.56-1.47-1.06-2.26-1.48.04-.27.06-.55,0-.84-.25-1.45-.02-2.84.59-3.63.86-1.11.65-2.7-.46-3.56-1.11-.85-2.7-.65-3.56.46-1.22,1.58-1.81,3.7-1.73,5.99-1.31-.13-2.62-.05-3.9.2-.31-2.68-1.53-5.05-1.97-5.83-.69-1.22-2.24-1.65-3.46-.95-1.22.69-1.64,2.24-.95,3.46.78,1.37,1.51,3.41,1.39,4.89-.01.14,0,.27,0,.4-.4.24-.79.51-1.18.78-1.56-2.29-4.23-3.8-7.02-3.85-.01,0-.03,0-.04,0-1.38,0-2.51,1.11-2.54,2.5-.02,1.4,1.09,2.56,2.5,2.58,1.31.02,2.65.9,3.19,2.09.03.06.07.11.11.16-3.5,4-6.2,9.62-7.41,16.24-2.8,15.23,3.28,29.96,13.58,32.9,9.64,2.76,19.56-5.8,23.08-19.4-2.56.4-5.45.05-8.21-1.26-6.11-2.89-9.23-9.13-6.95-13.93,2.27-4.81,9.07-6.36,15.18-3.47.14.07.26.16.4.23-.91-4.16-2.52-7.88-4.68-10.84.04-.08.1-.14.14-.23.64-1.55,2.27-3.41,3.29-3.77Z"/></g></svg>