<?xml version="1.0" encoding="UTF-8"?><svg id="Layer_2" xmlns="http://www.w3.org/2000/svg" viewBox="0 0 308.35 347.64"><defs><style>.cls-1{fill:#fff;}</style></defs><g id="Layer_1-2"><path class="cls-1" d="M305.91,342.77h-34.9c3.52-2.9,5.86-7.43,6.14-12.31.32-5.52-1.89-11.1-6.41-16.15-7.99-8.94-20.78-14.07-29.28-14.53-.63-.03-.93-.09-1.05-.12-.06-.1-.16-.34-.31-.81.08-.12.17-.22.24-.36.87-1.88,1.25-2.76,1.44-3.21.03-.07.05-.12.07-.17.26-.32.79-.98,2.16-3.05,1.15-1.73,2.51-3.64,3.95-5.67,9.71-13.69,24.38-34.38,9.95-49.74-9.62-10.24-26.51-12.19-42.14-12.56-1.14-7.47-2.21-15.05-2.71-22.39l22.5,11.47,18.38,11.06c4.59,1.75,8.87.41,11.57-3.7l.04-.35,5.42-14.25,2.92-8.09c1.14-3.16-.48-6.71-3.55-7.89l-7.53-3.13s-.02,0-.03,0c-.02,0-.04-.02-.06-.03-11.94-4.43-41.35-13.86-48.37-16.1.33-2.13.69-4.26,1.12-6.4.13-.75.27-1.51.42-2.27,7.01.74,13.85,1.12,20.44,1.12,3.94,0,7.8-.13,11.55-.4,10.13-.72,17.96-4.49,23.28-11.22,13.14-16.62,8.03-47.92,4.65-68.63-.22-1.32-.42-2.59-.62-3.83-.05-.3-.15-.57-.3-.82,2.23-1.19,3.8-3.36,3.99-5.9.15-1.96-.52-3.86-1.89-5.35-.54-.59-1.17-1.08-1.86-1.48,3.21-2.03,5.67-5.04,6.43-9.28,1.01-5.72.55-9.94-1.4-12.58-2.03-2.7-5.11-1.5-6.59-.92-.13.05-.28.11-.43.17-.11-.37-.21-.82-.27-1.12-.33-1.51-.78-3.59-2.7-4.75-.21-.12-.43-.22-.66-.27-1.73-.43-3.16.28-4.28,1,.04-.65.1-1.33.15-1.93.36-4.36.76-9.31-1.61-11.93-.94-1.04-2.21-1.6-3.68-1.63-.06,0-.11,0-.17,0-6.34,0-7.36,6.18-8.04,10.28-.21,1.31-.55,3.33-1.02,4.26-.27-1.36-.47-3.33-.6-4.57-.12-1.22-.24-2.38-.4-3.35-.43-2.61-.68-3.24-1.21-4.41-.23-.5-.51-1.12-.92-2.26-1-2.86-3.01-4.62-5.2-4.48-1.01.05-3.48.59-4.52,4.71,0,0,0,.01,0,.02l-.04.16c-.04.14-.06.29-.06.44-.65,12.78,1.67,30.97,10.36,40.16.81.86,1.67,1.61,2.56,2.28-1.95,1.24-3.3,3.28-3.48,5.62-.15,1.96.52,3.86,1.89,5.35,1.5,1.64,3.69,2.59,6,2.61h1.33c3.39,17.87,5.47,33.88-.84,48.24-1.9,4.33-4.32,7.49-7.01,9.14-2.32,1.43-5.09,1.89-7.97,2.28-6.72.9-8.09.75-11.1.42-1.67-.18-3.96-.44-7.8-.59.08-.29.17-.59.25-.88,6.88-23.96,14-48.74,3.62-71.19-3.99-8.13-10.18-14.87-17.89-19.78,3.63-3.1,5.3-6.2,4.92-9.24-.41-3.32-3.21-6.17-8.31-8.46-2.22-11.79,1.3-17.63,5.09-21.76.45-.48.67-1.13.62-1.79-.05-.66-.37-1.26-.88-1.68-3.01-2.42-6.65-3.76-10.28-3.72-2.7.02-5.21.81-7.07,2.24-4.51,3.46-5.38,9.49-5.64,13.71-.11,1.82-.19,4.9.22,8.09-.94-.06-1.89-.07-2.85-.05-4.79.28-8.33,2.18-9.99,5.37-1.25,2.4-1.27,5.28-.11,8.3-.43.01-.86.05-1.29.08-.72.04-1.44.08-2.15.14-.38.03-.76.08-1.14.12-.82.09-1.63.18-2.44.3-.26.04-.51.09-.77.13-.93.15-1.86.32-2.78.51-.14.03-.28.06-.41.09-1.04.23-2.06.48-3.07.76-.03,0-.07.02-.1.03-2.82.79-5.53,1.78-8.11,2.96-18.62,5.53-25.48,19.59-32.09,32.28-4.44,8.54-5.41,26.57-4.69,47.21L4.44,48.39c-.64-.43-1.45-.52-2.17-.25-.72.27-1.27.88-1.46,1.63-.16.6-3.69,14.96,6.04,34.65,12.41,25.11,39.74,46.63,81.25,64-8.2,4.49-13.37,9.5-15.4,14.93-1.53,4.09-1.28,8.36.74,12.68,4.96,10.63,15.35,16.51,30.03,17.01.71.02,1.4.04,2.1.04,6.07,0,11.67-.86,15.66-1.69,2.18,10.99,5.41,21.34,9.38,30.84.02.04.03.08.05.12.48,1.15.97,2.29,1.48,3.41.01.02.02.05.03.07,1.55,3.45,3.19,6.78,4.92,9.98.03.06.06.11.09.17.53.98,1.07,1.95,1.62,2.91.06.1.11.19.17.29,1.77,3.08,3.62,6.03,5.52,8.84l-23.16,64.03c-.14.38-.16.78-.11,1.16-.02.06-.04.11-.05.17l-.48,2.38c-1.42,7.02-2.88,14.27-3.53,21.39-.06.61.13,1.22.51,1.7,1.2,1.51,3.63,2.82,6.83,3.93h-37.96c-1.34,0-2.43,1.09-2.43,2.43s1.09,2.43,2.43,2.43h219.38c1.34,0,2.43-1.09,2.43-2.43s-1.09-2.43-2.43-2.43ZM100.46,174.69c-4.67-.52-7.94-2.46-8.53-5.07-.49-2.13.91-4.46,3.75-6.24,5.29-3.33,6.61-3.71,11.54-5.11.84-.24,1.77-.51,2.83-.82,2.2-.65,4.46-1.23,6.75-1.77.59,6.39,1.25,12.68,1.94,18.72-3.89.83-9.72,1.24-18.27.29ZM179.67,330.61c-.65-4.84-3.52-9.31-8.29-12.92-3.75-2.84-8.29-4.88-12.84-6.19-.17-.07-.35-.11-.53-.14-5.61-1.54-11.19-1.98-15.27-1.39-.3.04-.57.09-.81.13-.08.01-.16.03-.24.04l18.24-43.73c7.44,6.92,14.24,9.23,19.68,9.54.04,0,.07,0,.11,0,.8.04,1.57.04,2.31,0,.07,0,.14,0,.21-.01.7-.04,1.36-.11,2-.2.09-.01.17-.03.26-.04.19-.03.38-.06.57-.1.04,0,.08-.02.13-.03.36-.07.71-.15,1.05-.23.08-.02.16-.04.24-.06.17-.04.34-.09.5-.13.05-.01.1-.03.16-.05.32-.09.63-.19.92-.29.04-.01.08-.03.12-.04.17-.06.33-.11.49-.17,0,0,0,0,0,0,1.16.21,2.33.37,3.49.49,1.22.14,2.42.2,3.6.2,9.56,0,17.43-4.44,20.57-11.85,2.36-5.63,2.74-11.23,2.32-17.69,1.72.29,3.52.47,5.26.65,5.59.56,10.86,1.08,13.29,4.96,2.4,3.83,2.48,8.08.27,13.78-1.73,4.47-4.53,8.38-7.49,12.53-.51.71-1.02,1.42-1.52,2.14-5.89,8.36-14.85,36.38-15.47,48.35-.05.92.44,1.79,1.26,2.23,4.85,2.58,19.87,8.73,33.05,12.37h-71.19c2.78-3.19,4.18-7.7,3.58-12.16Z"/><path class="cls-1" d="M74.22,342.77h-8.03c-1.34,0-2.43,1.09-2.43,2.43s1.09,2.43,2.43,2.43h8.03c1.34,0,2.43-1.09,2.43-2.43s-1.09-2.43-2.43-2.43Z"/><path d="M305.91,342.77h-34.82c3.51-2.91,5.83-7.44,6.12-12.31.32-5.53-1.9-11.13-6.42-16.19-8-8.95-20.81-14.09-29.32-14.54-.6-.03-.89-.08-1.02-.12-.06-.11-.15-.33-.29-.76.08-.11.17-.21.22-.34.87-1.88,1.25-2.76,1.44-3.21.03-.06.05-.12.07-.16.26-.32.79-.99,2.16-3.05,1.15-1.73,2.51-3.64,3.94-5.67,9.72-13.7,24.4-34.42,9.94-49.81-9.62-10.25-26.51-12.2-42.13-12.57-1.13-7.42-2.2-14.95-2.7-22.25l23.08,11.77,17.74,10.67c3.58,1.36,6.96.84,9.56-1.4.63-.51,1.18-1.11,1.63-1.77.13-.17.26-.35.38-.53l.02-.16s.01-.03.02-.04l5.47-14.39,2.92-8.09c1.15-3.18-.49-6.77-3.58-7.96l-7.53-3.14s-.02,0-.02,0c-.02,0-.04-.02-.07-.03-11.91-4.42-41.23-13.82-48.33-16.08.33-2.11.69-4.23,1.11-6.35.12-.74.27-1.48.41-2.22,7,.74,13.82,1.12,20.4,1.12,3.94,0,7.8-.13,11.55-.4,10.15-.72,17.99-4.5,23.32-11.24,13.16-16.64,8.04-47.95,4.66-68.66l-.62-3.83c-.05-.29-.15-.55-.28-.79,2.22-1.21,3.78-3.38,3.98-5.92.15-1.97-.53-3.89-1.91-5.39-.52-.57-1.13-1.05-1.79-1.44,3.19-2.04,5.63-5.05,6.38-9.28,1.02-5.73.55-9.97-1.41-12.62-2.06-2.74-5.16-1.53-6.65-.94-.11.04-.24.1-.37.15-.1-.36-.19-.78-.26-1.06-.33-1.52-.78-3.61-2.72-4.78-.21-.13-.44-.22-.68-.28-1.71-.42-3.12.24-4.24.95.04-.62.09-1.26.14-1.83.36-4.38.76-9.34-1.62-11.97-.95-1.05-2.23-1.62-3.71-1.64-.06,0-.12,0-.17,0-6.39,0-7.41,6.2-8.09,10.32-.2,1.24-.52,3.14-.95,4.11-.26-1.35-.44-3.22-.56-4.42-.12-1.22-.24-2.38-.4-3.35-.43-2.62-.69-3.25-1.22-4.42-.23-.5-.51-1.12-.92-2.26-1.01-2.89-2.97-4.6-5.25-4.52-1.02.05-3.52.6-4.56,4.75,0,0,0,.01,0,.02l-.04.16c-.04.15-.06.3-.07.45-.66,12.79,1.67,31,10.38,40.19.8.85,1.65,1.59,2.53,2.26-1.95,1.25-3.28,3.26-3.46,5.61-.15,1.97.53,3.89,1.91,5.39,1.51,1.65,3.71,2.6,6.04,2.63h1.29c3.39,17.84,5.45,33.83-.85,48.17-1.9,4.32-4.31,7.47-6.99,9.12-2.31,1.42-5.08,1.89-7.95,2.27-6.71.9-8.09.75-11.09.42-1.66-.18-3.94-.43-7.74-.59.08-.27.16-.54.23-.82,6.89-23.97,14.01-48.76,3.61-71.22-3.99-8.12-10.16-14.85-17.85-19.76,3.6-3.09,5.26-6.2,4.89-9.24-.41-3.34-3.21-6.19-8.31-8.49-2.2-11.75,1.3-17.57,5.09-21.69.46-.5.68-1.16.63-1.83-.05-.67-.38-1.29-.9-1.71-3-2.41-6.62-3.73-10.22-3.73h-.09c-2.71.02-5.23.82-7.1,2.25-4.53,3.48-5.4,9.52-5.66,13.75-.11,1.81-.19,4.87.21,8.04-.92-.05-1.86-.07-2.79-.04-4.81.28-8.37,2.19-10.03,5.39-1.25,2.4-1.28,5.26-.14,8.27-.31.01-.61.04-.91.06-.86.04-1.73.09-2.58.17-.2.02-.39.04-.59.06-1.03.1-2.05.23-3.06.38-.04,0-.07.01-.11.02-5.48.84-10.66,2.4-15.39,4.63-18.27,5.63-25.07,19.56-31.63,32.15-4.44,8.53-5.41,26.53-4.69,47.15L4.47,48.35c-.66-.44-1.49-.54-2.22-.25-.74.28-1.29.9-1.49,1.67-.16.6-3.7,14.97,6.05,34.69,12.41,25.11,39.73,46.64,81.24,64.01-8.17,4.49-13.32,9.48-15.34,14.89-1.53,4.09-1.28,8.36.74,12.68,4.96,10.63,15.35,16.51,30.03,17.01.71.02,1.4.04,2.1.04,6.07,0,11.67-.86,15.66-1.69,4.36,22,12.94,41.43,23.22,56.58l-23.17,64.07c-.14.39-.17.79-.11,1.17-.01.05-.04.1-.05.16l-.48,2.39c-1.41,7.01-2.88,14.26-3.53,21.38-.06.62.13,1.25.52,1.74,1.19,1.49,3.58,2.79,6.73,3.9h-37.82c-1.34,0-2.43,1.09-2.43,2.43s1.09,2.43,2.43,2.43h219.38c1.34,0,2.43-1.09,2.43-2.43s-1.09-2.43-2.43-2.43ZM147.51,283.66l-1.72,4.13c-3.11-1.22-6.44-1.93-9.82-2.1l1.32-3.65c3.5-.12,6.99.43,10.22,1.63ZM134.23,290.51c3.32-.01,6.63.6,9.69,1.78l-6.84,16.4c-.27.65-.23,1.34.03,1.93-.11.53-.05,1.1.22,1.62,1.58,2.99,3.29,2.97,5.37,2.62.21-.04.45-.07.71-.11.86-.12,1.8-.19,2.8-.2l-5.24,7.47c-.77,1.1-.51,2.62.59,3.39.43.3.91.44,1.4.44.77,0,1.52-.36,1.99-1.04l6.91-9.84c.57.09,1.15.19,1.73.3l-4.87,6.94c-.77,1.1-.51,2.62.59,3.39.43.3.91.44,1.4.44.77,0,1.52-.36,1.99-1.04l5.92-8.43c.62.2,1.24.42,1.86.65-2.48,4.46-4.01,8.51-3.86,13.56-8.79,1.17-26.62,2.02-33.1-4.31.58-3.27,1.24-6.54,1.89-9.76l.48-2.4c.05-.26.05-.53.02-.78l8.33-23.03ZM179.72,330.61c-.65-4.86-3.53-9.34-8.31-12.95-3.75-2.84-8.28-4.88-12.83-6.19-.19-.08-.38-.12-.57-.15-5.61-1.54-11.19-1.97-15.28-1.39-.3.04-.57.09-.81.13-.05,0-.09.02-.14.02l18.19-43.62c12.47,11.58,23.16,10.19,28.61,8.2,1.19.21,2.38.39,3.58.51,1.22.14,2.43.2,3.6.2,9.58,0,17.47-4.45,20.61-11.89,2.36-5.62,2.74-11.21,2.32-17.65,1.7.28,3.48.47,5.2.64,5.57.55,10.83,1.08,13.25,4.94,2.39,3.81,2.47,8.05.26,13.74-1.73,4.46-4.52,8.37-7.48,12.52-.51.71-1.02,1.42-1.52,2.14-5.89,8.37-14.86,36.4-15.48,48.38-.05.94.45,1.83,1.29,2.28,4.83,2.57,19.74,8.68,32.89,12.32h-70.94c2.77-3.2,4.16-7.71,3.56-12.16ZM116.79,155.67c.59,6.4,1.25,12.69,1.94,18.74-3.89.83-9.71,1.25-18.27.29-4.67-.52-7.94-2.46-8.53-5.07-.49-2.13.91-4.46,3.75-6.24,5.29-3.33,6.61-3.71,11.54-5.11.84-.24,1.77-.51,2.83-.82,2.21-.65,4.46-1.24,6.75-1.79ZM247.64,278.47c-1.34-1.48-3.2-2.58-5.39-3.14-1.51-.38-3.02-.49-4.49-.47.65-1.01,1.27-2.04,1.86-3.09,1.91-.15,3.84-.24,5.57.19,1.45.37,3.2,1.34,3.75,2.95.11.33.31.6.53.84-.61.92-1.22,1.82-1.83,2.72ZM244.04,283.6c-1.46,2.06-2.84,4-4.03,5.79-1.31,1.97-1.73,2.49-1.92,2.72-.38.46-.48.69-.74,1.28-.19.44-.54,1.28-1.38,3.07-.19.41-.25.84-.21,1.26-.44.59-.61,1.37-.39,2.14,1,3.4,2.42,4.55,5.83,4.73.46.02.94.07,1.43.12l-6.97,6.81c-.96.94-.98,2.48-.04,3.44.48.49,1.11.73,1.74.73s1.23-.23,1.7-.69l9.26-9.05c1.19.36,2.4.79,3.63,1.28l-7.71,7.54c-.96.94-.98,2.48-.04,3.44.48.49,1.11.73,1.74.73s1.23-.23,1.7-.69l9.01-8.81c1.05.57,2.1,1.18,3.12,1.85-3.78,4.5-6.39,8.7-7.32,14.41-6.35-1.12-23.37-4.78-31.79-12.62,3.12-11.81,8.11-25.38,11.71-30.49.49-.7,1-1.4,1.5-2.11.13-.19.27-.38.41-.57.09,0,.18.01.28,0,2.21-.19,4.49-.39,6.48.12,1.36.35,2.97,1.23,3.62,2.67-.21.3-.42.59-.63.88ZM252.37,271.12c-1.35-1.84-3.45-3.24-5.98-3.88-1.48-.38-2.96-.48-4.4-.47,2.72-7.1,2.49-12.81-.72-17.95-3.68-5.88-10.7-6.58-16.89-7.2-1.78-.18-3.46-.34-5.04-.62-.37-.06-.73-.04-1.06.06-.14-1.28-.29-2.59-.46-3.95-.38-2.67-.81-5.41-1.24-8.2,14.36.4,29.59,2.24,37.83,11.02,8.31,8.85,4.32,20.48-2.04,31.19ZM269.37,196.19l-2.91,8.05-5.37,14.13c-.44.64-1.16,1.15-1.84,1.3-.24.05-.41.04-.54.02l-.44-.19s-.02-.02-.04-.02l-.86-.51c.89-1.69,2-4.24,3.51-8.15,1.78-4.62,4.03-11.11,4.5-14.21.11-.69.27-1.37.43-2.02.09-.36.19-.77.27-1.2l2.47,1.03c.71.27,1.07,1.07.82,1.79ZM261.02,191.26l.29.12c.06.03.11.06.14.08.02.39-.21,1.32-.36,1.96-.18.72-.38,1.54-.51,2.44-.61,4-5.32,16.57-7.5,20.82l-40.23-20.5c-.24-6.78.06-13.68.9-20.65,8.25,2.63,35.84,11.5,47.27,15.74ZM242.73,23.52c.05-.19.1-.34.15-.48.11.2.23.45.34.77.48,1.34.82,2.09,1.07,2.63.38.83.5,1.11.85,3.2.13.82.24,1.9.36,3.05.48,4.78.87,7.77,2.76,9.13.1.08.22.14.33.2,1.92.96,3.55-.09,4.34-.6l.17-.11c2.49-1.57,3.03-4.84,3.55-8,.83-5.05,1.52-6.26,3.37-6.24.12,0,.17.02.17.02,1.02.71.55,6.44.4,8.32-.32,3.88-.51,6.23,1.08,7.59.71.61,1.66.84,2.61.64,1.22-.24,2.19-.9,3.04-1.49.18-.12.4-.28.61-.41.1.34.18.75.25,1.04.3,1.38.67,3.11,2.08,4.34.08.07.16.13.24.19,1.68,1.13,3.51.42,4.84-.1.33-.13.82-.32,1.16-.41.91,1.56,1.03,4.65.34,8.58-1.16,6.53-8.93,8.84-15.26,8.84h-.09c-3.78-.02-6.95-1.43-9.69-4.33-7.12-7.52-9.67-23.63-9.06-36.37ZM252.82,73.19c-.32-.35-.7-.94-.64-1.73.1-1.38,1.49-2.44,3.15-2.44.01,0,.03,0,.04,0l15.58.17c.99.01,1.9.39,2.5,1.05.32.35.7.94.64,1.73-.1,1.38-1.49,2.44-3.15,2.44-.01,0-.03,0-.04,0l-12.28-.13s-.02,0-.03,0l-3.27-.04c-.99-.01-1.9-.39-2.5-1.05ZM221.63,143.36c3.71.15,5.83.38,7.53.57,1.49.16,2.65.29,4.14.29,1.81,0,4.12-.19,8.13-.73,3.41-.46,6.73-1.03,9.85-2.95,3.52-2.17,6.59-6.08,8.89-11.31,6.71-15.28,4.67-32.37,1.35-50.06l8.9.1c-.01.18,0,.36.02.54l.62,3.84c3.24,19.87,8.15,49.91-3.68,64.86-4.5,5.7-11,8.77-19.84,9.4-9.58.68-19.88.45-30.61-.65,1.04-4.6,2.32-9.31,3.69-14.17.3.15.63.25.99.26ZM221.4,68.55c9.61,20.77,2.74,44.67-3.9,67.78-2.72,9.47-5.29,18.41-6.75,27.05-2.32,11.6-3.24,23.18-2.72,34.39.38,10.21,2.03,20.89,3.63,31.22.46,3,.92,5.95,1.33,8.76,1.21,9.91,1.79,16.93-1.11,23.83-3.24,7.66-12.04,9.53-19.22,8.73-16.35-1.61-32.9-13.47-44.27-31.73l-.11-.18c-15.38-24.95-19.49-55.65-22.78-80.24l-.41-4.21c3.91-.69,7.91-1.24,11.99-1.64,1.99-.19,3.71-1.3,4.73-3.02,1.06-1.81,1.17-4,.3-6.02-1.26-2.91-3.7-4.88-6.51-5.29-2.13-.31-4.21-.36-5.77-.37-.22,0-.44,0-.65,0-1.86,0-3.64.05-5.36.15-1-11.93-1.74-24.62-.63-37.03.01-.13.03-.26.04-.4.06-.63.12-1.26.19-1.88,1.38-12.54,4.72-24.68,11.6-35.34.05-.08.1-.17.16-.25.22-.34.46-.68.69-1.02.25-.37.5-.74.76-1.11.02-.04.05-.07.08-.1.53-.74,1.08-1.45,1.65-2.15.11-.14.24-.26.35-.4.51-.6,1.03-1.19,1.58-1.76.08-.08.17-.16.25-.25.61-.62,1.23-1.22,1.88-1.8.03-.02.05-.05.08-.07,5.79-5.14,13.21-8.75,21.45-10.51.05-.01.1-.02.15-.03.91-.19,1.83-.35,2.76-.5.17-.03.33-.06.5-.08.8-.12,1.6-.21,2.41-.29.29-.03.59-.07.88-.09.68-.06,1.37-.09,2.06-.13.41-.02.82-.05,1.23-.06.62-.02,1.25-.01,1.87,0,.47,0,.93,0,1.4,0,1.06.03,2.13.08,3.2.17,18.46,1.49,33.8,11.18,41.01,25.87ZM191.12,16.31c.32-5.16,1.56-8.49,3.77-10.2,1.03-.79,2.51-1.23,4.16-1.24,1.75,0,3.5.44,5.14,1.29-4.4,5.78-5.97,12.37-4.94,20.68-2.36-.85-4.98-1.63-7.76-2.16-.59-3.31-.47-6.86-.37-8.37ZM177.96,31.64c.84-1.62,2.97-2.6,5.93-2.78,1.75-.06,3.56.07,5.44.36,3.6.94,7.4,2.13,12.25,3.82.11.04.23.07.34.09.15.07.3.12.45.19,3.44,1.53,5.44,3.2,5.63,4.72.18,1.45-1.25,3.45-4.03,5.63-.18.14-.33.31-.46.49-6.77-3.47-14.45-5.68-22.72-6.35-.62-.05-1.24-.06-1.85-.1-1.41-2.41-1.76-4.57-.96-6.09ZM115.41,138.72c-4.09.68-7.87,1.66-11.52,2.88C44.37,115.92,22.21,84.62,14.5,60.95l100.29,67.35c.17,3.43.38,6.91.62,10.42ZM11.36,82.68c-6.34-12.63-6.73-22.95-6.37-28.11l3.23,2.17c6.15,24.63,26.78,59.19,89.18,87.31-1.11.46-2.23.94-3.35,1.44-.07.03-.14.06-.21.1C41.08,124.29,19.86,99.63,11.36,82.68ZM77.85,173.97c-1.46-3.13-1.66-6.05-.59-8.91,1.98-5.3,8.47-10.53,18.78-15.12,10.45-4.66,19.72-7.5,33.75-7.44,1.41,0,3.27.05,5.11.32.54.08,1.9.47,2.74,2.41.34.78.13,1.34-.03,1.61-.13.22-.43.59-1.01.65-9.81.96-19.2,2.74-27.93,5.31-1.05.31-1.97.57-2.8.81-5.17,1.48-6.91,1.97-12.79,5.67-4.67,2.93-6.87,7.21-5.9,11.45,1.09,4.75,5.85,8.05,12.74,8.82,8.77.98,15.01.58,19.38-.28.3,2.47.65,4.91,1.05,7.32-10.6,2.18-34.35,4.84-42.5-12.6ZM156.24,262.74l-6.85,16.43c-3.28-1.24-6.78-1.92-10.33-2.01l8.82-24.38c2.71,3.62,5.51,6.95,8.36,9.96Z"/><path d="M74.22,342.77h-8.03c-1.34,0-2.43,1.09-2.43,2.43s1.09,2.43,2.43,2.43h8.03c1.34,0,2.43-1.09,2.43-2.43s-1.09-2.43-2.43-2.43Z"/><path d="M164.2,104.24c5.01,1.1,10.64-4.86,13.06-13.53-1.38.41-2.9.38-4.31-.26-3.13-1.4-4.53-5.08-3.13-8.21,1.4-3.13,5.08-4.53,8.21-3.13.07.03.13.08.21.12-.66-5.24-2.96-9.14-6.41-9.89-5.35-1.17-11.4,5.7-13.51,15.33-2.11,9.64.53,18.4,5.88,19.57Z"/><path d="M190.57,114.2c5.01,1.1,10.63-4.86,13.06-13.53-1.38.41-2.9.38-4.31-.26-3.13-1.4-4.53-5.08-3.13-8.21,1.4-3.13,5.08-4.53,8.21-3.13.07.03.13.08.21.12-.66-5.24-2.96-9.14-6.41-9.89-5.35-1.17-11.4,5.7-13.51,15.33-2.11,9.64.53,18.4,5.88,19.57Z"/><path d="M190.83,123.55c-.99-.91-2.53-.85-3.44.13-1.26,1.36-2.02,3.05-2.34,4.83-3.87,2.13-8.51,2.53-12.9,1.03-5-1.7-9.01-5.61-10.73-10.45-.03-.09-.08-.17-.12-.26.54-.69,1.03-1.42,1.45-2.19.64-1.18.2-2.66-.98-3.3-1.18-.64-2.66-.2-3.3.98-1.37,2.53-3.72,4.49-6.46,5.38-1.28.41-1.98,1.79-1.57,3.07.33,1.03,1.29,1.69,2.32,1.69.25,0,.5-.04.75-.12,1.43-.46,2.79-1.14,4.03-1.97,2.48,5.46,7.24,9.81,13.05,11.79,2.3.78,4.65,1.17,6.98,1.17,2.74,0,5.44-.55,7.96-1.61.27.71.59,1.41,1.03,2.05.47.68,1.23,1.05,2,1.05.48,0,.96-.14,1.39-.43,1.1-.77,1.38-2.28.61-3.39-1.21-1.75-1.02-4.44.42-5.99.91-.99.85-2.53-.13-3.44Z"/><path d="M145.49,194.07c-.29-1.31-1.59-2.14-2.9-1.85-1.31.29-2.14,1.59-1.85,2.9,3.48,15.77,10.1,31.18,19.12,44.56.47.7,1.24,1.07,2.02,1.07.47,0,.94-.13,1.36-.42,1.11-.75,1.41-2.26.66-3.38-8.69-12.88-15.05-27.72-18.4-42.89Z"/><path d="M142.07,182.47c-.61-1.03-.87-2.25-.74-3.43.14-1.34-.82-2.54-2.16-2.68-1.33-.14-2.54.82-2.68,2.16-.24,2.22.25,4.5,1.39,6.42.45.77,1.27,1.2,2.1,1.2.42,0,.85-.11,1.23-.34,1.16-.68,1.54-2.17.86-3.33Z"/><path d="M246.72,204.24c2.53-.09,4.51-2.22,4.42-4.76-.09-2.53-2.22-4.51-4.76-4.41-2.53.09-4.51,2.22-4.41,4.76.09,2.53,2.22,4.51,4.76,4.41Z"/></g></svg>