<?xml version="1.0" encoding="UTF-8"?>
<svg id="Layer_2" xmlns="http://www.w3.org/2000/svg" version="1.1" viewBox="0 0 1347.7 591.1">
  <!-- Generator: Adobe Illustrator 29.0.1, SVG Export Plug-In . SVG Version: 2.1.0 Build 192)  -->
  <defs>
    <style>
      .st0 {
        fill: #ff2600;
      }

      .st1 {
        fill: #fff;
      }
    </style>
  </defs>
  <g id="Layer_1-2">
    <path class="st0" d="M1134.4,591.1H213.2c-61.7,0-120.3-26.7-160.8-73.2C11.9,471.4-6.4,409.7,2,348.6l22.8-164.7C39.4,79.1,130.2,0,236.1,0h868.3c103,0,191.2,73.6,209.8,174.9l30.1,164.7c11.4,62.4-5.4,126.1-46,174.9-40.6,48.7-100.3,76.7-163.8,76.7h0ZM236.1,21c-95.5,0-177.4,71.3-190.5,165.9l-22.8,164.7c-7.6,55.1,8.9,110.7,45.5,152.7,36.5,41.9,89.4,66,145,66h921.2c57.2,0,111-25.2,147.7-69.1,36.6-43.9,51.8-101.4,41.5-157.7l-30.1-164.7c-16.7-91.4-96.2-157.7-189.1-157.7H236.1Z"/>
    <path class="st1" d="M254.4,212.5h-24.3c-2.8,0-4.5-.5-5.2-1.4-.7-1-.9-2.9-.4-5.7.9-5.4,1.4-10.3,1.4-14.6,0-5.4.1-22.5.1-51.2s0-12.3-.1-14.6c0-.6-.1-1.5-.4-2.6-.2-1.1-.4-1.7-.5-1.9-.5-3.1.9-4.9,4-5.2.5,0,1.2-.1,2.2-.1,26.7,0,41.8,0,45.3.1,8.3.2,15,1.6,20.2,4.1,7.4,3.8,13.2,9.9,17.5,18.2,4,7.9,6,16.1,6,24.6,0,18.7-6.7,33.1-20,43.2-2,1.6-4.3,2.9-6.7,3.9-2.4,1.1-4.9,1.9-7.5,2.4-2.5.5-5.2.8-7.9.9h-23.7ZM257,190.1c.5,0,4.2.5,10.9,1.2,7.5-.7,11.4-1.1,11.9-1.2,8.3-1.7,13.8-6.4,16.5-14.1,2.3-6.7,2.1-14.1-.7-22.1-2.4-6.9-6.2-11.6-11.5-14.2-9.2-4.6-18.7-5.2-28.6-1.8-3.2,1-5.4,3.2-6.5,6.6-.9,2.8-1.5,5.6-1.6,8.6-.5,6.9-.6,12.9-.6,18.1,0,3.4.5,6.9,1.4,10.5,1.1,4.6,4.1,7.4,8.8,8.4h0Z"/>
    <path class="st1" d="M353.6,116.1h7.3c3.1.3,4.6,2,4.3,5.2-.6,7.5-1,15.4-1.1,23.8s0,17.7,0,27.9c.1,10.2.2,18.1.2,23.8-.1.9,0,1.9,0,3,.1,1.1.3,2.2.5,3.5.2,1.3.4,2.3.5,2.9.3,2.1,0,3.7-.7,4.6-.7,1-2.1,1.5-4.1,1.6-3.2,0-8.1-.1-14.6-.7-2.2-.2-3.3-1.8-3.2-4.7,0-.7.2-2.1.4-3.9.2-1.9.3-3.4.3-4.5,0-25.5,0-42.2,0-50.1,0-3.2-.7-12.2-1.8-27.1-.2-3.3,1.2-5.1,4.1-5.4h7.7Z"/>
    <path class="st1" d="M413.5,113.9c7.6-2.4,13.8-3.5,18.5-3.3,11.9.3,21,1.8,27.4,4.7.5.2,1.2.4,1.9.6.7.2,1.3.3,1.8.4.5,0,1.2.2,2,.3s1.5.2,1.9.3c2.3.4,3.9,1,4.6,1.9.8.9,1.2,2.6,1.3,5v7.7c-.3,6.4-3.4,8.3-9.3,5.9-1.6-.7-4.7-2.3-9.2-4.7-5.3-2.9-11.4-4.7-18.2-5.5-4.6-.7-9.1.3-13.5,2.9-3,1.7-4.7,4.3-5.2,7.9s.3,6.7,2.6,9.3c2.5,2.9,5.5,4.6,9,5.4,1.6.4,4.1.9,7.7,1.4,3.6.6,6.3,1.1,8.1,1.6,7.9,1.8,13.1,3.2,15.6,4.3,7.4,3.1,12.3,7.7,14.7,13.8s2.2,12.4-.8,19.1c-3.4,8.2-9.6,13.9-18.5,17.1-13.7,5.2-28.8,5.7-45.3,1.5-5-1.3-10.6-2.6-16.9-4-2.1-.5-3.5-1.1-4.3-1.9-.7-.8-1.2-2.2-1.2-4.2-.3-4-.3-7.8-.1-11.5.4-5,2.9-6.4,7.6-4.1,1.6.7,4.4,2.1,8.3,3.9s6.9,3.3,9,4.4c6.7,3,14.4,4.2,23.1,3.4,3.7-.4,6.9-1.8,9.7-4.1,2.7-2.4,4-5.3,3.9-8.8s-1.5-6.4-4.3-8.7c-3-2.5-6.8-4.1-11.3-4.8-10-1.6-16.9-2.8-20.7-3.7-4.6-1-9.2-3.1-14-6.4-3.6-2.5-6.1-5.8-7.7-9.8-1.5-4.1-2-8-1.5-11.9.5-3.9,1.8-7.5,3.8-10.7,4.6-7.3,11.1-12.2,19.6-14.8h0Z"/>
    <path class="st1" d="M540,116.1h37.3c3.3,0,5.7.3,7.2.9,1.5.6,2.6,1.7,3.2,3.2.6,1.6.9,4,.9,7.3,0,2.4-.2,4.1-.3,5.2-.4,2.2-1,3.7-1.9,4.4s-2.5,1.1-4.8,1c-6.5-.3-11.6-.5-15.5-.7-.7,0-1.5,0-2.6,0-6.5.4-10.6,3.7-12.2,9.9-.8,3.3-1.2,6.6-1.2,9.8-.2,13.2-.2,24.9,0,35.1,0,2.5.5,7,1.4,13.5.4,2.3.2,3.9-.4,4.9-.6,1-2,1.5-4.1,1.6-3.4.2-8.5,0-15.3-.6-2-.2-3-1.8-2.8-4.8.7-20.9,1.1-33.2,1.1-36.9,0-5.4-.3-12.9-1.2-22.4-.2-2-.7-3.8-1.7-5.3-.9-1.5-2.1-2.8-3.6-3.7-1.5-1-3.2-1.6-5.1-2-2.2-.4-6.5-.5-12.9-.3-1.1,0-2.6.1-4.6.4-2,.3-3.2.5-3.8.6-1.8,0-3-.2-3.9-.8-.8-.6-1.3-1.9-1.4-3.7-.2-2.9-.2-5.7,0-8.4.2-2,.6-3.6,1.2-4.8.6-1.2,1.5-2.1,2.7-2.6,1.2-.6,2.8-.8,4.7-.8h39.5Z"/>
    <path class="st1" d="M608.2,193.6v-27.8c0-17.7,0-27.5-.1-29.6,0-3.5-.3-7.9-1-13.1-.3-2.5,0-4.2.6-5.1s2.2-1.5,4.6-1.8c1-.2,2.2-.3,3.6-.3,28.5,0,45.3,0,50.3.1,4.5,0,9.8.8,16,2.2,8.1,1.9,13.4,7.1,15.8,15.5,1.7,6,2,11.5,1.1,16.4-1.4,7.8-5.4,13.9-12,18.2-.4.3-1.3.9-2.8,1.8-7.6,4.8-9.5,11.2-5.5,19.3.5.8,3.1,5.8,8,14.9.2.2.4.4.5.8.2.3.4.6.5.9s.3.6.4.8c1.2,2.7.4,4.3-2.5,5-1.8.4-3.8.6-6.1.6s-2.6,0-4.5-.2-3.1-.2-3.7-.3c-2.3,0-4-.5-5-1.2-1-.7-1.9-2.2-2.6-4.3-3-8.6-7.4-16.9-13.2-25-2.8-3.8-6.3-5.7-10.6-5.7s-7.3,2-8.8,5.9c-1,2.5-1.5,4.7-1.5,6.8,0,4.8.2,10.6.7,17.3.3,3.7-1.2,5.7-4.3,5.9-4.3.4-9.4.4-15.2.1-2.5,0-3.6-1.9-3.5-5.4.4-6.7.6-11,.7-12.9h0ZM643.1,153.5c.4.1,3,.1,7.7.1.9-.1,2.9-.2,6-.4,3.1-.1,5.5-.3,7.1-.6,2.2-.5,3.9-1.4,5.1-2.7,1.2-1.3,1.8-2.9,1.7-4.8,0-1.9-.7-3.5-1.9-4.8-1.2-1.3-3-2.3-5.3-2.8-.7,0-1.2-.1-1.5-.1-10.8-.4-17.4-.6-19.9-.6s-3.2.5-5,1.4c-3.1,1.6-4.7,3.9-4.7,6.9s1.5,5.6,4.5,6.9c1.8.8,3.9,1.3,6.1,1.5h0Z"/>
    <path class="st1" d="M731.7,116.1h7.3c3.1.3,4.6,2,4.3,5.2-.6,7.5-1,15.4-1.1,23.8,0,8.4,0,17.7,0,27.9.1,10.2.2,18.1.2,23.8,0,.9,0,1.9,0,3,.1,1.1.3,2.2.5,3.5.2,1.3.4,2.3.5,2.9.3,2.1,0,3.7-.7,4.6-.7,1-2.1,1.5-4.1,1.6-3.2,0-8.1-.1-14.7-.7-2.2-.2-3.3-1.8-3.2-4.7,0-.7.2-2.1.4-3.9.2-1.9.3-3.4.3-4.5,0-25.5,0-42.2,0-50.1,0-3.2-.7-12.2-1.8-27.1-.2-3.3,1.2-5.1,4.2-5.4h7.7,0Z"/>
    <path class="st1" d="M857.8,194.6s-.6,9.8-.7,10.2c-.3,1.7-.8,2.8-1.5,3.4-.7.6-1.9,1-3.5,1-4.1,0-9.3,1.1-15.6,3.6-9.8,3.9-19.8,4.8-30.2,2.7-10.4-2.1-19.4-6.7-26.9-14-12.9-12.6-17-28.5-12.2-47.7,5.5-22.4,20.9-36.5,46-42.3,7.7-1.8,16.6-.7,26.7,3.2,6.4,2.5,11.3,3.8,14.5,4,1.8,0,3.1.5,3.9,1.3.7.8,1.1,2.1,1.1,3.9,0,5.7-.3,10.8-.7,15.3-.5,4.1-2.7,5.7-6.8,4.6-1.2-.3-2.6-1-4.3-2.1-.7-.5-1.9-1.3-3.5-2.4-1.6-1.1-2.9-2-3.8-2.6-11.2-7.1-22.5-8.1-33.8-3-4.4,1.9-8.2,4.7-11.2,8.3-3,3.6-5.1,7.5-6.3,11.7-1.2,4.2-1.5,8.6-1.1,13.1.4,4.6,1.6,8.9,3.7,12.9,3,6,7.2,10.5,12.6,13.5s11,4.4,17.1,4.1,12-2,17.8-5.2c1.1-.6,2.2-1.3,3.3-2.1,1.1-.7,2.5-1.7,4.1-3,1.6-1.2,2.6-2.1,3.1-2.4,2.3-1.8,4.2-2.2,5.8-1.5,1.6.8,2.4,2.6,2.5,5.4v5.9h0Z"/>
    <path class="st1" d="M923.2,116.1h37.3c3.3,0,5.7.3,7.2.9,1.5.6,2.6,1.7,3.2,3.2.6,1.6.9,4,.9,7.3,0,2.4-.2,4.1-.3,5.2-.4,2.2-1,3.7-1.9,4.4s-2.5,1.1-4.8,1c-6.5-.3-11.6-.5-15.5-.7-.7,0-1.5,0-2.6,0-6.5.4-10.6,3.7-12.2,9.9-.8,3.3-1.2,6.6-1.2,9.8-.2,13.2-.2,24.9,0,35.1,0,2.5.5,7,1.4,13.5.4,2.3.2,3.9-.4,4.9-.6,1-2,1.5-4.1,1.6-3.4.2-8.5,0-15.3-.6-2-.2-3-1.8-2.8-4.8.7-20.9,1.1-33.2,1.1-36.9,0-5.4-.3-12.9-1.2-22.4-.2-2-.7-3.8-1.7-5.3-.9-1.5-2.1-2.8-3.6-3.7-1.5-1-3.2-1.6-5.1-2-2.2-.4-6.5-.5-12.8-.3-1.1,0-2.6.1-4.6.4-2,.3-3.2.5-3.8.6-1.8,0-3-.2-3.9-.8-.8-.6-1.3-1.9-1.4-3.7-.2-2.9-.2-5.7,0-8.4.2-2,.6-3.6,1.2-4.8.6-1.2,1.5-2.1,2.7-2.6,1.2-.6,2.8-.8,4.7-.8h39.5Z"/>
    <path class="st1" d="M998.3,115.8c-.3,2.2-1.2,3.8-2.6,4.9-1.5,1.1-3.4,1.6-5.8,1.4-4.1-.2-6.4-2.4-6.8-6.8v-7.4c.5-3.2,2.3-5.1,5.5-5.5,1.2-.2,2.5-.2,4-.1,3.5.3,5.4,2,5.7,5.2.3,2.9.3,5.6,0,8.3Z"/>
    <path class="st1" d="M1039.1,113.9c7.6-2.4,13.8-3.5,18.5-3.3,11.9.3,21,1.8,27.3,4.7.6.2,1.2.4,1.9.6.7.2,1.3.3,1.8.4.5,0,1.2.2,2,.3s1.5.2,1.9.3c2.3.4,3.8,1,4.6,1.9.8.9,1.2,2.6,1.3,5v7.7c-.3,6.4-3.4,8.3-9.3,5.9-1.7-.7-4.7-2.3-9.2-4.7-5.3-2.9-11.4-4.7-18.2-5.5-4.6-.7-9.1.3-13.5,2.9-3,1.7-4.7,4.3-5.2,7.9s.3,6.7,2.6,9.3c2.5,2.9,5.5,4.6,9,5.4,1.6.4,4.2.9,7.7,1.4,3.6.6,6.3,1.1,8.2,1.6,7.9,1.8,13.1,3.2,15.6,4.3,7.4,3.1,12.3,7.7,14.7,13.8s2.2,12.4-.8,19.1c-3.4,8.2-9.6,13.9-18.5,17.1-13.7,5.2-28.8,5.7-45.3,1.5-5-1.3-10.6-2.6-16.9-4-2.1-.5-3.5-1.1-4.3-1.9-.7-.8-1.2-2.2-1.2-4.2-.3-4-.3-7.8-.1-11.5.4-5,2.9-6.4,7.6-4.1,1.7.7,4.4,2.1,8.3,3.9s6.9,3.3,9,4.4c6.7,3,14.4,4.2,23.1,3.4,3.7-.4,6.9-1.8,9.7-4.1,2.7-2.4,4-5.3,3.9-8.8s-1.5-6.4-4.3-8.7c-3-2.5-6.8-4.1-11.3-4.8-10-1.6-16.9-2.8-20.7-3.7-4.6-1-9.2-3.1-13.9-6.4-3.6-2.5-6.2-5.8-7.7-9.8-1.5-4.1-2-8-1.5-11.9.5-3.9,1.8-7.5,3.8-10.7,4.6-7.3,11.1-12.2,19.6-14.8h0Z"/>
    <path class="st1" d="M158.9,251c16.6,0,25.7,0,27.4-.1,1.9,0,4.7,0,8.4-.3,3.6-.2,6.1-.3,7.4-.3,1.6,0,3.3,0,4.8.3,2.1.5,3.6,1.2,4.5,2.3.9,1.1,1.4,2.7,1.4,4.9.3,6.5.4,10.2.3,11.3-.3,2.1-.8,3.4-1.6,3.9-.8.5-2.3.5-4.5.1-4.7-.8-8.6-1.3-11.6-1.4-9.2-.2-19.8-.2-31.8,0-2.9,0-5.9.4-9.1,1.1-1.8.5-3.3,1.3-4.7,2.6-1.8,1.6-2.6,3.3-2.6,5.2,0,1.9.9,3.6,2.7,5.1,1.6,1.3,3.1,2,4.4,2.2,4.7.7,8.9,1.1,12.6,1.1s6.5,0,11.5-.2c5-.1,8.1-.2,9.5-.2s2.9.2,3.9.5c1.8.7,2.9,1.5,3.2,2.4,1.6,4.9,1.6,9.6,0,14.1-.5,1.2-1.8,2.2-4,2.9-1.3.4-3.2.6-5.8.7h-23.4c-1.9,0-3.4,0-4.4.1-3.9.5-6.9,2-9.1,4.3-2.2,2.3-3.3,5.4-3.4,9.3,0,4,.3,10.2.8,18.4.2,1.9,0,3.4-.8,4.4-.7,1-1.9,1.6-3.6,1.7-4.4.4-9.5.4-15.2.1-2.9-.2-4.2-1.9-3.9-5.1.7-6.7,1.2-13.8,1.3-21.3.1-7.5.1-15.9,0-25.3-.2-9.4-.3-16.4-.3-21.2,0-1.8,0-3.5-.1-5.4-.2-1.8-.5-4.1-.8-6.9-.4-2.8-.6-4.6-.7-5.4-.4-3.4,1.1-5.3,4.4-5.8.8,0,2.2-.1,4.1-.1h28.7,0Z"/>
    <path class="st1" d="M232.9,328.7v-27.8c0-17.7,0-27.5-.1-29.6,0-3.5-.3-7.9-1-13.1-.3-2.5,0-4.2.6-5.1s2.2-1.5,4.6-1.8c1-.2,2.2-.3,3.6-.3,28.5,0,45.3,0,50.3.1,4.5,0,9.9.8,16,2.2,8.1,1.9,13.4,7.1,15.8,15.5,1.7,6,2,11.5,1.1,16.4-1.4,7.8-5.4,13.9-12,18.2-.4.3-1.3.9-2.8,1.8-7.6,4.8-9.5,11.2-5.5,19.3.5.8,3.1,5.8,8,14.9.2.2.4.4.5.8s.4.6.5.9.3.5.4.8c1.2,2.7.4,4.3-2.5,5-1.8.4-3.8.5-6.1.5s-2.6,0-4.5-.2c-1.9-.1-3.1-.2-3.7-.3-2.3,0-4-.5-5-1.2s-1.9-2.2-2.6-4.3c-3-8.6-7.4-16.9-13.2-25-2.8-3.8-6.3-5.7-10.6-5.7s-7.3,2-8.9,5.9c-1,2.5-1.5,4.7-1.5,6.8,0,4.8.2,10.5.7,17.3.3,3.7-1.1,5.7-4.3,5.9-4.3.4-9.4.4-15.2.1-2.5,0-3.6-1.9-3.4-5.4.4-6.7.6-11,.7-12.9h0ZM267.8,288.7c.4.1,3,.1,7.7.1.9-.1,2.9-.2,6-.4,3.1-.1,5.5-.3,7.1-.6,2.2-.5,3.9-1.4,5.1-2.7,1.2-1.3,1.8-3,1.7-4.8,0-1.9-.7-3.5-1.9-4.8-1.2-1.3-3-2.3-5.3-2.8-.7,0-1.2-.1-1.5-.1-10.8-.4-17.4-.6-19.9-.6s-3.2.5-5,1.4c-3.1,1.6-4.7,3.9-4.7,6.9s1.5,5.6,4.5,6.9c1.9.8,3.9,1.3,6.1,1.5h0Z"/>
    <path class="st1" d="M356.4,251.2h7.3c3.1.3,4.6,2,4.3,5.2-.6,7.5-1,15.4-1.1,23.8s0,17.7,0,27.9c.1,10.2.2,18.1.2,23.8-.1.9,0,1.9,0,3,.1,1.1.3,2.2.5,3.5.2,1.3.4,2.3.5,2.9.3,2.1,0,3.7-.7,4.6-.7,1-2.1,1.5-4.1,1.6-3.2,0-8.1-.1-14.6-.7-2.2-.2-3.3-1.8-3.2-4.7,0-.7.2-2,.4-3.9.2-1.9.3-3.4.3-4.5,0-25.5,0-42.2,0-50.1,0-3.2-.7-12.2-1.8-27.1-.2-3.3,1.2-5.1,4.1-5.4h7.7Z"/>
    <path class="st1" d="M465.2,250.8c.7,0,1.8,0,3.2-.2s2.4-.2,3-.2c3.5,0,5.8,0,6.9.1,2,.3,3.5.8,4.4,1.7s1.5,2.2,1.7,4.1c.4,4.2.4,8.4.1,12.6-.2,1.9-.7,3.2-1.7,3.8-.9.6-2.4.7-4.4.3-5.2-.9-9.1-1.4-11.7-1.4-11.1-.2-22.2-.2-33.1,0-2.9,0-5.9.6-9,1.7-3.4,1.2-5,3.7-4.7,7.6.2,3.7,2.1,5.9,5.7,6.8,4,.9,7.6,1.4,10.9,1.5,2.4,0,5.8,0,10.2-.3,4.4-.2,7.4-.3,9-.3,1.5,0,3.8.1,6.9.5,3,.5,4.6,2.1,4.8,5,.4,3.4.4,6.6.1,9.5,0,1-.4,1.9-1,2.7-.5.8-1.3,1.4-2.2,1.9-.9.5-1.9.8-2.9.8-2.9.1-9.7.2-20.6.3-.4,0-2.2,0-5.4,0-3.2,0-5,0-5.4,0-1.6.1-3.3.6-5.2,1.4-3.3,1.4-5,3.7-5,7s.1,1.6.4,2.3c.3.7.6,1.4,1.1,2.1.5.6,1,1.2,1.7,1.7.7.5,1.4.9,2.1,1,2.8.8,5.2,1.2,7.3,1.1,12.1,0,25.3-.3,39.8-.7.9,0,2.2-.2,3.7-.5,1.6-.4,2.5-.5,2.9-.5,2-.4,3.5-.2,4.4.5.9.7,1.3,2.1,1.3,4,.2,3.8.2,7.7,0,11.7,0,1.9-.4,3.2-1.2,4.1-.8.9-2.2,1.6-4,1.9-1,0-2.5.1-4.4.1-1.5,0-5,.1-10.6,0-5.6,0-9.2,0-10.8,0-5.4,0-14,.1-25.8.3-11.8.2-20.8.3-27,.4-3.7,0-5.9-.4-6.6-1.3-.7-.9-.8-3.2-.1-6.8.7-4.4,1.2-9.4,1.2-15.1.3-10.5.3-20.1,0-28.7,0-4.9-.5-15.9-1.4-33.1,0-1.2-.2-2.8-.7-4.7-.7-2.8-.7-4.6,0-5.5.8-.9,2.6-1.4,5.5-1.4,1.5,0,9.7-.1,24.7-.1h41.7,0Z"/>
    <path class="st1" d="M528,323.8c0,1.1.2,2.3.3,3.5.1,1.2.2,2.4.3,3.6s.2,2.3.3,3.5c0,1.1.2,2.4.3,3.6.1,1.2.2,2.4.3,3.5.2,1.5.2,2.6,0,3.5-.2.9-.7,1.5-1.5,1.9-.8.4-1.9.6-3.4.6-4.1.2-8.5.2-13,0-3.8-.2-5.4-2.1-4.8-5.8.7-4.6,1.2-9.4,1.3-14.5.1-5.1.1-10.9,0-17.4-.1-6.5-.2-11.4-.2-14.5,0-4.2-.1-11.6-.7-22.1-.2-4.8-.5-9.7-1.1-14.6-.3-2.4,0-4,.7-4.9.7-.9,2.3-1.3,4.6-1.3,5.2-.1,9.8-.1,14,0,1.9,0,3.4.5,4.3,1.3,1,.8,1.6,2.1,1.9,3.8.5,4,2.2,7.6,5.1,10.9,6.9,7.9,13.5,15.4,19.8,22.4,2.1,2.3,4.5,3.5,7,3.6,5.6.4,8.7-1.9,9.3-6.8.5-4.3.8-10.8.7-19.5,0-1,0-2.1-.2-3.2-.2-1.1-.3-2.4-.6-3.8s-.4-2.5-.5-3.2c-.2-1.2-.2-2.2,0-3,.2-.8.7-1.4,1.3-1.8.6-.4,1.6-.6,2.8-.6,4.6-.3,9.4-.3,14.4,0,1.7,0,2.8.4,3.5,1.2.7.8,1,2.1.9,3.8-.3,23.2-.5,38.5-.7,45.7,0,1.2-.1,3.7-.3,7.5-.2,3.8-.3,6.7-.2,8.7.2,5,.8,12.4,1.8,22.4.2,2,0,3.5-.8,4.4-.7.9-2,1.4-3.9,1.4-4.7.1-9.6.1-14.8,0-3.2,0-5.1-1.5-5.5-4.3-.7-4.5-3.2-9.1-7.5-13.7-1.6-1.8-4.3-4.8-8.2-9.1-3.9-4.3-7-7.7-9.2-10.1-.8-.9-1.8-1.8-3-2.6-3.1-2.2-6.2-2.7-9-1.6-2.9,1.1-4.7,3.6-5.3,7.4-.2,1-.3,2.1-.3,3.2,0,1.1,0,2.4-.1,3.9,0,1.5,0,2.5,0,3.2h0Z"/>
    <path class="st1" d="M650.9,347.6h-24.3c-2.8,0-4.5-.5-5.2-1.5-.7-1-.9-2.9-.4-5.7.9-5.4,1.4-10.3,1.4-14.6,0-5.4.1-22.5.1-51.2s0-12.3-.1-14.6c0-.6-.1-1.5-.3-2.5s-.4-1.7-.5-1.9c-.5-3.1.9-4.9,4-5.2.5,0,1.2-.1,2.2-.1,26.7,0,41.8,0,45.3.1,8.3.2,15,1.6,20.2,4.1,7.4,3.8,13.2,9.9,17.5,18.2,4,7.9,6,16.1,6,24.6,0,18.7-6.7,33.1-20,43.2-2,1.6-4.3,2.9-6.7,3.9-2.4,1.1-4.9,1.9-7.5,2.4-2.5.5-5.2.8-7.9.9h-23.7ZM653.5,325.3c.5,0,4.2.5,10.9,1.2,7.5-.7,11.4-1.1,11.9-1.2,8.3-1.7,13.8-6.4,16.5-14.1,2.3-6.7,2.1-14.1-.7-22.1-2.4-6.9-6.2-11.6-11.5-14.2-9.2-4.6-18.7-5.2-28.6-1.8-3.2,1-5.4,3.2-6.5,6.6-.9,2.8-1.5,5.6-1.7,8.6-.5,6.9-.7,12.9-.5,18.1,0,3.4.5,6.9,1.4,10.5,1.1,4.6,4,7.4,8.8,8.4h0Z"/>
    <path class="st1" d="M798.4,347h0c-2.1-.1-6.8,0-14,0-7.2.1-13.2.3-18,.4-4.7,0-9.5.2-14.2.3-2,0-5.2-.2-9.5-.7-1.6-.2-2.7-.6-3.2-1.4s-.8-1.8-.5-3.3c1.1-6.9,1.3-13.5.7-19.9-.2-1.1-.2-2.8,0-5,.2-2.2.3-3.7.3-4.6-.2-17-.5-32.5-.8-46.4,0-1.3-.2-3.2-.5-5.7-.3-2.5-.5-3.9-.5-4.2-.2-1.3-.2-2.3.1-3.1s.8-1.4,1.5-1.7c.7-.4,1.7-.6,3-.7,4.7,0,9,0,12.8.1,2.3.1,3.9.6,4.7,1.7.8,1,1.1,2.7.8,5-.3,2.7-.4,5.2-.4,7.7-.4,18.9-.6,32.5-.7,40.9,0,2.5.3,5.5.8,9.1.9,5.2,3.9,8.5,9,9.7,2.8.7,5.3,1.1,7.7,1.1,12.8.2,22.5.2,29.2,0,3.6,0,8.9-.6,16-1.7,2.6-.4,4.3-.2,5.1.3.8.6,1.4,2.1,1.7,4.6.4,4.1.5,7.6.5,10.4s-.5,4.3-1.7,5.3c-1.1,1.1-2.9,1.6-5.4,1.7h-24.7Z"/>
    <path class="st1" d="M860.2,251.2h7.3c3.1.3,4.6,2,4.3,5.2-.6,7.5-1,15.4-1.1,23.8,0,8.4,0,17.7,0,27.9.1,10.2.2,18.1.2,23.8,0,.9,0,1.9,0,3,.1,1.1.3,2.2.5,3.5.2,1.3.4,2.3.5,2.9.3,2.1,0,3.7-.7,4.6-.7,1-2.1,1.5-4.1,1.6-3.2,0-8.1-.1-14.7-.7-2.2-.2-3.3-1.8-3.2-4.7,0-.7.2-2,.4-3.9.2-1.9.3-3.4.3-4.5,0-25.5,0-42.2,0-50.1,0-3.2-.7-12.2-1.8-27.1-.2-3.3,1.2-5.1,4.2-5.4h7.7,0Z"/>
    <path class="st1" d="M969,250.8c.7,0,1.8,0,3.2-.2s2.4-.2,3-.2c3.5,0,5.8,0,6.9.1,2,.3,3.5.8,4.4,1.7s1.5,2.2,1.7,4.1c.4,4.2.4,8.4.1,12.6-.2,1.9-.7,3.2-1.7,3.8-.9.6-2.4.7-4.4.3-5.2-.9-9.1-1.4-11.7-1.4-11.2-.2-22.2-.2-33.2,0-2.8,0-5.9.6-9,1.7-3.4,1.2-5,3.7-4.7,7.6.2,3.7,2.1,5.9,5.7,6.8,4,.9,7.6,1.4,10.9,1.5,2.4,0,5.8,0,10.2-.3,4.4-.2,7.4-.3,9-.3,1.5,0,3.8.1,6.9.5,3,.5,4.6,2.1,4.8,5,.4,3.4.4,6.6.1,9.5,0,1-.4,1.9-1,2.7-.5.8-1.3,1.4-2.2,1.9-.9.5-1.9.8-2.9.8-2.8.1-9.7.2-20.6.3-.4,0-2.2,0-5.4,0-3.2,0-5,0-5.4,0-1.6.1-3.3.6-5.2,1.4-3.3,1.4-5,3.7-5,7s.1,1.6.4,2.3c.3.7.6,1.4,1.1,2.1.5.6,1,1.2,1.7,1.7.7.5,1.4.9,2.1,1,2.8.8,5.2,1.2,7.3,1.1,12.1,0,25.3-.3,39.8-.7.9,0,2.2-.2,3.7-.5,1.6-.4,2.5-.5,2.9-.5,2-.4,3.5-.2,4.3.5.9.7,1.3,2.1,1.3,4,.2,3.8.2,7.7,0,11.7,0,1.9-.4,3.2-1.2,4.1-.8.9-2.2,1.6-4,1.9-1,0-2.5.1-4.4.1-1.5,0-5,.1-10.6,0-5.6,0-9.2,0-10.8,0-5.4,0-14,.1-25.8.3-11.8.2-20.8.3-27,.4-3.7,0-5.9-.4-6.6-1.3-.7-.9-.8-3.2-.2-6.8.7-4.4,1.2-9.4,1.2-15.1.3-10.5.3-20.1,0-28.7,0-4.9-.5-15.9-1.4-33.1,0-1.2-.2-2.8-.7-4.7-.7-2.8-.7-4.6,0-5.5.8-.9,2.6-1.4,5.5-1.4,1.5,0,9.7-.1,24.7-.1h41.7,0Z"/>
    <path class="st1" d="M1033.5,249c7.6-2.4,13.8-3.5,18.5-3.3,11.9.3,21,1.9,27.3,4.7.6.2,1.2.4,1.9.6.7.2,1.3.3,1.8.4.5,0,1.2.2,2,.3s1.5.2,1.9.3c2.3.4,3.8,1,4.6,1.9.8.9,1.2,2.6,1.3,5v7.7c-.3,6.4-3.4,8.3-9.3,5.9-1.7-.7-4.7-2.3-9.2-4.7-5.3-2.9-11.4-4.7-18.2-5.5-4.6-.6-9.1.3-13.5,2.9-3,1.7-4.7,4.3-5.2,7.9s.3,6.7,2.6,9.3c2.5,2.9,5.5,4.6,9,5.4,1.6.4,4.2.9,7.7,1.5,3.6.6,6.3,1.1,8.2,1.6,7.9,1.8,13.1,3.2,15.6,4.3,7.4,3.1,12.3,7.7,14.7,13.8s2.2,12.4-.8,19.1c-3.4,8.2-9.6,13.9-18.5,17.1-13.7,5.2-28.8,5.7-45.3,1.5-5-1.3-10.6-2.6-16.9-4-2.1-.5-3.5-1.1-4.3-1.9-.7-.8-1.2-2.2-1.2-4.2-.3-4-.3-7.8-.1-11.5.4-5,2.9-6.4,7.6-4.1,1.7.7,4.4,2,8.3,3.9,3.9,1.9,6.9,3.3,9,4.4,6.7,3,14.4,4.2,23.1,3.5,3.7-.4,6.9-1.8,9.7-4.1,2.7-2.4,4-5.3,3.9-8.8s-1.5-6.4-4.3-8.7c-3-2.5-6.8-4.1-11.3-4.8-10-1.6-16.9-2.8-20.7-3.7-4.6-1-9.2-3.1-14-6.4-3.6-2.5-6.2-5.8-7.7-9.8-1.5-4-2-8-1.5-12,.5-3.9,1.8-7.5,3.8-10.7,4.6-7.3,11.1-12.2,19.6-14.8h0Z"/>
    <path class="st1" d="M1160,251.2h37.3c3.3,0,5.7.3,7.2.9,1.5.6,2.6,1.7,3.2,3.2.6,1.6.9,4,.9,7.3,0,2.4-.2,4.1-.3,5.2-.4,2.2-1,3.7-1.9,4.4s-2.5,1.1-4.8,1c-6.4-.3-11.6-.5-15.5-.7-.7,0-1.5,0-2.6,0-6.5.4-10.6,3.7-12.2,10-.8,3.3-1.2,6.6-1.2,9.8-.2,13.2-.2,24.9,0,35.1,0,2.5.6,7,1.4,13.5.4,2.3.2,3.9-.4,4.9-.6,1-2,1.5-4.1,1.6-3.4.2-8.5,0-15.3-.5-2-.2-3-1.8-2.8-4.8.7-20.9,1.1-33.2,1.1-36.9,0-5.4-.3-12.9-1.2-22.4-.2-2-.7-3.8-1.7-5.3-.9-1.5-2.1-2.8-3.6-3.7-1.5-1-3.2-1.6-5.1-2-2.2-.4-6.5-.5-12.8-.3-1.1,0-2.6.1-4.6.4-2,.3-3.2.5-3.8.6-1.8,0-3.1-.2-3.9-.8-.8-.6-1.3-1.9-1.4-3.7-.2-2.9-.2-5.7,0-8.4.2-2,.6-3.6,1.2-4.8.6-1.2,1.5-2.1,2.7-2.6,1.2-.6,2.8-.8,4.7-.8h39.5Z"/>
    <path class="st1" d="M225.7,386.4h37.3c3.3,0,5.7.3,7.2.9,1.5.6,2.6,1.7,3.2,3.2.6,1.6.9,4,.9,7.3,0,2.4-.2,4.1-.3,5.2-.4,2.2-1,3.7-1.9,4.4s-2.5,1.1-4.8,1c-6.5-.3-11.6-.5-15.5-.7-.6,0-1.5,0-2.6,0-6.5.4-10.6,3.7-12.1,10-.8,3.3-1.2,6.6-1.2,9.8-.2,13.2-.2,24.9,0,35.1,0,2.5.6,7,1.4,13.5.4,2.3.2,3.9-.4,4.9-.6,1-2,1.5-4.1,1.6-3.4.2-8.5,0-15.3-.5-2-.2-3-1.8-2.8-4.8.7-20.9,1.1-33.2,1.1-36.9,0-5.4-.3-12.9-1.2-22.4-.2-2-.7-3.8-1.7-5.3-.9-1.5-2.1-2.8-3.6-3.7-1.5-1-3.2-1.6-5.1-2-2.2-.4-6.5-.5-12.9-.3-1.1,0-2.6.1-4.6.4-2,.3-3.2.5-3.8.6-1.8,0-3.1-.2-3.9-.8-.8-.6-1.3-1.9-1.4-3.7-.2-2.9-.2-5.7,0-8.4.2-2,.6-3.6,1.2-4.8.6-1.2,1.5-2.1,2.7-2.6,1.2-.5,2.8-.8,4.7-.8h39.5Z"/>
    <path class="st1" d="M358,482.8c-5.6-.6-8.7-1-9.1-1-3.1-.4-5.2-2-6.4-5-2.1-5.4-6-8.2-11.5-8.4-10.7-.5-18.1-.6-22.4-.4-5.5.2-9.2,2.9-10.9,8.1-1.5,4.4-4.5,6.5-9.1,6.4-7-.3-10.9-.5-11.7-.5-2.4-.3-3.8-.9-4.3-1.9-.5-1-.2-2.5.7-4.6,7.5-17,12.1-27.8,14-32.2,4-10.1,9.5-24.1,16.4-41.9.8-2.2,1.6-5.2,2.2-9,.4-2.1,1-3.7,2-4.7,1-1,2.4-1.6,4.4-1.7,4.6,0,10.6.1,18,.7,1.3,0,2.3.6,3,1.5.7.9,1.2,2.1,1.2,3.5,0,1.2.2,2.4.5,3.6.2,1.2.6,2.6,1,4.1s.8,2.6,1,3.3c.2.7.7,2,1.5,3.9.7,1.9,1.2,3,1.4,3.4,6.7,17.5,10.7,27.9,12,31.1,2.2,5.4,7.1,17.2,14.8,35.2,1.5,3.5.4,5.5-3.2,6.1-2,.3-3.9.4-5.5.4h0ZM320,430.2c-1.6,0-3,.4-4.2,1.1-1.2.7-2.2,1.8-2.9,3.1-.7,1.3-1,2.8-1,4.5,0,2.7.8,4.8,2.3,6.5,1.5,1.7,3.5,2.4,5.9,2.4,2.4,0,4.3-.8,5.8-2.4,1.5-1.6,2.2-3.7,2.4-6.1,0-1-.1-2-.4-3-.3-1-.6-1.8-1.1-2.5-.5-.7-1-1.3-1.7-1.9-.6-.5-1.4-1-2.3-1.2-.9-.3-1.8-.4-2.7-.4h0Z"/>
    <path class="st1" d="M472.5,464.8s-.6,9.8-.7,10.2c-.3,1.7-.8,2.8-1.5,3.5-.7.6-1.9,1-3.5,1-4.1,0-9.3,1.1-15.6,3.6-9.8,3.9-19.8,4.8-30.2,2.7-10.4-2.1-19.4-6.7-26.9-14-12.9-12.6-17-28.5-12.2-47.7,5.5-22.4,20.9-36.5,46-42.3,7.7-1.8,16.6-.7,26.7,3.2,6.4,2.5,11.3,3.8,14.5,4,1.9,0,3.1.5,3.9,1.3.7.8,1.1,2.1,1.1,3.9-.1,5.7-.3,10.8-.7,15.3-.5,4.1-2.7,5.7-6.8,4.6-1.2-.3-2.6-1-4.3-2.1-.7-.5-1.9-1.3-3.5-2.4-1.6-1.1-2.9-2-3.8-2.6-11.2-7.1-22.5-8.1-33.9-3-4.4,1.9-8.1,4.7-11.2,8.3-3,3.6-5.1,7.5-6.3,11.7-1.2,4.2-1.5,8.6-1.1,13.1.4,4.6,1.6,8.9,3.7,12.9,3,6,7.2,10.5,12.6,13.5s11,4.4,17.1,4.1c6.1-.3,12-2,17.8-5.2,1.1-.6,2.2-1.3,3.3-2.1,1.1-.7,2.5-1.7,4.1-3,1.6-1.2,2.6-2,3.1-2.4,2.3-1.8,4.2-2.2,5.8-1.5,1.6.8,2.4,2.6,2.5,5.4v6h0Z"/>
    <path class="st1" d="M495.2,452.4c-.3-1.2-.5-2.5-.8-4-.8-4.6-1.1-9.5-.7-14.6.7-9.1,2.4-16.4,4.8-21.8,4.3-9.5,11.1-17.2,20.4-23.2,8.5-5.2,17.5-8.1,27.2-8.4,14.4-.5,25.8,4.8,34.4,15.9,5,6.5,8.3,15.1,10.1,25.8,1.6,9.1,1.3,18.2-.7,27.2-2.2,10-6.9,17.9-14.2,24-7.2,6-16.1,9.7-26.6,11-7.9,1.1-15.7.5-23.3-1.7-15.9-4.5-26.2-14.5-30.7-30.1h0ZM556.8,459.6c7.5-6.8,11-15,10.6-24.6,0-1.4,0-2.6,0-3.7.2-7.1-1.2-13.6-4.3-19.5-3.8-7.2-8.9-11.3-15.5-12.4-9.2-1.6-16.8,1.6-22.9,9.5-4.2,5.5-6.8,13.6-7.6,24.3-.6,7,.3,13,2.5,18.1,3.3,7.8,8.7,12.6,16,14.4,7.5,1.9,14.6-.1,21.1-6.1h0Z"/>
    <path class="st1" d="M729.5,447.1c0-.9.4-6.2,1-15.7-.5-20.2-.8-31.9-1-35.1,0-.4-.3-2.5-.8-6.5-.6-3.9.8-5.9,4.3-6.1,4.7-.3,9.6-.3,14.8,0,1.7.1,2.9.6,3.7,1.5.8.9,1.1,2,.9,3.5-.7,4.9-1.2,10.4-1.3,16.5-.1,6.1-.1,11.6,0,16.4.2,4.8.1,10.3-.2,16.5-.2,5.7-.8,11-1.8,16-1.7,8.9-6.3,16.2-14,21.8-8.5,6.1-16.8,9-25,8.7-7.6-.3-12.8-.7-15.3-1.2-14.1-3-23.6-11.5-28.6-25.6-.9-2.6-1.9-6.9-2.9-13-.2-1.4-.2-2.5,0-3.4.2-.9.8-1.5,1.6-1.9.8-.4,2-.6,3.5-.6,4.2,0,8.4,0,12.6,0,1.9,0,3.2.4,3.9,1.1s1,2.1,1,4c0,6,1,10.5,3.3,13.4,4.1,5.2,9,7.8,14.6,8,7.2.3,12.6-.9,16.3-3.5,5.3-3.8,8.4-8.7,9.3-14.9h0Z"/>
    <path class="st1" d="M774.5,452.4c-.3-1.2-.5-2.5-.8-4-.8-4.6-1.1-9.5-.7-14.6.7-9.1,2.3-16.4,4.8-21.8,4.3-9.5,11.1-17.2,20.4-23.2,8.5-5.2,17.5-8.1,27.2-8.4,14.4-.5,25.8,4.8,34.4,15.9,5,6.5,8.3,15.1,10.1,25.8,1.6,9.1,1.3,18.2-.7,27.2-2.2,10-6.9,17.9-14.2,24-7.2,6-16.1,9.7-26.6,11-7.9,1.1-15.7.5-23.3-1.7-15.9-4.5-26.2-14.5-30.7-30.1h0ZM836.1,459.6c7.5-6.8,11-15,10.6-24.6,0-1.4,0-2.6,0-3.7.2-7.1-1.2-13.6-4.3-19.5-3.8-7.2-8.9-11.3-15.5-12.4-9.2-1.6-16.8,1.6-22.9,9.5-4.2,5.5-6.8,13.6-7.6,24.3-.6,7,.3,13,2.5,18.1,3.3,7.8,8.7,12.6,16,14.4,7.5,1.9,14.6-.1,21.1-6.1h0Z"/>
    <path class="st1" d="M904.8,386.4h7.3c3.1.3,4.6,2,4.3,5.2-.6,7.5-1,15.4-1.1,23.8,0,8.4,0,17.7,0,27.9.1,10.2.2,18.1.2,23.8,0,.9,0,1.9,0,3,.1,1.1.3,2.2.5,3.5.2,1.3.4,2.3.5,2.9.3,2.1,0,3.7-.7,4.6-.7,1-2.1,1.5-4.1,1.6-3.2,0-8.1-.1-14.7-.7-2.2-.2-3.3-1.8-3.2-4.7,0-.7.2-2,.4-3.9.2-1.9.3-3.4.3-4.5,0-25.5,0-42.2,0-50.1,0-3.2-.7-12.2-1.8-27.1-.2-3.3,1.2-5.1,4.2-5.4h7.7,0Z"/>
    <path class="st1" d="M963.2,458.9c0,1.1.2,2.3.3,3.5.1,1.2.2,2.4.3,3.6s.2,2.3.3,3.5c0,1.1.2,2.4.3,3.6.1,1.2.2,2.4.3,3.5.2,1.5.2,2.6,0,3.5-.2.9-.7,1.5-1.5,1.9-.8.4-1.9.6-3.4.6-4.1.2-8.5.2-13,0-3.8-.2-5.4-2.1-4.8-5.8.7-4.6,1.2-9.4,1.3-14.5.1-5.1.1-10.9,0-17.4-.1-6.5-.2-11.4-.2-14.5,0-4.2-.1-11.6-.7-22.1-.2-4.8-.5-9.7-1.1-14.6-.3-2.4,0-4,.7-4.9.7-.9,2.3-1.3,4.6-1.3,5.2-.1,9.8-.1,14,0,1.9,0,3.4.5,4.3,1.3,1,.8,1.6,2,1.9,3.8.5,4,2.2,7.6,5.1,10.9,6.9,7.9,13.5,15.4,19.8,22.4,2.1,2.3,4.5,3.5,7,3.6,5.6.4,8.7-1.9,9.3-6.8.5-4.3.8-10.8.7-19.5,0-1,0-2.1-.2-3.2-.2-1.1-.3-2.4-.6-3.8s-.4-2.5-.5-3.2c-.2-1.2-.2-2.2,0-3,.2-.8.7-1.4,1.3-1.8.6-.4,1.6-.6,2.8-.6,4.6-.3,9.4-.3,14.4,0,1.7,0,2.8.4,3.5,1.2.7.8,1,2,.9,3.8-.3,23.2-.5,38.5-.7,45.7,0,1.2-.1,3.7-.3,7.5-.2,3.8-.3,6.7-.2,8.7.2,5,.8,12.4,1.8,22.4.2,2,0,3.5-.8,4.4-.7.9-2,1.4-3.9,1.4-4.7.1-9.6.1-14.8,0-3.2,0-5.1-1.5-5.5-4.3-.7-4.5-3.2-9.1-7.5-13.7-1.6-1.8-4.3-4.8-8.2-9.1-3.9-4.3-7-7.7-9.2-10.1-.8-.9-1.8-1.8-3-2.6-3.1-2.2-6.2-2.7-9-1.6-2.9,1.1-4.7,3.6-5.3,7.4-.2,1-.3,2.1-.3,3.2,0,1.1,0,2.4-.1,3.9,0,1.5,0,2.5,0,3.2h0Z"/>
    <path class="st1" d="M1097.4,386.4h37.3c3.3,0,5.7.3,7.2.9,1.5.6,2.6,1.7,3.2,3.2.6,1.6.9,4,.9,7.3,0,2.4-.2,4.1-.3,5.2-.4,2.2-1,3.7-1.9,4.4s-2.5,1.1-4.8,1c-6.4-.3-11.6-.5-15.5-.7-.7,0-1.5,0-2.6,0-6.5.4-10.6,3.7-12.2,10-.8,3.3-1.2,6.6-1.2,9.8-.2,13.2-.2,24.9,0,35.1,0,2.5.6,7,1.4,13.5.4,2.3.2,3.9-.4,4.9-.6,1-2,1.5-4.1,1.6-3.4.2-8.5,0-15.3-.5-2-.2-3-1.8-2.8-4.8.7-20.9,1.1-33.2,1.1-36.9,0-5.4-.3-12.9-1.2-22.4-.2-2-.7-3.8-1.7-5.3-.9-1.5-2.1-2.8-3.6-3.7-1.5-1-3.2-1.6-5.1-2-2.2-.4-6.5-.5-12.8-.3-1.1,0-2.6.1-4.6.4-2,.3-3.2.5-3.8.6-1.8,0-3.1-.2-3.9-.8-.8-.6-1.3-1.9-1.4-3.7-.2-2.9-.2-5.7,0-8.4.2-2,.6-3.6,1.2-4.8.6-1.2,1.5-2.1,2.7-2.6,1.2-.5,2.8-.8,4.7-.8h39.5Z"/>
  </g>
</svg>