<?xml version="1.0" encoding="UTF-8"?><svg id="Layer_2" xmlns="http://www.w3.org/2000/svg" viewBox="0 0 1459.64 28.53"><defs><style>.cls-1{fill:#231f20;stroke:#231f20;stroke-miterlimit:10;stroke-width:.57px;}</style></defs><g id="Layer_1-2"><path class="cls-1" d="M12.94,1.89h9.79c.87,0,1.5.08,1.9.24.4.16.68.44.83.85.16.41.24,1.05.24,1.92-.02.63-.05,1.09-.07,1.38-.1.58-.26.97-.49,1.16-.23.19-.65.28-1.25.25-1.69-.07-3.04-.13-4.06-.18-.17-.02-.4-.02-.69,0-1.72.1-2.78.97-3.19,2.61-.22.87-.33,1.73-.33,2.57-.05,3.46-.05,6.52,0,9.21.02.65.14,1.84.36,3.55.1.6.06,1.03-.11,1.29s-.53.39-1.09.42c-.9.05-2.24,0-4.02-.15-.53-.05-.78-.47-.73-1.27.19-5.48.29-8.71.29-9.68.02-1.42-.09-3.38-.32-5.87-.05-.53-.2-1-.44-1.39-.24-.4-.55-.73-.94-.98-.39-.25-.83-.43-1.34-.53-.58-.1-1.7-.12-3.37-.07-.29,0-.69.04-1.21.11-.52.07-.85.12-1,.15-.46.02-.8-.05-1.01-.22-.22-.17-.34-.49-.36-.98-.05-.75-.05-1.49,0-2.21.05-.53.15-.96.31-1.27s.39-.54.71-.69c.31-.14.73-.22,1.23-.22h10.36Z"/><path class="cls-1" d="M49.15,27.18c-1.47-.17-2.27-.25-2.39-.25-.82-.1-1.38-.53-1.67-1.3-.56-1.42-1.56-2.16-3.01-2.21-2.8-.12-4.76-.16-5.87-.11-1.45.05-2.4.76-2.86,2.14-.39,1.16-1.18,1.72-2.39,1.67-1.83-.07-2.86-.12-3.08-.14-.63-.07-1-.24-1.12-.49-.12-.25-.06-.66.18-1.21,1.96-4.47,3.18-7.28,3.66-8.44,1.06-2.66,2.5-6.32,4.31-10.98.22-.58.41-1.37.58-2.36.1-.55.27-.97.53-1.23.25-.26.63-.41,1.14-.43,1.21-.02,2.78.04,4.71.18.34.02.6.16.8.4.19.24.3.54.33.91.02.32.06.63.13.94.06.32.15.67.27,1.07.12.4.21.69.27.87.06.18.19.52.38,1.01.2.5.32.79.36.89,1.76,4.59,2.81,7.31,3.15,8.15.58,1.43,1.87,4.51,3.88,9.24.39.92.11,1.45-.83,1.59-.53.07-1.01.11-1.45.11ZM39.18,13.38c-.41,0-.78.1-1.11.29-.33.19-.58.47-.76.82-.18.35-.27.74-.27,1.18,0,.7.2,1.27.6,1.7.4.44.91.64,1.54.62.63,0,1.14-.21,1.52-.63.39-.42.59-.96.62-1.61,0-.27-.04-.53-.11-.78-.07-.25-.17-.47-.29-.65-.12-.18-.27-.34-.44-.49-.17-.14-.37-.25-.6-.33-.23-.07-.46-.11-.7-.11Z"/><path class="cls-1" d="M80.68,22.47s-.16,2.56-.18,2.68c-.07.43-.2.74-.38.91-.18.17-.49.25-.92.25-1.06-.02-2.43.29-4.1.94-2.56,1.01-5.21,1.25-7.94.71-2.73-.54-5.09-1.77-7.07-3.68-3.38-3.31-4.45-7.48-3.19-12.5,1.45-5.87,5.47-9.57,12.07-11.09,2.03-.46,4.36-.18,7,.83,1.69.65,2.96,1,3.8,1.05.48.02.82.14,1.01.34.19.21.29.55.29,1.03-.03,1.5-.09,2.84-.18,4.02-.12,1.09-.71,1.49-1.78,1.2-.32-.07-.69-.25-1.12-.54-.19-.12-.5-.33-.92-.63-.42-.3-.75-.52-1-.67-2.95-1.86-5.91-2.12-8.88-.8-1.16.51-2.14,1.23-2.93,2.17-.8.94-1.35,1.96-1.65,3.06-.3,1.1-.4,2.25-.29,3.44.11,1.2.43,2.33.96,3.39.8,1.57,1.9,2.75,3.3,3.55,1.4.8,2.9,1.16,4.49,1.09,1.6-.07,3.15-.53,4.67-1.38.29-.17.58-.35.87-.54.29-.19.65-.45,1.07-.78.42-.33.69-.54.81-.63.6-.46,1.11-.59,1.52-.4.41.22.63.69.65,1.41v1.56Z"/><path class="cls-1" d="M88.13,19.21c-.07-.31-.15-.66-.22-1.05-.22-1.21-.28-2.49-.18-3.84.19-2.39.62-4.3,1.27-5.73,1.14-2.49,2.92-4.52,5.36-6.09,2.22-1.38,4.6-2.11,7.14-2.21,3.77-.12,6.78,1.27,9.03,4.17,1.3,1.69,2.19,3.95,2.64,6.78.41,2.39.35,4.77-.18,7.14-.58,2.61-1.82,4.71-3.71,6.29-1.9,1.58-4.22,2.54-6.98,2.88-2.08.29-4.12.14-6.12-.44-4.18-1.18-6.86-3.82-8.04-7.9ZM104.3,21.1c1.96-1.79,2.89-3.94,2.79-6.45-.02-.36-.02-.69,0-.98.05-1.86-.32-3.56-1.12-5.11-.99-1.88-2.34-2.97-4.06-3.26-2.42-.41-4.42.42-6.02,2.5-1.11,1.45-1.78,3.58-1.99,6.38-.15,1.84.07,3.42.65,4.75.87,2.05,2.27,3.31,4.2,3.77,1.98.51,3.83-.02,5.54-1.59Z"/><path class="cls-1" d="M147.58,1.89h9.79c.87,0,1.5.08,1.9.24.4.16.68.44.83.85.16.41.24,1.05.24,1.92-.02.63-.05,1.09-.07,1.38-.1.58-.26.97-.49,1.16-.23.19-.65.28-1.25.25-1.69-.07-3.04-.13-4.06-.18-.17-.02-.4-.02-.69,0-1.72.1-2.78.97-3.19,2.61-.22.87-.33,1.73-.33,2.57-.05,3.46-.05,6.52,0,9.21.02.65.14,1.84.36,3.55.1.6.06,1.03-.11,1.29s-.53.39-1.09.42c-.9.05-2.24,0-4.02-.15-.53-.05-.78-.47-.73-1.27.19-5.48.29-8.71.29-9.68.02-1.42-.09-3.38-.32-5.87-.05-.53-.2-1-.44-1.39-.24-.4-.55-.73-.94-.98-.39-.25-.83-.43-1.34-.53-.58-.1-1.7-.12-3.37-.07-.29,0-.69.04-1.21.11-.52.07-.85.12-1,.15-.46.02-.8-.05-1.01-.22-.22-.17-.34-.49-.36-.98-.05-.75-.05-1.49,0-2.21.05-.53.15-.96.31-1.27s.39-.54.71-.69c.31-.14.73-.22,1.23-.22h10.36Z"/><path class="cls-1" d="M166.55,11.06c-.05-.75-.08-1.61-.11-2.59-.03-.98-.04-1.96-.06-2.93-.01-.98-.04-1.84-.09-2.59-.05-.89.29-1.35,1.01-1.38,1.16-.02,2.63.04,4.42.18.53.05.79.41.76,1.09-.03.29-.07,1.01-.15,2.17-.07,1.16-.12,2.04-.14,2.65-.24,4.4-.2,7.91.11,10.55.27,2.08,1.14,3.6,2.61,4.57,1.88,1.28,3.77,1.38,5.65.29,2.56-1.5,3.85-3.63,3.88-6.42.02-3.31.02-6.63,0-9.96-.03-.29-.13-1.41-.33-3.37-.07-.63-.01-1.06.18-1.29.19-.23.59-.34,1.19-.34,1.11-.02,2.17-.02,3.19,0,.7,0,1.15.13,1.36.38.21.25.25.73.13,1.43-.24,1.48-.36,3.13-.36,4.98s.05,3.51.14,4.98c.12,2.17-.02,4.25-.43,6.23-.73,3.65-2.95,6.21-6.67,7.68-2.61,1.01-5.33,1.13-8.16.36-2.22-.6-4.04-1.71-5.45-3.33-1.41-1.62-2.21-3.59-2.37-5.91-.02-.29-.13-2.77-.33-7.43Z"/><path class="cls-1" d="M216.76,1.78c.19,0,.47-.02.83-.05.36-.04.63-.05.8-.05.92-.02,1.52-.01,1.81.04.53.07.92.22,1.16.43s.39.58.44,1.09c.09,1.11.11,2.21.04,3.3-.05.51-.19.84-.44,1-.24.16-.63.19-1.16.09-1.35-.24-2.38-.36-3.08-.36-2.93-.05-5.82-.05-8.7,0-.75,0-1.54.15-2.36.44-.89.31-1.3.98-1.23,1.99.05.97.54,1.56,1.49,1.78,1.04.24,1.99.38,2.86.4.63,0,1.52-.02,2.68-.07,1.16-.05,1.94-.07,2.36-.07.39-.02.99.03,1.81.15.77.12,1.2.56,1.27,1.3.1.89.11,1.73.04,2.5-.02.27-.11.5-.25.71-.14.21-.34.38-.58.51-.24.13-.5.2-.76.2-.75.03-2.55.05-5.4.07-.1,0-.57,0-1.41-.02-.85-.01-1.32,0-1.42.02-.41.03-.87.15-1.37.36-.87.36-1.31.98-1.31,1.85,0,.22.04.42.11.62.07.19.17.38.29.54.12.17.27.32.45.45.18.13.37.22.56.27.73.22,1.37.31,1.92.29,3.17-.02,6.64-.08,10.44-.18.24,0,.57-.05.98-.14.41-.1.67-.14.76-.14.53-.1.91-.05,1.14.14.23.19.35.54.35,1.05.05.99.05,2.02,0,3.08,0,.48-.11.84-.32,1.09-.22.24-.57.41-1.05.51-.27.02-.65.04-1.16.04-.39.02-1.32.03-2.79.02-1.47-.01-2.42,0-2.83.02-1.42,0-3.68.03-6.77.07-3.09.05-5.45.09-7.07.11-.96,0-1.54-.11-1.74-.34-.19-.23-.21-.83-.04-1.79.2-1.16.3-2.48.33-3.95.07-2.75.07-5.27,0-7.54-.02-1.28-.14-4.18-.36-8.7,0-.31-.06-.72-.18-1.23-.2-.73-.19-1.21.02-1.45.2-.24.68-.36,1.43-.36.39-.02,2.55-.04,6.49-.04h10.94Z"/><path class="cls-1" d="M235.16,1.31c2-.63,3.62-.92,4.85-.87,3.12.07,5.51.48,7.17,1.23.14.05.31.1.49.15.18.05.34.08.47.11s.31.05.52.09c.22.04.39.07.51.09.6.1,1.01.27,1.21.51.2.24.32.68.35,1.3v2.03c-.07,1.67-.88,2.19-2.43,1.56-.43-.19-1.25-.6-2.43-1.23-1.4-.75-3-1.23-4.78-1.45-1.21-.17-2.39.08-3.55.76-.78.44-1.23,1.13-1.38,2.08s.08,1.77.69,2.45c.65.75,1.44,1.22,2.36,1.41.41.1,1.09.22,2.03.38.94.16,1.65.3,2.14.42,2.08.46,3.44.83,4.1,1.12,1.93.82,3.22,2.03,3.86,3.62.64,1.6.58,3.26-.2,5-.89,2.15-2.51,3.65-4.86,4.49-3.6,1.35-7.56,1.49-11.88.4-1.31-.34-2.78-.69-4.42-1.05-.55-.12-.93-.28-1.12-.49-.2-.21-.3-.57-.33-1.11-.07-1.04-.08-2.04-.04-3.01.09-1.3.76-1.67,1.99-1.09.43.19,1.16.54,2.17,1.03,1.01.5,1.8.88,2.36,1.14,1.76.8,3.78,1.1,6.05.91.96-.1,1.81-.46,2.54-1.09.7-.63,1.04-1.4,1.01-2.32-.02-.92-.4-1.68-1.12-2.28-.8-.65-1.79-1.08-2.97-1.27-2.63-.41-4.44-.74-5.44-.98-1.21-.27-2.43-.82-3.66-1.67-.94-.65-1.61-1.51-2.01-2.57-.4-1.06-.53-2.11-.4-3.13.13-1.03.46-1.96,1-2.81,1.21-1.91,2.92-3.2,5.15-3.88Z"/><path class="cls-1" d="M266.86,27.18h-6.38c-.73,0-1.19-.13-1.38-.38-.2-.25-.23-.75-.11-1.5.24-1.42.36-2.71.36-3.84.02-1.43.04-5.91.04-13.45,0-1.96-.01-3.24-.04-3.84,0-.17-.03-.39-.09-.67-.06-.28-.1-.44-.13-.49-.12-.82.23-1.28,1.05-1.38.12-.02.32-.04.58-.04,7.01,0,10.97.01,11.89.04,2.17.05,3.94.41,5.29,1.09,1.93.99,3.46,2.59,4.6,4.78,1.04,2.08,1.56,4.23,1.56,6.45,0,4.9-1.75,8.69-5.26,11.34-.53.41-1.12.75-1.76,1.03-.64.28-1.29.48-1.96.62-.66.13-1.36.21-2.08.24h-6.2ZM267.55,21.31c.14.02,1.1.13,2.86.33,1.96-.19,2.99-.3,3.11-.33,2.18-.43,3.61-1.67,4.32-3.7.6-1.76.54-3.7-.18-5.8-.63-1.81-1.63-3.06-3.01-3.73-2.42-1.21-4.92-1.36-7.5-.47-.85.27-1.41.85-1.7,1.74-.24.72-.39,1.47-.43,2.25-.12,1.81-.17,3.39-.14,4.75,0,.89.12,1.81.36,2.75.29,1.21,1.06,1.94,2.32,2.21Z"/><path class="cls-1" d="M311.13,27.18c-1.47-.17-2.27-.25-2.39-.25-.82-.1-1.38-.53-1.67-1.3-.56-1.42-1.56-2.16-3.01-2.21-2.8-.12-4.76-.16-5.87-.11-1.45.05-2.4.76-2.86,2.14-.39,1.16-1.18,1.72-2.39,1.67-1.83-.07-2.86-.12-3.08-.14-.63-.07-1-.24-1.12-.49-.12-.25-.06-.66.18-1.21,1.96-4.47,3.18-7.28,3.66-8.44,1.06-2.66,2.5-6.32,4.31-10.98.22-.58.41-1.37.58-2.36.1-.55.27-.97.53-1.23.25-.26.63-.41,1.14-.43,1.21-.02,2.78.04,4.71.18.34.02.6.16.8.4.2.24.3.54.33.91.02.32.06.63.13.94.06.32.15.67.27,1.07.12.4.21.69.27.87.06.18.19.52.38,1.01.19.5.32.79.36.89,1.76,4.59,2.81,7.31,3.15,8.15.58,1.43,1.87,4.51,3.88,9.24.39.92.11,1.45-.83,1.59-.53.07-1.01.11-1.45.11ZM301.17,13.38c-.41,0-.78.1-1.11.29s-.58.47-.76.82c-.18.35-.27.74-.27,1.18,0,.7.2,1.27.6,1.7.4.44.91.64,1.54.62.63,0,1.14-.21,1.52-.63.39-.42.59-.96.62-1.61,0-.27-.04-.53-.11-.78-.07-.25-.17-.47-.29-.65-.12-.18-.27-.34-.44-.49-.17-.14-.37-.25-.6-.33-.23-.07-.46-.11-.71-.11Z"/><path class="cls-1" d="M317.76,1.85c1.16,0,1.78.01,1.85.04.99.02,1.7.53,2.14,1.52.94,2.05,1.68,3.59,2.21,4.6.34.68.83,1.35,1.49,2.03.51.48,1.08.73,1.72.74.64.01,1.22-.22,1.76-.71.34-.29.57-.56.69-.8,1.5-2.83,2.45-4.66,2.86-5.51.34-.72.69-1.22,1.07-1.5.38-.28.94-.42,1.71-.42h2.59c.44,0,.76.03.98.07.53.1.86.27.98.53.12.25.04.61-.25,1.07-.24.41-.71,1.16-1.4,2.25-.69,1.09-1.21,1.92-1.58,2.5-2,3.38-3.86,6.57-5.58,9.57-.97,1.72-1.28,3.84-.94,6.38.02.17.06.4.13.71.06.3.1.51.13.63.09.48.06.85-.11,1.09-.17.24-.48.4-.94.47-.36.05-1.21.06-2.54.04-.1,0-.21,0-.35-.02-.13-.01-.28-.03-.43-.05-.16-.02-.29-.04-.38-.04-.48-.05-.82-.18-1-.38-.18-.21-.26-.56-.24-1.07.02-.27.06-.73.11-1.38.05-.65.07-1.16.07-1.52.07-1.76-.34-3.39-1.23-4.89-.12-.24-.84-1.49-2.16-3.75-1.32-2.26-2.32-3.97-2.99-5.13-.32-.51-.82-1.35-1.52-2.54-.7-1.18-1.23-2.09-1.6-2.72-.68-1.16-.34-1.76,1.01-1.81h1.74Z"/><path class="cls-1" d="M351.61,5.45c-.05.81-.07,1.54-.05,2.21.01.67,0,1.41-.02,2.23,0,.24-.01.54-.04.89-.02.35-.05.69-.07,1.01-.03.33-.04.62-.04.89.02,1.3.11,2.56.25,3.77.07.68,0,1.14-.21,1.4-.22.25-.67.39-1.34.42h-3.08c-.51-.02-.86-.15-1.07-.38-.21-.23-.26-.59-.16-1.07.19-.99.31-2.04.34-3.15.04-1.11.04-2.37,0-3.79-.04-1.41-.04-2.48-.02-3.19.02-.71-.06-1.73-.25-3.06-.12-.75-.06-1.27.18-1.56.24-.29.73-.43,1.49-.43,1.3-.02,2.39.02,3.26.14.48.05.81.19.98.42.17.23.21.57.11,1.03-.12.68-.21,1.42-.25,2.23ZM351.15,23.66c.28.39.41.89.38,1.52-.05,1.09-.64,1.68-1.78,1.78h-1.96c-.85-.12-1.33-.6-1.45-1.45-.05-.31-.06-.66-.04-1.05.07-.92.53-1.41,1.38-1.49.75-.07,1.47-.07,2.17,0,.58.07,1.01.3,1.29.69Z"/><path class="cls-1" d="M1094.71,1.78c.19,0,.47-.02.83-.05.36-.04.63-.05.8-.05.92-.02,1.52-.01,1.81.04.53.07.92.22,1.16.43s.39.58.44,1.09c.09,1.11.11,2.21.04,3.3-.05.51-.19.84-.44,1-.24.16-.63.19-1.16.09-1.35-.24-2.38-.36-3.08-.36-2.93-.05-5.82-.05-8.7,0-.75,0-1.54.15-2.36.44-.89.31-1.3.98-1.23,1.99.05.97.54,1.56,1.49,1.78,1.04.24,1.99.38,2.86.4.63,0,1.52-.02,2.68-.07,1.16-.05,1.94-.07,2.36-.07.39-.02.99.03,1.81.15.77.12,1.2.56,1.27,1.3.1.89.11,1.73.04,2.5-.02.27-.11.5-.25.71-.14.21-.34.38-.58.51-.24.13-.5.2-.76.2-.75.03-2.55.05-5.4.07-.1,0-.57,0-1.41-.02-.85-.01-1.32,0-1.42.02-.41.03-.87.15-1.37.36-.87.36-1.31.98-1.31,1.85,0,.22.04.42.11.62.07.19.17.38.29.54.12.17.27.32.45.45.18.13.37.22.56.27.73.22,1.37.31,1.92.29,3.17-.02,6.64-.08,10.44-.18.24,0,.57-.05.98-.14.41-.1.67-.14.76-.14.53-.1.91-.05,1.14.14.23.19.34.54.34,1.05.05.99.05,2.02,0,3.08,0,.48-.11.84-.32,1.09-.22.24-.57.41-1.05.51-.27.02-.65.04-1.16.04-.39.02-1.32.03-2.79.02-1.47-.01-2.42,0-2.83.02-1.42,0-3.68.03-6.77.07-3.09.05-5.45.09-7.07.11-.96,0-1.55-.11-1.74-.34-.2-.23-.21-.83-.04-1.79.19-1.16.3-2.48.33-3.95.07-2.75.07-5.27,0-7.54-.02-1.28-.15-4.18-.36-8.7,0-.31-.06-.72-.18-1.23-.19-.73-.19-1.21.02-1.45.2-.24.68-.36,1.43-.36.39-.02,2.55-.04,6.49-.04h10.95Z"/><path class="cls-1" d="M1115.76,27.15c-.55-.02-.97-.15-1.23-.38-.27-.23-.42-.62-.47-1.18-.05-.46-.14-.95-.29-1.49-.14-.53-.27-.95-.38-1.27-.11-.31-.29-.8-.56-1.47-.26-.67-.44-1.09-.51-1.29-.29-.77-.75-1.95-1.38-3.52-2.1-5.19-3.7-9.11-4.78-11.74-.07-.19-.2-.45-.38-.76-.18-.31-.3-.52-.35-.62-.24-.46-.29-.83-.14-1.12.14-.29.47-.45.98-.47,1.21-.07,2.44-.07,3.7,0,.48.03.85.16,1.11.4.25.24.47.62.63,1.12.43,1.38.94,2.8,1.52,4.28.36.97,1.03,2.57,1.99,4.82.17.43.36.81.58,1.12.56.77,1.23,1.16,2.03,1.16s1.47-.37,2.03-1.12c.36-.51.64-1.02.83-1.52,1.01-2.49,1.96-4.86,2.83-7.1.07-.22.16-.56.27-1.03.11-.47.17-.74.2-.82.07-.34.17-.6.31-.78s.3-.32.51-.42c.21-.1.48-.14.82-.14,1.4-.05,2.6-.05,3.59,0,1.11.05,1.44.62.98,1.7-1.69,3.91-2.93,6.85-3.73,8.81-1.5,3.65-2.9,7.15-4.2,10.51-.27.68-.48,1.55-.65,2.61-.1.65-.27,1.1-.53,1.34-.25.24-.69.37-1.32.4-.07,0-3.89-.04-3.99-.04Z"/><path class="cls-1" d="M1155.45,1.78c.19,0,.47-.02.83-.05.36-.04.63-.05.8-.05.92-.02,1.52-.01,1.81.04.53.07.92.22,1.16.43s.39.58.44,1.09c.09,1.11.11,2.21.04,3.3-.05.51-.19.84-.44,1-.24.16-.63.19-1.16.09-1.35-.24-2.38-.36-3.08-.36-2.93-.05-5.82-.05-8.7,0-.75,0-1.54.15-2.36.44-.89.31-1.3.98-1.23,1.99.05.97.54,1.56,1.49,1.78,1.04.24,1.99.38,2.86.4.63,0,1.52-.02,2.68-.07,1.16-.05,1.94-.07,2.36-.07.39-.02.99.03,1.81.15.77.12,1.2.56,1.27,1.3.1.89.11,1.73.04,2.5-.02.27-.11.5-.25.71-.14.21-.34.38-.58.51-.24.13-.5.2-.76.2-.75.03-2.55.05-5.4.07-.1,0-.57,0-1.41-.02-.85-.01-1.32,0-1.42.02-.41.03-.87.15-1.37.36-.87.36-1.31.98-1.31,1.85,0,.22.04.42.11.62.07.19.17.38.29.54.12.17.27.32.45.45.18.13.37.22.56.27.73.22,1.37.31,1.92.29,3.17-.02,6.64-.08,10.44-.18.24,0,.57-.05.98-.14.41-.1.67-.14.76-.14.53-.1.91-.05,1.14.14.23.19.34.54.34,1.05.05.99.05,2.02,0,3.08,0,.48-.11.84-.32,1.09-.22.24-.57.41-1.05.51-.27.02-.65.04-1.16.04-.39.02-1.32.03-2.79.02-1.47-.01-2.42,0-2.83.02-1.42,0-3.68.03-6.77.07-3.09.05-5.45.09-7.07.11-.96,0-1.55-.11-1.74-.34-.2-.23-.21-.83-.04-1.79.19-1.16.3-2.48.33-3.95.07-2.75.07-5.27,0-7.54-.02-1.28-.15-4.18-.36-8.7,0-.31-.06-.72-.18-1.23-.19-.73-.19-1.21.02-1.45.2-.24.68-.36,1.43-.36.39-.02,2.55-.04,6.49-.04h10.95Z"/><path class="cls-1" d="M1168.15,22.22v-7.28c0-4.64-.01-7.22-.04-7.76,0-.92-.08-2.07-.25-3.44-.07-.65-.02-1.1.16-1.34s.59-.4,1.21-.47c.27-.05.58-.07.94-.07,7.49,0,11.89.01,13.19.04,1.18.02,2.58.22,4.2.58,2.13.51,3.5,1.86,4.13,4.06.44,1.57.53,3.01.29,4.31-.36,2.05-1.41,3.65-3.15,4.78-.09.07-.34.23-.72.47-2,1.26-2.49,2.95-1.45,5.07.12.22.82,1.52,2.1,3.91.05.05.1.12.14.2s.1.16.14.24c.05.07.09.14.11.22.31.7.1,1.14-.65,1.3-.46.1-.99.15-1.6.15-.29,0-.68-.02-1.18-.05-.5-.04-.82-.07-.96-.09-.6-.02-1.04-.13-1.3-.33-.26-.19-.5-.57-.69-1.12-.77-2.25-1.93-4.43-3.48-6.56-.73-.99-1.66-1.48-2.79-1.48s-1.91.52-2.32,1.56c-.27.65-.4,1.24-.4,1.78,0,1.26.06,2.77.18,4.53.07.97-.3,1.48-1.12,1.56-1.14.1-2.46.11-3.98.04-.65-.02-.96-.49-.91-1.41.09-1.76.16-2.89.18-3.37ZM1177.32,11.71c.09.03.77.04,2.03.04.24-.03.77-.05,1.58-.09.81-.04,1.43-.09,1.86-.16.58-.12,1.03-.36,1.34-.71.31-.35.47-.77.45-1.27-.01-.49-.18-.92-.51-1.27-.33-.35-.79-.6-1.4-.74-.19-.02-.32-.04-.4-.04-2.83-.1-4.57-.15-5.22-.15-.41,0-.85.12-1.31.36-.82.41-1.23,1.01-1.23,1.81,0,.87.4,1.47,1.19,1.81.48.22,1.01.35,1.6.4Z"/><path class="cls-1" d="M1200.11,1.85c1.16,0,1.78.01,1.85.04.99.02,1.7.53,2.14,1.52.94,2.05,1.68,3.59,2.21,4.6.34.68.83,1.35,1.49,2.03.51.48,1.08.73,1.72.74.64.01,1.22-.22,1.76-.71.34-.29.57-.56.69-.8,1.5-2.83,2.45-4.66,2.86-5.51.34-.72.69-1.22,1.07-1.5.38-.28.94-.42,1.71-.42h2.59c.44,0,.76.03.98.07.53.1.86.27.98.53s.04.61-.25,1.07c-.24.41-.71,1.16-1.4,2.25-.69,1.09-1.21,1.92-1.58,2.5-2,3.38-3.86,6.57-5.58,9.57-.97,1.72-1.28,3.84-.94,6.38.02.17.07.4.13.71.06.3.1.51.13.63.09.48.06.85-.11,1.09-.17.24-.48.4-.94.47-.36.05-1.21.06-2.54.04-.1,0-.21,0-.34-.02-.13-.01-.28-.03-.43-.05-.16-.02-.29-.04-.38-.04-.48-.05-.82-.18-1-.38-.18-.21-.26-.56-.24-1.07.02-.27.06-.73.11-1.38.05-.65.07-1.16.07-1.52.07-1.76-.34-3.39-1.23-4.89-.12-.24-.84-1.49-2.16-3.75-1.32-2.26-2.31-3.97-2.99-5.13-.32-.51-.82-1.35-1.52-2.54-.7-1.18-1.23-2.09-1.6-2.72-.67-1.16-.34-1.76,1.01-1.81h1.74Z"/><path class="cls-1" d="M1255.02,1.89h9.79c.87,0,1.5.08,1.9.24.4.16.67.44.83.85.16.41.24,1.05.24,1.92-.02.63-.05,1.09-.07,1.38-.1.58-.26.97-.49,1.16-.23.19-.65.28-1.25.25-1.69-.07-3.04-.13-4.06-.18-.17-.02-.4-.02-.69,0-1.72.1-2.78.97-3.19,2.61-.22.87-.33,1.73-.33,2.57-.05,3.46-.05,6.52,0,9.21.02.65.14,1.84.36,3.55.1.6.06,1.03-.11,1.29s-.53.39-1.09.42c-.9.05-2.24,0-4.02-.15-.53-.05-.78-.47-.73-1.27.19-5.48.29-8.71.29-9.68.02-1.42-.08-3.38-.32-5.87-.05-.53-.2-1-.44-1.39-.24-.4-.55-.73-.94-.98-.39-.25-.83-.43-1.34-.53-.58-.1-1.71-.12-3.37-.07-.29,0-.69.04-1.21.11-.52.07-.85.12-1,.15-.46.02-.8-.05-1.01-.22-.22-.17-.34-.49-.36-.98-.05-.75-.05-1.49,0-2.21.05-.53.15-.96.31-1.27.16-.31.39-.54.71-.69.31-.14.73-.22,1.23-.22h10.36Z"/><path class="cls-1" d="M1273.99,11.06c-.05-.75-.08-1.61-.11-2.59-.03-.98-.04-1.96-.06-2.93-.01-.98-.04-1.84-.09-2.59-.05-.89.29-1.35,1.01-1.38,1.16-.02,2.63.04,4.42.18.53.05.78.41.76,1.09-.03.29-.07,1.01-.15,2.17-.07,1.16-.12,2.04-.15,2.65-.24,4.4-.2,7.91.11,10.55.27,2.08,1.14,3.6,2.61,4.57,1.88,1.28,3.77,1.38,5.65.29,2.56-1.5,3.85-3.63,3.88-6.42.02-3.31.02-6.63,0-9.96-.03-.29-.13-1.41-.33-3.37-.07-.63-.01-1.06.18-1.29.19-.23.59-.34,1.19-.34,1.11-.02,2.17-.02,3.19,0,.7,0,1.15.13,1.36.38.21.25.25.73.13,1.43-.24,1.48-.36,3.13-.36,4.98s.05,3.51.14,4.98c.12,2.17-.02,4.25-.43,6.23-.73,3.65-2.95,6.21-6.67,7.68-2.61,1.01-5.33,1.13-8.15.36-2.22-.6-4.04-1.71-5.45-3.33-1.41-1.62-2.21-3.59-2.38-5.91-.02-.29-.13-2.77-.33-7.43Z"/><path class="cls-1" d="M1324.2,1.78c.19,0,.47-.02.83-.05.36-.04.63-.05.8-.05.92-.02,1.52-.01,1.81.04.53.07.92.22,1.16.43s.39.58.44,1.09c.09,1.11.11,2.21.04,3.3-.05.51-.19.84-.44,1-.24.16-.63.19-1.16.09-1.35-.24-2.38-.36-3.08-.36-2.93-.05-5.82-.05-8.7,0-.75,0-1.54.15-2.36.44-.89.31-1.3.98-1.23,1.99.05.97.54,1.56,1.49,1.78,1.04.24,1.99.38,2.86.4.63,0,1.52-.02,2.68-.07,1.16-.05,1.94-.07,2.36-.07.39-.02.99.03,1.81.15.77.12,1.2.56,1.27,1.3.1.89.11,1.73.04,2.5-.02.27-.11.5-.25.71-.14.21-.34.38-.58.51-.24.13-.5.2-.76.2-.75.03-2.55.05-5.4.07-.1,0-.57,0-1.41-.02-.85-.01-1.32,0-1.42.02-.41.03-.87.15-1.37.36-.87.36-1.31.98-1.31,1.85,0,.22.04.42.11.62.07.19.17.38.29.54.12.17.27.32.45.45.18.13.37.22.56.27.73.22,1.37.31,1.92.29,3.17-.02,6.64-.08,10.44-.18.24,0,.57-.05.98-.14.41-.1.67-.14.76-.14.53-.1.91-.05,1.14.14.23.19.34.54.34,1.05.05.99.05,2.02,0,3.08,0,.48-.11.84-.32,1.09-.22.24-.57.41-1.05.51-.27.02-.65.04-1.16.04-.39.02-1.32.03-2.79.02-1.47-.01-2.42,0-2.83.02-1.42,0-3.68.03-6.77.07-3.09.05-5.45.09-7.07.11-.96,0-1.55-.11-1.74-.34-.2-.23-.21-.83-.04-1.79.19-1.16.3-2.48.33-3.95.07-2.75.07-5.27,0-7.54-.02-1.28-.15-4.18-.36-8.7,0-.31-.06-.72-.18-1.23-.19-.73-.19-1.21.02-1.45.2-.24.68-.36,1.43-.36.39-.02,2.55-.04,6.49-.04h10.95Z"/><path class="cls-1" d="M1342.6,1.31c2-.63,3.62-.92,4.85-.87,3.12.07,5.51.48,7.17,1.23.15.05.31.1.49.15.18.05.34.08.47.11s.31.05.53.09c.22.04.39.07.51.09.6.1,1.01.27,1.22.51.2.24.32.68.34,1.3v2.03c-.07,1.67-.88,2.19-2.43,1.56-.43-.19-1.24-.6-2.43-1.23-1.4-.75-3-1.23-4.78-1.45-1.21-.17-2.39.08-3.55.76-.78.44-1.23,1.13-1.38,2.08-.14.95.08,1.77.69,2.45.65.75,1.44,1.22,2.36,1.41.41.1,1.09.22,2.03.38.94.16,1.65.3,2.14.42,2.08.46,3.44.83,4.1,1.12,1.93.82,3.22,2.03,3.86,3.62.64,1.6.58,3.26-.2,5-.89,2.15-2.51,3.65-4.86,4.49-3.6,1.35-7.56,1.49-11.88.4-1.31-.34-2.78-.69-4.42-1.05-.55-.12-.93-.28-1.12-.49-.2-.21-.3-.57-.33-1.11-.07-1.04-.09-2.04-.04-3.01.09-1.3.76-1.67,1.99-1.09.43.19,1.16.54,2.17,1.03,1.01.5,1.8.88,2.36,1.14,1.76.8,3.78,1.1,6.05.91.96-.1,1.81-.46,2.54-1.09.7-.63,1.04-1.4,1.01-2.32-.02-.92-.4-1.68-1.12-2.28-.8-.65-1.79-1.08-2.97-1.27-2.63-.41-4.44-.74-5.44-.98-1.21-.27-2.43-.82-3.66-1.67-.94-.65-1.61-1.51-2.01-2.57-.4-1.06-.53-2.11-.4-3.13.13-1.03.46-1.96,1-2.81,1.21-1.91,2.92-3.2,5.15-3.88Z"/><path class="cls-1" d="M1374.3,27.18h-6.38c-.73,0-1.19-.13-1.38-.38-.2-.25-.23-.75-.11-1.5.24-1.42.36-2.71.36-3.84.02-1.43.04-5.91.04-13.45,0-1.96-.01-3.24-.04-3.84,0-.17-.03-.39-.09-.67-.06-.28-.1-.44-.13-.49-.12-.82.23-1.28,1.05-1.38.12-.02.32-.04.58-.04,7.01,0,10.97.01,11.89.04,2.17.05,3.94.41,5.29,1.09,1.93.99,3.47,2.59,4.6,4.78,1.04,2.08,1.56,4.23,1.56,6.45,0,4.9-1.75,8.69-5.25,11.34-.53.41-1.12.75-1.76,1.03-.64.28-1.29.48-1.96.62-.66.13-1.36.21-2.08.24h-6.2ZM1374.99,21.31c.14.02,1.1.13,2.86.33,1.96-.19,2.99-.3,3.11-.33,2.18-.43,3.61-1.67,4.31-3.7.6-1.76.54-3.7-.18-5.8-.63-1.81-1.63-3.06-3.01-3.73-2.42-1.21-4.92-1.36-7.5-.47-.85.27-1.41.85-1.71,1.74-.24.72-.39,1.47-.43,2.25-.12,1.81-.17,3.39-.14,4.75,0,.89.12,1.81.36,2.75.29,1.21,1.06,1.94,2.32,2.21Z"/><path class="cls-1" d="M1418.57,27.18c-1.48-.17-2.27-.25-2.39-.25-.82-.1-1.38-.53-1.67-1.3-.56-1.42-1.56-2.16-3.01-2.21-2.8-.12-4.76-.16-5.87-.11-1.45.05-2.4.76-2.86,2.14-.39,1.16-1.18,1.72-2.39,1.67-1.83-.07-2.86-.12-3.08-.14-.63-.07-1-.24-1.12-.49-.12-.25-.06-.66.18-1.21,1.96-4.47,3.18-7.28,3.66-8.44,1.06-2.66,2.5-6.32,4.31-10.98.22-.58.41-1.37.58-2.36.1-.55.27-.97.53-1.23.25-.26.63-.41,1.14-.43,1.21-.02,2.78.04,4.71.18.34.02.6.16.8.4.2.24.3.54.33.91.02.32.07.63.13.94.06.32.15.67.27,1.07.12.4.21.69.27.87.06.18.19.52.38,1.01.2.5.32.79.36.89,1.76,4.59,2.81,7.31,3.15,8.15.58,1.43,1.87,4.51,3.88,9.24.39.92.11,1.45-.83,1.59-.53.07-1.01.11-1.45.11ZM1408.61,13.38c-.41,0-.78.1-1.11.29s-.58.47-.76.82c-.18.35-.27.74-.27,1.18,0,.7.2,1.27.6,1.7.4.44.91.64,1.54.62.63,0,1.14-.21,1.52-.63.39-.42.59-.96.62-1.61,0-.27-.04-.53-.11-.78-.07-.25-.17-.47-.29-.65-.12-.18-.27-.34-.44-.49-.17-.14-.37-.25-.6-.33-.23-.07-.46-.11-.71-.11Z"/><path class="cls-1" d="M1425.2,1.85c1.16,0,1.78.01,1.85.04.99.02,1.7.53,2.14,1.52.94,2.05,1.68,3.59,2.21,4.6.34.68.83,1.35,1.49,2.03.51.48,1.08.73,1.72.74.64.01,1.22-.22,1.76-.71.34-.29.57-.56.69-.8,1.5-2.83,2.45-4.66,2.86-5.51.34-.72.69-1.22,1.07-1.5.38-.28.94-.42,1.71-.42h2.59c.44,0,.76.03.98.07.53.1.86.27.98.53s.04.61-.25,1.07c-.24.41-.71,1.16-1.4,2.25-.69,1.09-1.21,1.92-1.58,2.5-2,3.38-3.86,6.57-5.58,9.57-.97,1.72-1.28,3.84-.94,6.38.02.17.07.4.13.71.06.3.1.51.13.63.09.48.06.85-.11,1.09-.17.24-.48.4-.94.47-.36.05-1.21.06-2.54.04-.1,0-.21,0-.34-.02-.13-.01-.28-.03-.43-.05-.16-.02-.29-.04-.38-.04-.48-.05-.82-.18-1-.38-.18-.21-.26-.56-.24-1.07.02-.27.06-.73.11-1.38.05-.65.07-1.16.07-1.52.07-1.76-.34-3.39-1.23-4.89-.12-.24-.84-1.49-2.16-3.75-1.32-2.26-2.31-3.97-2.99-5.13-.32-.51-.82-1.35-1.52-2.54-.7-1.18-1.23-2.09-1.6-2.72-.67-1.16-.34-1.76,1.01-1.81h1.74Z"/><path class="cls-1" d="M1459.05,5.45c-.05.81-.07,1.54-.05,2.21.01.67,0,1.41-.02,2.23,0,.24-.01.54-.04.89-.02.35-.05.69-.07,1.01-.03.33-.04.62-.04.89.02,1.3.11,2.56.25,3.77.07.68,0,1.14-.21,1.4-.22.25-.67.39-1.34.42h-3.08c-.51-.02-.86-.15-1.07-.38-.21-.23-.26-.59-.16-1.07.19-.99.31-2.04.34-3.15.04-1.11.04-2.37,0-3.79-.04-1.41-.04-2.48-.02-3.19.02-.71-.06-1.73-.25-3.06-.12-.75-.06-1.27.18-1.56.24-.29.73-.43,1.49-.43,1.3-.02,2.39.02,3.26.14.48.05.81.19.98.42.17.23.21.57.11,1.03-.12.68-.21,1.42-.25,2.23ZM1458.6,23.66c.28.39.41.89.38,1.52-.05,1.09-.64,1.68-1.78,1.78h-1.96c-.85-.12-1.33-.6-1.45-1.45-.05-.31-.06-.66-.04-1.05.07-.92.53-1.41,1.38-1.49.75-.07,1.47-.07,2.17,0,.58.07,1.01.3,1.29.69Z"/></g></svg>