<?xml version="1.0" encoding="UTF-8"?><svg id="Layer_2" xmlns="http://www.w3.org/2000/svg" viewBox="0 0 494.49 338.61"><defs><style>.cls-1{fill:#fff;}</style></defs><g id="Layer_1-2"><path class="cls-1" d="M493.51,59.98l-17.92-13.53,10.9-14.97c.52-.72.59-1.68.18-2.47-.42-.79-1.24-1.29-2.14-1.25l-26.92.79,7.12-9.67c.53-.72.6-1.69.18-2.48-.42-.79-1.27-1.26-2.16-1.24l-107.27,4.51-.4-4.54c-.04-.41-.19-.79-.41-1.12.87-1.61,1.28-3.49,1.09-5.44-.53-5.2-5.18-8.99-10.39-8.48-5.2.53-9.01,5.19-8.48,10.39.3,2.93,1.91,5.41,4.19,6.93l7.64,87.34c-3.83,1.29-7.54,4.18-9.54,6.82-.03.04-.05.07-.08.11-2.65,3.96-.83,9.13,2.28,13.42-2.44,1.33-3.96,4.04-3.79,6.82.25,4.17,3.73,7.84,7.71,8.53,0,8.36-6.45,13.51-12.73,16.53,0-2.28.51-4.69,1.04-7.21,1.01-4.78,2.05-9.72-.28-14.43-1.26-2.55-3.25-4.39-5.17-6.18-1.73-1.6-3.36-3.12-4.22-4.96-.79-1.68-.99-3.76-1.21-5.95-.33-3.33-.71-7.1-3.42-9.9-2.79-2.89-6.87-3.43-9.84-3.83-5.58-.75-11.87-1.58-17.88.25-1.04-1-2.09-1.98-3.17-2.94,0-.05.02-.1.03-.15.12-1.45.38-2.89.66-4.42.27-1.48.55-3.01.69-4.58.39-4.27-.41-7.75-2.38-10.34-1.99-2.61-5.75-4.33-9.18-3.4-.48-.74-1-1.64-1.53-2.56-2.12-3.68-4.52-7.85-8.36-8.75-1.3-.31-2.62-.19-3.94.33-4.18-4.01-10.29-8.31-18.2-6.45-6.74,1.59-11.94,7.71-12.62,14.34-.76-.11-1.53-.22-2.29-.3-26.13-2.99-52.46,4.52-71.96,19.92-4.81-6.13-14.42-6.45-21.41-2.89-5.72,2.91-10.22,8.69-12.64,16.11-3.77-1.78-8.68-1.41-12.34,1.24-3.34,2.42-5.53,6.37-6.14,10.9-5.69-.38-11.23,3.85-13.21,8.87-2.01,5.1-1.45,11.43,1.58,17.84.33.71.7,1.37,1.07,2.02-3.51,1.64-5.71,6.51-6.76,9.11l-2.46,6.07-14.02,2.48c-8.83.08-11.65,1.97-17.76,6.08-.67.45-1.39.94-2.17,1.45-.09.06-.17.12-.25.19l-20.03,17.61c-1.21-.49-2.49-.87-3.88-1.03-1.92-.23-3.72.11-5.2.97-2,1.16-3.22,3.16-3.43,5.63-.15,1.77.23,3.7.99,5.46-6.31.39-9.5,3-13.61,6.38l-1.11.91c-3.75,3.05-8.04,10.3-5.98,15.43,2.23,5.57,6.12,6.66,8.24,6.82,1.18.09,2.36-.05,3.49-.38-.19,1.14-.22,2.29-.05,3.4.4,2.57,1.84,4.73,4.16,6.26,3.13,2.05,6.12,2.69,8.89,1.89,2.18-.63,3.9-2.06,5.28-3.73.47,1.4,1.18,2.72,2.18,3.82,1.24,1.36,3.46,2.93,7.08,2.93.24,0,.48,0,.73-.02,3.65-.2,6.2-2.88,7.61-6.05.66.72,1.43,1.37,2.33,1.91,1.94,1.14,4.48,1.41,6.61.7,1.68-.56,2.94-1.68,3.56-3.15.6-1.42.49-2.88.3-4.11-.24-1.57-.23-2.99-.23-4.5.01-4.5.02-9.13-6.37-16.34,1.7-.8,2.98-2.22,3.6-4.04.67-1.96.48-4.12-.51-5.93-.57-1.05-1.39-1.88-2.32-2.58l11.67-8.7c4.37-3.29,6.88-5.17,10.68-6.07-1.08,2.91-2.01,5.85-2.56,8.86-.69,3.76-.77,7.58-.86,11.38-.16,6.85-.3,13.79,1.62,20.44.81,2.82,2.14,5.72,4.88,7.42,2.87,1.77,6.53,1.82,10.13,1.37,2,.65,3.75.74,5.31.43.29.12.59.18.9.18.41,0,.82-.1,1.19-.33,1.52-.9,5.44-.84,8.04-.79,1.25.02,2.42.04,3.39-.02,9.63-.59,19.45-1.01,28.94-1.42l1.11-.05c14.4-.62,28.66-1.11,42.68-1.51l-14,47.63c-.12.41-.11.81-.02,1.2-.05.09-.11.18-.15.28l-3.93,10.53c-1.33,3.56-2.47,6.64-3.55,7.17-1.07.54-4.24-.32-7.58-1.23-1.29-.35-2.62-.66-3.96-.95-.08-.02-.16-.04-.24-.05-6.44-1.37-13.55-2.08-21.62-2.13-4.22-.03-9.09.13-13.38,2.26-5.07,2.52-8.13,7.66-7.43,12.48,1.31,9.05,12.3,11.77,19.57,13.56.99.24,1.92.47,2.76.7,2.88.79,39.3,7.2,43.45,7.93.13.02.25.03.38.03h-73.37c-1.32,0-2.39,1.07-2.39,2.39s1.07,2.39,2.39,2.39h225.04c1.32,0,2.39-1.07,2.39-2.39s-1.07-2.39-2.39-2.39h-24.27c.07-.08.15-.15.21-.24,2.78-3.53,2.71-9.03-.17-13.37-2.42-3.65-6.18-5.97-9.51-7.87-6.34-3.61-12.23-6.27-17.89-8.1-.07-.03-.13-.05-.2-.07-1.19-.38-2.38-.74-3.55-1.05-2.85-.75-5.8-1.53-6.35-2.36-.55-.83-.04-3.85.5-7.04l1.68-10c.14-.83-.18-1.68-.84-2.21,1.06-7.01,2.24-15.78,2.19-19.08-.02-1.46-.1-3.04-.26-4.71.05-.37,0-.73-.12-1.06-.81-7.17-3.17-15.78-9.08-23.35-.1-.12-.2-.25-.3-.37.32,0,.65,0,.98,0,23.68-.13,48.17-.27,71.97-3.64.77-.11,2.38-.34,3.43-1.67.99-1.24.92-2.72.89-3.51-.02-.53-.05-1.06-.08-1.59.34.04.68.09,1.02.09,1.48,0,3-.35,4.45-1.04,2.91-1.39,5.28-4.01,6.34-7.01,1.96-5.57.11-11.33-1.79-15.19l-.37-.74c-.46-.91-.9-1.76-1.13-2.6-.36-1.3-.31-2.81-.26-4.41.07-2.3.16-4.91-1.04-7.35-1.04-2.11-2.97-3.72-5.19-4.47.44-1.19.76-2.43.96-3.71,6.56-2.62,12.79-5.53,17.69-9.03l2.16,24.71c.15,1.92,1.04,3.65,2.52,4.88,1.29,1.08,2.87,1.65,4.53,1.65.24,0,.48-.01.73-.04,3.79-.38,6.64-3.79,6.34-7.6l-3.26-39.04c1.88-.71,3.02-2.36,3.72-3.39.42-.62.95-1.4,1.26-2.36.18-.57.26-1.12.3-1.65,1.24-.1,2.46-.43,3.62-1.02.09-.04.17-.09.25-.15l.16-.11s.01,0,.02-.01c2.77-1.91,3.32-5.71,1.29-8.88-.42-.72-1.01-1.4-1.7-2.03,1.13-.81,2.01-1.92,2.59-3.3.04-.09.07-.18.1-.28l.05-.17s0-.03.01-.04c.87-3.33-1.46-6.47-4.23-7.86-.1-.06-.23-.09-.34-.15.17-.17.35-.33.5-.52,1.35-1.65,1.79-3.74,1.23-5.87-.02-.1-.06-.19-.09-.28l-.06-.14s-.01-.03-.02-.04c-1.21-2.87-4.71-4.09-7.41-3.83-1.63.08-3.37.74-4.93,1.77l-2.57-29.38,87.34-18.19.59,8.02s0,.03,0,.05c0,.1.03.19.05.29,0,.04.01.09.03.13.03.1.07.19.11.28.02.04.03.08.04.11.09.18.2.34.33.48.03.04.06.07.09.1.13.14.28.26.44.36.01,0,.03.01.04.02.15.09.31.16.48.21.04.01.09.03.13.04.18.05.37.08.57.08h0c.06,0,.11,0,.17,0,.09,0,.16-.03.25-.04.04,0,.08,0,.13-.01l40.91-9.79c.88-.21,1.56-.91,1.74-1.79.19-.89-.16-1.8-.88-2.34ZM273.27,333.83h-100.65c.91,0,1.75-.54,2.12-1.39.9-2.04,2.12-5.74,3.31-9.32,1.17-3.53,2.63-7.93,3.25-8.99.03-.06.06-.12.09-.17l.15-.32c.02-.05.05-.1.07-.16l9.17-23.47c.2-.52.19-1.07.02-1.58.09-.15.18-.29.23-.46l17.22-52.99c.14-.42.14-.84.05-1.24,5.51-.13,10.98-.24,16.37-.35.2.64.67,1.2,1.35,1.47,8.78,3.52,15.51,12.31,17.57,22.96.85,4.4-1.62,25.55-2.82,33.23-.12.75.14,1.46.63,1.97l-1.21,7.97c0,.06-.02.12-.02.17l-.02.32c0,.07,0,.13,0,.2,0,1.08-.83,5.16-1.51,8.44-.69,3.34-1.4,6.79-1.62,8.79-.12,1.07.51,2.08,1.52,2.45,3.05,1.11,26.39,9.6,34.74,12.47Z"/><path class="cls-1" d="M87.12,333.83h-7.88c-1.32,0-2.39,1.07-2.39,2.39s1.07,2.39,2.39,2.39h7.88c1.32,0,2.39-1.07,2.39-2.39s-1.07-2.39-2.39-2.39Z"/><path class="cls-1" d="M344.23,333.83h-7.88c-1.32,0-2.39,1.07-2.39,2.39s1.07,2.39,2.39,2.39h7.88c1.32,0,2.39-1.07,2.39-2.39s-1.07-2.39-2.39-2.39Z"/><path d="M87.12,333.83h-7.88c-1.32,0-2.39,1.07-2.39,2.39s1.07,2.39,2.39,2.39h7.88c1.32,0,2.39-1.07,2.39-2.39s-1.07-2.39-2.39-2.39Z"/><path d="M344.23,333.83h-7.88c-1.32,0-2.39,1.07-2.39,2.39s1.07,2.39,2.39,2.39h7.88c1.32,0,2.39-1.07,2.39-2.39s-1.07-2.39-2.39-2.39Z"/><path d="M253.92,189.92c-1.23-.61-2.27-1.55-2.93-2.65-1.13-1.88-1.28-4.33-1.35-7.11-.03-1.3-1.09-2.33-2.39-2.33-.02,0-.04,0-.06,0-.48.01-.92.17-1.28.42-.57-.16-1.19-.11-1.75.19-1.86.98-2.27,3.44-2.52,5.66l-.03.23c-.79,6.26-8.53,11.22-20.21,12.94-9.81,1.44-18.99-1.06-22.34-6.1-.73-1.1-2.21-1.4-3.31-.67-1.1.73-1.4,2.21-.67,3.31,3.62,5.45,11.6,8.64,20.86,8.64,2,0,4.06-.15,6.15-.46,12.76-1.88,21.37-7.29,23.7-14.67.27.82.63,1.63,1.09,2.41,1.14,1.89,2.83,3.44,4.89,4.47.34.17.71.25,1.06.25.88,0,1.72-.49,2.14-1.32.59-1.18.11-2.61-1.07-3.2Z"/><path d="M272.84,117.22c-.1-.93-.73-1.72-1.62-2.01-17.08-5.69-50.57-1.93-60.53-.63-10.01.85-43.54,4.3-59.01,13.48-.8.48-1.25,1.38-1.15,2.31l4.01,37.25c.07.64.4,1.23.91,1.63,3.21,2.5,14.86,6.01,21.15,7.15l1.45.27c2.69.5,5.14.96,7.56.96,3.27,0,6.49-.83,10.19-3.51.11-.08.21-.17.31-.27.19-.2,4.76-4.92,6.36-10.12.1-.34.23-.72.37-1.13l2.94-.32c.99-.11,1.82-.82,2.06-1.79.37-1.47.82-3,1.38-4.68,1.13-3.37,2.34-6.41,4.79-6.61.02,0,.04,0,.06-.01.02,0,.03,0,.05,0,2.45-.31,4.2,2.28,6.09,5.44.9,1.52,1.67,2.92,2.35,4.28.41.82,1.24,1.33,2.14,1.33.09,0,.17,0,.26-.01l3.32-.36c.11-.01.21-.04.32-.07.23.38.44.74.62,1.05,2.67,4.74,8.13,8.39,8.36,8.54.11.08.23.14.36.2,7.28,3.18,11.95,1.21,17.88-1.28l1.36-.57c5.9-2.45,16.54-8.36,19.15-11.49.41-.5.61-1.14.54-1.78l-4.01-37.25ZM215.94,144.52c1.86.09,2.88.99,3.2,1.36-.94-.66-2-1.15-3.2-1.36Z"/><path d="M493.55,59.94l-17.88-13.49,10.87-14.93c.54-.74.61-1.71.18-2.52-.43-.81-1.27-1.3-2.18-1.27l-26.82.78,7.05-9.58c.54-.74.62-1.73.19-2.54s-1.25-1.28-2.21-1.26l-107.22,4.51-.39-4.49c-.04-.4-.18-.78-.4-1.12.86-1.61,1.27-3.49,1.08-5.44-.26-2.53-1.48-4.82-3.46-6.43-1.97-1.61-4.44-2.35-6.99-2.1-5.23.53-9.06,5.21-8.53,10.45.26,2.53,1.48,4.82,3.46,6.43.24.19.48.37.73.54l7.64,87.26c-3.82,1.3-7.53,4.19-9.53,6.82-.03.04-.05.07-.08.11-2.66,3.96-.85,9.14,2.25,13.43-2.42,1.35-3.93,4.06-3.76,6.84.25,4.17,3.73,7.86,7.71,8.57-.03,8.28-6.4,13.39-12.62,16.4.02-2.25.51-4.63,1.03-7.11,1.01-4.79,2.05-9.74-.29-14.47-1.27-2.56-3.26-4.4-5.18-6.19-1.72-1.6-3.35-3.11-4.21-4.94-.78-1.68-.99-3.75-1.21-5.94-.33-3.34-.71-7.12-3.43-9.93-2.81-2.9-6.89-3.45-9.87-3.85-5.57-.75-11.86-1.58-17.87.24-1.03-.99-2.07-1.96-3.13-2.91,0-.04.02-.08.02-.13.12-1.44.38-2.88.66-4.41.27-1.48.55-3.02.69-4.59.39-4.22-.44-7.81-2.39-10.38-2-2.62-5.76-4.35-9.2-3.43-.48-.73-.99-1.62-1.51-2.53-2.12-3.69-4.53-7.87-8.39-8.77-1.3-.3-2.62-.2-3.94.32-4.19-4.01-10.32-8.3-18.22-6.44-6.74,1.59-11.95,7.7-12.66,14.33-.75-.1-1.49-.21-2.24-.3-26.14-2.99-52.45,4.51-71.96,19.9-4.83-6.11-14.44-6.43-21.44-2.86-5.72,2.91-10.22,8.67-12.65,16.08-3.78-1.75-8.68-1.38-12.34,1.27-3.34,2.42-5.53,6.36-6.15,10.89-5.72-.36-11.23,3.89-13.21,8.91-2.02,5.11-1.46,11.46,1.58,17.88.33.71.69,1.37,1.07,2.02-3.48,1.66-5.66,6.51-6.71,9.09l-2.44,6.01-14.04,2.48c-8.84.08-11.66,1.98-17.78,6.09-.67.45-1.39.94-2.17,1.45-.09.06-.18.13-.26.2l-20.01,17.59c-1.21-.48-2.48-.86-3.86-1.02-1.94-.23-3.75.11-5.24.98-2.02,1.17-3.24,3.18-3.46,5.66-.15,1.75.22,3.67.96,5.42-6.27.41-9.46,3.02-13.57,6.4l-1.11.91c-3.76,3.06-8.06,10.34-6,15.49,2.24,5.59,6.15,6.69,8.28,6.85,1.16.09,2.32-.05,3.43-.36-.17,1.12-.2,2.24-.03,3.33.4,2.58,1.85,4.76,4.18,6.29,3.14,2.06,6.15,2.69,8.94,1.89,2.16-.62,3.87-2.03,5.25-3.68.48,1.38,1.18,2.67,2.16,3.75,1.25,1.37,3.48,2.95,7.11,2.95.24,0,.48,0,.73-.02,3.65-.21,6.2-2.86,7.62-6.01.65.7,1.41,1.34,2.29,1.86,1.95,1.15,4.5,1.42,6.66.7,1.69-.56,2.96-1.69,3.59-3.18.6-1.44.49-2.9.3-4.14-.24-1.56-.23-2.99-.23-4.5.01-4.5.02-9.13-6.34-16.33,1.68-.82,2.95-2.22,3.57-4.03.68-1.97.49-4.15-.51-5.98-.57-1.03-1.37-1.86-2.27-2.56l11.61-8.66c4.35-3.27,6.86-5.15,10.62-6.05-1.07,2.89-1.99,5.81-2.54,8.8-.69,3.76-.77,7.58-.86,11.38-.16,6.85-.3,13.79,1.62,20.44.81,2.82,2.14,5.72,4.88,7.42,2.83,1.75,6.44,1.82,10,1.39,2.05.69,3.85.78,5.44.47.28.12.59.17.9.17.41,0,.83-.11,1.22-.33,1.51-.9,5.42-.82,8.01-.78,1.25.02,2.42.04,3.39-.02,9.57-.58,19.32-1,28.75-1.41l1.3-.06c14.25-.62,28.6-1.11,42.6-1.51l-13.98,47.56c-.12.41-.12.82-.03,1.2-.05.09-.11.17-.14.26l-3.93,10.54c-1.32,3.55-2.47,6.62-3.52,7.15-1.06.53-4.21-.33-7.55-1.24-1.29-.35-2.63-.66-3.98-.95-.07-.02-.15-.04-.22-.05-6.45-1.37-13.56-2.08-21.64-2.13-4.22-.02-9.1.13-13.4,2.27-5.09,2.54-8.16,7.69-7.46,12.53,1.31,9.09,12.33,11.81,19.61,13.61.99.24,1.92.47,2.76.7,2.86.78,38.79,7.12,43.34,7.92h-72.88c-1.32,0-2.39,1.07-2.39,2.39s1.07,2.39,2.39,2.39h225.04c1.32,0,2.39-1.07,2.39-2.39s-1.07-2.39-2.39-2.39h-24.2c.06-.07.13-.13.19-.21,2.79-3.55,2.72-9.07-.17-13.43-2.43-3.66-6.19-5.99-9.53-7.89-6.35-3.61-12.24-6.27-17.91-8.11-.05-.02-.11-.04-.16-.05-1.2-.39-2.4-.75-3.58-1.06-2.84-.75-5.78-1.52-6.32-2.34h0c-.54-.81-.03-3.82.51-7l1.68-10c.14-.84-.18-1.69-.84-2.23,1.06-7.01,2.23-15.76,2.19-19.06-.02-1.46-.1-3.04-.26-4.7.05-.38,0-.74-.12-1.08-.81-7.18-3.17-15.79-9.09-23.37-.07-.09-.16-.19-.23-.29.29,0,.58,0,.87,0,23.68-.13,48.17-.27,71.97-3.65.78-.11,2.4-.34,3.46-1.68,1-1.26.94-2.75.9-3.55-.02-.51-.05-1.02-.07-1.53.32.03.64.08.96.08,1.49,0,3.02-.35,4.48-1.05,2.92-1.39,5.3-4.02,6.37-7.04,1.97-5.59.11-11.36-1.79-15.22l-.38-.75c-.46-.9-.89-1.75-1.12-2.59-.36-1.29-.31-2.8-.26-4.39.07-2.31.16-4.92-1.05-7.37-1.03-2.11-2.96-3.71-5.16-4.48.42-1.17.74-2.39.94-3.64,6.52-2.61,12.71-5.5,17.6-8.97l2.15,24.62c.15,1.93,1.05,3.68,2.53,4.92,1.3,1.08,2.89,1.66,4.56,1.66.24,0,.49-.01.73-.04,3.88-.39,6.69-3.75,6.39-7.66l-3.26-39c1.88-.72,3.01-2.36,3.71-3.39.43-.62.96-1.4,1.27-2.38.18-.56.26-1.1.3-1.61,1.23-.1,2.44-.43,3.59-1.02.08-.04.16-.09.24-.14l.16-.1s.02-.01.03-.02c2.79-1.92,3.35-5.76,1.31-8.95-.42-.71-.99-1.38-1.66-2,1.11-.81,1.98-1.91,2.55-3.28.04-.09.07-.19.1-.29l.05-.17s0-.02.01-.04c.87-3.36-1.47-6.52-4.25-7.92-.08-.05-.19-.07-.28-.12.15-.16.32-.3.45-.47,1.36-1.67,1.8-3.77,1.24-5.91-.03-.1-.06-.2-.1-.29l-.06-.14s0-.02-.01-.04c-1.22-2.89-4.74-4.11-7.46-3.86-1.61.08-3.33.72-4.88,1.73l-2.56-29.25,87.23-18.17.58,7.96s0,.03,0,.05c0,.1.03.2.05.3,0,.04.01.09.03.13.03.11.07.21.12.31.01.03.02.06.04.1,0,0,0,0,0,0,0,0,0,0,0,0,.09.18.21.34.34.49.03.04.06.07.1.11.14.14.28.27.45.37.01,0,.03.01.04.02.15.09.32.16.5.22.04.01.09.03.13.04.19.05.38.08.59.08,0,0,0,0,0,0h0s0,0,0,0c.06,0,.11,0,.17,0,.09,0,.17-.03.25-.04.04,0,.09,0,.13-.02l40.91-9.79c.9-.22,1.59-.93,1.78-1.83s-.16-1.84-.9-2.4ZM345.85,4.8c.16-.02.33-.03.49-.03,1.09,0,2.14.37,3,1.07.99.8,1.6,1.94,1.73,3.21.17,1.7-.59,3.28-1.85,4.25l-4.96.5c-.33-.16-.64-.35-.93-.58-.98-.8-1.6-1.94-1.72-3.21-.26-2.61,1.65-4.95,4.26-5.21ZM346.31,19.07c.32,0,.65-.02.98-.05,1.19-.12,2.31-.47,3.32-.97l5.36,61.27c-.16.41-.2.87-.11,1.33.06.27.16.51.29.73l2.18,24.94c-.05-.06-.09-.13-.14-.19-1.17-1.4-2.93-2.19-4.79-2.22l-7.42-84.86c.12,0,.23.01.34.01ZM308.85,109.21c2.96.4,5.54.85,7.07,2.43,1.57,1.62,1.82,4.15,2.11,7.09.25,2.49.5,5.07,1.63,7.48,1.25,2.68,3.3,4.58,5.28,6.42,1.68,1.56,3.27,3.04,4.15,4.81,1.61,3.24.77,7.19-.11,11.36-.69,3.27-1.38,6.64-1.05,10.04-1.48.52-2.84.92-3.96,1.21-2.24-7.74-4.91-14.86-8.04-21.46-5.3-11.16-12.23-21.22-20.37-29.88,4.36-.69,9.05-.08,13.28.49ZM247.3,66.1c4.94-1.16,9.55.8,14.97,6.38.8.83,2.09.96,3.04.32,1.13-.76,1.76-.62,1.97-.57,1.84.43,3.86,3.94,5.33,6.5,1.05,1.82,2.04,3.54,3.14,4.71.79.84,2.07,1,3.04.36,1.46-.95,3.77-.04,4.87,1.39,1.54,2.02,1.63,4.94,1.43,7.04-.13,1.37-.38,2.73-.64,4.17-.1.57-.2,1.15-.3,1.73-13.49-10.9-29.23-18.43-45.88-21.59.37-4.74,4.19-9.32,9.02-10.45ZM98.02,131.43c1.52-3.84,6.18-7.03,10.14-5.54.74.28,1.57.17,2.21-.28.64-.45,1.03-1.2,1.02-1.99-.05-4.11,1.62-7.9,4.35-9.89,2.87-2.07,7.07-1.9,9.18.38.6.65,1.52.91,2.37.69.86-.23,1.52-.91,1.71-1.77,1.75-7.64,5.79-13.56,11.09-16.26,5.24-2.66,12.37-2.49,15.6,1.66-2.71,2.39-5.27,4.93-7.64,7.64-11.13,12.67-20.33,28.7-27.34,47.64-2.54,6.87-4.05,14.02-5.18,21.18-.29.02-.59.08-.87.22-.84.39-1.71.8-2.59,1.24-3.32-.99-6.2-3.83-6.94-7.18-.93-4.19,1.47-9.06,5.37-10.87,1.03-.48,1.58-1.62,1.32-2.72-.26-1.11-1.28-1.86-2.4-1.83-4.39.13-7.99-4.16-9.92-8.25-1.43-3.02-3.52-8.86-1.46-14.07ZM105.5,223.34c-.47-1.23-1.85-1.85-3.08-1.38-2.35.9-5.68,1.69-8.16.35-1.01-.55-1.84-1.8-2-3.04-.07-.57-.04-1.35.53-1.89.78-.73.98-1.9.48-2.85-.5-.95-1.57-1.45-2.62-1.22-2.27.49-4.62.99-6.74.66-1.1-.17-2.31-.69-3.12-1.5-.74-1.19-.94-2.67-.76-4.11,0,0,0,0,0,0,.88-3.91,3.7-7.57,7.65-10.06.01,0,.03,0,.04.01.13.02.26.03.38.03.95,0,1.8-.58,2.18-1.44,3.81-1.73,8.43-2.64,14.09-2.75.75-.02,1.45-.38,1.89-.99.44-.61.57-1.39.34-2.11-.65-2.08.23-4.75,2.24-6.8,1.12-1.14,2.48-2.06,3.94-2.87.59.08,1.18.13,1.77.13h0c-.24,1.77-.47,3.54-.7,5.3-1.03,7.98-2.08,16.23-4.09,24.03-.24.93-.46,2.05-.7,3.24-.67,3.33-1.66,8.26-3.43,10.25.02-.33-.02-.67-.15-1ZM92.5,187.77s0-.04,0-.07l9.33-.12c-.12.63-.2,1.27-.21,1.9-3.71.24-7.01.83-9.99,1.78.28-1,.56-2.07.86-3.5ZM101.08,162.28c-.2-.02-.4-.01-.6.02l-1.47.26c1.25-3.03,2.23-4.62,2.89-5.45.19-.24.33-.51.41-.78.56.37,1.12.71,1.7.99-1.28,1.44-2.27,3.14-2.94,4.96ZM56.32,237.29c.05.35.18,1.19.02,1.58-.11.27-.48.42-.69.49-.83.28-1.98.16-2.73-.29-1.59-.94-2.55-2.72-3.64-4.96-.49-1.01-1.61-1.54-2.71-1.28-1.09.26-1.85,1.25-1.82,2.38.07,2.89-1.62,7.2-4.43,7.35-1.78.1-3.11-.35-4.05-1.38-1.66-1.82-2-5.27-1.61-7.88.18-1.18-.54-2.31-1.68-2.64-1.15-.34-2.36.21-2.85,1.3-1.02,2.25-3.15,6.92-6.12,7.78-1.41.41-3.04-.02-4.99-1.3-1.22-.8-1.89-1.76-2.08-3.03-.33-2.12.75-4.86,2.2-7.11.54-.63,1.01-1.29,1.4-1.95.63-1.08.32-2.46-.7-3.17-1.03-.71-2.43-.51-3.21.45-.45.56-.91,1.18-1.34,1.84-1.7,1.86-4.11,3.08-6.1,2.94-1.81-.13-3.23-1.44-4.2-3.87-1.01-2.51,1.72-7.68,4.58-10.01l1.13-.92c4.78-3.93,7.18-5.9,14.91-5.25,1.38.12,3.57,1.7,4.39,2.29,1.07.78,2.56.53,3.34-.53.77-1.07.53-2.56-.53-3.34-1.76-1.27-3.8-2.59-5.87-3.04-1.1-1.21-2.05-3.4-1.89-5.23.11-1.23.68-1.7,1.1-1.95.58-.34,1.39-.47,2.28-.36.89.1,1.77.37,2.65.72.28.38.66.69,1.12.86l2.57.92c.97.5,1.97,1,3.02,1.42,3.06,1.22,6.14,2.59,9.4,4.2.48.24,1.01.48,1.57.72,1.75.78,3.94,1.76,4.62,3,.36.65.42,1.43.18,2.13-.15.44-.48,1.03-1.21,1.35-.69.3-1.69.34-2.66.38-.06,0-.11.02-.16.02-.09.01-.19.02-.28.04-.07.02-.14.04-.21.07-.08.03-.15.05-.23.08-.07.03-.14.08-.21.11-.07.04-.13.07-.2.12-.07.05-.14.11-.21.17-.04.04-.09.07-.13.11,0,0,0,.01-.02.02-.07.07-.12.15-.18.23-.04.05-.08.09-.11.15-.04.07-.07.14-.1.21-.03.07-.08.14-.1.21-.02.05-.03.1-.04.15-.03.1-.06.2-.08.3,0,.05,0,.09-.01.14-.01.11-.02.22-.02.33,0,0,0,.01,0,.02,0,.06.02.11.02.16,0,.09.02.19.04.28.02.07.04.14.07.22.02.07.04.15.08.22.04.08.08.15.13.23.03.06.06.12.1.17.08.11.17.21.26.31.01.01.02.03.04.05,7.97,7.67,7.96,11.37,7.94,16.06,0,1.62-.01,3.3.28,5.23ZM64,190.71l-12.1,9.03-14.3-5.09,18.26-16.05c.74-.49,1.42-.95,2.06-1.38,5.82-3.92,7.78-5.24,15.34-5.28.13,0,.27-.01.4-.04l26.5-4.69c0,1.01.07,2.02.29,3.01.85,3.81,3.42,7.1,6.74,9.14-.61.48-1.2.99-1.76,1.55-.58.59-1.09,1.22-1.55,1.87l-19.97.25c-9.88.13-13.24,2.65-19.93,7.68ZM90.27,232.59s-1.94-1.14-2.12-10.43c.78,1.84,2.14,3.44,3.83,4.35,1.59.86,3.41,1.29,5.41,1.29,1.77,0,3.69-.36,5.71-1.03-.65.68-1.27,1.38-1.87,2.07-3.87,4.38-5.95,6.38-10.96,3.75ZM203.64,233.89l-4.79,14.73c-.22-.2-.47-.37-.77-.48-4.49-1.73-9.35-2.61-14.16-2.58l3.3-11.24c5.55-.15,11.02-.29,16.41-.42ZM196.13,256.98c-.13-.09-.28-.16-.43-.22-4.53-1.75-9.45-2.63-14.32-2.58l1.12-3.81c4.69-.24,9.48.52,13.86,2.22.28.11.57.16.86.16.1,0,.2-.03.3-.05l-1.39,4.27ZM179.96,259.01c4.75-.26,9.59.5,14.02,2.21.24.09.48.13.72.15l-8.17,25.13c-.1.31-.13.63-.11.94l-8.28,3.25-5.44-7.13c.03-.07.07-.12.09-.19l7.16-24.35ZM162.74,305.44c2.75-1.37,3.92-4.52,5.87-9.76l2.41-6.48,4.43,5.81c.64.85,1.77,1.17,2.77.77l6.17-2.42-7.15,18.3-.08.16c-.81,1.44-1.91,4.69-3.61,9.8-.39,1.18-.78,2.36-1.16,3.49-13.49-1.57-26.86-4.37-39.52-9.22-.7-.27-4.44-1.81-4.44-1.81.02-4.77,1.89-9.48,4.1-12.37,3.48.16,6.77.46,9.88.91l-5.05,3.53c-1.08.76-1.34,2.24-.59,3.33.46.66,1.21,1.02,1.96,1.02.47,0,.95-.14,1.37-.43l8.91-6.23c.9.21,1.78.43,2.64.66l-6.2,4.33c-1.08.76-1.34,2.24-.59,3.33.46.66,1.21,1.02,1.96,1.02.47,0,.95-.14,1.37-.43l9.7-6.79c1.87.26,3.43.17,4.82-.52ZM174.78,332.46c.9-2.04,2.12-5.74,3.31-9.32,1.17-3.53,2.63-7.93,3.25-8.99.03-.06.07-.12.1-.18l.15-.32c.02-.05.05-.11.07-.16l9.17-23.47c.2-.52.19-1.08.03-1.6.08-.14.17-.28.23-.44l17.22-52.99c.13-.4.14-.81.06-1.2,5.54-.13,10.98-.24,16.27-.35.21.64.69,1.19,1.37,1.47,8.76,3.51,15.48,12.29,17.53,22.92.85,4.4-1.62,25.54-2.82,33.21-.12.75.14,1.48.62,1.99l-1.21,7.95c0,.06-.02.12-.02.18l-.02.32c0,.07,0,.13,0,.2,0,1.08-.83,5.16-1.51,8.44-.69,3.34-1.4,6.78-1.62,8.79-.12,1.09.52,2.13,1.56,2.5,3.03,1.1,26.12,9.5,34.6,12.43h-100.13c.78-.13,1.48-.62,1.81-1.37ZM260.42,253.51c.07.38.14.76.2,1.14-4.25-.42-8.58-.13-12.71.85-.16-.68-.33-1.36-.52-2.02,4.02-.72,8.19-.72,12.19.03.29.05.58.05.85,0ZM248.47,260.25c.06-.01.13,0,.19-.02,4.07-1.01,8.36-1.25,12.53-.72.07,1.05.11,2.05.13,3,.04,3.04-1.24,12.47-2.34,19.66l-5.53,2.31-5.68-7.12c-.13-.17-.29-.31-.46-.43.65-6,1.2-12.45,1.16-16.69ZM270.04,308.37l4.11,8.8c.4.87,1.27,1.38,2.16,1.38.34,0,.68-.07,1.01-.23,1.2-.56,1.71-1.98,1.15-3.17l-2.1-4.49c2.49,1.02,5.05,2.21,7.69,3.58.35,3.23-.32,7.6-2.4,11.23,0,0-3.62-.48-4.28-.58-12-1.9-23.63-5.71-34.81-10.52.21-1.07.44-2.19.67-3.3.98-4.76,1.59-7.8,1.61-9.32l2.59-17.13,3.39,4.26c.66.83,1.8,1.13,2.79.71l4.46-1.86c-.13.75-.24,1.4-.34,1.92-.16.86.17,1.68.78,2.22l-.18,1.07c-.85,5.02-1.36,8.06.23,10.44.79,1.2,1.98,1.99,3.56,2.63l4.48,9.59c.41.87,1.27,1.38,2.16,1.38.34,0,.68-.07,1.01-.23,1.2-.56,1.71-1.98,1.15-3.17l-2.67-5.71c.59.16,1.17.32,1.77.5ZM249.84,233.74c1.16.27,2.19,1.41,3.03,2.5,3.07,3.94,5.07,8.21,6.35,12.39-4.44-.68-9.03-.58-13.44.3-2.78-6.53-7.21-12.02-12.7-15.66.5,0,1-.02,1.5-.03,4.66-.09,9.38-.14,14.07-.18.31.33.72.57,1.19.68ZM328.57,224.63c-23.48,3.33-47.8,3.47-71.33,3.6-7.47.04-15.19.09-22.76.23-28.49.55-62.07,1.3-95.09,2.73l-1.3.06c-9.45.41-19.22.83-28.83,1.42-.78.05-1.87.03-3.01,0-.66-.01-1.33-.02-2.01-.03.19-.21.38-.43.57-.64,1.13-1.28,2.29-2.6,3.54-3.64,3.29-2.76,4.47-8.62,5.41-13.33.23-1.13.44-2.19.65-2.99,2.08-8.09,3.16-16.49,4.2-24.62,1.38-10.75,2.81-21.87,6.58-32.05,6.81-18.39,15.71-33.91,26.45-46.14,18.74-21.33,49.06-32.44,79.14-29,34.02,3.89,65,27.04,80.85,60.41,6.04,12.72,10.3,27.45,13.03,45.05,2.4,15.48,3.69,27.4,4.18,38.64,0,.05,0,.14,0,.24-.08.01-.17.03-.27.04ZM336.47,186.38c.68,1.38.62,3.19.56,5.11-.06,1.88-.12,3.83.43,5.82.36,1.29.92,2.4,1.47,3.47l.35.7c1.5,3.04,2.99,7.5,1.57,11.52-.64,1.81-2.14,3.47-3.92,4.31-.9.43-2.25.82-3.68.4-.6-8.82-1.7-18.31-3.41-29.71,1.35-1.11,2.54-2.42,3.54-3.88,1.29.22,2.51,1.09,3.09,2.26ZM328.92,182.14c-.16-.98-.33-1.95-.51-2.91.88-.32,1.77-.65,2.65-.98-.52,1.42-1.25,2.73-2.15,3.89ZM327.5,174.48c-.69-3.38-1.45-6.66-2.27-9.83,16.11-4.15,25.35-13.49,24.79-25.23-.03-.67-.35-1.26-.82-1.68-.24-1.12-1.24-1.91-2.44-1.89-1.9.08-4.3-1.84-4.44-4.21-.07-1.14.66-2.05,1.37-2.42.73-.37,1.11-.07,1.26.05,1.03.83,2.53.67,3.36-.36.83-1.03.67-2.53-.36-3.36-.14-.11-.28-.2-.43-.3-.1-.23-.24-.46-.42-.66-3.07-3.29-5.52-7.97-4.09-10.23,1.92-2.49,6.03-5.31,9.25-5.57.27-.03.56-.07.86-.1.57-.06,1.1.13,1.42.51.24.29.31.62.21.99-.46,1.62-1.97,3.09-3.59,3.49-1.28.31-2.07,1.61-1.75,2.89.07.3.21.58.38.82l3.86,44.13c-6.71,5.66-18.34,10.11-26.14,12.96ZM363.63,193.59c-.64.07-1.26-.13-1.75-.54-.49-.41-.79-.99-.84-1.65l-6.47-73.99c1.88-1.05,3.44-2.73,4.32-4.69l.3,3.43c-.06.14-.13.28-.19.43-.55,1.44-.36,3.02.51,4.34.33.5.75.93,1.22,1.29-.89.95-1.38,2.19-1.38,3.54,0,1.42.56,2.77,1.53,3.81-.23.24-.45.49-.63.76-.97,1.48-1.11,3.27-.37,4.91.1.22.2.43.3.62.31.73.7,1.44,1.14,2.12,0,.04,0,.08,0,.12l4.43,52.96c.1,1.29-.83,2.39-2.11,2.52ZM367.01,145.6c-.07.1-.15.22-.25.36l-.26-3.05c.41.23.83.43,1.26.61,0,.36-.02.7-.1.95-.1.32-.39.73-.66,1.14ZM373.84,139.08h-.01c-1.26.61-2.6.65-4,.14-2.17-.8-4.28-2.89-5.25-5.2-.02-.04-.08-.17-.1-.21-.08-.17-.17-.35-.25-.53-.08-.18-.04-.25,0-.32.11-.17.43-.37.94-.37.01,0,.02,0,.03,0,.2,0,.41.02.62.03,1.24.49,2.51.81,3.75.95,1.95.79,3.59,1.93,4.16,2.93.02.04.05.08.07.12.46.71.78,1.94.03,2.46ZM367.13,127.97c-.69-.3-1.36-.67-1.98-1.12-.18-.12-.38-.25-.59-.39-.28-.19-.44-.46-.44-.72,0-.22.11-.32.21-.39,1.31-.89,3.36-1.38,5.18-1.38,1.12,0,2.14.19,2.85.58.04.02.07.04.11.06,1.14.57,1.98,1.7,1.81,2.44-.4.86-1.01,1.38-1.93,1.64-.51.15-1.1.19-1.73.16-1.16-.41-2.35-.71-3.48-.89ZM368.77,114.3c.12-.01.24-.02.36-.02,1.09,0,2.1.46,2.34.93.13.62.02,1.09-.35,1.55-.99,1.21-3.61,2.03-6.09,1.9-.03,0-.09,0-.12,0-.2,0-.41,0-.63-.01-.5-.02-.79-.31-.82-.35.72-1.89,3.35-3.89,5.31-3.99ZM355.96,24.39l102.02-4.29-13.39,18.19c-.76,1.03-.57,2.49.44,3.29l18.01,14.3-102.45,21.34-4.62-52.83ZM460.02,61.39l-6.78,5.5-.29-4.03,7.07-1.47ZM460.85,66.87l8.22-6.67c.34-.28.58-.64.73-1.03.5-.33.89-.83,1.03-1.43.21-.9-.11-1.85-.84-2.42l-20.19-16.04,4.33-5.89,25.68-.75-9.39,12.89c-.77,1.05-.55,2.53.49,3.31l15.71,11.86-25.77,6.17Z"/><path d="M387.15,55.16c-.39-.44-.66-.77-.8-.97-1.64-2.09-3.36-4.31-5.16-6.65-.3-.37-.51-.79-.65-1.28-.14-.49-.17-1.01-.07-1.56.09-.55.31-1.05.67-1.5.12-.14.24-.3.38-.49.14-.19.27-.37.41-.56.14-.19.25-.35.35-.49.39-.47.81-.97,1.25-1.5.44-.53.93-1.11,1.46-1.74.53-.64.95-1.13,1.24-1.48.28-.33.45-.56.53-.7.32-.53.19-.89-.39-1.07-.22-.07-.45-.09-.69-.07-1.73.13-3.05.25-3.98.35-.78.09-1.42.48-1.92,1.18-1.59,2.19-2.7,3.68-3.32,4.47-.66.86-1.3,1.57-1.9,2.12-.74.7-1.47.95-2.2.75-.72-.2-1.19-.79-1.41-1.77-.25-1.09-.38-2.44-.39-4.04,0-.68-.09-1.12-.28-1.33-.19-.21-.62-.3-1.26-.26-.72.04-1.64.12-2.78.25-.3.03-.54.07-.71.13-.17.06-.3.15-.38.28-.09.13-.12.29-.12.48,0,.2.03.43.08.71.46,2.22.73,3.82.82,4.79.28,2.65.65,6.74,1.12,12.26.06.63.06,1.52.01,2.67-.02.5.06.85.26,1.05.19.2.52.28,1,.24.91-.04,1.95-.12,3.11-.24.24-.04.43-.09.57-.15.15-.06.26-.14.35-.26.09-.12.13-.26.14-.42,0-.16-.01-.36-.05-.6,0-.02-.05-.25-.16-.67-.29-1.28-.13-2.42.48-3.44.26-.46.61-.95,1.05-1.46,1.55-1.84,3.16-1.88,4.81-.13.1.12.17.21.22.27,1.82,2.58,2.86,4.1,3.14,4.55.52.74,1.13,1.11,1.83,1.11.11-.01.84-.03,2.18-.06v-.03c.86-.08,1.32-.12,1.39-.12.02,0,.09,0,.21-.02.12-.01.2-.02.24-.04.04-.01.11-.03.21-.05.1-.02.16-.05.21-.09.04-.04.08-.08.12-.14.04-.06.07-.12.08-.19.06-.29-.07-.65-.39-1.07-.19-.24-.49-.59-.87-1.03Z"/><path d="M407.19,43.69c-.61-.21-1.85-.43-3.75-.68-.44-.07-1.09-.14-1.94-.2-.85-.07-1.47-.12-1.84-.18-.83-.1-1.57-.46-2.22-1.07-.59-.56-.86-1.27-.81-2.13.05-.86.41-1.52,1.06-1.97.98-.7,2.02-1.02,3.11-.96,1.61.05,3.08.36,4.39.91,1.11.47,1.86.77,2.27.91,1.43.44,2.11-.09,2.05-1.58-.05-.52-.1-1.12-.16-1.81-.07-.56-.21-.94-.41-1.14-.2-.2-.58-.32-1.13-.36-.11-.01-.26-.03-.46-.04-.2-.02-.36-.03-.48-.04-.12-.01-.26-.03-.43-.06-.16-.03-.32-.06-.45-.09-1.55-.54-3.72-.71-6.51-.53-1.1.05-2.53.44-4.27,1.16-1.93.78-3.36,2.07-4.29,3.87-.41.8-.63,1.66-.67,2.59-.04.93.16,1.85.6,2.77.44.92,1.11,1.63,2,2.14,1.17.66,2.3,1.06,3.4,1.2.9.14,2.55.29,4.93.44,1.07.08,1.99.38,2.76.9.7.48,1.09,1.13,1.18,1.95.09.82-.15,1.54-.72,2.15-.6.62-1.33,1.01-2.18,1.17-2.01.35-3.84.24-5.48-.33-.52-.19-1.25-.47-2.19-.83-.95-.36-1.62-.61-2.02-.75-1.15-.42-1.71-.04-1.69,1.13.03.87.12,1.76.27,2.68.06.47.19.79.38.96.19.17.54.28,1.04.35,1.5.19,2.84.39,4.04.59,3.95.63,7.47.2,10.58-1.3,2.03-.94,3.35-2.41,3.98-4.4.55-1.62.48-3.11-.22-4.48-.7-1.37-1.94-2.35-3.73-2.93Z"/><path d="M434.82,31.8c-.17-.35-.44-.59-.81-.69-.37-.11-.94-.13-1.72-.06-.48.04-3.39.3-8.74.78-1.32.12-2.01.18-2.07.18-4.29.38-6.69.59-7.18.64-.45.04-.82.14-1.08.29-.27.16-.46.38-.58.67-.11.29-.17.68-.17,1.16.01.65.07,1.31.18,1.97.06.43.19.71.4.84.21.13.51.17.92.11.13-.03.42-.1.88-.21.46-.11.82-.17,1.07-.19,1.49-.18,2.49-.24,3.02-.2.46.05.87.17,1.24.36.37.2.67.46.92.8.25.34.41.74.5,1.21.41,2.2.66,3.94.76,5.22.08.86.25,3.75.51,8.66.02.72.27,1.07.75,1.07,1.61-.01,2.81-.08,3.6-.19.49-.06.81-.22.94-.46.13-.24.13-.63,0-1.16-.33-1.52-.53-2.56-.61-3.14-.26-2.39-.5-5.13-.73-8.22-.07-.76-.04-1.53.09-2.32.24-1.5,1.12-2.36,2.64-2.59.26-.04.46-.06.62-.05.91-.04,2.12-.09,3.64-.16.54-.03.91-.13,1.1-.33.19-.19.3-.55.35-1.07,0-.26-.02-.67-.05-1.24-.07-.78-.19-1.34-.36-1.7Z"/></g></svg>