<?xml version="1.0" encoding="UTF-8"?><svg id="Layer_2" xmlns="http://www.w3.org/2000/svg" viewBox="0 0 1114.36 64.75"><g id="Layer_1-2"><path d="M112.27,17.35c1.02-.91,2.04-1.87,3.12-2.78,2.38-2.04,5.33-3.86,8.56-3.86,1.64,0,3.29-.11,4.93-.11,3.68,0,10.37,1.47,12.92,4.25.57.62,1.08,1.3,1.7,1.93.45.45.68.91.96,1.47.4.79.85,1.59,1.25,2.38.79,1.53,1.36,5.04,1.36,6.8,0,5.44-1.25,11.34-7.03,13.49-.91.34-2.21.17-3.17.17-1.87,0-4.36-1.3-5.1-3.12-.11-.28-.28-.4-.57-.57-1.59,1.98-3.23,3.63-6.01,3.63-3.8,0-6.58-3.63-6.58-7.26,0-4.31.91-5.78,3.74-8.9,1.19-1.3,2.49-1.7,4.25-1.7,1.25,0,2.49.62,3.29.62.57,0,.57-.62.85-.96.4-.51,2.83-.57,3.51-.57.96,0,1.47.62,1.47,1.53,0,1.08-.23,2.15-.23,3.23,0,1.76-.23,7.43,2.38,7.43,2.21,0,2.15-5.21,2.15-6.75,0-2.78-.79-4.48-2.21-6.75-1.7-2.72-5.95-3.57-8.96-3.57-.68,0-1.3.17-1.93.17-3.63,0-7.54,1.98-9.41,5.16-.68,1.13-2.38,3.8-2.66,4.93-.4,1.59-.57,3.34-.57,4.99,0,6.18,6.01,13.72,12.41,13.72,2.38,0,4.76.06,7.09-.51,1.42-.34,2.49-1.93,3.85-1.93h.28c1.47.96,1.53,1.7,1.53,3.46,0,4.65-6.12,6.75-9.92,6.75-4.31,0-9.24-1.53-13.04-3.51-1.08-.57-2.89-2.55-3.8-3.46-.74-.74-1.08-1.47-1.53-2.38-.91-1.81-1.93-2.78-2.72-4.99-.91-2.49-1.53-5.55-1.53-8.22,0-4.54,1.87-11.11,5.33-14.23ZM124.4,32.65c0,1.42.68,2.55,2.21,2.55,1.81,0,2.61-4.65,2.61-6.01,0-1.02-.45-1.76-1.36-2.15-1.93.45-3.46,3.74-3.46,5.61Z"/><path d="M196.38,52.59v.06c-2.65-.17-4.08-.25-4.29-.25-1.37-.13-2.5-.96-3.39-2.5-.47-.94-2.26-4.1-5.38-9.48-.09-.13-.21-.32-.39-.58-2.94-3.71-6.1-3.91-9.47-.58-.94.94-1.71,1.83-2.31,2.69-1.37,1.88-1.88,4.1-1.54,6.66.13.85.19,1.3.19,1.34.04.47.04.86,0,1.18-.04.32-.16.59-.35.8s-.44.36-.74.45c-.3.08-.68.15-1.15.19-2.3.04-4.35.02-6.15-.06-.94,0-1.58-.21-1.92-.64-.34-.42-.45-1.13-.32-2.11.3-2.26.45-4.01.45-5.25.04-10.93.02-19.01-.06-24.26,0-1.92-.26-5.1-.77-9.54-.05-.56-.06-1.02-.03-1.41.02-.38.12-.69.32-.93.19-.23.46-.4.8-.48.34-.08.81-.13,1.41-.13,2.26-.04,4.1-.04,5.51,0,1.28.04,2.09.29,2.43.74.34.45.45,1.33.32,2.66-.26,3.16-.24,5.82.06,8,.26,1.96,1.08,3.2,2.46,3.71,1.39.51,2.87.15,4.45-1.09,1.28-.98,2.65-2.26,4.1-3.84,1.37-1.45,3.8-4.18,7.3-8.2,1.11-1.28,2.43-1.94,3.97-1.99,1.83-.04,4.46-.04,7.87,0,.47,0,.92.09,1.34.26,1.11.47,1.3,1.19.58,2.18-.17.26-.56.68-1.16,1.28-.64.64-1.53,1.53-2.69,2.69-1.15,1.15-2.21,2.21-3.17,3.17-.96.96-1.87,1.87-2.72,2.72-.21.26-.47.56-.77.9-.3.34-.59.68-.9,1.02-.3.34-.57.64-.83.9-.77.81-1.29,1.75-1.57,2.82-.28,1.07-.32,2.09-.13,3.07s.54,1.86,1.06,2.63c3.12,4.91,6.1,9.56,8.96,13.96.26.43.72,1.11,1.41,2.05s1.2,1.67,1.54,2.17c.56.9.75,1.62.58,2.18-.04.13-.11.25-.19.35-.08.11-.17.19-.26.26-.09.06-.22.11-.42.13-.19.02-.33.04-.42.06-.08.02-.24.03-.48.03h-.42c-.12,0-1.05,0-2.75,0Z"/><path d="M246.71,7.77c.34,0,.83-.03,1.47-.1.64-.06,1.11-.1,1.41-.1,1.62-.04,2.69-.02,3.2.06.94.13,1.62.38,2.05.77.43.38.68,1.02.77,1.92.17,1.96.19,3.9.06,5.83-.09.9-.34,1.48-.77,1.76-.43.28-1.11.33-2.05.16-2.39-.43-4.2-.64-5.44-.64-5.17-.08-10.29-.08-15.37,0-1.32,0-2.71.26-4.16.77-1.58.55-2.3,1.73-2.18,3.52.08,1.71.96,2.75,2.63,3.14,1.83.43,3.52.66,5.06.7,1.11,0,2.69-.04,4.74-.13,2.05-.08,3.43-.13,4.16-.13.68-.04,1.75.04,3.2.26,1.37.22,2.12.98,2.24,2.31.17,1.58.19,3.05.06,4.42-.04.47-.19.89-.45,1.25-.26.36-.59.66-1.02.9-.43.24-.88.35-1.34.35-1.32.04-4.51.08-9.54.13-.17,0-1,0-2.5-.03-1.5-.02-2.33-.01-2.5.03-.72.04-1.53.26-2.43.64-1.54.64-2.31,1.73-2.31,3.27,0,.38.06.75.19,1.09.13.34.3.67.51.96.21.3.48.57.8.8.32.23.65.4.99.48,1.28.38,2.41.56,3.4.51,5.59-.04,11.74-.15,18.44-.32.42,0,1-.08,1.72-.26.73-.17,1.18-.26,1.34-.26.94-.17,1.62-.09,2.02.26.41.34.61.96.61,1.86.09,1.75.09,3.56,0,5.44,0,.85-.19,1.49-.57,1.92-.39.43-1.01.73-1.86.9-.47.04-1.15.06-2.05.06-.68.04-2.33.05-4.93.03-2.61-.02-4.27,0-5,.03-2.52,0-6.51.04-11.97.13-5.47.08-9.63.15-12.49.19-1.7,0-2.73-.2-3.07-.61-.34-.41-.37-1.46-.07-3.17.34-2.05.54-4.37.58-6.98.12-4.87.12-9.3,0-13.32-.04-2.26-.26-7.38-.64-15.37,0-.56-.11-1.28-.32-2.18-.34-1.28-.33-2.13.03-2.56.36-.43,1.2-.64,2.53-.64.68-.04,4.5-.07,11.46-.07h19.34Z"/><path d="M278.49,41.58c.04.51.09,1.06.16,1.63.06.58.12,1.13.16,1.67.04.53.09,1.07.13,1.6.04.53.09,1.09.16,1.67.06.58.11,1.12.16,1.63.09.68.09,1.23,0,1.63-.08.41-.31.7-.67.9-.36.19-.89.29-1.57.29-1.92.09-3.93.09-6.02,0-1.75-.08-2.5-.98-2.24-2.69.34-2.13.55-4.37.61-6.72s.06-5.04,0-8.07c-.06-3.03-.1-5.27-.1-6.72.04-1.96-.06-5.38-.32-10.24-.09-2.22-.26-4.48-.51-6.79-.13-1.11-.03-1.87.32-2.27.34-.4,1.05-.61,2.12-.61,2.39-.04,4.54-.04,6.47,0,.9.04,1.57.25,2.02.61.45.36.73.95.86,1.76.26,1.84,1.04,3.52,2.37,5.06,3.2,3.67,6.25,7.13,9.16,10.37.98,1.07,2.07,1.62,3.26,1.67,2.61.17,4.03-.88,4.29-3.14.25-2,.36-5.01.32-9.03,0-.47-.03-.96-.09-1.47-.07-.51-.15-1.1-.26-1.76-.1-.66-.18-1.16-.22-1.5-.08-.56-.07-1.01.03-1.38.11-.36.31-.64.61-.83.3-.19.72-.29,1.28-.29,2.14-.13,4.36-.13,6.66,0,.77,0,1.31.18,1.63.54.32.36.46.95.42,1.76-.12,10.76-.23,17.82-.32,21.19,0,.56-.06,1.71-.16,3.46-.11,1.75-.14,3.1-.09,4.03.08,2.31.36,5.76.83,10.37.09.94-.03,1.62-.35,2.05-.32.43-.93.64-1.82.64-2.18.04-4.47.04-6.85,0-1.5-.04-2.35-.7-2.56-1.98-.34-2.09-1.5-4.2-3.45-6.34-.73-.81-2-2.22-3.81-4.23-1.81-2.01-3.23-3.56-4.26-4.68-.38-.42-.85-.83-1.41-1.21-1.45-1.03-2.85-1.27-4.2-.74-1.34.54-2.17,1.67-2.46,3.43-.08.47-.14.96-.16,1.47-.02.51-.04,1.11-.06,1.79-.02.68-.03,1.18-.03,1.47Z"/><path d="M334.11,41.58c.04.51.09,1.06.16,1.63.06.58.12,1.13.16,1.67.04.53.09,1.07.13,1.6.04.53.09,1.09.16,1.67.06.58.11,1.12.16,1.63.09.68.09,1.23,0,1.63-.08.41-.31.7-.67.9-.36.19-.89.29-1.57.29-1.92.09-3.93.09-6.02,0-1.75-.08-2.5-.98-2.24-2.69.34-2.13.55-4.37.61-6.72s.06-5.04,0-8.07c-.06-3.03-.1-5.27-.1-6.72.04-1.96-.06-5.38-.32-10.24-.09-2.22-.26-4.48-.51-6.79-.13-1.11-.03-1.87.32-2.27.34-.4,1.05-.61,2.12-.61,2.39-.04,4.54-.04,6.47,0,.9.04,1.57.25,2.02.61.45.36.73.95.86,1.76.26,1.84,1.04,3.52,2.37,5.06,3.2,3.67,6.25,7.13,9.16,10.37.98,1.07,2.07,1.62,3.26,1.67,2.61.17,4.03-.88,4.29-3.14.25-2,.36-5.01.32-9.03,0-.47-.03-.96-.09-1.47-.07-.51-.15-1.1-.26-1.76-.1-.66-.18-1.16-.22-1.5-.08-.56-.07-1.01.03-1.38.11-.36.31-.64.61-.83.3-.19.72-.29,1.28-.29,2.14-.13,4.36-.13,6.66,0,.77,0,1.31.18,1.63.54.32.36.46.95.42,1.76-.12,10.76-.23,17.82-.32,21.19,0,.56-.06,1.71-.16,3.46-.11,1.75-.14,3.1-.09,4.03.08,2.31.36,5.76.83,10.37.09.94-.03,1.62-.35,2.05-.32.43-.93.64-1.82.64-2.18.04-4.47.04-6.85,0-1.5-.04-2.35-.7-2.56-1.98-.34-2.09-1.5-4.2-3.45-6.34-.73-.81-2-2.22-3.81-4.23-1.81-2.01-3.23-3.56-4.26-4.68-.38-.42-.85-.83-1.41-1.21-1.45-1.03-2.85-1.27-4.2-.74-1.34.54-2.17,1.67-2.46,3.43-.08.47-.14.96-.16,1.47-.02.51-.04,1.11-.06,1.79-.02.68-.03,1.18-.03,1.47Z"/><path d="M413.09,7.77c.34,0,.83-.03,1.47-.1.64-.06,1.11-.1,1.41-.1,1.62-.04,2.69-.02,3.2.06.94.13,1.62.38,2.05.77.43.38.68,1.02.77,1.92.17,1.96.19,3.9.06,5.83-.09.9-.34,1.48-.77,1.76-.43.28-1.11.33-2.05.16-2.39-.43-4.2-.64-5.44-.64-5.17-.08-10.29-.08-15.37,0-1.32,0-2.71.26-4.16.77-1.58.55-2.3,1.73-2.18,3.52.08,1.71.96,2.75,2.63,3.14,1.83.43,3.52.66,5.06.7,1.11,0,2.69-.04,4.74-.13,2.05-.08,3.43-.13,4.16-.13.68-.04,1.75.04,3.2.26,1.37.22,2.12.98,2.24,2.31.17,1.58.19,3.05.06,4.42-.04.47-.19.89-.45,1.25-.26.36-.59.66-1.02.9-.43.24-.88.35-1.34.35-1.32.04-4.51.08-9.54.13-.17,0-1,0-2.5-.03-1.5-.02-2.33-.01-2.5.03-.72.04-1.53.26-2.43.64-1.54.64-2.31,1.73-2.31,3.27,0,.38.06.75.19,1.09.13.34.3.67.51.96.21.3.48.57.8.8.32.23.65.4.99.48,1.28.38,2.41.56,3.4.51,5.59-.04,11.74-.15,18.44-.32.42,0,1-.08,1.72-.26.73-.17,1.18-.26,1.34-.26.94-.17,1.62-.09,2.02.26.41.34.61.96.61,1.86.09,1.75.09,3.56,0,5.44,0,.85-.19,1.49-.57,1.92-.39.43-1.01.73-1.86.9-.47.04-1.15.06-2.05.06-.68.04-2.33.05-4.93.03-2.61-.02-4.27,0-5,.03-2.52,0-6.51.04-11.97.13-5.47.08-9.63.15-12.49.19-1.7,0-2.73-.2-3.07-.61-.34-.41-.37-1.46-.07-3.17.34-2.05.54-4.37.58-6.98.12-4.87.12-9.3,0-13.32-.04-2.26-.26-7.38-.64-15.37,0-.56-.11-1.28-.32-2.18-.34-1.28-.33-2.13.03-2.56.36-.43,1.2-.64,2.53-.64.68-.04,4.5-.07,11.46-.07h19.34Z"/><path d="M448.85,52.66h-11.26c-1.28,0-2.09-.22-2.43-.67-.34-.45-.41-1.33-.19-2.66.43-2.52.64-4.78.64-6.79.04-2.52.06-10.44.06-23.75,0-3.46-.02-5.72-.06-6.79,0-.3-.06-.69-.16-1.18-.1-.49-.18-.78-.22-.87-.21-1.45.41-2.26,1.86-2.43.21-.04.56-.07,1.03-.07,12.38,0,19.38.02,21,.07,3.84.08,6.96.73,9.35,1.92,3.41,1.75,6.12,4.57,8.13,8.45,1.83,3.67,2.76,7.47,2.76,11.4,0,8.67-3.1,15.35-9.29,20.04-.94.73-1.97,1.33-3.11,1.82-1.13.49-2.29.85-3.46,1.09-1.17.23-2.4.38-3.68.42-.52,0-4.17,0-10.96,0ZM450.07,42.29c.26.04,1.94.23,5.06.58,3.46-.34,5.29-.54,5.5-.58,3.85-.77,6.38-2.95,7.62-6.53,1.06-3.12.96-6.53-.32-10.24-1.11-3.2-2.88-5.4-5.31-6.6-4.27-2.13-8.69-2.41-13.25-.83-1.5.47-2.5,1.5-3.01,3.07-.43,1.28-.68,2.6-.77,3.97-.21,3.2-.3,6-.26,8.39,0,1.58.21,3.2.64,4.87.51,2.13,1.88,3.44,4.09,3.91Z"/><path d="M492.13,7.9c2.05,0,3.14.02,3.27.06,1.75.04,3.01.94,3.78,2.69,1.66,3.63,2.96,6.34,3.9,8.13.6,1.2,1.47,2.39,2.63,3.59.9.85,1.91,1.29,3.04,1.31,1.13.02,2.16-.39,3.11-1.25.59-.51,1-.98,1.21-1.41,2.65-4.99,4.33-8.24,5.06-9.73.59-1.28,1.22-2.17,1.89-2.66.66-.49,1.67-.74,3.01-.74h4.58c.77,0,1.34.04,1.73.13.94.17,1.52.48,1.73.93.21.45.06,1.08-.45,1.89-.43.73-1.25,2.05-2.47,3.97-1.22,1.92-2.15,3.39-2.79,4.42-3.54,5.98-6.83,11.61-9.86,16.9-1.71,3.03-2.26,6.79-1.66,11.27.04.3.11.71.22,1.25.1.53.18.91.22,1.12.17.86.1,1.5-.19,1.92-.3.43-.86.71-1.67.83-.64.09-2.14.11-4.48.06-.17,0-.38,0-.61-.03-.23-.02-.49-.05-.77-.1-.28-.04-.5-.06-.67-.06-.86-.09-1.44-.31-1.76-.67-.32-.36-.46-.99-.42-1.89.04-.47.1-1.28.19-2.43.08-1.15.13-2.05.13-2.69.13-3.12-.59-6-2.17-8.64-.21-.43-1.48-2.64-3.81-6.63-2.33-3.99-4.09-7.01-5.28-9.06-.56-.9-1.45-2.39-2.69-4.48-1.24-2.09-2.18-3.69-2.82-4.8-1.19-2.05-.6-3.12,1.79-3.2.13,0,1.15,0,3.08,0Z"/><path d="M551.52,6.94c3.54-1.11,6.4-1.62,8.58-1.54,5.51.13,9.73.85,12.68,2.18.26.09.55.17.87.26.32.08.6.15.83.19.23.04.54.09.93.16.39.07.68.12.9.16,1.07.17,1.78.47,2.15.9.36.43.56,1.2.61,2.31v3.58c-.13,2.95-1.56,3.86-4.29,2.75-.77-.34-2.2-1.07-4.29-2.18-2.48-1.32-5.29-2.18-8.45-2.56-2.14-.3-4.23.15-6.27,1.34-1.37.77-2.18,2-2.43,3.68s.15,3.13,1.21,4.32c1.15,1.32,2.54,2.15,4.16,2.5.72.17,1.92.4,3.58.67,1.67.28,2.92.52,3.78.74,3.67.81,6.08,1.47,7.24,1.99,3.41,1.45,5.68,3.58,6.82,6.4,1.13,2.82,1.02,5.76-.35,8.84-1.58,3.8-4.44,6.45-8.58,7.94-6.36,2.39-13.36,2.63-21,.71-2.31-.6-4.91-1.22-7.82-1.86-.98-.21-1.64-.5-1.98-.87-.34-.36-.54-1.01-.58-1.95-.13-1.83-.15-3.61-.06-5.31.17-2.31,1.34-2.95,3.52-1.92.77.34,2.05.95,3.84,1.83,1.79.88,3.18,1.55,4.16,2.02,3.11,1.41,6.68,1.94,10.69,1.6,1.7-.17,3.2-.81,4.48-1.92,1.23-1.11,1.83-2.47,1.79-4.1-.04-1.62-.7-2.96-1.99-4.03-1.41-1.15-3.16-1.9-5.25-2.24-4.65-.73-7.85-1.3-9.6-1.73-2.14-.47-4.29-1.45-6.47-2.94-1.66-1.16-2.85-2.67-3.55-4.55-.7-1.88-.94-3.72-.7-5.54.24-1.81.82-3.47,1.76-4.96,2.13-3.37,5.16-5.66,9.09-6.85Z"/><path d="M612.79,7.97h17.29c1.54,0,2.66.14,3.36.42.7.28,1.19.78,1.47,1.5.28.73.42,1.86.42,3.39-.04,1.11-.08,1.92-.13,2.43-.17,1.02-.46,1.71-.86,2.05-.41.34-1.14.49-2.21.45-2.99-.13-5.38-.24-7.17-.32-.3-.04-.71-.04-1.22,0-3.03.17-4.91,1.71-5.63,4.61-.38,1.54-.58,3.05-.58,4.55-.08,6.1-.08,11.52,0,16.26.04,1.15.25,3.24.64,6.27.17,1.07.11,1.83-.19,2.27-.3.45-.94.69-1.92.73-1.58.09-3.95,0-7.11-.26-.94-.08-1.37-.83-1.28-2.24.34-9.69.51-15.39.51-17.1.04-2.52-.15-5.97-.57-10.37-.09-.94-.34-1.76-.77-2.46-.43-.71-.98-1.28-1.66-1.73s-1.47-.76-2.37-.93c-1.03-.17-3.01-.21-5.96-.13-.51,0-1.22.06-2.14.19-.92.13-1.51.22-1.76.26-.81.04-1.41-.08-1.79-.38-.38-.3-.6-.87-.64-1.73-.09-1.32-.09-2.63,0-3.91.08-.94.27-1.69.54-2.24.28-.55.69-.96,1.25-1.22.55-.25,1.28-.38,2.18-.38h18.31Z"/><path d="M647.03,43.89v-12.87c0-8.19-.02-12.76-.06-13.7,0-1.62-.15-3.65-.45-6.08-.13-1.15-.03-1.94.29-2.37.32-.43,1.04-.7,2.15-.83.47-.08,1.02-.13,1.66-.13,13.23,0,21,.02,23.31.06,2.09.04,4.56.38,7.42,1.02,3.76.9,6.19,3.29,7.3,7.17.77,2.78.94,5.31.51,7.62-.64,3.63-2.5,6.45-5.57,8.45-.17.13-.59.41-1.28.83-3.54,2.22-4.4,5.21-2.56,8.96.21.38,1.45,2.69,3.71,6.92.08.09.17.2.25.35.08.15.17.29.26.42.08.13.15.26.19.38.55,1.24.17,2.01-1.15,2.31-.81.17-1.75.25-2.82.25-.51,0-1.2-.03-2.08-.1-.88-.06-1.44-.12-1.7-.16-1.07-.04-1.83-.24-2.3-.58-.47-.34-.88-1-1.22-1.99-1.37-3.97-3.41-7.83-6.14-11.59-1.28-1.75-2.93-2.62-4.93-2.62s-3.38.92-4.1,2.75c-.47,1.15-.7,2.2-.7,3.14,0,2.22.1,4.89.32,8,.13,1.71-.53,2.62-1.99,2.75-2.01.17-4.35.19-7.04.06-1.15-.04-1.69-.87-1.6-2.5.17-3.11.28-5.1.32-5.95ZM663.23,25.32c.17.04,1.37.06,3.58.06.43-.04,1.35-.1,2.79-.16,1.43-.06,2.53-.16,3.29-.29,1.03-.21,1.81-.63,2.37-1.25.55-.62.82-1.37.8-2.24-.03-.87-.32-1.62-.9-2.24-.58-.62-1.4-1.06-2.47-1.31-.34-.04-.57-.06-.7-.06-4.99-.17-8.07-.26-9.22-.26-.73,0-1.5.22-2.31.64-1.45.73-2.17,1.79-2.17,3.2,0,1.54.7,2.6,2.11,3.2.86.38,1.79.62,2.82.7Z"/><path d="M734.82,7.77c.34,0,.83-.03,1.47-.1.64-.06,1.11-.1,1.41-.1,1.62-.04,2.69-.02,3.2.06.94.13,1.62.38,2.05.77.43.38.68,1.02.77,1.92.17,1.96.19,3.9.06,5.83-.09.9-.34,1.48-.77,1.76-.43.28-1.11.33-2.05.16-2.39-.43-4.2-.64-5.44-.64-5.17-.08-10.29-.08-15.37,0-1.32,0-2.71.26-4.16.77-1.58.55-2.3,1.73-2.18,3.52.08,1.71.96,2.75,2.63,3.14,1.83.43,3.52.66,5.06.7,1.11,0,2.69-.04,4.74-.13,2.05-.08,3.43-.13,4.16-.13.68-.04,1.75.04,3.2.26,1.37.22,2.12.98,2.24,2.31.17,1.58.19,3.05.06,4.42-.04.47-.19.89-.45,1.25-.26.36-.59.66-1.02.9-.43.24-.88.35-1.34.35-1.32.04-4.51.08-9.54.13-.17,0-1,0-2.5-.03-1.5-.02-2.33-.01-2.5.03-.72.04-1.53.26-2.43.64-1.54.64-2.31,1.73-2.31,3.27,0,.38.06.75.19,1.09.13.34.3.67.51.96.21.3.48.57.8.8.32.23.65.4.99.48,1.28.38,2.41.56,3.4.51,5.59-.04,11.74-.15,18.44-.32.42,0,1-.08,1.72-.26.73-.17,1.18-.26,1.34-.26.94-.17,1.62-.09,2.02.26.41.34.61.96.61,1.86.09,1.75.09,3.56,0,5.44,0,.85-.19,1.49-.57,1.92-.39.43-1.01.73-1.86.9-.47.04-1.15.06-2.05.06-.68.04-2.33.05-4.93.03-2.61-.02-4.27,0-5,.03-2.52,0-6.51.04-11.97.13-5.47.08-9.63.15-12.49.19-1.7,0-2.73-.2-3.07-.61-.34-.41-.37-1.46-.07-3.17.34-2.05.54-4.37.58-6.98.12-4.87.12-9.3,0-13.32-.04-2.26-.26-7.38-.64-15.37,0-.56-.11-1.28-.32-2.18-.34-1.28-.33-2.13.03-2.56.36-.43,1.2-.64,2.53-.64.68-.04,4.5-.07,11.46-.07h19.34Z"/><path d="M789.97,7.77c.34,0,.83-.03,1.47-.1.64-.06,1.11-.1,1.41-.1,1.62-.04,2.69-.02,3.2.06.94.13,1.62.38,2.05.77.43.38.68,1.02.77,1.92.17,1.96.19,3.9.06,5.83-.09.9-.34,1.48-.77,1.76-.43.28-1.11.33-2.05.16-2.39-.43-4.2-.64-5.44-.64-5.17-.08-10.29-.08-15.37,0-1.32,0-2.71.26-4.16.77-1.58.55-2.3,1.73-2.18,3.52.08,1.71.96,2.75,2.63,3.14,1.83.43,3.52.66,5.06.7,1.11,0,2.69-.04,4.74-.13,2.05-.08,3.43-.13,4.16-.13.68-.04,1.75.04,3.2.26,1.37.22,2.12.98,2.24,2.31.17,1.58.19,3.05.06,4.42-.04.47-.19.89-.45,1.25-.26.36-.59.66-1.02.9-.43.24-.88.35-1.34.35-1.32.04-4.51.08-9.54.13-.17,0-1,0-2.5-.03-1.5-.02-2.33-.01-2.5.03-.72.04-1.53.26-2.43.64-1.54.64-2.31,1.73-2.31,3.27,0,.38.06.75.19,1.09.13.34.3.67.51.96.21.3.48.57.8.8.32.23.65.4.99.48,1.28.38,2.41.56,3.4.51,5.59-.04,11.73-.15,18.44-.32.42,0,1-.08,1.72-.26.73-.17,1.18-.26,1.34-.26.94-.17,1.62-.09,2.02.26.41.34.61.96.61,1.86.09,1.75.09,3.56,0,5.44,0,.85-.19,1.49-.57,1.92-.39.43-1.01.73-1.86.9-.47.04-1.15.06-2.05.06-.68.04-2.33.05-4.93.03-2.61-.02-4.27,0-5,.03-2.52,0-6.51.04-11.97.13-5.47.08-9.63.15-12.49.19-1.7,0-2.73-.2-3.07-.61-.34-.41-.37-1.46-.07-3.17.34-2.05.54-4.37.58-6.98.12-4.87.12-9.3,0-13.32-.04-2.26-.26-7.38-.64-15.37,0-.56-.11-1.28-.32-2.18-.34-1.28-.33-2.13.03-2.56.36-.43,1.2-.64,2.53-.64.68-.04,4.5-.07,11.46-.07h19.34Z"/><path d="M831,7.97h17.29c1.54,0,2.66.14,3.36.42.7.28,1.19.78,1.47,1.5.28.73.42,1.86.42,3.39-.04,1.11-.08,1.92-.13,2.43-.17,1.02-.46,1.71-.86,2.05-.41.34-1.14.49-2.21.45-2.99-.13-5.38-.24-7.17-.32-.3-.04-.71-.04-1.22,0-3.03.17-4.91,1.71-5.63,4.61-.38,1.54-.58,3.05-.58,4.55-.08,6.1-.08,11.52,0,16.26.04,1.15.25,3.24.64,6.27.17,1.07.11,1.83-.19,2.27-.3.45-.94.69-1.92.73-1.58.09-3.95,0-7.11-.26-.94-.08-1.37-.83-1.28-2.24.34-9.69.51-15.39.51-17.1.04-2.52-.15-5.97-.57-10.37-.09-.94-.34-1.76-.77-2.46-.43-.71-.98-1.28-1.66-1.73s-1.47-.76-2.37-.93c-1.03-.17-3.01-.21-5.96-.13-.51,0-1.22.06-2.14.19-.92.13-1.51.22-1.76.26-.81.04-1.41-.08-1.79-.38-.38-.3-.6-.87-.64-1.73-.09-1.32-.09-2.63,0-3.91.08-.94.27-1.69.54-2.24.28-.55.69-.96,1.25-1.22.55-.25,1.28-.38,2.18-.38h18.31Z"/><path d="M883.82,7.97h17.29c1.54,0,2.66.14,3.36.42.7.28,1.19.78,1.47,1.5.28.73.42,1.86.42,3.39-.04,1.11-.08,1.92-.13,2.43-.17,1.02-.46,1.71-.86,2.05-.41.34-1.14.49-2.21.45-2.99-.13-5.38-.24-7.17-.32-.3-.04-.71-.04-1.22,0-3.03.17-4.91,1.71-5.63,4.61-.38,1.54-.58,3.05-.58,4.55-.08,6.1-.08,11.52,0,16.26.04,1.15.25,3.24.64,6.27.17,1.07.1,1.83-.19,2.27-.3.45-.94.69-1.92.73-1.58.09-3.95,0-7.11-.26-.94-.08-1.37-.83-1.28-2.24.34-9.69.51-15.39.51-17.1.04-2.52-.15-5.97-.57-10.37-.09-.94-.34-1.76-.77-2.46-.43-.71-.98-1.28-1.66-1.73s-1.47-.76-2.37-.93c-1.03-.17-3.01-.21-5.96-.13-.51,0-1.22.06-2.14.19-.92.13-1.5.22-1.76.26-.81.04-1.41-.08-1.79-.38-.38-.3-.6-.87-.64-1.73-.09-1.32-.09-2.63,0-3.91.08-.94.27-1.69.54-2.24.28-.55.69-.96,1.25-1.22.55-.25,1.28-.38,2.18-.38h18.31Z"/><path d="M947.8,52.66c-2.61-.3-4.01-.45-4.23-.45-1.45-.17-2.43-.94-2.94-2.31-.99-2.52-2.76-3.82-5.31-3.91-4.96-.21-8.41-.28-10.37-.19-2.56.09-4.25,1.34-5.06,3.78-.68,2.05-2.09,3.03-4.23,2.95-3.24-.13-5.05-.21-5.44-.26-1.11-.13-1.77-.42-1.99-.86-.21-.45-.11-1.16.32-2.15,3.46-7.89,5.62-12.87,6.47-14.92,1.88-4.69,4.41-11.16,7.62-19.4.39-1.02.72-2.41,1.02-4.16.17-.98.48-1.71.93-2.18s1.12-.73,2.02-.77c2.13-.04,4.91.06,8.32.32.6.04,1.07.28,1.41.7.34.43.54.96.58,1.6.04.56.12,1.11.22,1.67.1.56.27,1.19.48,1.89.21.71.38,1.22.48,1.54.11.32.33.92.67,1.79.34.88.56,1.4.64,1.57,3.12,8.11,4.97,12.91,5.57,14.41,1.03,2.52,3.31,7.96,6.85,16.33.68,1.62.19,2.56-1.48,2.82-.94.13-1.79.19-2.56.19ZM930.19,28.27c-.73,0-1.38.17-1.95.51-.58.34-1.03.82-1.34,1.44-.32.62-.48,1.31-.48,2.08,0,1.24.35,2.24,1.06,3.01.7.77,1.61,1.13,2.72,1.09,1.11,0,2.01-.38,2.69-1.12.68-.75,1.04-1.7,1.09-2.85,0-.47-.07-.93-.19-1.38-.13-.45-.3-.83-.51-1.15-.22-.32-.47-.61-.77-.87-.3-.26-.65-.45-1.06-.58-.41-.13-.82-.19-1.25-.19Z"/><path d="M1003.51,44.33s-.28,4.53-.32,4.74c-.13.77-.35,1.3-.67,1.6-.32.3-.86.45-1.63.45-1.88-.04-4.29.51-7.24,1.67-4.52,1.79-9.2,2.21-14.02,1.25-4.82-.96-8.99-3.13-12.48-6.5-5.98-5.85-7.86-13.21-5.64-22.09,2.56-10.37,9.67-16.9,21.32-19.59,3.58-.81,7.71-.32,12.36,1.47,2.99,1.15,5.23,1.77,6.72,1.86.85.04,1.45.25,1.79.61.34.36.52.97.52,1.83-.05,2.65-.15,5.01-.32,7.11-.21,1.92-1.26,2.62-3.14,2.11-.56-.13-1.21-.45-1.99-.96-.34-.21-.89-.59-1.63-1.12-.75-.53-1.33-.93-1.76-1.19-5.21-3.29-10.44-3.75-15.69-1.41-2.05.9-3.78,2.18-5.18,3.84-1.41,1.67-2.38,3.47-2.91,5.41-.54,1.94-.7,3.97-.52,6.08.19,2.11.76,4.11,1.7,5.98,1.41,2.78,3.35,4.87,5.83,6.28s5.12,2.05,7.94,1.92,5.57-.94,8.26-2.43c.51-.3,1.03-.62,1.54-.96.51-.34,1.14-.8,1.89-1.38.75-.58,1.22-.95,1.44-1.12,1.07-.81,1.96-1.05,2.69-.7.72.38,1.11,1.22,1.15,2.5v2.76Z"/><path d="M1016.68,38.57c-.13-.55-.26-1.17-.39-1.85-.38-2.13-.49-4.4-.32-6.79.34-4.23,1.09-7.6,2.24-10.12,2.01-4.4,5.16-7.98,9.47-10.76,3.93-2.43,8.13-3.74,12.61-3.91,6.66-.21,11.97,2.24,15.94,7.36,2.3,2.99,3.86,6.98,4.67,11.97.72,4.23.62,8.43-.32,12.61-1.02,4.61-3.21,8.31-6.56,11.11-3.35,2.8-7.46,4.49-12.33,5.09-3.67.51-7.27.26-10.82-.77-7.39-2.09-12.12-6.74-14.21-13.96ZM1045.23,41.9c3.46-3.16,5.1-6.96,4.93-11.39-.04-.64-.04-1.22,0-1.73.09-3.29-.57-6.29-1.98-9.03-1.75-3.33-4.14-5.25-7.17-5.76-4.27-.72-7.81.75-10.63,4.42-1.96,2.56-3.14,6.32-3.52,11.27-.26,3.25.13,6.04,1.15,8.39,1.54,3.63,4.01,5.85,7.43,6.66,3.5.9,6.77-.04,9.8-2.82Z"/><path d="M1085,6.94c3.54-1.11,6.4-1.62,8.58-1.54,5.51.13,9.73.85,12.68,2.18.26.09.55.17.87.26.32.08.6.15.83.19.23.04.54.09.93.16.39.07.68.12.9.16,1.07.17,1.78.47,2.15.9.36.43.56,1.2.61,2.31v3.58c-.13,2.95-1.56,3.86-4.29,2.75-.77-.34-2.2-1.07-4.29-2.18-2.48-1.32-5.29-2.18-8.45-2.56-2.14-.3-4.23.15-6.27,1.34-1.37.77-2.18,2-2.43,3.68s.15,3.13,1.21,4.32c1.15,1.32,2.54,2.15,4.16,2.5.72.17,1.92.4,3.58.67,1.67.28,2.92.52,3.78.74,3.67.81,6.08,1.47,7.24,1.99,3.41,1.45,5.68,3.58,6.82,6.4,1.13,2.82,1.02,5.76-.35,8.84-1.58,3.8-4.44,6.45-8.58,7.94-6.36,2.39-13.36,2.63-21,.71-2.31-.6-4.91-1.22-7.82-1.86-.98-.21-1.64-.5-1.98-.87-.34-.36-.54-1.01-.58-1.95-.13-1.83-.15-3.61-.06-5.31.17-2.31,1.34-2.95,3.52-1.92.77.34,2.05.95,3.84,1.83,1.79.88,3.18,1.55,4.16,2.02,3.11,1.41,6.68,1.94,10.69,1.6,1.7-.17,3.2-.81,4.48-1.92,1.23-1.11,1.83-2.47,1.79-4.1-.04-1.62-.7-2.96-1.99-4.03-1.41-1.15-3.16-1.9-5.25-2.24-4.65-.73-7.85-1.3-9.6-1.73-2.14-.47-4.29-1.45-6.47-2.94-1.66-1.16-2.85-2.67-3.55-4.55-.7-1.88-.94-3.72-.7-5.54.24-1.81.82-3.47,1.76-4.96,2.13-3.37,5.16-5.66,9.09-6.85Z"/><path d="M64.53,45.74c-.25,5.18-1.43,9.78-5.23,13.57-3.79,3.79-8.39,4.97-13.57,5.23-4.47.25-8.89.21-13.36.21-4.47,0-8.89.04-13.36-.21-5.18-.25-9.78-1.43-13.57-5.23C1.65,55.51.47,50.92.21,45.74-.04,41.27,0,36.84,0,32.37s-.04-8.89.21-13.36c.25-5.18,1.43-9.78,5.23-13.57C9.23,1.65,13.83.47,19.01.21,23.48-.04,27.91,0,32.37,0c4.47,0,8.89-.04,13.36.21,5.18.25,9.78,1.43,13.57,5.23,3.79,3.79,4.97,8.39,5.23,13.57.25,4.47.21,8.89.21,13.36,0,4.47.04,8.89-.21,13.36ZM13.28,7.13c-1.47.59-2.57,1.31-3.71,2.44-1.14,1.14-1.85,2.23-2.44,3.71-1.69,4.26-1.31,14.37-1.31,19.09,0,4.72-.38,14.84,1.31,19.09.59,1.47,1.31,2.57,2.44,3.71,1.14,1.14,2.23,1.85,3.71,2.44,4.26,1.69,14.37,1.31,19.09,1.31,4.72,0,14.84.38,19.09-1.31,1.47-.59,2.57-1.31,3.71-2.44,1.14-1.14,1.85-2.23,2.44-3.71,1.69-4.26,1.31-14.37,1.31-19.09,0-4.72.38-14.84-1.31-19.09-.59-1.47-1.31-2.57-2.44-3.71-1.14-1.14-2.23-1.85-3.71-2.44-4.26-1.69-14.37-1.31-19.09-1.31-4.72,0-14.84-.38-19.09,1.31ZM32.37,48.98c-9.19,0-16.61-7.42-16.61-16.61,0-9.19,7.42-16.61,16.61-16.61,9.19,0,16.61,7.42,16.61,16.61,0,9.19-7.42,16.61-16.61,16.61ZM32.37,21.58c-5.94,0-10.79,4.85-10.79,10.79,0,5.94,4.85,10.79,10.79,10.79,5.94,0,10.79-4.85,10.79-10.79,0-5.94-4.85-10.79-10.79-10.79ZM49.66,18.97c-2.15,0-3.88-1.73-3.88-3.88,0-2.15,1.73-3.88,3.88-3.88,2.15,0,3.88,1.73,3.88,3.88s-1.73,3.88-3.88,3.88Z"/></g></svg>