<?xml version="1.0" encoding="UTF-8"?><svg id="Layer_2" xmlns="http://www.w3.org/2000/svg" viewBox="0 0 1280.66 745.62"><defs><style>.cls-1{fill:#ff2600;}</style></defs><g id="Layer_1-2"><path class="cls-1" d="M0,189.72c5.39-5.39,10.78-7.37,13.9-15.03,6.24-15.31,2.84-101.52,2.84-102.37,0-9.08-.57-27.22-3.69-35.45-1.13-3.12-9.07-8.51-12.19-9.93-.57-.57-.57-1.42-.57-2.27,0-3.4,2.27-9.36,3.12-13.04,1.13-4.82,1.13-8.79,7.09-9.07,4.54-.28,9.36-.57,13.9-.57h43.67c1.7,1.13,2.84,1.13,3.69,3.12,1.42,3.12,2.55,13.04,2.55,16.45,0,2.55-9.93,7.37-11.34,12.48-4.82,17.58-3.4,36.87-3.4,54.73,0,1.99-1.13,7.09,1.98,7.09l1.7-.85c7.37-8.51,36.58-55.58,36.58-59.84,0-5.39-8.79-5.67-8.79-10.78,0-2.55,2.55-21.55,6.52-21.55,5.96,0,12.19,1.13,18.15,1.13,7.37,0,15.88,0,23.25-.57,4.25-.28,8.51-1.13,12.76-1.13,1.7,0,3.69.28,5.39.57,1.7,2.55,5.67,16.73,5.67,19.57,0,4.25-15.88,9.93-19.28,16.73-1.13,2.27-2.84,3.97-4.25,5.96-7.09,9.93-26.09,36.87-26.09,48.21,0,7.09,20.99,55.87,24.67,66.93.85,2.55,3.4,4.82,4.82,7.09,7.94,4.82,14.75,4.82,21.55,9.07.57,3.4,1.13,6.52,1.13,9.93s-3.69,19.28-5.39,22.4c-2.27,0-4.25.57-6.52.57-3.69,0-7.09-1.13-10.49-1.13-10.21,0-20.42,1.7-30.34,1.7-11.34,0-13.61,3.12-17.02-8.79-1.13-3.97-3.12-6.81-4.54-10.21,0-.28-.57-1.42-.57-1.7,0-3.97,10.21-2.84,10.21-12.19s-13.33-38.57-19-44.52h-.57c-5.96,0-18.43,26.37-20.42,31.48,2.55,11.34,7.37,19.57,18.72,24.39-1.7,6.24-5.39,13.61-7.94,19.57-14.75,0-29.49,1.13-44.24,1.13-5.67,0-10.78,1.42-16.45,1.42h-1.7c-2.84-7.09-6.24-13.61-9.07-20.7Z"/><path class="cls-1" d="M176.67,32.9c0-2.83,2.55-8.79,3.69-11.63,1.98-4.82,1.42-13.33,2.84-15.88,1.7-3.12,10.49-1.7,13.9-1.7,7.94,0,16.16-.85,24.39-.85,8.79,0,17.3,1.7,24.96,1.7,6.52,0,13.04-.85,19.57-.85,8.22.28,16.73.28,24.96.28,12.19,0,24.67-2.27,37.15-2.27,3.4,0,7.94-.57,10.21,2.55,0,2.84-.28,5.67-.28,8.51,0,4.25.57,8.51.57,12.76,0,13.61-.85,27.22-.85,40.84-5.1,1.98-12.19,2.83-17.58,3.97-6.52-13.33-22.69-29.49-38.57-29.49-4.25,0-8.51.28-12.76.28-10.21,0-14.46-1.99-22.4,5.96-.85.85-1.13,1.7-1.13,2.84,0,7.37-.57,14.75-.57,22.12s2.55,9.93,6.24,15.6c1.13.28,2.27.28,3.69.28,11.34,0,27.51-5.1,32.33-15.88,1.42-3.12,9.08-4.54,12.48-4.54h1.7c1.13,5.39,1.42,39.99,1.42,47.64,0,6.52-1.7,13.9-.28,20.42-3.4,1.42-6.52,1.99-10.21,2.84-10.21-10.21-19-15.88-34.03-15.88-1.99,0-7.37,2.84-9.08,3.97-7.37,4.82-5.39,12.19-5.39,19.85,0,5.96-.57,9.64,3.4,14.46,4.25,5.39,17.02,8.79,23.54,8.79,22.12,0,43.1-8.79,54.73-28.64,2.55-.57,4.82-1.42,7.37-1.42h4.54c3.69,3.69,1.7,37.72,1.7,45.09,0,4.25,1.13,8.22,1.13,12.19,0,2.55-1.42,5.39-1.99,7.94-1.7,1.13-3.4,2.27-5.1,3.69-6.81,0-13.33,1.13-19.85,1.13-27.22,0-54.45-1.13-81.96-1.13-15.03,0-30.63.85-45.66.85-4.25-1.98-8.79-14.46-8.79-19,0-9.36,16.73-16.16,17.87-26.66.57-5.1.85-10.49.85-15.6,0-5.67-.57-11.34-.57-17.01l-.85-64.94c0-2.27.57-4.54.57-6.81,0-13.04-7.09-16.17-16.45-23.25l-1.13-.85c-.28-.85-.28-1.42-.28-2.27Z"/><path class="cls-1" d="M371.49,157.96c0-30.06,2.55-60.4,2.55-90.75,0-13.33-3.97-28.36-18.15-32.61,0-2.84,3.4-13.61,4.25-17.02.57-2.55-.28-5.96,1.42-8.22,1.42-1.99,2.84-4.25,4.25-6.24.85-.28,1.42-.28,2.27-.28,6.81,0,13.33.85,20.13.85,9.36,0,18.72-.85,28.08-.85,1.7,1.13,2.84,3.12,3.4,4.82,4.82,14.75,10.21,28.64,18.43,42.25,4.25,7.09,6.24,15.03,10.49,22.12,3.12,5.39,5.39,11.91,7.37,17.87.57,1.7,7.94,14.75,8.79,15.6.57.57,1.13,1.42,1.7,2.27,1.7,2.83,2.55,5.39,5.1,7.94.28-13.61,2.84-27.22,2.84-40.84,0-7.94-.57-16.16-.85-24.39-4.82-7.37-4.82-11.06-13.04-15.31-1.13-.57-1.7-1.42-1.7-2.84,0-7.66,3.4-19.57,5.96-27.51,1.99-1.13,5.96-1.99,8.22-1.99,5.1,0,10.21.85,15.31.85,5.67,0,11.63-.57,17.3-.57,4.54,0,8.79-1.42,12.76-1.42,2.84,0,9.07,3.12,9.92,5.96l3.97,20.7c0,3.69-15.6,13.04-15.6,33.75,0,6.52-.57,13.33-.57,19.85l-.28,85.08c0,3.69,1.13,9.64,3.4,12.48,1.99,2.27,7.37,2.27,7.37,5.96,0,1.13-.28,2.55-.85,3.4-3.69,5.67-3.12,12.48-5.96,18.15-.85,1.7-1.99,2.84-3.97,2.84-2.55,0-5.39-1.13-7.94-1.13-1.42,0-2.84.57-4.25.57-10.21,0-20.7-.85-30.91-.85-4.54,0-10.49,1.99-13.61,1.99-.57,0-1.13-.85-1.13-1.42-1.42-6.52-3.12-12.19-4.82-18.43-.28-1.13-1.13-2.55-.85-3.69,3.4-3.4,5.39-5.39,5.39-10.21,0-7.66-7.09-16.45-10.78-22.97-2.84-4.82-5.39-10.49-7.37-15.6-4.54-11.63-13.04-24.1-20.7-34.03-1.13,0-1.99,0-3.12-.28-2.84,5.39-3.4,37.15-3.4,45.37,0,9.07-.57,20.98,6.52,28.07,1.7,1.7,10.78,9.36,10.78,11.63,0,6.52-3.4,13.9-4.25,20.42-1.13.28-2.27.57-3.4.57-3.4,0-6.52-.85-9.93-.85-15.31,0-30.63,1.7-45.66,1.7-1.98,0-3.97-.57-5.67-1.42-3.97-5.1-6.81-14.18-7.94-20.42,12.19-10.21,18.72-13.61,18.72-30.91Z"/><path class="cls-1" d="M562.34,157.96c0-30.06,2.55-60.4,2.55-90.75,0-13.33-3.97-28.36-18.15-32.61,0-2.84,3.4-13.61,4.25-17.02.57-2.55-.28-5.96,1.42-8.22,1.42-1.99,2.84-4.25,4.25-6.24.85-.28,1.42-.28,2.27-.28,6.81,0,13.33.85,20.13.85,9.36,0,18.72-.85,28.08-.85,1.7,1.13,2.84,3.12,3.4,4.82,4.82,14.75,10.21,28.64,18.43,42.25,4.25,7.09,6.24,15.03,10.49,22.12,3.12,5.39,5.39,11.91,7.37,17.87.57,1.7,7.94,14.75,8.79,15.6.57.57,1.13,1.42,1.7,2.27,1.7,2.83,2.55,5.39,5.1,7.94.28-13.61,2.84-27.22,2.84-40.84,0-7.94-.57-16.16-.85-24.39-4.82-7.37-4.82-11.06-13.04-15.31-1.13-.57-1.7-1.42-1.7-2.84,0-7.66,3.4-19.57,5.96-27.51,1.99-1.13,5.96-1.99,8.22-1.99,5.1,0,10.21.85,15.31.85,5.67,0,11.63-.57,17.3-.57,4.54,0,8.79-1.42,12.76-1.42,2.84,0,9.07,3.12,9.92,5.96l3.97,20.7c0,3.69-15.6,13.04-15.6,33.75,0,6.52-.57,13.33-.57,19.85l-.28,85.08c0,3.69,1.13,9.64,3.4,12.48,1.99,2.27,7.37,2.27,7.37,5.96,0,1.13-.28,2.55-.85,3.4-3.69,5.67-3.12,12.48-5.96,18.15-.85,1.7-1.99,2.84-3.97,2.84-2.55,0-5.39-1.13-7.94-1.13-1.42,0-2.84.57-4.25.57-10.21,0-20.7-.85-30.91-.85-4.54,0-10.49,1.99-13.61,1.99-.57,0-1.13-.85-1.13-1.42-1.42-6.52-3.12-12.19-4.82-18.43-.28-1.13-1.13-2.55-.85-3.69,3.4-3.4,5.39-5.39,5.39-10.21,0-7.66-7.09-16.45-10.78-22.97-2.84-4.82-5.39-10.49-7.37-15.6-4.54-11.63-13.04-24.1-20.7-34.03-1.13,0-1.99,0-3.12-.28-2.84,5.39-3.4,37.15-3.4,45.37,0,9.07-.57,20.98,6.52,28.07,1.7,1.7,10.78,9.36,10.78,11.63,0,6.52-3.4,13.9-4.25,20.42-1.13.28-2.27.57-3.4.57-3.4,0-6.52-.85-9.93-.85-15.31,0-30.63,1.7-45.66,1.7-1.98,0-3.97-.57-5.67-1.42-3.97-5.1-6.81-14.18-7.94-20.42,12.19-10.21,18.72-13.61,18.72-30.91Z"/><path class="cls-1" d="M737.32,32.9c0-2.83,2.55-8.79,3.69-11.63,1.98-4.82,1.42-13.33,2.84-15.88,1.7-3.12,10.49-1.7,13.9-1.7,7.94,0,16.16-.85,24.39-.85,8.79,0,17.3,1.7,24.96,1.7,6.52,0,13.04-.85,19.57-.85,8.22.28,16.73.28,24.96.28,12.19,0,24.67-2.27,37.15-2.27,3.4,0,7.94-.57,10.21,2.55,0,2.84-.28,5.67-.28,8.51,0,4.25.57,8.51.57,12.76,0,13.61-.85,27.22-.85,40.84-5.1,1.98-12.19,2.83-17.58,3.97-6.52-13.33-22.69-29.49-38.57-29.49-4.25,0-8.51.28-12.76.28-10.21,0-14.46-1.99-22.4,5.96-.85.85-1.13,1.7-1.13,2.84,0,7.37-.57,14.75-.57,22.12s2.55,9.93,6.24,15.6c1.13.28,2.27.28,3.69.28,11.34,0,27.51-5.1,32.33-15.88,1.42-3.12,9.08-4.54,12.48-4.54h1.7c1.13,5.39,1.42,39.99,1.42,47.64,0,6.52-1.7,13.9-.28,20.42-3.4,1.42-6.52,1.99-10.21,2.84-10.21-10.21-19-15.88-34.03-15.88-1.99,0-7.37,2.84-9.08,3.97-7.37,4.82-5.39,12.19-5.39,19.85,0,5.96-.57,9.64,3.4,14.46,4.25,5.39,17.02,8.79,23.54,8.79,22.12,0,43.1-8.79,54.73-28.64,2.55-.57,4.82-1.42,7.37-1.42h4.54c3.69,3.69,1.7,37.72,1.7,45.09,0,4.25,1.13,8.22,1.13,12.19,0,2.55-1.42,5.39-1.99,7.94-1.7,1.13-3.4,2.27-5.1,3.69-6.81,0-13.33,1.13-19.85,1.13-27.22,0-54.45-1.13-81.96-1.13-15.03,0-30.63.85-45.66.85-4.25-1.98-8.79-14.46-8.79-19,0-9.36,16.73-16.16,17.87-26.66.57-5.1.85-10.49.85-15.6,0-5.67-.57-11.34-.57-17.01l-.85-64.94c0-2.27.57-4.54.57-6.81,0-13.04-7.09-16.17-16.45-23.25l-1.13-.85c-.28-.85-.28-1.42-.28-2.27Z"/><path class="cls-1" d="M918.24,176.11c7.94-3.4,13.33-5.1,16.17-14.18,1.98-6.24,3.12-14.46,3.12-20.99,0-20.42.57-34.6.57-50.48,0-12.48-.57-31.48-3.4-43.67-2.55-10.49-16.45-6.24-16.45-13.9,0-2.83,2.55-7.94,2.84-13.61,0-4.25,2.84-18.15,8.22-18.15,4.82,0,9.92,1.42,15.03,1.42,15.31,0,30.91-2.55,46.22-2.55h20.42c24.1,0,48.21,7.09,65.79,24.67,3.4,3.4,9.36,7.66,10.49,12.19.28,1.13.85,1.99,1.42,3.12,4.25,8.79,13.33,31.76,14.46,41.4,4.82,41.4-1.13,68.91-26.09,102.37-10.21,13.61-31.19,22.4-47.93,23.82-3.4.28-6.52,1.42-9.93,1.42-11.63,0-22.97-1.99-34.6-1.99-8.22,0-16.45-.28-24.67-.28-9.08,0-18.15,2.27-27.22,2.27h-5.96c-1.99-3.97-2.55-7.66-3.69-11.91-.85-2.84-6.81-12.48-6.81-13.9,0-3.12,1.13-4.25,1.98-7.09ZM984.32,74.3c0,20.99.28,32.33.28,52.18v27.79c0,2.27.57,4.25,1.7,6.24,3.69,2.55,8.22,3.97,12.76,3.97,15.6,0,36.87-7.66,45.94-20.99,2.27-3.4,4.25-7.66,5.67-11.34,12.76-33.18,1.7-83.94-42.25-83.94h-17.58c-6.81,3.4-6.52,19.85-6.52,26.09Z"/><path class="cls-1" d="M1098.04,3.12c21.27-1.13,43.1-1.98,64.37-1.98,5.39,0,11.06.57,16.45.57.57,3.97.57,8.51.57,12.76,0,3.4.85,7.09.85,10.49,0,1.99-10.21,11.63-10.21,21.27,0,5.1,16.17,41.97,20.42,41.97,1.13,0,2.27-1.13,2.84-2.27,1.7-3.4,16.17-34.31,16.17-36.87,0-10.49-1.99-14.18-9.36-21.27-.28-1.13-.28-2.27-.28-3.4,0-5.1.57-16.17,2.84-20.7,11.06-.28,22.69-1.7,33.75-1.7,2.84,0,5.67.57,8.51.57,10.78.28,21.84,0,32.61,0,.57,0,.85.28,1.42.28,1.13,1.42,1.7,3.12,1.7,5.1,0,7.66-2.27,16.73-4.25,24.39-.57,2.27-1.7,3.97-4.25,3.97-6.24.28-17.3,6.24-20.42,11.91-3.69,6.81-7.09,14.18-9.64,21.55-1.99,5.96-4.54,11.63-7.09,17.3-2.84,6.52-4.54,13.33-7.09,19.85-2.27,5.96-5.1,12.19-7.66,18.15-3.4,7.94-5.1,17.02-5.1,24.96v6.52c0,9.92,1.99,13.04,8.51,20.13,3.12,3.4,6.81,3.12,9.64,5.67v.85c0,.28,0,.57-.28.85-3.69,6.81-3.97,15.03-5.67,22.4l-.57.85c-5.96,1.13-12.48,3.12-18.43,3.12-3.69,0-7.37-.57-10.78-.57h-37.43c-.85-1.99-6.52-20.7-6.52-21.84,0-4.54,8.51-6.52,11.34-11.34,3.69-6.24,3.97-14.46,3.97-21.55,0-14.18-2.55-19.57-6.81-30.06-2.84-7.09-29.78-65.22-35.16-77.99-3.4-7.94-21.55-7.37-22.69-14.46-.57-3.69-5.67-26.09-7.09-27.51.28-.57.57-1.42.85-1.99Z"/><path class="cls-1" d="M95.57,319.78c2.84-16.73,22.69-43.96,37.15-49.63,5.67-2.27,11.06-4.82,16.73-7.09,1.7-.57,18.43-2.27,20.13-2.27,11.34,0,26.66.28,37.15,3.97,7.09,2.55,14.18,6.81,21.84,6.81,2.55-1.99,3.97-4.82,5.67-7.37,1.13-.28,2.27-.28,3.4-.28,2.55,0,8.79,0,10.49,1.7v1.7c0,1.7,0,3.4-.28,4.82-1.99,9.93-.57,21.27-.57,31.48,0,5.39.57,11.06.57,16.45v3.4c-5.1,1.7-11.34,1.7-16.45,1.7-2.84-5.67-9.93-11.34-15.31-15.31-8.51-6.24-26.09-9.36-36.58-9.36-14.75,0-24.67,2.83-31.48,17.01-9.36,23.25,30.91,22.69,41.97,25.52,32.04,3.12,46.22,12.48,63.24,38.85,3.69,5.67,5.67,15.31,5.67,21.84,0,16.16-4.82,39.42-19,49.63-4.25,3.12-6.81,7.94-11.63,10.21-9.92,4.82-25.24,10.78-36.3,10.78h-14.46c-5.39,0-16.16-1.7-21.27-3.12-1.99-.57-3.69-1.42-5.67-1.7-6.24-.85-12.76-4.54-19-4.54-8.79,0-11.63,1.99-17.58,7.94h-1.99c-13.33,0-10.49-1.7-10.49-13.04v-43.67c0-6.52-1.7-12.76-1.7-19.28,0-3.4,12.48-2.84,14.75-2.84h3.97c.57.57,1.13,1.42,1.7,2.27,7.66,11.63,14.46,22.12,27.22,28.36,6.24,3.12,12.19,5.96,19.28,5.96,4.25,0,7.94,1.42,12.19,1.42,12.19,0,30.34-7.09,30.34-21.55,0-2.27-.28-4.25-1.13-6.24-5.39-12.76-12.19-15.6-25.52-15.6-26.94,0-64.37-8.22-78.84-33.18-5.96-10.49-10.78-20.99-8.22-35.73Z"/><path class="cls-1" d="M271.39,311.27l3.4-26.09c.57-3.97,0-12.19,1.42-15.6,21.27-.57,43.1-1.13,64.37-1.13h44.81c9.08,0,17.87-1.7,26.94-1.7,7.37,0,15.6.85,22.97,1.7,1.42,2.55,4.82,25.24,5.1,29.78.57,8.79,3.97,17.87,3.97,26.66v1.7c-.85.57-1.98.85-2.55,1.7-2.27,3.4-11.63,4.25-15.6,4.25-7.37,0-10.49-24.39-31.48-24.39-19.85,0-15.88,27.51-15.88,42.54,0,18.72.28,37.43.28,56.15,0,16.45,8.22,31.19,24.39,36.3-.28,2.55-4.82,25.52-5.39,26.37-1.7,2.55-4.54,3.4-7.37,3.4-10.21,0-20.13,1.99-30.06,1.99-8.22,0-16.45-1.13-24.67-1.13-5.39,0-10.49,1.42-15.88,1.42-.28,0-.85-.28-1.13-.28-1.13-4.82-7.37-24.1-7.37-27.79,0-1.42.85-3.4,1.98-4.25,1.7-1.13,4.25-1.99,6.24-2.84,6.52-2.84,9.36-9.08,13.33-14.46.85-3.97,1.13-7.94,1.13-11.91.57-44.81,5.1-101.24-8.79-102.94-14.46-1.7-23.82,4.25-30.06,16.45-3.4,6.81-4.54,8.51-7.09,8.51-2.27,0-6.24-1.42-15.03-1.42-2.84,0-5.1-.57-5.1-3.97,0-2.55,2.55-15.03,3.12-19Z"/><path class="cls-1" d="M450.05,449.66c3.12-2.27,6.52-4.25,9.64-6.52s5.67-5.39,8.79-7.94c0-1.13.28-1.99.28-3.12l.57-106.63c0-4.25-2.27-7.66-2.27-11.91,0-5.39-10.78-10.49-15.03-11.91-.57-.57-.85-1.42-.85-2.27,0-8.51,5.1-17.01,5.39-25.81.85-.85,1.42-1.7,2.27-2.55,1.13-.28,1.98-.28,3.12-.28,18.15,0,36.02-3.12,54.17-3.12,5.96,0,11.63,1.13,17.3,1.13,9.08,0,17.58-.57,26.66,1.13,6.52,1.13,12.19,4.54,18.43,6.81,15.03,5.39,30.91,13.9,36.58,30.34,1.99,5.67,4.54,13.04,4.54,19,0,15.03-6.81,37.15-18.72,46.79l-3.12,2.55c-4.82,3.97-10.49,5.39-15.31,8.79-.28.28-1.13.85-1.13,1.42s14.46,34.6,16.45,39.42c1.13,2.84,3.69,6.24,5.96,8.22,3.12,2.55,15.88,5.39,20.99,7.94.57,3.12.85,6.52.85,9.93,0,4.25-3.4,17.87-5.39,21.84l-2.27.57c-5.1,0-10.21-1.13-15.03-1.13-5.96,0-23.54,0-28.36,1.7-.85.28-1.99.28-2.84.28-4.82,0-9.93.28-14.46-.28-1.99-.28-2.55-.28-3.4-2.27-2.83-6.52-5.67-19-8.22-24.39-.28-.57-.85-1.13-.85-1.7,0-3.4,10.49-3.69,10.49-12.19,0-5.67-11.06-29.49-14.18-34.31-2.27-3.4-5.96-5.39-9.93-5.39-10.78,0-13.33,8.79-13.33,18.15,0,6.81-2.55,25.24,7.94,28.36,2.84.85,5.39,2.27,8.22,3.4.57.57,1.13,1.42,1.13,2.27,0,.28-9.64,26.37-10.21,27.51-.57,0-1.42.28-1.99.28-9.36,0-18.72.85-28.08.85-3.69,0-9.36-1.42-12.48-.85-7.09,1.42-13.9,2.55-20.7,4.25-2.55-1.7-10.78-19.28-11.34-22.4-.28-1.99-.28-3.97-.28-5.96ZM517.83,327.15v9.64c0,3.97,2.27,8.22,5.1,11.06,1.7.57,14.18,2.27,15.88,2.27,10.49,0,27.51-7.09,27.51-19.28,0-15.6-11.06-18.15-24.11-18.15h-8.51c-9.93,0-15.88,3.69-15.88,14.46Z"/><path class="cls-1" d="M631.26,298.23c0-2.83,2.55-8.79,3.69-11.63,1.98-4.82,1.42-13.33,2.84-15.88,1.7-3.12,10.49-1.7,13.9-1.7,7.94,0,16.16-.85,24.39-.85,8.79,0,17.3,1.7,24.96,1.7,6.52,0,13.04-.85,19.57-.85,8.22.28,16.73.28,24.96.28,12.19,0,24.67-2.27,37.15-2.27,3.4,0,7.94-.57,10.21,2.55,0,2.84-.28,5.67-.28,8.51,0,4.25.57,8.51.57,12.76,0,13.61-.85,27.22-.85,40.84-5.1,1.98-12.19,2.83-17.58,3.97-6.52-13.33-22.69-29.49-38.57-29.49-4.25,0-8.51.28-12.76.28-10.21,0-14.46-1.99-22.4,5.96-.85.85-1.13,1.7-1.13,2.84,0,7.37-.57,14.75-.57,22.12s2.55,9.93,6.24,15.6c1.13.28,2.27.28,3.69.28,11.34,0,27.51-5.1,32.33-15.88,1.42-3.12,9.08-4.54,12.48-4.54h1.7c1.13,5.39,1.42,39.99,1.42,47.64,0,6.52-1.7,13.9-.28,20.42-3.4,1.42-6.52,1.99-10.21,2.84-10.21-10.21-19-15.88-34.03-15.88-1.99,0-7.37,2.84-9.08,3.97-7.37,4.82-5.39,12.19-5.39,19.85,0,5.96-.57,9.64,3.4,14.46,4.25,5.39,17.02,8.79,23.54,8.79,22.12,0,43.1-8.79,54.73-28.64,2.55-.57,4.82-1.42,7.37-1.42h4.54c3.69,3.69,1.7,37.72,1.7,45.09,0,4.25,1.13,8.22,1.13,12.19,0,2.55-1.42,5.39-1.99,7.94-1.7,1.13-3.4,2.27-5.1,3.69-6.81,0-13.33,1.13-19.85,1.13-27.22,0-54.45-1.13-81.96-1.13-15.03,0-30.63.85-45.66.85-4.25-1.98-8.79-14.46-8.79-19,0-9.36,16.73-16.16,17.87-26.66.57-5.11.85-10.49.85-15.6,0-5.67-.57-11.34-.57-17.01l-.85-64.94c0-2.27.57-4.54.57-6.81,0-13.04-7.09-16.17-16.45-23.25l-1.13-.85c-.28-.85-.28-1.42-.28-2.27Z"/><path class="cls-1" d="M804.53,298.23c0-2.83,2.55-8.79,3.69-11.63,1.98-4.82,1.42-13.33,2.84-15.88,1.7-3.12,10.49-1.7,13.9-1.7,7.94,0,16.16-.85,24.39-.85,8.79,0,17.3,1.7,24.96,1.7,6.52,0,13.04-.85,19.57-.85,8.22.28,16.73.28,24.96.28,12.19,0,24.67-2.27,37.15-2.27,3.4,0,7.94-.57,10.21,2.55,0,2.84-.28,5.67-.28,8.51,0,4.25.57,8.51.57,12.76,0,13.61-.85,27.22-.85,40.84-5.1,1.98-12.19,2.83-17.58,3.97-6.52-13.33-22.69-29.49-38.57-29.49-4.25,0-8.51.28-12.76.28-10.21,0-14.46-1.99-22.4,5.96-.85.85-1.13,1.7-1.13,2.84,0,7.37-.57,14.75-.57,22.12s2.55,9.93,6.24,15.6c1.13.28,2.27.28,3.69.28,11.34,0,27.51-5.1,32.33-15.88,1.42-3.12,9.08-4.54,12.48-4.54h1.7c1.13,5.39,1.42,39.99,1.42,47.64,0,6.52-1.7,13.9-.28,20.42-3.4,1.42-6.52,1.99-10.21,2.84-10.21-10.21-19-15.88-34.03-15.88-1.99,0-7.37,2.84-9.08,3.97-7.37,4.82-5.39,12.19-5.39,19.85,0,5.96-.57,9.64,3.4,14.46,4.25,5.39,17.02,8.79,23.54,8.79,22.12,0,43.1-8.79,54.73-28.64,2.55-.57,4.82-1.42,7.37-1.42h4.54c3.69,3.69,1.7,37.72,1.7,45.09,0,4.25,1.13,8.22,1.13,12.19,0,2.55-1.42,5.39-1.99,7.94-1.7,1.13-3.4,2.27-5.1,3.69-6.81,0-13.33,1.13-19.85,1.13-27.22,0-54.45-1.13-81.96-1.13-15.03,0-30.63.85-45.66.85-4.25-1.98-8.79-14.46-8.79-19,0-9.36,16.73-16.16,17.87-26.66.57-5.11.85-10.49.85-15.6,0-5.67-.57-11.34-.57-17.01l-.85-64.94c0-2.27.57-4.54.57-6.81,0-13.04-7.09-16.17-16.45-23.25l-1.13-.85c-.28-.85-.28-1.42-.28-2.27Z"/><path class="cls-1" d="M980.91,311.27l3.4-26.09c.57-3.97,0-12.19,1.42-15.6,21.27-.57,43.1-1.13,64.37-1.13h44.81c9.08,0,17.87-1.7,26.94-1.7,7.37,0,15.6.85,22.97,1.7,1.42,2.55,4.82,25.24,5.1,29.78.57,8.79,3.97,17.87,3.97,26.66v1.7c-.85.57-1.98.85-2.55,1.7-2.27,3.4-11.63,4.25-15.6,4.25-7.37,0-10.49-24.39-31.48-24.39-19.85,0-15.88,27.51-15.88,42.54,0,18.72.28,37.43.28,56.15,0,16.45,8.22,31.19,24.39,36.3-.28,2.55-4.82,25.52-5.39,26.37-1.7,2.55-4.54,3.4-7.37,3.4-10.21,0-20.13,1.99-30.06,1.99-8.22,0-16.45-1.13-24.67-1.13-5.39,0-10.49,1.42-15.88,1.42-.28,0-.85-.28-1.13-.28-1.13-4.82-7.37-24.1-7.37-27.79,0-1.42.85-3.4,1.98-4.25,1.7-1.13,4.25-1.99,6.24-2.84,6.52-2.84,9.36-9.08,13.33-14.46.85-3.97,1.13-7.94,1.13-11.91.57-44.81,5.1-101.24-8.79-102.94-14.46-1.7-23.82,4.25-30.06,16.45-3.4,6.81-4.54,8.51-7.09,8.51-2.27,0-6.24-1.42-15.03-1.42-2.84,0-5.1-.57-5.1-3.97,0-2.55,2.55-15.03,3.12-19Z"/><path class="cls-1" d="M146.04,576.6l3.4-26.09c.57-3.97,0-12.19,1.42-15.6,21.27-.57,43.1-1.13,64.37-1.13h44.81c9.08,0,17.87-1.7,26.94-1.7,7.37,0,15.6.85,22.97,1.7,1.42,2.55,4.82,25.24,5.1,29.78.57,8.79,3.97,17.87,3.97,26.66v1.7c-.85.57-1.98.85-2.55,1.7-2.27,3.4-11.63,4.25-15.6,4.25-7.37,0-10.49-24.39-31.48-24.39-19.85,0-15.88,27.51-15.88,42.54,0,18.72.28,37.43.28,56.15,0,16.45,8.22,31.19,24.39,36.3-.28,2.55-4.82,25.52-5.39,26.37-1.7,2.55-4.54,3.4-7.37,3.4-10.21,0-20.13,1.99-30.06,1.99-8.22,0-16.45-1.13-24.67-1.13-5.39,0-10.49,1.42-15.88,1.42-.28,0-.85-.28-1.13-.28-1.13-4.82-7.37-24.1-7.37-27.79,0-1.42.85-3.4,1.98-4.25,1.7-1.13,4.25-1.99,6.24-2.84,6.52-2.84,9.36-9.08,13.33-14.46.85-3.97,1.13-7.94,1.13-11.91.57-44.81,5.1-101.24-8.79-102.94-14.46-1.7-23.82,4.25-30.06,16.45-3.4,6.81-4.54,8.51-7.09,8.51-2.27,0-6.24-1.42-15.03-1.42-2.84,0-5.1-.57-5.1-3.97,0-2.55,2.55-15.03,3.12-19Z"/><path class="cls-1" d="M305.42,715.56l.85-.57c5.39-.85,18.43-9.07,20.7-13.9,5.96-12.48,28.93-99.25,28.93-108.33,0-10.78-.57-25.81-11.34-31.19.85-8.22,1.13-17.87,2.84-26.09.85-.28,1.99-.57,2.84-.57,18.15,0,36.02-1.42,54.17-1.42,9.92,0,20.13.57,30.06.57,5.39,0,10.49-.57,15.88-.57,3.12,1.99,4.82,19.57,4.82,23.54,0,1.7-.28,3.69-.57,5.39-.28,2.27-10.49,6.24-10.49,15.88,0,3.97,0,8.22.28,12.19.85,12.19,19.57,103.79,27.22,112.3,2.84,3.12,16.45,11.91,17.3,13.9-2.84,7.09-4.25,14.75-5.39,22.12-4.54.85-27.51.57-33.75.57-7.09,0-28.93.28-33.18-1.13-2.55-7.37-4.54-14.18-7.37-21.27,5.1-5.1,11.63-7.94,11.63-14.75s-1.7-14.46-3.12-21.55l-1.42-.85c-3.12-.28-6.24-.57-9.36-.57-3.69,0-7.66.28-11.63.28-8.51,0-15.31.57-17.3,10.49-.85,4.25-2.55,9.07-2.55,13.61,0,4.82,6.52,11.06,10.78,12.76-2.27,7.66-4.82,15.6-7.09,23.25-3.4-1.13-6.81-1.7-10.21-1.7-7.66,0-15.6,1.98-23.25,1.98-3.12,0-6.24-1.13-9.36-1.13-8.51,0-17.3,1.13-25.81,1.13h-1.13c-1.7-1.7-4.25-14.46-4.25-17.01s-.28-4.82.28-7.37ZM386.24,640.69c1.98,2.27,7.37,3.97,10.21,3.97,4.25,0,14.18-1.42,14.18-6.81,0-4.82-2.27-10.49-3.12-15.31-1.42-8.79-3.97-18.15-4.54-27.22,0-1.99-.57-3.69-1.7-5.1-6.81,1.13-15.03,43.11-15.03,50.48Z"/><path class="cls-1" d="M496.84,588.51c18.72-37.72,59.27-60.4,101.24-60.4,9.36,0,26.66,6.81,29.21,6.81,8.51,0,4.25-11.63,15.6-11.63,5.67,0,11.63-.57,17.01-.57h1.7c.28.28.57.57.57.85,0,3.69-.57,7.09-.57,10.78,0,23.54,3.4,47.36,3.4,71.18,0,4.54-12.48,3.69-15.31,3.69-4.25,0-15.6-10.78-18.72-13.9-10.78-11.63-20.13-12.76-34.31-17.58-2.55-.85-5.1-1.13-7.94-1.13-7.66,0-20.13,3.69-29.21,11.91-25.52,23.25-24.39,87.91,4.25,102.37,6.81,3.4,21.27,6.81,28.36,6.81,3.69,0,7.09-.85,10.49-.85,11.63,0,25.24-14.46,28.92-24.67,1.13-3.12,2.55-5.96,3.97-8.79,0-2.27,2.84-4.25,4.82-4.25,2.27,0,4.54.85,6.81.85,2.84,0,5.96-.85,8.79-.85h16.73c4.54,0,6.24,3.12,6.24,7.66,0,13.61-3.97,26.37-11.34,37.43-3.4,5.1-5.1,10.21-9.93,14.46-4.25,3.97-19,16.73-22.97,18.72-11.91,5.96-26.37,8.22-39.42,8.22-19.57,0-38.28-3.69-56.43-10.21-11.63-4.25-15.31-9.36-23.54-17.58-2.55-2.55-5.96-4.25-8.22-7.09-4.54-5.67-7.09-12.76-10.78-19-14.75-24.39-11.06-79.69.57-103.22Z"/><path class="cls-1" d="M693.93,595.89c7.09-21.27,26.94-47.08,48.21-56.15,1.99-.85,3.4-1.42,4.82-2.84,8.22-8.22,17.01-5.67,26.66-8.51,1.99-.57,3.97-1.13,6.24-1.13,1.42,0,3.12.57,4.82.57,14.18,0,26.94,0,41.12,2.84,11.63,2.27,26.66,11.34,34.6,20.13,2.55,2.84,4.82,5.96,7.66,8.79,4.54,4.54,7.37,7.09,10.21,12.76,3.69,7.37,6.52,14.75,9.64,22.12,11.91,28.36,12.76,61.82-4.82,99.25-6.52,13.9-11.63,19-22.4,29.78-15.88,15.88-51.61,22.12-73.73,22.12-8.51,0-19-1.7-27.22-4.82-2.27-.85-4.25-1.13-6.52-1.7-7.66-1.99-13.33-5.96-20.13-9.64-10.78-5.67-27.22-30.34-31.48-40.55-16.16-28.64-17.58-64.09-7.66-93.02ZM742.99,661.4c8.51,21.27,24.39,38.85,49.06,38.85,21.84,0,38.57-14.18,46.79-34.03,6.81-16.16,8.79-27.51,5.96-44.52-.85-5.11-3.69-10.78-5.39-15.31-5.67-15.31-13.9-21.55-25.81-31.76-8.51-3.12-15.31-6.24-24.67-6.24-22.69,0-39.7,20.42-46.79,39.7-5.39,15.03-6.24,35.45.85,53.31Z"/><path class="cls-1" d="M913.99,585.11c2.84-16.73,22.69-43.96,37.15-49.63,5.67-2.27,11.06-4.82,16.73-7.09,1.7-.57,18.43-2.27,20.13-2.27,11.34,0,26.66.28,37.15,3.97,7.09,2.55,14.18,6.81,21.84,6.81,2.55-1.99,3.97-4.82,5.67-7.37,1.13-.28,2.27-.28,3.4-.28,2.55,0,8.79,0,10.49,1.7v1.7c0,1.7,0,3.4-.28,4.82-1.99,9.93-.57,21.27-.57,31.48,0,5.39.57,11.06.57,16.45v3.4c-5.1,1.7-11.34,1.7-16.45,1.7-2.84-5.67-9.93-11.34-15.31-15.31-8.51-6.24-26.09-9.36-36.58-9.36-14.75,0-24.67,2.83-31.48,17.01-9.36,23.25,30.91,22.69,41.97,25.52,32.04,3.12,46.22,12.48,63.24,38.85,3.69,5.67,5.67,15.31,5.67,21.84,0,16.16-4.82,39.42-19,49.63-4.25,3.12-6.81,7.94-11.63,10.21-9.92,4.82-25.24,10.78-36.3,10.78h-14.46c-5.39,0-16.16-1.7-21.27-3.12-1.99-.57-3.69-1.42-5.67-1.7-6.24-.85-12.76-4.54-19-4.54-8.79,0-11.63,1.99-17.58,7.94h-1.99c-13.33,0-10.49-1.7-10.49-13.04v-43.67c0-6.52-1.7-12.76-1.7-19.28,0-3.4,12.48-2.84,14.75-2.84h3.97c.57.57,1.13,1.42,1.7,2.27,7.66,11.63,14.46,22.12,27.22,28.36,6.24,3.12,12.19,5.96,19.28,5.96,4.25,0,7.94,1.42,12.19,1.42,12.19,0,30.34-7.09,30.34-21.55,0-2.27-.28-4.25-1.13-6.24-5.39-12.76-12.19-15.6-25.52-15.6-26.94,0-64.37-8.22-78.84-33.18-5.96-10.49-10.78-20.99-8.22-35.73Z"/></g></svg>