<?xml version="1.0" encoding="UTF-8"?><svg id="Layer_2" xmlns="http://www.w3.org/2000/svg" viewBox="0 0 1347.65 591.13"><defs><style>.cls-1{fill:#ff2600;}</style></defs><g id="Layer_1-2"><path class="cls-1" d="M1134.4,591.13H213.23c-61.68,0-120.28-26.67-160.79-73.18C11.93,471.43-6.45,409.72,2.02,348.62l22.83-164.68C39.38,79.08,130.18,0,236.06,0h868.26c103.02,0,191.24,73.56,209.75,174.9l30.08,164.68c11.4,62.41-5.36,126.15-45.99,174.87-40.63,48.73-100.32,76.67-163.76,76.67ZM236.06,20.95c-95.47,0-177.35,71.31-190.46,165.87l-22.83,164.68c-7.63,55.09,8.94,110.74,45.46,152.68,36.53,41.94,89.38,65.99,144.99,65.99h921.17c57.21,0,111.03-25.2,147.67-69.14,36.63-43.94,51.75-101.41,41.47-157.69l-30.08-164.68c-16.7-91.39-96.24-157.72-189.14-157.72H236.06Z"/><path d="M254.36,212.52h-24.3c-2.77,0-4.52-.48-5.25-1.45-.74-.97-.88-2.88-.41-5.73.92-5.43,1.38-10.32,1.38-14.64.09-5.43.14-22.52.14-51.25,0-7.46-.04-12.34-.14-14.64,0-.64-.12-1.49-.35-2.55-.23-1.06-.39-1.68-.48-1.87-.46-3.13.88-4.88,4-5.25.46-.09,1.2-.14,2.21-.14,26.71,0,41.81.05,45.32.14,8.28.19,15.01,1.57,20.17,4.14,7.36,3.78,13.21,9.86,17.54,18.24,3.96,7.93,5.95,16.12,5.95,24.59,0,18.69-6.68,33.11-20.03,43.24-2.02,1.57-4.26,2.88-6.7,3.93-2.44,1.06-4.93,1.85-7.46,2.35-2.53.51-5.18.81-7.94.9-1.12,0-8.99,0-23.64,0ZM256.99,190.14c.55.09,4.19.51,10.92,1.24,7.45-.74,11.41-1.15,11.87-1.24,8.3-1.66,13.77-6.36,16.45-14.09,2.29-6.72,2.07-14.09-.7-22.1-2.4-6.91-6.22-11.65-11.47-14.23-9.21-4.6-18.74-5.2-28.59-1.79-3.23,1.01-5.39,3.23-6.5,6.63-.92,2.76-1.47,5.61-1.65,8.56-.46,6.91-.65,12.94-.55,18.1,0,3.4.46,6.91,1.38,10.5,1.1,4.6,4.05,7.42,8.84,8.43Z"/><path d="M353.6,116.09h7.32c3.14.28,4.56,2.03,4.28,5.25-.64,7.46-1.01,15.4-1.1,23.83-.09,8.43-.07,17.73.07,27.91.14,10.17.21,18.11.21,23.83-.1.92-.08,1.91.07,2.97.14,1.06.32,2.24.55,3.52.22,1.29.39,2.26.48,2.9.28,2.12.05,3.66-.7,4.63-.73.96-2.11,1.5-4.14,1.59-3.23.09-8.11-.14-14.65-.69-2.2-.19-3.27-1.75-3.17-4.69.09-.74.22-2.05.42-3.94.18-1.88.27-3.38.27-4.49.09-25.51.09-42.22,0-50.14-.09-3.22-.68-12.25-1.8-27.07-.18-3.31,1.2-5.11,4.15-5.39.37,0,2.95,0,7.74,0Z"/><path d="M413.55,113.88c7.64-2.4,13.8-3.5,18.5-3.32,11.88.28,21,1.85,27.35,4.69.55.19,1.18.37,1.86.56.7.18,1.29.32,1.8.42.51.09,1.17.2,2,.34.83.14,1.47.25,1.94.34,2.3.37,3.85,1.02,4.63,1.94.77.92,1.21,2.58,1.32,4.98v7.73c-.28,6.36-3.37,8.34-9.26,5.94-1.65-.74-4.74-2.3-9.25-4.69-5.34-2.86-11.42-4.7-18.24-5.53-4.61-.65-9.12.32-13.54,2.9-2.96,1.66-4.7,4.3-5.25,7.94-.55,3.64.31,6.74,2.62,9.33,2.48,2.85,5.49,4.65,8.98,5.38,1.56.37,4.15.85,7.73,1.45,3.6.6,6.31,1.13,8.15,1.59,7.93,1.75,13.12,3.18,15.61,4.28,7.36,3.13,12.27,7.73,14.71,13.81,2.44,6.08,2.19,12.43-.76,19.07-3.4,8.2-9.58,13.91-18.51,17.12-13.73,5.16-28.82,5.67-45.3,1.52-4.98-1.29-10.6-2.63-16.86-4.01-2.11-.46-3.54-1.09-4.27-1.87-.74-.78-1.16-2.19-1.25-4.22-.28-3.96-.33-7.78-.13-11.46.36-4.98,2.9-6.36,7.6-4.15,1.65.74,4.42,2.05,8.29,3.94,3.87,1.89,6.86,3.34,8.98,4.35,6.71,3.04,14.41,4.19,23.07,3.45,3.68-.37,6.9-1.75,9.67-4.14,2.67-2.39,3.96-5.34,3.87-8.84-.09-3.5-1.52-6.4-4.28-8.7-3.04-2.48-6.81-4.1-11.33-4.83-10.04-1.57-16.94-2.81-20.72-3.73-4.61-1.01-9.25-3.13-13.95-6.35-3.59-2.49-6.15-5.76-7.67-9.81-1.52-4.05-2.02-8.03-1.52-11.95.51-3.91,1.76-7.48,3.8-10.71,4.6-7.28,11.14-12.2,19.62-14.78Z"/><path d="M540.04,116.09h37.3c3.32,0,5.73.3,7.25.9,1.52.59,2.57,1.68,3.17,3.24.61,1.57.9,4.01.9,7.32-.09,2.39-.18,4.14-.27,5.25-.37,2.21-.99,3.68-1.87,4.42-.88.74-2.46,1.06-4.77.97-6.45-.28-11.6-.51-15.47-.69-.65-.09-1.53-.09-2.63,0-6.54.37-10.59,3.69-12.15,9.95-.83,3.32-1.25,6.58-1.25,9.81-.18,13.17-.18,24.86,0,35.08.09,2.48.55,7,1.38,13.54.37,2.3.23,3.94-.42,4.91-.64.96-2.02,1.49-4.14,1.59-3.42.18-8.52,0-15.33-.55-2.04-.18-2.96-1.79-2.77-4.83.73-20.91,1.1-33.2,1.1-36.89.09-5.43-.33-12.89-1.24-22.37-.19-2.02-.74-3.8-1.67-5.32-.92-1.52-2.11-2.77-3.58-3.73-1.47-.97-3.18-1.64-5.11-2-2.21-.37-6.5-.46-12.85-.28-1.1,0-2.64.14-4.62.41-1.99.28-3.25.47-3.8.56-1.75.09-3.05-.18-3.87-.83-.83-.64-1.29-1.88-1.38-3.73-.19-2.86-.19-5.67,0-8.43.18-2.03.57-3.64,1.17-4.84.59-1.19,1.49-2.07,2.7-2.63,1.19-.55,2.77-.83,4.7-.83h39.51Z"/><path d="M608.18,193.59v-27.77c0-17.68-.05-27.53-.14-29.56,0-3.49-.33-7.87-.97-13.12-.28-2.48-.07-4.19.62-5.11.69-.92,2.24-1.52,4.63-1.79,1.01-.19,2.2-.28,3.58-.28,28.55,0,45.32.05,50.29.14,4.51.09,9.85.83,16.02,2.21,8.11,1.93,13.36,7.09,15.75,15.47,1.66,5.99,2.02,11.46,1.1,16.43-1.37,7.83-5.39,13.91-12.02,18.24-.36.28-1.28.88-2.76,1.8-7.64,4.79-9.49,11.24-5.53,19.34.46.83,3.14,5.81,8.02,14.92.18.18.37.44.55.76.18.32.37.62.55.9.18.28.33.55.42.83,1.19,2.67.37,4.33-2.48,4.98-1.75.36-3.78.55-6.08.55-1.1,0-2.6-.07-4.49-.21-1.89-.14-3.11-.25-3.67-.34-2.3-.09-3.96-.51-4.97-1.24-1.01-.74-1.89-2.16-2.63-4.28-2.95-8.57-7.36-16.9-13.25-25.01-2.77-3.77-6.32-5.66-10.64-5.66s-7.28,1.98-8.85,5.94c-1.01,2.48-1.52,4.74-1.52,6.77,0,4.79.22,10.55.68,17.27.28,3.68-1.15,5.66-4.28,5.94-4.33.36-9.39.41-15.19.14-2.48-.09-3.64-1.88-3.45-5.39.36-6.72.6-11,.69-12.85ZM643.14,153.53c.36.1,2.95.14,7.73.14.92-.1,2.92-.21,6.01-.35,3.08-.14,5.45-.34,7.1-.62,2.21-.46,3.91-1.36,5.11-2.7,1.19-1.33,1.78-2.95,1.73-4.83-.06-1.88-.7-3.5-1.93-4.83-1.25-1.33-3.02-2.27-5.33-2.83-.73-.09-1.24-.14-1.52-.14-10.77-.37-17.4-.56-19.89-.56-1.57,0-3.23.47-4.98,1.38-3.12,1.57-4.69,3.87-4.69,6.91,0,3.32,1.52,5.61,4.55,6.91,1.85.83,3.87,1.33,6.09,1.52Z"/><path d="M731.71,116.09h7.32c3.14.28,4.56,2.03,4.28,5.25-.64,7.46-1.01,15.4-1.1,23.83-.09,8.43-.07,17.73.07,27.91.14,10.17.21,18.11.21,23.83-.1.92-.08,1.91.07,2.97.14,1.06.32,2.24.55,3.52.22,1.29.39,2.26.48,2.9.28,2.12.05,3.66-.7,4.63-.73.96-2.11,1.5-4.14,1.59-3.23.09-8.11-.14-14.65-.69-2.2-.19-3.27-1.75-3.17-4.69.09-.74.22-2.05.42-3.94.18-1.88.27-3.38.27-4.49.09-25.51.09-42.22,0-50.14-.09-3.22-.68-12.25-1.8-27.07-.18-3.31,1.2-5.11,4.15-5.39.37,0,2.95,0,7.74,0Z"/><path d="M857.82,194.56s-.59,9.76-.69,10.23c-.28,1.66-.76,2.81-1.45,3.45-.7.65-1.86.97-3.52.97-4.06-.09-9.26,1.11-15.61,3.59-9.76,3.87-19.84,4.77-30.25,2.69-10.41-2.07-19.39-6.74-26.94-14.02-12.89-12.62-16.95-28.5-12.16-47.66,5.53-22.38,20.86-36.47,46-42.27,7.73-1.75,16.63-.69,26.67,3.17,6.44,2.49,11.27,3.82,14.5,4.01,1.85.09,3.14.53,3.87,1.31.74.79,1.11,2.1,1.11,3.94-.1,5.71-.33,10.82-.7,15.33-.46,4.14-2.72,5.66-6.77,4.56-1.2-.28-2.62-.96-4.28-2.07-.74-.46-1.91-1.27-3.52-2.42-1.62-1.15-2.88-2-3.8-2.56-11.24-7.09-22.52-8.1-33.85-3.04-4.42,1.94-8.15,4.69-11.18,8.29-3.04,3.59-5.14,7.49-6.29,11.68-1.16,4.19-1.52,8.57-1.11,13.12.42,4.56,1.64,8.86,3.67,12.91,3.03,5.99,7.23,10.5,12.57,13.54,5.34,3.04,11.05,4.42,17.13,4.14,6.08-.28,12.02-2.02,17.82-5.25,1.1-.64,2.21-1.33,3.32-2.07,1.1-.74,2.46-1.73,4.08-2.97,1.61-1.24,2.64-2.05,3.1-2.42,2.3-1.75,4.24-2.25,5.8-1.52,1.56.83,2.39,2.63,2.48,5.38v5.95Z"/><path d="M923.16,116.09h37.3c3.32,0,5.73.3,7.25.9,1.52.59,2.57,1.68,3.17,3.24.61,1.57.9,4.01.9,7.32-.09,2.39-.18,4.14-.27,5.25-.37,2.21-.99,3.68-1.87,4.42s-2.46,1.06-4.77.97c-6.45-.28-11.6-.51-15.47-.69-.65-.09-1.53-.09-2.63,0-6.54.37-10.59,3.69-12.15,9.95-.83,3.32-1.25,6.58-1.25,9.81-.18,13.17-.18,24.86,0,35.08.09,2.48.55,7,1.38,13.54.37,2.3.23,3.94-.42,4.91-.64.96-2.02,1.49-4.14,1.59-3.42.18-8.52,0-15.33-.55-2.04-.18-2.96-1.79-2.77-4.83.73-20.91,1.1-33.2,1.1-36.89.09-5.43-.33-12.89-1.24-22.37-.19-2.02-.74-3.8-1.67-5.32-.92-1.52-2.11-2.77-3.58-3.73-1.47-.97-3.18-1.64-5.11-2-2.21-.37-6.5-.46-12.85-.28-1.1,0-2.64.14-4.62.41-1.99.28-3.25.47-3.8.56-1.75.09-3.05-.18-3.87-.83-.83-.64-1.29-1.88-1.38-3.73-.19-2.86-.19-5.67,0-8.43.18-2.03.57-3.64,1.17-4.84.59-1.19,1.49-2.07,2.7-2.63,1.19-.55,2.77-.83,4.7-.83h39.51Z"/><path d="M998.26,115.77c-.28,2.22-1.15,3.85-2.63,4.9-1.47,1.07-3.41,1.55-5.8,1.45-4.14-.18-6.4-2.44-6.77-6.77v-7.45c.45-3.23,2.3-5.07,5.53-5.53,1.19-.18,2.53-.23,4-.14,3.5.28,5.39,2.02,5.67,5.25.28,2.86.28,5.62,0,8.29Z"/><path d="M1039.13,113.88c7.64-2.4,13.8-3.5,18.5-3.32,11.88.28,21,1.85,27.35,4.69.55.19,1.18.37,1.86.56.7.18,1.29.32,1.8.42.51.09,1.17.2,2,.34.83.14,1.47.25,1.94.34,2.3.37,3.85,1.02,4.63,1.94.77.92,1.21,2.58,1.32,4.98v7.73c-.28,6.36-3.37,8.34-9.26,5.94-1.65-.74-4.74-2.3-9.25-4.69-5.34-2.86-11.42-4.7-18.24-5.53-4.61-.65-9.12.32-13.54,2.9-2.96,1.66-4.7,4.3-5.25,7.94-.55,3.64.31,6.74,2.62,9.33,2.48,2.85,5.49,4.65,8.98,5.38,1.56.37,4.15.85,7.73,1.45,3.6.6,6.31,1.13,8.15,1.59,7.93,1.75,13.12,3.18,15.61,4.28,7.36,3.13,12.27,7.73,14.71,13.81,2.44,6.08,2.19,12.43-.76,19.07-3.4,8.2-9.58,13.91-18.51,17.12-13.73,5.16-28.82,5.67-45.3,1.52-4.98-1.29-10.6-2.63-16.86-4.01-2.11-.46-3.54-1.09-4.27-1.87-.74-.78-1.16-2.19-1.25-4.22-.28-3.96-.33-7.78-.13-11.46.36-4.98,2.9-6.36,7.6-4.15,1.65.74,4.42,2.05,8.29,3.94,3.87,1.89,6.86,3.34,8.98,4.35,6.71,3.04,14.41,4.19,23.07,3.45,3.68-.37,6.9-1.75,9.67-4.14,2.67-2.39,3.96-5.34,3.87-8.84-.09-3.5-1.52-6.4-4.28-8.7-3.04-2.48-6.81-4.1-11.33-4.83-10.04-1.57-16.94-2.81-20.72-3.73-4.61-1.01-9.25-3.13-13.95-6.35-3.59-2.49-6.15-5.76-7.67-9.81-1.52-4.05-2.02-8.03-1.52-11.95.51-3.91,1.76-7.48,3.8-10.71,4.6-7.28,11.14-12.2,19.62-14.78Z"/><path d="M158.89,250.96c16.58,0,25.7-.04,27.35-.14,1.93,0,4.72-.09,8.36-.28,3.63-.18,6.09-.28,7.39-.28,1.65-.09,3.27,0,4.83.28,2.11.46,3.62,1.22,4.49,2.28.88,1.06,1.36,2.69,1.45,4.9.28,6.45.37,10.23.28,11.33-.28,2.12-.81,3.41-1.59,3.87-.79.47-2.28.51-4.5.14-4.69-.83-8.55-1.29-11.6-1.38-9.21-.18-19.8-.18-31.77,0-2.85,0-5.89.37-9.12,1.11-1.75.46-3.32,1.34-4.7,2.63-1.75,1.57-2.6,3.32-2.55,5.25.04,1.93.94,3.64,2.69,5.11,1.57,1.29,3.05,2.03,4.43,2.21,4.69.74,8.88,1.11,12.57,1.11,2.66,0,6.49-.07,11.47-.21,4.97-.14,8.15-.21,9.53-.21,1.56,0,2.85.18,3.87.55,1.83.74,2.9,1.52,3.17,2.35,1.57,4.88,1.57,9.58,0,14.09-.46,1.2-1.79,2.16-4,2.9-1.29.37-3.23.6-5.8.69h-23.35c-1.93,0-3.4.04-4.42.14-3.87.55-6.88,1.98-9.05,4.28-2.16,2.3-3.29,5.39-3.38,9.26,0,4.05.28,10.17.83,18.38.18,1.93-.07,3.4-.76,4.42-.69,1.01-1.91,1.57-3.65,1.66-4.43.36-9.49.42-15.2.14-2.95-.18-4.24-1.88-3.87-5.11.73-6.72,1.17-13.83,1.32-21.34.14-7.5.11-15.93-.08-25.28-.18-9.35-.27-16.42-.27-21.21.09-1.75.05-3.54-.14-5.39-.19-1.84-.47-4.14-.83-6.91-.37-2.76-.61-4.56-.7-5.38-.36-3.41,1.11-5.34,4.43-5.81.82-.09,2.2-.14,4.14-.14,3.32,0,12.9,0,28.74,0Z"/><path d="M232.87,328.73v-27.77c0-17.68-.05-27.53-.14-29.56,0-3.49-.33-7.87-.97-13.12-.28-2.48-.07-4.19.62-5.11.69-.92,2.24-1.52,4.63-1.79,1.01-.19,2.2-.28,3.58-.28,28.55,0,45.32.05,50.29.14,4.51.09,9.85.83,16.02,2.21,8.11,1.93,13.36,7.09,15.75,15.47,1.66,5.99,2.02,11.46,1.1,16.44-1.37,7.83-5.39,13.9-12.02,18.23-.36.28-1.28.88-2.76,1.8-7.64,4.79-9.49,11.24-5.53,19.34.46.83,3.14,5.81,8.02,14.92.18.18.37.44.55.76.18.32.37.62.55.9.18.28.33.55.42.83,1.19,2.67.37,4.33-2.48,4.98-1.75.36-3.78.55-6.08.55-1.1,0-2.6-.07-4.49-.21-1.89-.14-3.11-.25-3.67-.34-2.3-.09-3.96-.51-4.97-1.24s-1.89-2.16-2.63-4.28c-2.95-8.57-7.36-16.9-13.25-25.01-2.77-3.77-6.32-5.66-10.64-5.66s-7.28,1.98-8.85,5.94c-1.01,2.48-1.52,4.74-1.52,6.77,0,4.79.22,10.54.68,17.27.28,3.68-1.15,5.66-4.28,5.94-4.33.36-9.39.41-15.19.14-2.48-.09-3.64-1.88-3.45-5.39.36-6.72.6-11,.69-12.85ZM267.82,288.67c.36.1,2.95.14,7.73.14.92-.1,2.92-.21,6.01-.35,3.08-.14,5.45-.34,7.1-.62,2.21-.46,3.91-1.36,5.11-2.7,1.19-1.33,1.78-2.95,1.73-4.83-.06-1.88-.7-3.5-1.93-4.83-1.25-1.33-3.02-2.27-5.33-2.83-.73-.09-1.24-.14-1.52-.14-10.77-.37-17.4-.56-19.89-.56-1.57,0-3.23.47-4.98,1.38-3.12,1.57-4.69,3.87-4.69,6.91,0,3.32,1.52,5.61,4.55,6.91,1.85.83,3.87,1.33,6.09,1.52Z"/><path d="M356.39,251.23h7.32c3.14.28,4.56,2.03,4.28,5.25-.64,7.46-1.01,15.4-1.1,23.83-.09,8.43-.07,17.73.07,27.91.14,10.17.21,18.12.21,23.83-.1.92-.08,1.91.07,2.97.14,1.06.32,2.24.55,3.52.22,1.29.39,2.26.48,2.9.28,2.12.05,3.66-.7,4.63-.73.96-2.11,1.5-4.14,1.59-3.23.09-8.11-.14-14.65-.69-2.2-.18-3.27-1.75-3.17-4.69.09-.74.22-2.05.42-3.94.18-1.88.27-3.38.27-4.49.09-25.51.09-42.22,0-50.14-.09-3.22-.68-12.25-1.8-27.07-.18-3.31,1.2-5.11,4.15-5.39.37,0,2.95,0,7.74,0Z"/><path d="M465.18,250.82c.73,0,1.79-.07,3.17-.21,1.38-.14,2.4-.21,3.05-.21,3.5-.09,5.8-.04,6.9.14,2.02.28,3.5.83,4.42,1.66.92.83,1.47,2.21,1.67,4.14.36,4.24.4,8.42.14,12.57-.19,1.94-.74,3.2-1.67,3.8-.92.59-2.39.71-4.42.34-5.16-.92-9.07-1.38-11.74-1.38-11.15-.18-22.2-.18-33.15,0-2.85,0-5.86.56-8.98,1.66-3.4,1.2-4.97,3.73-4.7,7.6.18,3.68,2.07,5.94,5.67,6.77,3.96.92,7.6,1.43,10.92,1.52,2.39,0,5.8-.09,10.22-.28,4.42-.18,7.41-.28,8.98-.28,1.47-.09,3.78.1,6.9.55,2.95.47,4.56,2.12,4.83,4.98.37,3.4.42,6.59.14,9.53-.09,1.01-.4,1.91-.97,2.69-.55.78-1.28,1.43-2.2,1.93-.92.51-1.89.76-2.9.76-2.85.1-9.72.18-20.58.27-.37,0-2.17-.02-5.39-.07-3.23-.04-5.02-.02-5.4.07-1.56.1-3.3.56-5.24,1.38-3.32,1.38-4.98,3.73-4.98,7.05,0,.83.14,1.61.42,2.34.28.74.64,1.43,1.1,2.07.46.65,1.03,1.22,1.73,1.73.69.51,1.4.85,2.14,1.04,2.77.83,5.21,1.2,7.33,1.1,12.06-.09,25.32-.32,39.79-.69.91,0,2.16-.18,3.72-.55,1.57-.36,2.54-.55,2.9-.55,2.02-.37,3.49-.18,4.35.55.88.74,1.32,2.07,1.32,4.01.19,3.78.19,7.69,0,11.74,0,1.85-.42,3.22-1.24,4.14-.83.92-2.17,1.57-4.01,1.93-1.01.09-2.48.14-4.42.14-1.47.09-5.03.11-10.64.07-5.62-.04-9.21-.02-10.78.07-5.43,0-14.04.1-25.82.28-11.79.18-20.77.33-26.95.41-3.68,0-5.89-.44-6.62-1.31-.74-.88-.79-3.16-.15-6.84.74-4.42,1.16-9.44,1.25-15.06.27-10.5.27-20.07,0-28.73-.09-4.88-.55-15.93-1.38-33.15,0-1.2-.24-2.76-.69-4.69-.74-2.77-.72-4.6.07-5.53.78-.92,2.6-1.38,5.45-1.38,1.47-.09,9.71-.14,24.73-.14h41.72Z"/><path d="M528.03,323.75c.09,1.11.2,2.28.35,3.53.13,1.24.25,2.44.34,3.59.09,1.15.19,2.3.28,3.45.09,1.15.2,2.35.35,3.59.14,1.25.25,2.42.34,3.52.19,1.47.19,2.65,0,3.52-.18.88-.66,1.52-1.45,1.93-.78.42-1.91.62-3.39.62-4.14.18-8.48.18-12.98,0-3.78-.18-5.39-2.11-4.83-5.8.74-4.6,1.18-9.44,1.32-14.5.14-5.07.14-10.86,0-17.41-.14-6.54-.21-11.37-.21-14.5.09-4.24-.13-11.61-.68-22.1-.19-4.79-.55-9.67-1.1-14.65-.28-2.39-.06-4.03.69-4.9.74-.87,2.26-1.31,4.56-1.31,5.15-.1,9.8-.1,13.95,0,1.93.09,3.38.53,4.35,1.31.96.78,1.59,2.05,1.87,3.8.55,3.96,2.25,7.6,5.1,10.91,6.92,7.93,13.49,15.38,19.76,22.38,2.11,2.3,4.47,3.5,7.04,3.59,5.62.36,8.7-1.89,9.26-6.77.55-4.32.78-10.82.69-19.48,0-1.01-.07-2.07-.2-3.18-.15-1.11-.33-2.37-.56-3.8-.23-1.43-.39-2.51-.48-3.24-.18-1.2-.16-2.19.07-2.97.24-.78.68-1.38,1.32-1.79.64-.42,1.56-.63,2.77-.63,4.61-.28,9.4-.28,14.37,0,1.65,0,2.83.39,3.52,1.17.7.78.99,2.05.9,3.8-.27,23.21-.51,38.45-.69,45.73,0,1.2-.12,3.68-.35,7.46-.24,3.78-.3,6.68-.2,8.7.18,4.98.77,12.43,1.79,22.38.19,2.03-.07,3.5-.75,4.42-.7.92-2,1.38-3.94,1.38-4.7.1-9.64.1-14.78,0-3.23-.09-5.07-1.52-5.53-4.28-.73-4.51-3.23-9.07-7.45-13.68-1.57-1.75-4.3-4.79-8.23-9.12-3.91-4.33-6.97-7.69-9.18-10.09-.82-.92-1.85-1.79-3.04-2.62-3.14-2.21-6.15-2.74-9.05-1.59-2.9,1.15-4.68,3.61-5.32,7.39-.18,1.01-.3,2.07-.35,3.17-.05,1.11-.09,2.4-.14,3.87-.05,1.48-.07,2.54-.07,3.18Z"/><path d="M650.89,347.65h-24.3c-2.77,0-4.52-.48-5.25-1.45-.74-.97-.88-2.88-.41-5.73.92-5.43,1.38-10.32,1.38-14.64.09-5.43.14-22.52.14-51.25,0-7.46-.04-12.34-.14-14.64,0-.64-.12-1.49-.35-2.55-.23-1.06-.39-1.68-.48-1.87-.46-3.13.88-4.88,4-5.25.46-.09,1.2-.14,2.21-.14,26.71,0,41.81.05,45.32.14,8.28.19,15.01,1.57,20.17,4.14,7.36,3.78,13.21,9.86,17.54,18.23,3.96,7.93,5.95,16.12,5.95,24.59,0,18.69-6.68,33.11-20.03,43.24-2.02,1.57-4.26,2.88-6.7,3.93-2.44,1.06-4.93,1.85-7.46,2.35-2.53.51-5.18.81-7.94.9-1.12,0-8.99,0-23.64,0ZM653.52,325.28c.55.09,4.19.51,10.92,1.24,7.45-.74,11.41-1.15,11.87-1.24,8.3-1.66,13.77-6.36,16.45-14.09,2.29-6.72,2.07-14.09-.7-22.1-2.4-6.91-6.22-11.65-11.47-14.23-9.21-4.6-18.74-5.2-28.59-1.79-3.23,1.01-5.39,3.23-6.5,6.63-.92,2.76-1.47,5.61-1.65,8.56-.46,6.91-.65,12.94-.55,18.1,0,3.4.46,6.91,1.38,10.5,1.1,4.6,4.05,7.42,8.84,8.43Z"/><path d="M798.43,346.96v-.14c-2.12,0-6.79.07-14.02.2-7.23.14-13.22.26-17.96.35-4.74.09-9.45.18-14.15.27-2.04,0-5.21-.23-9.53-.69-1.56-.18-2.65-.64-3.25-1.38-.6-.74-.76-1.84-.48-3.31,1.1-6.91,1.34-13.54.7-19.89-.19-1.11-.17-2.77.07-4.98.23-2.21.34-3.73.34-4.56-.18-17.04-.46-32.51-.82-46.42,0-1.28-.17-3.2-.48-5.73-.33-2.53-.48-3.93-.48-4.21-.19-1.29-.15-2.33.13-3.11.28-.78.77-1.36,1.45-1.72.69-.37,1.68-.6,2.97-.69,4.7-.09,8.98-.04,12.85.14,2.3.1,3.87.65,4.7,1.66.82,1.02,1.1,2.67.82,4.98-.27,2.67-.4,5.25-.4,7.73-.37,18.88-.61,32.51-.7,40.89,0,2.48.28,5.52.83,9.12.92,5.25,3.91,8.47,8.98,9.67,2.76.74,5.34,1.11,7.73,1.11,12.79.19,22.52.19,29.15,0,3.58-.09,8.93-.65,16.02-1.66,2.58-.36,4.28-.25,5.11.34.82.6,1.37,2.14,1.65,4.63.37,4.14.55,7.6.55,10.36,0,2.48-.55,4.26-1.65,5.32-1.11,1.06-2.9,1.64-5.39,1.73h-24.73Z"/><path d="M860.25,251.23h7.32c3.14.28,4.56,2.03,4.28,5.25-.64,7.46-1.01,15.4-1.1,23.83-.09,8.43-.07,17.73.07,27.91.14,10.17.21,18.12.21,23.83-.1.92-.08,1.91.07,2.97.14,1.06.32,2.24.55,3.52.22,1.29.39,2.26.48,2.9.28,2.12.05,3.66-.7,4.63-.73.96-2.11,1.5-4.14,1.59-3.23.09-8.11-.14-14.65-.69-2.2-.18-3.27-1.75-3.17-4.69.09-.74.22-2.05.42-3.94.18-1.88.27-3.38.27-4.49.09-25.51.09-42.22,0-50.14-.09-3.22-.68-12.25-1.8-27.07-.18-3.31,1.2-5.11,4.15-5.39.37,0,2.95,0,7.74,0Z"/><path d="M969.03,250.82c.73,0,1.79-.07,3.17-.21,1.38-.14,2.4-.21,3.05-.21,3.5-.09,5.8-.04,6.9.14,2.02.28,3.5.83,4.42,1.66.92.83,1.47,2.21,1.67,4.14.36,4.24.4,8.42.14,12.57-.19,1.94-.74,3.2-1.67,3.8-.92.59-2.39.71-4.42.34-5.16-.92-9.07-1.38-11.74-1.38-11.15-.18-22.2-.18-33.15,0-2.85,0-5.86.56-8.98,1.66-3.4,1.2-4.97,3.73-4.7,7.6.18,3.68,2.07,5.94,5.67,6.77,3.96.92,7.6,1.43,10.92,1.52,2.39,0,5.8-.09,10.22-.28,4.42-.18,7.41-.28,8.98-.28,1.47-.09,3.78.1,6.9.55,2.95.47,4.56,2.12,4.83,4.98.37,3.4.42,6.59.14,9.53-.09,1.01-.4,1.91-.97,2.69-.55.78-1.28,1.43-2.2,1.93-.92.51-1.89.76-2.9.76-2.85.1-9.72.18-20.58.27-.37,0-2.17-.02-5.39-.07-3.23-.04-5.02-.02-5.4.07-1.56.1-3.3.56-5.24,1.38-3.32,1.38-4.98,3.73-4.98,7.05,0,.83.14,1.61.42,2.34.28.74.64,1.43,1.1,2.07.46.65,1.03,1.22,1.73,1.73.69.51,1.4.85,2.14,1.04,2.77.83,5.21,1.2,7.33,1.1,12.06-.09,25.32-.32,39.79-.69.91,0,2.16-.18,3.72-.55,1.57-.36,2.54-.55,2.9-.55,2.02-.37,3.49-.18,4.35.55.88.74,1.32,2.07,1.32,4.01.19,3.78.19,7.69,0,11.74,0,1.85-.42,3.22-1.24,4.14-.83.92-2.17,1.57-4.01,1.93-1.01.09-2.48.14-4.42.14-1.47.09-5.03.11-10.64.07-5.62-.04-9.21-.02-10.78.07-5.43,0-14.04.1-25.82.28-11.79.18-20.77.33-26.95.41-3.68,0-5.89-.44-6.62-1.31-.74-.88-.79-3.16-.15-6.84.74-4.42,1.16-9.44,1.25-15.06.27-10.5.27-20.07,0-28.73-.09-4.88-.55-15.93-1.38-33.15,0-1.2-.24-2.76-.69-4.69-.74-2.77-.72-4.6.07-5.53.78-.92,2.6-1.38,5.45-1.38,1.47-.09,9.71-.14,24.73-.14h41.72Z"/><path d="M1033.47,249.02c7.64-2.4,13.8-3.5,18.5-3.32,11.88.28,21,1.85,27.35,4.69.55.19,1.18.37,1.86.56.7.18,1.29.32,1.8.42.51.09,1.17.2,2,.34.83.14,1.47.25,1.94.34,2.3.37,3.85,1.02,4.63,1.94.77.92,1.21,2.58,1.32,4.98v7.73c-.28,6.36-3.37,8.34-9.26,5.94-1.65-.74-4.74-2.3-9.25-4.69-5.34-2.86-11.42-4.7-18.24-5.53-4.61-.65-9.12.32-13.54,2.9-2.96,1.66-4.7,4.3-5.25,7.94-.55,3.64.31,6.74,2.62,9.33,2.48,2.85,5.49,4.65,8.98,5.38,1.56.37,4.15.85,7.73,1.45,3.6.6,6.31,1.13,8.15,1.59,7.93,1.75,13.12,3.18,15.61,4.28,7.36,3.13,12.27,7.73,14.71,13.81,2.44,6.08,2.19,12.43-.76,19.07-3.4,8.2-9.58,13.91-18.51,17.12-13.73,5.16-28.82,5.67-45.3,1.52-4.98-1.29-10.6-2.63-16.86-4.01-2.11-.46-3.54-1.09-4.27-1.87-.74-.78-1.16-2.19-1.25-4.22-.28-3.96-.33-7.78-.13-11.46.36-4.98,2.9-6.36,7.6-4.15,1.65.74,4.42,2.05,8.29,3.94,3.87,1.89,6.86,3.34,8.98,4.35,6.71,3.04,14.41,4.19,23.07,3.45,3.68-.37,6.9-1.75,9.67-4.14,2.67-2.39,3.96-5.34,3.87-8.84-.09-3.5-1.52-6.4-4.28-8.7-3.04-2.48-6.81-4.1-11.33-4.83-10.04-1.57-16.94-2.81-20.72-3.73-4.61-1.01-9.25-3.13-13.95-6.35-3.59-2.49-6.15-5.76-7.67-9.81-1.52-4.05-2.02-8.03-1.52-11.95.51-3.91,1.76-7.48,3.8-10.71,4.6-7.28,11.14-12.2,19.62-14.78Z"/><path d="M1159.96,251.23h37.3c3.32,0,5.73.3,7.25.9,1.52.59,2.57,1.68,3.17,3.24.61,1.57.9,4.01.9,7.32-.09,2.39-.18,4.14-.27,5.25-.37,2.21-.99,3.68-1.87,4.42s-2.46,1.06-4.77.97c-6.45-.28-11.6-.51-15.47-.69-.65-.09-1.53-.09-2.63,0-6.54.37-10.59,3.69-12.15,9.95-.83,3.32-1.25,6.58-1.25,9.81-.18,13.17-.18,24.86,0,35.08.09,2.48.55,7,1.38,13.54.37,2.3.23,3.94-.42,4.91-.64.96-2.02,1.49-4.14,1.59-3.42.18-8.52,0-15.33-.55-2.04-.18-2.96-1.79-2.77-4.83.73-20.91,1.1-33.2,1.1-36.89.09-5.43-.33-12.89-1.24-22.37-.19-2.02-.74-3.8-1.67-5.32-.92-1.52-2.11-2.77-3.58-3.73-1.47-.97-3.18-1.64-5.11-2-2.21-.37-6.5-.46-12.85-.28-1.1,0-2.64.14-4.62.41-1.99.28-3.25.47-3.8.56-1.75.09-3.05-.18-3.87-.83-.83-.64-1.29-1.88-1.38-3.73-.19-2.86-.19-5.67,0-8.43.18-2.03.57-3.64,1.17-4.84.59-1.19,1.49-2.07,2.7-2.63,1.19-.55,2.77-.83,4.7-.83h39.51Z"/><path d="M225.67,386.37h37.3c3.32,0,5.73.3,7.25.9,1.52.59,2.57,1.68,3.17,3.24.61,1.57.9,4.01.9,7.32-.09,2.39-.18,4.14-.27,5.25-.37,2.21-.99,3.68-1.87,4.42s-2.46,1.06-4.77.97c-6.45-.28-11.6-.51-15.47-.69-.65-.09-1.53-.09-2.63,0-6.54.37-10.59,3.69-12.15,9.95-.83,3.32-1.25,6.58-1.25,9.81-.18,13.17-.18,24.86,0,35.08.09,2.48.55,7,1.38,13.54.37,2.3.23,3.94-.42,4.91-.64.96-2.02,1.49-4.14,1.59-3.42.18-8.52,0-15.33-.55-2.04-.18-2.96-1.79-2.77-4.83.73-20.91,1.1-33.2,1.1-36.89.09-5.43-.33-12.89-1.24-22.37-.19-2.02-.74-3.8-1.67-5.32-.92-1.52-2.11-2.77-3.58-3.73-1.47-.97-3.18-1.64-5.11-2-2.21-.37-6.5-.46-12.85-.28-1.1,0-2.64.14-4.62.41-1.99.28-3.25.47-3.8.56-1.75.09-3.05-.18-3.87-.83-.83-.64-1.29-1.88-1.38-3.73-.19-2.86-.19-5.67,0-8.43.18-2.03.57-3.64,1.17-4.84.59-1.19,1.49-2.07,2.7-2.63,1.19-.55,2.77-.83,4.7-.83h39.51Z"/><path d="M357.98,482.8c-5.62-.64-8.66-.96-9.12-.96-3.14-.37-5.25-2.02-6.35-4.98-2.12-5.43-5.95-8.24-11.47-8.42-10.69-.46-18.14-.6-22.38-.42-5.52.18-9.16,2.9-10.92,8.15-1.47,4.42-4.51,6.54-9.12,6.36-6.99-.28-10.91-.46-11.74-.55-2.4-.28-3.82-.9-4.29-1.87-.46-.96-.23-2.51.69-4.63,7.46-17.03,12.12-27.76,13.96-32.19,4.05-10.13,9.52-24.08,16.43-41.85.83-2.21,1.56-5.21,2.2-8.98.37-2.11,1.05-3.68,2.01-4.69.97-1.01,2.42-1.57,4.35-1.66,4.6-.09,10.59.14,17.95.69,1.29.09,2.3.59,3.04,1.52.74.92,1.16,2.07,1.25,3.45.09,1.2.25,2.4.48,3.59.22,1.2.57,2.56,1.03,4.08.46,1.52.81,2.63,1.03,3.32.23.69.72,1.99,1.45,3.87.74,1.89,1.2,3.02,1.38,3.38,6.72,17.5,10.73,27.86,12.02,31.08,2.21,5.43,7.14,17.18,14.78,35.23,1.47,3.5.42,5.53-3.18,6.08-2.02.27-3.86.41-5.52.41ZM319.99,430.17c-1.57,0-2.97.36-4.21,1.1-1.25.74-2.21,1.78-2.9,3.11-.7,1.34-1.03,2.83-1.03,4.49,0,2.67.75,4.83,2.28,6.49,1.52,1.66,3.47,2.44,5.87,2.35,2.4,0,4.33-.81,5.8-2.42,1.47-1.61,2.25-3.67,2.35-6.15,0-1.01-.15-2-.42-2.97-.28-.96-.65-1.8-1.1-2.49-.47-.69-1.02-1.31-1.67-1.87-.64-.55-1.4-.97-2.28-1.24-.88-.28-1.76-.41-2.69-.41Z"/><path d="M472.48,464.84s-.59,9.76-.69,10.23c-.28,1.66-.76,2.81-1.45,3.45-.7.65-1.86.97-3.52.97-4.06-.09-9.26,1.11-15.61,3.59-9.76,3.87-19.84,4.77-30.25,2.69-10.41-2.07-19.39-6.74-26.94-14.02-12.89-12.62-16.95-28.5-12.16-47.66,5.53-22.38,20.86-36.47,46-42.27,7.73-1.75,16.63-.69,26.67,3.17,6.44,2.49,11.27,3.82,14.5,4.01,1.85.09,3.14.53,3.87,1.31.74.79,1.11,2.1,1.11,3.94-.1,5.71-.33,10.82-.7,15.33-.46,4.14-2.72,5.66-6.77,4.56-1.2-.28-2.62-.96-4.28-2.07-.74-.46-1.91-1.27-3.52-2.42-1.62-1.15-2.88-2-3.8-2.56-11.24-7.09-22.52-8.1-33.85-3.04-4.42,1.94-8.15,4.69-11.18,8.29-3.04,3.59-5.14,7.49-6.29,11.68-1.16,4.19-1.52,8.57-1.11,13.12.42,4.56,1.64,8.86,3.67,12.91,3.03,5.99,7.23,10.5,12.57,13.54,5.34,3.04,11.05,4.42,17.13,4.14,6.08-.28,12.02-2.02,17.82-5.25,1.1-.64,2.21-1.33,3.32-2.07,1.1-.74,2.46-1.73,4.08-2.97,1.61-1.24,2.64-2.05,3.1-2.42,2.3-1.75,4.24-2.25,5.8-1.52,1.56.83,2.39,2.63,2.48,5.38v5.95Z"/><path d="M495.16,452.4c-.28-1.19-.55-2.53-.83-4-.83-4.6-1.06-9.49-.69-14.64.73-9.12,2.35-16.4,4.83-21.83,4.33-9.49,11.14-17.22,20.44-23.21,8.48-5.25,17.55-8.06,27.21-8.43,14.37-.46,25.83,4.83,34.4,15.89,4.97,6.45,8.33,15.06,10.08,25.83,1.56,9.12,1.34,18.19-.7,27.21-2.2,9.95-6.92,17.93-14.16,23.97-7.23,6.03-16.1,9.69-26.6,10.98-7.91,1.1-15.69.55-23.34-1.66-15.94-4.51-26.16-14.55-30.67-30.12ZM556.77,459.59c7.46-6.81,11.01-15.01,10.63-24.58-.09-1.38-.09-2.63,0-3.73.19-7.09-1.24-13.58-4.27-19.48-3.78-7.18-8.94-11.33-15.48-12.43-9.21-1.56-16.85,1.61-22.94,9.53-4.23,5.53-6.77,13.63-7.59,24.31-.56,7,.27,13.04,2.48,18.1,3.32,7.82,8.66,12.62,16.02,14.37,7.55,1.93,14.6-.1,21.13-6.08Z"/><path d="M729.54,447.15c.09-.92.42-6.17.97-15.74-.46-20.17-.79-31.86-.97-35.09,0-.37-.28-2.53-.83-6.49-.64-3.87.77-5.89,4.28-6.08,4.7-.28,9.62-.28,14.78,0,1.65.1,2.88.58,3.65,1.45.79.88,1.08,2.05.9,3.52-.74,4.88-1.17,10.38-1.32,16.51-.14,6.12-.11,11.6.08,16.44.18,4.83.14,10.34-.15,16.51-.18,5.71-.77,11.05-1.79,16.02-1.66,8.93-6.32,16.21-13.96,21.83-8.46,6.08-16.81,8.98-25,8.7-7.64-.28-12.75-.69-15.33-1.24-14.09-2.95-23.62-11.47-28.59-25.56-.92-2.58-1.89-6.9-2.9-12.99-.19-1.38-.17-2.51.07-3.38.22-.87.75-1.52,1.58-1.93.83-.42,1.98-.62,3.45-.62,4.24-.09,8.43-.09,12.58,0,1.93,0,3.24.37,3.93,1.11.69.74,1.04,2.07,1.04,4.01-.09,5.98,1.01,10.45,3.31,13.4,4.14,5.16,9.03,7.82,14.64,8.01,7.18.28,12.63-.88,16.3-3.45,5.34-3.77,8.43-8.74,9.26-14.92Z"/><path d="M774.47,452.4c-.28-1.19-.55-2.53-.83-4-.83-4.6-1.06-9.49-.69-14.64.73-9.12,2.35-16.4,4.83-21.83,4.33-9.49,11.14-17.22,20.44-23.21,8.48-5.25,17.55-8.06,27.21-8.43,14.37-.46,25.83,4.83,34.4,15.89,4.97,6.45,8.33,15.06,10.08,25.83,1.56,9.12,1.34,18.19-.7,27.21-2.2,9.95-6.92,17.93-14.16,23.97-7.23,6.03-16.1,9.69-26.6,10.98-7.91,1.1-15.69.55-23.34-1.66-15.94-4.51-26.16-14.55-30.67-30.12ZM836.08,459.59c7.46-6.81,11.01-15.01,10.63-24.58-.09-1.38-.09-2.63,0-3.73.19-7.09-1.24-13.58-4.27-19.48-3.78-7.18-8.94-11.33-15.48-12.43-9.21-1.56-16.85,1.61-22.94,9.53-4.23,5.53-6.77,13.63-7.59,24.31-.56,7,.27,13.04,2.48,18.1,3.32,7.82,8.66,12.62,16.02,14.37,7.55,1.93,14.6-.1,21.13-6.08Z"/><path d="M904.84,386.37h7.32c3.14.28,4.56,2.03,4.28,5.25-.64,7.46-1.01,15.4-1.1,23.83-.09,8.43-.07,17.73.07,27.91.14,10.17.21,18.12.21,23.83-.1.92-.08,1.91.07,2.97.14,1.06.32,2.24.55,3.52.22,1.29.39,2.26.48,2.9.28,2.12.05,3.66-.7,4.63-.73.96-2.11,1.5-4.14,1.59-3.23.09-8.11-.14-14.65-.69-2.2-.18-3.27-1.75-3.17-4.69.09-.74.22-2.05.42-3.94.18-1.88.27-3.38.27-4.49.09-25.51.09-42.22,0-50.14-.09-3.22-.68-12.25-1.8-27.07-.18-3.31,1.2-5.11,4.15-5.39.37,0,2.95,0,7.74,0Z"/><path d="M963.2,458.9c.09,1.11.2,2.28.35,3.53.13,1.24.25,2.44.34,3.59.09,1.15.19,2.3.28,3.45.09,1.15.2,2.35.35,3.59.14,1.25.25,2.42.34,3.52.19,1.47.19,2.65,0,3.52-.18.88-.66,1.52-1.45,1.93-.78.42-1.91.62-3.39.62-4.14.18-8.48.18-12.98,0-3.78-.18-5.39-2.11-4.83-5.8.74-4.6,1.18-9.44,1.32-14.5.14-5.07.14-10.86,0-17.41-.14-6.54-.21-11.37-.21-14.5.09-4.24-.13-11.61-.68-22.1-.19-4.79-.55-9.67-1.1-14.65-.28-2.39-.06-4.03.69-4.9.74-.87,2.26-1.31,4.56-1.31,5.15-.1,9.8-.1,13.95,0,1.93.09,3.38.53,4.35,1.31.96.78,1.59,2.05,1.87,3.8.55,3.96,2.25,7.6,5.1,10.91,6.92,7.93,13.49,15.38,19.76,22.38,2.11,2.3,4.47,3.5,7.04,3.59,5.62.36,8.7-1.89,9.26-6.77.55-4.32.78-10.82.69-19.48,0-1.01-.07-2.07-.2-3.18-.15-1.11-.33-2.37-.56-3.8-.23-1.43-.39-2.51-.48-3.24-.18-1.2-.16-2.19.07-2.97.24-.78.68-1.38,1.32-1.79.64-.42,1.56-.63,2.77-.63,4.61-.28,9.4-.28,14.37,0,1.65,0,2.83.39,3.52,1.17.7.78.99,2.05.9,3.8-.27,23.21-.51,38.45-.69,45.73,0,1.2-.12,3.68-.35,7.46-.24,3.78-.3,6.68-.2,8.7.18,4.98.77,12.43,1.79,22.38.19,2.03-.07,3.5-.75,4.42-.7.92-2,1.38-3.94,1.38-4.7.1-9.64.1-14.78,0-3.23-.09-5.07-1.52-5.53-4.28-.73-4.51-3.23-9.07-7.45-13.68-1.57-1.75-4.3-4.79-8.23-9.12-3.91-4.33-6.97-7.69-9.18-10.09-.82-.92-1.85-1.79-3.04-2.62-3.14-2.21-6.15-2.74-9.05-1.59-2.9,1.15-4.68,3.61-5.32,7.39-.18,1.01-.3,2.07-.35,3.17-.05,1.11-.09,2.4-.14,3.87-.05,1.48-.07,2.54-.07,3.18Z"/><path d="M1097.44,386.37h37.3c3.32,0,5.73.3,7.25.9,1.52.59,2.57,1.68,3.17,3.24.61,1.57.9,4.01.9,7.32-.09,2.39-.18,4.14-.27,5.25-.37,2.21-.99,3.68-1.87,4.42s-2.46,1.06-4.77.97c-6.45-.28-11.6-.51-15.47-.69-.65-.09-1.53-.09-2.63,0-6.54.37-10.59,3.69-12.15,9.95-.83,3.32-1.25,6.58-1.25,9.81-.18,13.17-.18,24.86,0,35.08.09,2.48.55,7,1.38,13.54.37,2.3.23,3.94-.42,4.91-.64.96-2.02,1.49-4.14,1.59-3.42.18-8.52,0-15.33-.55-2.04-.18-2.96-1.79-2.77-4.83.73-20.91,1.1-33.2,1.1-36.89.09-5.43-.33-12.89-1.24-22.37-.19-2.02-.74-3.8-1.67-5.32-.92-1.52-2.11-2.77-3.58-3.73-1.47-.97-3.18-1.64-5.11-2-2.21-.37-6.5-.46-12.85-.28-1.1,0-2.64.14-4.62.41-1.99.28-3.25.47-3.8.56-1.75.09-3.05-.18-3.87-.83-.83-.64-1.29-1.88-1.38-3.73-.19-2.86-.19-5.67,0-8.43.18-2.03.57-3.64,1.17-4.84.59-1.19,1.49-2.07,2.7-2.63,1.19-.55,2.77-.83,4.7-.83h39.51Z"/></g></svg>