<?xml version="1.0" encoding="UTF-8"?><svg id="Layer_2" xmlns="http://www.w3.org/2000/svg" viewBox="0 0 485.2 312.23"><defs><style>.cls-1{fill:#fff;}</style></defs><g id="Layer_1-2"><path class="cls-1" d="M482.81,295.77h-13.22c3.04-4.28,6.18-11.78,2.64-22.4-3.51-10.52-14.23-16.56-31.86-17.99,2.2-14.18,2.79-27.3.29-32.81-.03-.06-.06-.12-.09-.18-4.13-7.4-12.96-11.92-22-11.24-4.67.35-9.2,2.04-13.42,4.95-6.46-14.5-20.52-35.89-47.53-37.16-28.23-1.31-37.55,4.74-55.13,18.08-2.19-7.13-5.46-14.2-10.19-20.48-4.66-6.19-9.28-11.44-13.89-15.83,7.67-1.09,20.81-5.28,27.81-20.87,8.57-19.07,8.23-40.84,7.39-49.05,4.41-.66,8.35-2.08,10.63-5,2.05-2.62,2.51-6.04,1.38-10.17-.32-1.18-.86-2.13-1.54-2.89,6.49-1.66,13.65-4.99,16.77-11.71,1.52-3.29,1.17-6.99-1-10.42-.46-.73-.99-1.42-1.58-2.07,4.45-1.38,10.26-3.96,9.6-10.35-.43-4.16-3.1-7.34-7.61-9.27.25-1.19.25-2.46-.03-3.71-.62-2.68-2.43-4.94-5.1-6.36-4.88-2.6-9.17-3.66-19.04-2.25-5.87.84-12.88,3.68-14.98,9.13-.14.35-.26.74-.35,1.16-1.14-.08-2.2.05-3.15.29.55-8.48-3.53-19.2-9.82-24.17-4.69-3.7-10.02-3.93-15.02-.65-3.21,2.11-5.07,5.04-5.53,8.69-1.18,9.45,7.87,21.19,11.2,25.15-3.98,6.52-5.05,11.14-4.2,17.59.87,6.61,4.03,11.23,9.14,13.58-3.13,1.7-5.83,4.36-6.07,8.54-.22,3.77.85,6.94,3.15,9.44,2.5,2.71,6.38,4.48,11.51,5.33.28,5.47.59,24.48-7.69,38.1-7.38,12.13-19.21,12.28-31.73,12.44-3.27.04-6.63.09-9.94.36-5.75-2.03-11.51-4.27-14.86-6.4-16.48-10.5-30.94-20.52-44.19-30.64-3.61-2.76-7.21-5.67-10.68-8.49-9.54-7.74-19.39-15.74-30.84-21.44-4.16-2.07-9.69-4.48-15.62-4.71-.4-.02-.77,0-1.16.01-2.28-.48-17-2.79-28.6,13.91l-3.24,4.21c-1.67.63-3.29,1.46-4.82,2.49h0c-1.83-.78-10.63,9.28-12.89,11.88-.21.24-.36.42-.45.52-.7.8-1.36,1.65-1.98,2.54-1.86,2.67-3.34,5.69-4.21,8.75-.55,1.94-.96,3.89-1.24,5.84s-.43,3.91-.44,5.87c-.01,1.3.03,2.61.13,3.91.05.65.11,1.3.19,1.95.15,1.3.36,2.59.61,3.87.13.64.27,1.28.42,1.92.62,2.56,1.43,5.08,2.44,7.56,1.15,2.84,2.45,5.72,3.9,8.52,1.09,2.1,2.27,4.15,3.54,6.09.42.65.86,1.28,1.3,1.9.51.71,1.04,1.42,1.58,2.12.2.26.4.51.61.77.34.44.69.87,1.04,1.31.26.32.53.65.8.97.3.36.6.72.9,1.08.41.48.82.97,1.23,1.45.2.24.4.48.61.72.07.08.13.15.19.23-1.68,2.68-8.17,13.72-7.84,24.18-3.82-2.43-9.05-4.36-13.65-1.11-2.1,1.48-3.35,3.77-3.6,6.6-.35,3.85,1.11,8.25,3.07,12.08-9.09,6.85-37.43,29.99-39.43,53.6-.79,9.38.82,17.62,4.66,23.85,2.96,4.79,6.78,8.4,11.46,10.82h-19.17c-1.32,0-2.39,1.07-2.39,2.39s1.07,2.39,2.39,2.39h158.58c.34,0,.65-.08.95-.21,10.92,4.94,22.68,7.37,34.36,7.37,14,0,27.9-3.5,40.15-10.35.13.02.27.05.41.05h127.12c.28.27.63.48,1.04.59,6.46,1.69,13.62,2.54,21.4,2.54,5.75,0,11.85-.46,18.25-1.39.61-.09,1.16-.41,1.54-.89.52-.66,1.05-1.49,1.58-2.42,11.87.11,19.96.16,25.49.16,2.16,0,3.93,0,5.38-.02.17.04.34.06.52.06h23.71c1.32,0,2.39-1.07,2.39-2.39s-1.07-2.39-2.39-2.39ZM70.47,278.18c-7.8,2.22-15.18,4.31-20.77-1.43-5.04-5.17-3.39-12.93.26-17.95,2.86-3.93,6.36-7.12,10.07-10.5,1.03-.94,2.06-1.88,3.08-2.83,6.37-5.99,12.69-11.86,18.17-16.93,2.47,1.48,6.43,3.55,10.2,3.55,2.57,0,5.07-.96,6.95-3.72,1.94-2.84,2.3-6.5,1.65-9.88,4.19,1.69,10.01,3.05,16.01,1.38,4.43,8.82,8.78,17.71,12.91,26.68.22.47.44.95.66,1.42-4,2.58-8.25,5.19-11.16,6.91-6.37,3.76-13.58,8.02-20.75,11.88-9.76,5.26-18.38,8.91-26.33,11.16l-.95.27ZM80.46,300.29c1.97-.59,3.98-1.23,6.05-1.96,17.89-6.33,37.91-17.74,52.08-29.46.13.35.26.71.38,1.06,2.47,7.1,5.43,14.36,10.49,20.03,4.38,4.9,10.18,8.45,16.47,10.33h-85.48ZM382.58,268.13c.22,2.59.54,6.51-1.21,7.31-.32.14-.58.35-.8.59h-94.49c12.32-15.3,17.18-29.51,18.65-34.73.22-.77.43-1.72.63-2.79,1.01-4.02,1.49-8.18,1.17-12.11-.03-.03-.04-.07-.07-.1.03-1.63.01-3.35-.05-5.12l1.38-1.01c11.9-8.78,28.18-20.82,50.03-15.85,22.06,5.02,26.96,27.28,29.02,37.4,0,.13,0,.25.01.38-3.43,9.39-4.85,19.01-4.26,26.03Z"/><path class="cls-1" d="M10.27,300.29H2.39C1.07,300.29,0,301.36,0,302.67s1.07,2.39,2.39,2.39h7.88c1.32,0,2.39-1.07,2.39-2.39s-1.07-2.39-2.39-2.39Z"/><path d="M482.81,295.77h-13.16c3.04-4.3,6.16-11.81,2.63-22.42-3.51-10.54-14.25-16.59-31.9-18.03,2.19-14.16,2.78-27.26.29-32.76-.03-.06-.06-.12-.09-.18-4.13-7.4-12.96-11.92-22-11.24-4.65.35-9.17,2.03-13.38,4.92-6.47-14.51-20.54-35.92-47.57-37.18-28.26-1.31-37.57,4.74-55.15,18.08-2.19-7.11-5.45-14.16-10.18-20.43-4.65-6.16-9.25-11.4-13.84-15.78,7.69-1.1,20.81-5.32,27.8-20.89,8.56-19.05,8.23-40.77,7.4-49.02,4.4-.67,8.33-2.09,10.61-5.01,2.06-2.63,2.52-6.07,1.39-10.21-.32-1.16-.83-2.09-1.5-2.85,6.48-1.67,13.61-5.01,16.72-11.71,1.53-3.3,1.17-7.02-1.01-10.48-.45-.71-.96-1.38-1.53-2.02,4.46-1.39,10.22-3.99,9.56-10.38-.43-4.17-3.1-7.36-7.6-9.29.24-1.18.24-2.45-.04-3.69-.63-2.7-2.45-4.97-5.13-6.4-4.89-2.6-9.19-3.67-19.07-2.25-5.88.84-12.91,3.69-15.02,9.16-.13.34-.25.72-.35,1.12-1.1-.07-2.13.05-3.06.28.52-8.49-3.56-19.18-9.84-24.14-4.71-3.72-10.06-3.95-15.08-.65-3.22,2.12-5.09,5.06-5.55,8.73-1.18,9.45,7.83,21.17,11.19,25.16-3.98,6.51-5.04,11.14-4.19,17.6.87,6.59,4,11.2,9.08,13.58-3.1,1.7-5.77,4.37-6.01,8.53-.22,3.78.85,6.97,3.17,9.47,2.5,2.71,6.37,4.48,11.5,5.34.28,5.53.55,24.49-7.68,38.03-7.36,12.11-19.18,12.26-31.69,12.42-3.31.04-6.71.09-10.06.36-5.71-2.02-11.41-4.24-14.73-6.35-16.48-10.5-30.94-20.52-44.19-30.64-3.61-2.76-7.21-5.67-10.68-8.49-9.54-7.74-19.39-15.74-30.84-21.44-4.16-2.07-9.69-4.48-15.62-4.71-.4-.02-.77,0-1.16.01-2.28-.48-17-2.78-28.6,13.91l-3.19,4.14c-1.71.64-3.37,1.49-4.93,2.54-2.13-.6-12.26,11.25-13.28,12.42-2.79,3.19-5.02,7.2-6.19,11.29-2.94,10.33-1.91,21.01,2.11,30.92,2.3,5.67,5.19,11.54,8.74,16.51,2.13,2.99,4.55,5.8,6.95,8.63-1.68,2.68-8.17,13.72-7.84,24.18-3.82-2.43-9.05-4.36-13.65-1.11-2.1,1.48-3.35,3.77-3.6,6.6-.35,3.85,1.11,8.25,3.07,12.08-9.1,6.85-37.43,29.99-39.43,53.6-.79,9.38.82,17.62,4.66,23.85,2.96,4.79,6.78,8.4,11.46,10.82h-19.17c-1.32,0-2.39,1.07-2.39,2.39s1.07,2.39,2.39,2.39h158.58c.34,0,.67-.07.96-.2,10.92,4.93,22.67,7.37,34.34,7.37,14,0,27.89-3.5,40.14-10.35.14.02.28.04.42.04h127.12c.28.27.63.48,1.04.59,6.46,1.69,13.62,2.54,21.4,2.54.42,0,.85-.02,1.27-.03.05,0,.09.02.14.02.09,0,.17-.02.26-.03,5.26-.08,10.79-.52,16.58-1.36.61-.09,1.16-.41,1.54-.89.51-.65,1.03-1.46,1.54-2.37,11.82.11,19.89.16,25.43.16,2.41,0,4.31,0,5.86-.03.04,0,.08.01.13.01h23.71c1.32,0,2.39-1.07,2.39-2.39s-1.07-2.39-2.39-2.39ZM401.33,219.15c-1.27,1.16-2.5,2.43-3.69,3.83-2.95,3.46-5.45,7.41-7.53,11.56-2.01-7.77-5.84-18.27-14.07-25.93,2.79-4.65,7.23-8.24,12.35-10.01,6.15,6.67,10.31,14.39,12.95,20.55ZM357.4,183.67c11.46.54,20.39,5.14,27.26,11.27-5.05,2.24-9.41,5.98-12.37,10.65-3.71-2.63-8.12-4.72-13.43-5.93-23.29-5.29-40.28,6.61-52.82,15.85-.39-4.35-1.09-8.94-2.22-13.58,18.17-13.82,26.23-19.56,53.57-18.27ZM304.73,241.3c1.05-3.72,1.99-11.13,1.68-20.12l1.38-1.01c11.9-8.78,28.18-20.82,50.03-15.85,22.26,5.06,27.05,27.68,29.07,37.67-.13.37-.27.73-.4,1.1-.09.19-.15.38-.19.58-3.03,8.89-4.26,17.84-3.71,24.47.22,2.59.54,6.51-1.21,7.31-.32.14-.58.35-.8.59h-94.49c12.32-15.3,17.18-29.51,18.65-34.73ZM336.63,32.64c3.2.95,6.19,2.73,6.53,6.04.31,2.97-2.7,4.38-8.34,5.95-.32.09-.62.17-.92.26-2.89-1.75-6.23-2.8-9.47-2.84-.9-.01-1.84-.03-2.8-.06-4.69-.12-10.05-.24-14.07,1.16-.4-.53-.81-1.26-.88-2.09-.09-1.11.46-2.31,1.65-3.55,5.94-6.25,18.15-6.11,21.75-5.92,1.6.09,4.12.34,6.53,1.05,0,0,.02,0,.03,0ZM305.5,27.42c1.27-3.3,6.72-5.5,11.24-6.15,8.68-1.24,12-.47,16.15,1.74,1.85.98,2.5,2.31,2.72,3.26.09.4.11.81.08,1.2-1.64-.34-3.43-.56-5.35-.67-4.9-.27-16.51-.14-23.86,5.93-1.22-2.02-1.55-3.8-.97-5.31ZM283.91,82.14c-1.42-1.54-2.05-3.49-1.91-5.96.34-5.88,11.67-6.97,11.78-6.97,1.29-.1,2.27-1.22,2.2-2.52-.07-1.3-1.16-2.29-2.47-2.25-8.8.32-13.58-3.38-14.62-11.26-.76-5.79.27-9.5,4.42-15.9.59-.91.49-2.11-.24-2.91-3.43-3.75-12.12-15.15-11.17-22.73.28-2.25,1.4-3.99,3.43-5.33,3.3-2.17,6.41-2.03,9.5.41,6.03,4.76,9.79,17.01,7.32,23.83-.37,1.02,0,2.16.9,2.78.9.61,2.1.54,2.92-.17.1-.09,2.24-1.91,4.85-1.5.39,1.44,1.13,3.03,2.35,4.76-.97,1.62-1.41,3.31-1.27,5.03.14,1.74.84,3.15,1.58,4.23-.79.87-1.39,1.92-1.74,3.23-1.04,3.96.28,8.19,3.37,10.78,3.26,2.72,7.74,3.2,12.44,1.34,1.57.62,4.55,1.44,7.94.58,1.28-.33,2.05-1.63,1.73-2.9-.33-1.28-1.63-2.05-2.9-1.73-2.97.76-5.54-.63-5.55-.63-.67-.38-1.49-.42-2.19-.09-3.32,1.54-6.38,1.46-8.39-.23-1.68-1.41-2.39-3.72-1.82-5.9.97-3.71,8.82-3.51,15.12-3.35.98.02,1.95.05,2.87.06,4.36.05,9.18,2.71,11.46,6.32.91,1.44,1.77,3.63.71,5.92-4.5,9.71-21.59,10.52-24.71,10.59h-.53c-1.31.02-2.37,1.08-2.37,2.39s1.05,2.38,2.36,2.39c.1,0,.41,0,.9,0,4.48-.03,8.22.15,8.86,2.47.72,2.65.54,4.61-.55,6.01-3.18,4.06-13.68,3.82-20.64,3.66l-1.35-.03c-6.93-.14-12.12-1.7-14.61-4.39ZM288.31,131.23c8.67-14.27,8.72-33.22,8.42-40.01.56.03,1.11.07,1.7.08l1.34.03c1.56.04,3.23.07,4.94.07,1.39,0,2.8-.03,4.21-.1.8,7.63,1.17,28.38-7.01,46.6-8,17.81-24.69,18.53-28.41,18.46-5.49-4.48-10.99-7.75-16.57-9.83-.56-.21-1.16-.42-1.77-.64,12.45-.21,24.98-1.23,33.16-14.68ZM66.52,200.37c.17-1.91,1-2.7,1.6-3.13,4.81-3.4,12.72,4.8,12.79,4.88.79.85,2.07,1.01,3.04.38.97-.63,1.36-1.86.91-2.93-3.42-8.2,2.19-20.29,5.21-25.44.77.95,1.53,1.92,2.25,2.9,3.71,5.03,7.19,10.23,10.33,15.64,3.25,5.59,5.51,11.54,8.43,17.27.93,1.83,1.86,3.67,2.78,5.5-8.72,1.82-17.2-4.13-17.29-4.2-.97-.7-2.31-.57-3.13.29-.82.87-.87,2.22-.12,3.15,2.21,2.73,3.18,8,1.16,10.97-1.84,2.7-5.56,2.06-12.07-2.05-3.48-2.2-6.25-4.37-8.47-6.62-3.33-3.39-7.87-11.55-7.41-16.61ZM100.07,218.47c4.19,1.69,10.01,3.05,16.02,1.38,4.43,8.82,8.78,17.71,12.91,26.68.22.47.44.95.66,1.42-4,2.58-8.25,5.19-11.16,6.91-6.37,3.76-13.58,8.02-20.75,11.88-9.76,5.26-18.38,8.91-26.33,11.16l-.95.27c-7.8,2.22-15.18,4.31-20.77-1.43-5.04-5.17-3.39-12.93.26-17.95,2.86-3.93,6.36-7.12,10.07-10.5,1.03-.94,2.06-1.88,3.08-2.83,6.37-5.99,12.69-11.86,18.17-16.93,2.47,1.48,6.43,3.55,10.2,3.55,2.57,0,5.07-.96,6.95-3.72,1.94-2.84,2.3-6.5,1.65-9.88ZM34.12,286.96c-4.17-6.76-4.45-15.12-3.96-20.94,1.8-21.32,28.84-43.52,37.11-49.84,1.16,1.73,2.31,3.18,3.26,4.15,1.86,1.89,4.04,3.71,6.61,5.51-5.27,4.88-11.27,10.46-17.3,16.14-1,.94-2.01,1.86-3.02,2.78-3.72,3.39-7.57,6.9-10.72,11.22-4.8,6.59-6.79,16.95.18,24.1,7.59,7.78,17.1,5.08,25.5,2.69l.94-.27c8.3-2.35,17.23-6.12,27.3-11.55,7.25-3.91,14.51-8.19,20.91-11.97,4.47-2.64,15.33-9.34,20.4-13.22.62-.48,1.27-.62,1.96-.46,1.24.3,2.51,1.53,3.31,3.21,1.57,3.29.32,5.44-.29,6.21-1.76,2.22-3.8,4.23-5.38,5.72-13.66,12.94-36.17,26.36-56.01,33.38-25.36,8.98-42.45,6.67-50.79-6.86ZM80.46,300.29c1.97-.59,3.98-1.23,6.05-1.96,17.89-6.33,37.91-17.74,52.08-29.46.13.35.26.71.38,1.06,2.47,7.1,5.43,14.36,10.49,20.03,4.37,4.89,10.16,8.45,16.44,10.33h-85.45ZM181.44,299.37c-13.63-6.73-24.51-19.68-33.24-39.52.63-.7,1.25-1.41,1.85-2.17,2.42-3.06,2.75-7.26.86-11.22-1.42-2.99-3.85-5.16-6.5-5.8-1.16-.28-2.33-.25-3.44.05-.73-2.12-1.46-4.29-2.19-6.55-9.32-28.94-51-84.5-53.62-87.97-6.6-10.8-8.25-24.44-4.4-36.5,1.88-5.88,4.86-10.68,8.63-13.87,4.25-3.6,9.84-5.21,14.58-4.2.82.18,1.64-.1,2.19-.66.27-.2.51-.45.68-.76,5.33-9.57,10.64-15.86,19.38-15.53,5.02.2,9.95,2.36,13.68,4.22,10.97,5.47,20.2,12.95,29.96,20.88,3.5,2.84,7.12,5.78,10.79,8.58,13.36,10.2,27.92,20.3,44.52,30.87,5.11,3.26,14.27,6.37,22.35,9.12,2.84.97,5.52,1.88,7.73,2.7,5.29,1.97,10.54,5.13,15.81,9.53.03.02.05.05.08.07,5.72,4.78,11.47,11.01,17.34,18.8,15.77,20.91,14.02,52.17,11.65,60.59-2.02,7.17-10.75,32.15-38.05,52.5-22.89,17.06-54.55,19.75-80.64,6.86ZM340.93,297.15h-77.13c.38-.27.76-.53,1.14-.81,6.71-5,12.34-10.28,17.07-15.53h58.48c2.11,5.16,2.26,11.06.45,16.33ZM383.07,297.15h-37.13c1.48-5.33,1.34-11.08-.39-16.33h36.51c1.51,1.42,5.54,6.42,1.01,16.33ZM406.53,300.25c-6.79.01-13.05-.66-18.74-1.99,4.7-11.09.51-17.72-1.99-20.41,2.14-2.78,1.8-7.05,1.54-10.12-.2-2.35-.13-5.03.16-7.89l14.14,11.21c.44.35.96.52,1.48.52.7,0,1.4-.31,1.87-.9.82-1.03.65-2.54-.39-3.35l-15.57-12.34c-.23-.18-.49-.31-.76-.4.4-2.1.92-4.25,1.56-6.41l12.87,10.2c.44.35.96.52,1.48.52.7,0,1.4-.31,1.87-.9.82-1.03.65-2.54-.39-3.35l-14.23-11.28c.03-.07.05-.14.08-.21.03-.07.06-.14.08-.21.7-1.83,1.48-3.65,2.35-5.43.03.02.05.04.07.06,7.94,5.23,14.54,8.35,23.56,8.35h.22c-.07,8.8-1.06,39.3-11.28,54.37ZM430.15,295.65c-.06,0-.11,0-.17,0,3.67-8.69,7.27-22.3,9.62-35.62.7.05,1.49.11,2.33.19-1,17.15-8.14,29.94-11.78,35.43Z"/><path d="M222.61,168.36c-29.67,0-53.81,24.14-53.81,53.81s24.14,53.81,53.81,53.81,53.81-24.14,53.81-53.81-24.14-53.81-53.81-53.81ZM222.61,271.2c-27.04,0-49.03-22-49.03-49.03s22-49.03,49.03-49.03,49.03,22,49.03,49.03-22,49.03-49.03,49.03Z"/><path d="M257.3,200.73c-1.86-3-4.11-5.76-6.68-8.19-7.6-7.19-17.55-11.15-28.01-11.15-9.56,0-18.85,3.38-26.17,9.51-1.01.85-1.14,2.35-.3,3.36.85,1.01,2.35,1.14,3.36.3,6.46-5.41,14.66-8.39,23.1-8.39,9.24,0,18.02,3.49,24.73,9.84,2.27,2.15,4.26,4.58,5.9,7.24.45.73,1.23,1.13,2.03,1.13.43,0,.86-.12,1.25-.36,1.12-.69,1.47-2.17.77-3.29Z"/><path d="M261.39,209.55c-.41-1.25-1.75-1.94-3.01-1.53-1.25.41-1.94,1.75-1.53,3.01,1.16,3.59,1.76,7.33,1.76,11.14,0,1.32,1.07,2.39,2.39,2.39s2.39-1.07,2.39-2.39c0-4.31-.67-8.55-1.99-12.62Z"/><path d="M143.29,154.43c4.93-1.03,7.57-8.62,6.26-17.36-1.07.92-2.44,1.5-3.97,1.5-3.37,0-6.1-2.73-6.1-6.1s2.73-6.1,6.1-6.1c.08,0,.15.02.23.02-2.69-4.43-6.32-6.99-9.7-6.28-5.26,1.1-7.92,9.67-5.94,19.15,1.98,9.47,7.85,16.26,13.12,15.16Z"/><path d="M175.15,132.5c-1.07.92-2.44,1.5-3.97,1.5-3.37,0-6.1-2.73-6.1-6.1s2.73-6.1,6.1-6.1c.08,0,.15.02.23.02-2.69-4.43-6.32-6.99-9.7-6.28-5.26,1.1-7.92,9.67-5.94,19.15,1.98,9.47,7.85,16.26,13.12,15.16,4.93-1.03,7.57-8.62,6.26-17.36Z"/><path d="M163.64,156.86c-1.26-.37-2.59.37-2.95,1.64-1.92,6.69-8.13,11.36-15.1,11.36-8.6,0-14.28-4.46-15.57-12.24-.03-.33-.07-.67-.1-.98-.02-.23-.09-.44-.17-.65-.47-2.55-1.03-4.04-2.26-4.76-1.14-.67-2.6-.29-3.27.85-.56.96-.38,2.15.37,2.9.13.32.35,1.12.66,3.07l.02.12c.3,3.08.39,5.84-.51,8.23-.58,1.55-1.63,2.96-2.94,3.97-1.04.81-1.23,2.31-.43,3.35.47.61,1.18.93,1.89.93.51,0,1.03-.16,1.46-.5,2.03-1.57,3.58-3.67,4.48-6.06.06-.15.09-.3.14-.45,3.63,4.45,9.29,7,16.23,7,9.09,0,17.18-6.09,19.69-14.82.36-1.27-.37-2.59-1.64-2.95Z"/><path d="M10.27,300.29H2.39c-1.32,0-2.39,1.07-2.39,2.39s1.07,2.39,2.39,2.39h7.88c1.32,0,2.39-1.07,2.39-2.39s-1.07-2.39-2.39-2.39Z"/></g></svg>