<?xml version="1.0" encoding="UTF-8"?><svg id="Layer_2" xmlns="http://www.w3.org/2000/svg" viewBox="0 0 257.6 51.35"><g id="Layer_1-2"><path d="M6.98,1.03c.32,0,.83,0,1.54-.01.7,0,1.32-.01,1.86-.01s1.05.02,1.55.06c1.72.11,3.17.31,4.35.6,1.29.32,2.23,1.03,2.83,2.13.6,1.1.66,2.27.18,3.52-.19.53-.39.99-.6,1.39-.74,1.27-.7,2.5.11,3.69.42.62.75,1.28.99,1.96.38,1.1.39,2.12.04,3.07-.35.95-1.03,1.73-2.03,2.36-.64.38-1.33.66-2.06.84-.73.18-1.52.28-2.37.3-.51.02-1.21.02-2.09.01-.88,0-1.58,0-2.09.01-.97.02-2.36.05-4.18.09-1.82.04-2.88.06-3.18.06-.36,0-.63,0-.82-.03-.74-.07-1.03-.45-.88-1.14.28-1.15.41-2.92.37-5.28-.06-4.58-.12-8.05-.17-10.4,0-.34-.1-.98-.29-1.93C0,2.02-.02,1.79.02,1.61c.04-.18.14-.32.3-.41.16-.09.38-.14.67-.14.21-.02,1.17-.03,2.87-.03h3.12ZM6.7,8.72c.23.06.46.1.71.13.25.03.53.06.86.09.33.03.57.05.73.07.43,0,.89-.04,1.36-.11.85-.11,1.49-.26,1.9-.43.61-.23.88-.69.82-1.39-.06-.7-.38-1.15-.97-1.33-.59-.19-1.02-.28-1.31-.28-.93-.06-1.88-.06-2.87,0-.57.02-1.03.11-1.39.28-.74.34-1.11.83-1.11,1.48,0,.79.42,1.3,1.25,1.5ZM7.89,16.54h1.45c1,0,1.66-.02,1.96-.06.53-.06.96-.24,1.29-.54.33-.3.5-.66.5-1.08.02-.87-.54-1.41-1.68-1.62-1.48-.28-2.88-.28-4.2,0-.5.09-.89.29-1.2.6-.3.3-.45.64-.45,1.02.02.38.18.72.48,1.02.3.3.69.5,1.17.6.19.02.42.04.68.06Z"/><path d="M23.85,14.83c-.06-.25-.11-.52-.17-.82-.17-.95-.22-1.95-.14-3.01.15-1.87.48-3.37.99-4.49.89-1.95,2.29-3.54,4.2-4.77C30.47.66,32.34.08,34.33,0c2.95-.09,5.31.99,7.07,3.27,1.02,1.33,1.71,3.1,2.07,5.31.32,1.87.28,3.74-.14,5.59-.45,2.05-1.42,3.69-2.91,4.93s-3.31,1.99-5.47,2.26c-1.63.23-3.23.11-4.8-.34-3.28-.93-5.38-2.99-6.31-6.19ZM36.51,16.31c1.54-1.4,2.26-3.09,2.19-5.05-.02-.28-.02-.54,0-.77.04-1.46-.25-2.79-.88-4-.78-1.48-1.84-2.33-3.18-2.56-1.89-.32-3.47.33-4.72,1.96-.87,1.14-1.39,2.8-1.56,5-.12,1.44.06,2.68.51,3.72.68,1.61,1.78,2.59,3.29,2.95,1.55.4,3-.02,4.35-1.25Z"/><path d="M59.99,20.94v-.03c-.44,0-1.4.01-2.88.04s-2.72.05-3.69.07c-.97.02-1.94.04-2.91.06-.42,0-1.07-.05-1.96-.14-.32-.04-.55-.13-.67-.28-.12-.15-.16-.38-.1-.68.23-1.42.28-2.78.14-4.09-.04-.23-.04-.57.01-1.02.05-.45.07-.77.07-.94-.04-3.5-.09-6.68-.17-9.54,0-.26-.03-.66-.1-1.18-.07-.52-.1-.81-.1-.87-.04-.26-.03-.48.03-.64.06-.16.16-.28.3-.36.14-.08.34-.12.61-.14.97-.02,1.85,0,2.64.03.47.02.79.13.97.34.17.21.23.55.17,1.02-.06.55-.08,1.08-.08,1.59-.08,3.88-.12,6.68-.14,8.41,0,.51.06,1.14.17,1.88.19,1.08.8,1.74,1.85,1.99.57.15,1.1.23,1.59.23,2.63.04,4.63.04,5.99,0,.74-.02,1.83-.13,3.29-.34.53-.08.88-.05,1.05.07.17.12.28.44.34.95.08.85.11,1.56.11,2.13,0,.51-.11.88-.34,1.09-.23.22-.6.34-1.11.36h-5.08Z"/><path d="M75.89,21.08h-5c-.57,0-.93-.1-1.08-.3-.15-.2-.18-.59-.09-1.18.19-1.12.28-2.12.28-3.01.02-1.12.03-4.63.03-10.54,0-1.53,0-2.54-.03-3.01,0-.13-.03-.31-.07-.52-.05-.22-.08-.35-.1-.38-.09-.64.18-1,.82-1.08.09-.02.25-.03.46-.03,5.49,0,8.6.01,9.32.03,1.7.04,3.09.32,4.15.85,1.51.78,2.72,2.03,3.61,3.75.81,1.63,1.22,3.31,1.22,5.06,0,3.84-1.37,6.81-4.12,8.89-.42.32-.88.59-1.38.81-.5.22-1.01.38-1.54.48-.52.1-1.07.17-1.63.19-.23,0-1.85,0-4.86,0ZM76.43,16.48c.11.02.86.1,2.25.26,1.53-.15,2.35-.24,2.44-.26,1.71-.34,2.83-1.31,3.38-2.9.47-1.38.43-2.9-.14-4.54-.49-1.42-1.28-2.4-2.36-2.93-1.89-.95-3.85-1.07-5.88-.37-.66.21-1.11.66-1.34,1.36-.19.57-.3,1.16-.34,1.76-.09,1.42-.13,2.66-.11,3.72,0,.7.09,1.42.28,2.16.23.95.83,1.52,1.82,1.73Z"/><path d="M111.67,1.2c3.41,0,5.28,0,5.62-.03.4,0,.97-.02,1.72-.06.75-.04,1.25-.06,1.52-.06.34-.02.67,0,.99.06.43.09.75.25.92.47.18.22.28.55.3,1.01.06,1.33.08,2.1.06,2.33-.06.44-.17.7-.33.79-.16.1-.47.11-.92.03-.96-.17-1.76-.26-2.39-.28-1.89-.04-4.07-.04-6.53,0-.59,0-1.21.08-1.88.23-.36.09-.68.28-.97.54-.36.32-.53.68-.52,1.08,0,.4.19.75.55,1.05.32.27.63.42.91.45.96.15,1.83.23,2.58.23.55,0,1.33-.02,2.36-.04,1.02-.03,1.68-.04,1.96-.04.32,0,.58.04.79.11.38.15.6.31.65.48.32,1,.32,1.97,0,2.9-.09.25-.37.45-.82.6-.27.08-.66.12-1.19.14h-4.8c-.4,0-.7,0-.91.03-.79.11-1.41.41-1.86.88-.44.47-.68,1.11-.7,1.9,0,.83.06,2.09.17,3.78.04.4-.01.7-.16.91-.14.21-.39.32-.75.34-.91.08-1.95.08-3.13.03-.61-.04-.87-.39-.79-1.05.15-1.38.24-2.84.27-4.39.03-1.54.02-3.28-.02-5.2-.04-1.92-.05-3.38-.05-4.36.02-.36,0-.73-.03-1.11-.04-.38-.1-.85-.17-1.42-.08-.57-.12-.94-.14-1.11-.07-.7.23-1.1.91-1.19.17-.02.45-.03.85-.03.68,0,2.65,0,5.91,0Z"/><path d="M138.36,20.94v-.03c-.44,0-1.4.01-2.88.04s-2.72.05-3.69.07c-.98.02-1.94.04-2.91.06-.42,0-1.07-.05-1.96-.14-.32-.04-.54-.13-.67-.28-.12-.15-.15-.38-.1-.68.23-1.42.27-2.78.14-4.09-.04-.23-.03-.57.01-1.02.05-.45.07-.77.07-.94-.04-3.5-.09-6.68-.17-9.54,0-.26-.04-.66-.1-1.18-.07-.52-.1-.81-.1-.87-.04-.26-.03-.48.03-.64.06-.16.16-.28.3-.36.14-.08.34-.12.61-.14.97-.02,1.85,0,2.64.03.47.02.79.13.97.34.17.21.23.55.17,1.02-.06.55-.08,1.08-.08,1.59-.08,3.88-.12,6.68-.14,8.41,0,.51.06,1.14.17,1.88.19,1.08.8,1.74,1.85,1.99.57.15,1.1.23,1.59.23,2.63.04,4.63.04,5.99,0,.74-.02,1.83-.13,3.29-.34.53-.08.88-.05,1.05.07.17.12.28.44.34.95.08.85.11,1.56.11,2.13,0,.51-.11.88-.34,1.09-.23.22-.6.34-1.11.36h-5.08Z"/><path d="M164.25,21.08c-1.16-.13-1.78-.2-1.87-.2-.65-.08-1.08-.42-1.31-1.02-.44-1.12-1.22-1.69-2.36-1.73-2.2-.09-3.73-.12-4.6-.08-1.13.04-1.88.6-2.24,1.68-.3.91-.93,1.34-1.88,1.31-1.44-.06-2.24-.09-2.41-.11-.49-.06-.79-.18-.88-.38-.09-.2-.05-.52.14-.95,1.53-3.5,2.49-5.71,2.87-6.62.83-2.08,1.96-4.95,3.38-8.61.17-.45.32-1.07.45-1.85.08-.43.21-.76.41-.97.2-.21.5-.32.89-.34.95-.02,2.18.03,3.69.14.27.02.47.12.62.31.15.19.24.43.26.71.02.25.05.49.1.74.05.25.12.53.21.84s.17.54.21.68c.05.14.15.41.3.79.15.39.25.62.28.7,1.38,3.6,2.21,5.73,2.47,6.39.46,1.12,1.47,3.53,3.04,7.24.3.72.09,1.14-.65,1.25-.42.06-.79.08-1.13.08ZM156.44,10.26c-.32,0-.61.08-.87.23-.26.15-.46.37-.6.64-.14.28-.21.58-.21.92,0,.55.16.99.47,1.33.31.34.71.5,1.21.48.49,0,.89-.17,1.19-.5.3-.33.46-.75.48-1.26,0-.21-.03-.41-.08-.61-.06-.2-.13-.37-.23-.51-.1-.14-.21-.27-.34-.38-.13-.11-.29-.2-.47-.26-.18-.06-.36-.08-.55-.08Z"/><path d="M173.88,21.05c-.43-.02-.76-.12-.97-.3-.21-.18-.33-.49-.37-.92-.04-.36-.11-.75-.23-1.17-.11-.42-.21-.75-.3-.99-.09-.25-.23-.63-.44-1.15-.21-.52-.34-.86-.4-1.01-.23-.61-.59-1.52-1.08-2.75-1.65-4.07-2.9-7.14-3.75-9.2-.06-.15-.16-.35-.3-.6-.14-.25-.23-.41-.27-.48-.19-.36-.23-.65-.11-.88.11-.23.37-.35.77-.37.94-.06,1.91-.06,2.9,0,.38.02.67.12.87.31.2.19.37.48.5.88.34,1.08.74,2.2,1.19,3.35.29.76.8,2.02,1.56,3.78.13.34.29.63.45.88.44.61.97.91,1.59.91s1.15-.29,1.59-.88c.29-.4.5-.8.65-1.19.79-1.95,1.53-3.81,2.22-5.57.06-.17.13-.44.21-.81.08-.37.14-.58.16-.64.05-.26.14-.47.24-.61.1-.14.24-.25.4-.33.16-.08.38-.11.64-.11,1.1-.04,2.03-.04,2.81,0,.87.04,1.13.48.77,1.34-1.33,3.07-2.3,5.37-2.93,6.9-1.17,2.86-2.27,5.6-3.29,8.24-.21.53-.38,1.21-.51,2.04-.08.51-.21.86-.41,1.05-.2.19-.54.29-1.04.31-.06,0-3.05-.03-3.12-.03Z"/><path d="M187.45,14.83c-.06-.25-.11-.52-.17-.82-.17-.95-.22-1.95-.14-3.01.15-1.87.48-3.37.99-4.49.89-1.95,2.29-3.54,4.2-4.77,1.74-1.08,3.61-1.66,5.6-1.73,2.95-.09,5.31.99,7.07,3.27,1.02,1.33,1.71,3.1,2.07,5.31.32,1.87.28,3.74-.14,5.59-.45,2.05-1.42,3.69-2.91,4.93s-3.31,1.99-5.47,2.26c-1.63.23-3.23.11-4.8-.34-3.28-.93-5.38-2.99-6.31-6.19ZM200.11,16.31c1.54-1.4,2.26-3.09,2.19-5.05-.02-.28-.02-.54,0-.77.04-1.46-.25-2.79-.88-4-.78-1.48-1.84-2.33-3.18-2.56-1.89-.32-3.46.33-4.72,1.96-.87,1.14-1.39,2.8-1.56,5-.12,1.44.06,2.68.51,3.72.68,1.61,1.78,2.59,3.29,2.95,1.55.4,3-.02,4.35-1.25Z"/><path d="M211.53,17.19v-5.71c0-3.63,0-5.66-.03-6.08,0-.72-.07-1.62-.2-2.7-.06-.51-.01-.86.13-1.05s.46-.31.95-.37c.21-.04.45-.06.74-.06,5.87,0,9.32.01,10.34.03.93.02,2.02.17,3.29.46,1.67.4,2.75,1.46,3.24,3.18.34,1.23.42,2.36.23,3.38-.28,1.61-1.11,2.86-2.47,3.75-.07.06-.26.18-.57.37-1.57.98-1.95,2.31-1.14,3.98.09.17.65,1.19,1.65,3.07.04.04.08.09.11.16.04.07.08.13.11.19.04.06.07.11.08.17.25.55.08.89-.51,1.02-.36.08-.78.11-1.25.11-.23,0-.53-.01-.92-.04-.39-.03-.64-.05-.75-.07-.47-.02-.81-.1-1.02-.26s-.39-.44-.54-.88c-.61-1.76-1.51-3.48-2.72-5.14-.57-.78-1.3-1.16-2.19-1.16s-1.5.41-1.82,1.22c-.21.51-.31.98-.31,1.39,0,.98.05,2.17.14,3.55.06.76-.24,1.16-.88,1.22-.89.08-1.93.08-3.12.03-.51-.02-.75-.39-.71-1.11.07-1.38.12-2.26.14-2.64ZM218.71,8.95c.07.02.61.03,1.59.03.19-.02.6-.04,1.24-.07.63-.03,1.12-.07,1.46-.13.46-.09.8-.28,1.05-.55.25-.27.37-.61.36-.99-.01-.39-.14-.72-.4-.99-.26-.27-.62-.47-1.1-.58-.15-.02-.25-.03-.31-.03-2.21-.08-3.58-.11-4.09-.11-.32,0-.66.1-1.02.28-.64.32-.96.79-.96,1.42,0,.68.31,1.15.94,1.42.38.17.79.27,1.25.31Z"/><path d="M238.67.8c1.57-.49,2.84-.72,3.8-.68,2.44.06,4.32.38,5.62.96.11.04.24.08.38.11.14.04.27.07.37.09.1.02.24.04.41.07.17.03.3.05.4.07.47.08.79.21.95.4.16.19.25.53.27,1.02v1.59c-.06,1.31-.69,1.71-1.9,1.22-.34-.15-.98-.47-1.9-.97-1.1-.59-2.35-.97-3.75-1.14-.95-.13-1.88.07-2.78.6-.61.34-.97.88-1.08,1.63s.06,1.39.54,1.92c.51.59,1.13.96,1.85,1.11.32.08.85.18,1.59.3.74.12,1.3.23,1.68.33,1.63.36,2.7.65,3.21.88,1.51.64,2.52,1.59,3.02,2.84.5,1.25.45,2.56-.16,3.92-.7,1.69-1.97,2.86-3.81,3.52-2.82,1.06-5.93,1.17-9.32.31-1.02-.27-2.18-.54-3.47-.82-.43-.09-.73-.22-.88-.38-.15-.16-.24-.45-.26-.87-.06-.81-.07-1.6-.03-2.36.07-1.02.6-1.31,1.56-.85.34.15.91.42,1.7.81.79.39,1.41.69,1.85.89,1.38.63,2.96.86,4.74.71.76-.08,1.42-.36,1.99-.85.55-.49.81-1.1.79-1.82-.02-.72-.31-1.32-.88-1.79-.62-.51-1.4-.84-2.33-.99-2.06-.32-3.48-.58-4.26-.77-.95-.21-1.9-.64-2.87-1.31-.74-.51-1.26-1.18-1.58-2.02-.31-.83-.42-1.65-.31-2.46.1-.8.36-1.54.78-2.2.95-1.5,2.29-2.51,4.03-3.04Z"/><path d="M257.56,21c-.06.46-.24.79-.54,1.01-.3.22-.7.32-1.19.3-.85-.04-1.32-.5-1.39-1.39v-1.53c.09-.66.47-1.04,1.14-1.14.25-.04.52-.05.82-.03.72.06,1.11.42,1.17,1.08.06.59.06,1.16,0,1.7Z"/><path d="M10.68,30.67c1.57-.49,2.84-.72,3.8-.68,2.44.06,4.32.38,5.62.96.11.04.24.08.38.11.14.04.27.07.37.09.1.02.24.04.41.07.17.03.3.05.4.07.47.08.79.21.95.4.16.19.25.53.27,1.02v1.59c-.06,1.31-.69,1.71-1.91,1.22-.34-.15-.98-.47-1.9-.96-1.1-.59-2.35-.97-3.75-1.14-.95-.13-1.88.07-2.78.6-.61.34-.97.89-1.08,1.63-.11.75.06,1.39.54,1.92.51.59,1.13.96,1.85,1.11.32.08.85.18,1.59.3.74.12,1.3.23,1.68.33,1.63.36,2.7.65,3.21.88,1.51.64,2.52,1.59,3.02,2.84.5,1.25.45,2.56-.15,3.92-.7,1.68-1.97,2.86-3.81,3.52-2.82,1.06-5.93,1.17-9.32.31-1.02-.27-2.18-.54-3.47-.82-.43-.09-.73-.22-.88-.38-.15-.16-.24-.45-.26-.87-.06-.81-.07-1.6-.03-2.36.07-1.02.6-1.31,1.56-.85.34.15.91.42,1.7.81.8.39,1.41.69,1.85.89,1.38.62,2.96.86,4.74.71.76-.07,1.42-.36,1.99-.85.55-.49.81-1.1.8-1.82-.02-.72-.31-1.32-.88-1.79-.62-.51-1.4-.84-2.33-.99-2.06-.32-3.48-.58-4.26-.77-.95-.21-1.9-.64-2.87-1.31-.74-.51-1.26-1.18-1.58-2.02-.31-.83-.42-1.65-.31-2.46.1-.8.36-1.54.78-2.2.95-1.5,2.29-2.51,4.03-3.04Z"/><path d="M36.1,31.12h7.67c.68,0,1.18.06,1.49.18.31.12.53.35.65.67.12.32.19.82.19,1.51-.02.49-.04.85-.06,1.08-.08.46-.2.76-.38.91s-.51.22-.98.2c-1.33-.06-2.38-.1-3.18-.14-.13-.02-.31-.02-.54,0-1.35.08-2.18.76-2.5,2.05-.17.68-.26,1.35-.26,2.02-.04,2.71-.04,5.11,0,7.21.02.51.11,1.44.28,2.78.08.47.05.81-.08,1.01-.13.2-.42.31-.85.33-.7.04-1.75,0-3.15-.11-.42-.04-.61-.37-.57-.99.15-4.3.23-6.83.23-7.58.02-1.12-.07-2.65-.25-4.6-.04-.42-.15-.78-.34-1.09-.19-.31-.43-.57-.74-.77-.3-.2-.65-.34-1.05-.41-.46-.08-1.34-.09-2.64-.06-.23,0-.54.03-.95.08-.41.06-.67.1-.78.11-.36.02-.63-.04-.79-.17-.17-.13-.27-.39-.28-.77-.04-.59-.04-1.17,0-1.73.04-.42.12-.75.24-1,.12-.25.31-.43.55-.54.25-.11.57-.17.97-.17h8.12Z"/><path d="M49.52,47.06v-5.71c0-3.63,0-5.66-.03-6.08,0-.72-.07-1.62-.2-2.7-.06-.51-.01-.86.13-1.05.14-.19.46-.31.95-.37.21-.04.45-.06.74-.06,5.87,0,9.32,0,10.34.03.93.02,2.02.17,3.29.45,1.67.4,2.75,1.46,3.24,3.18.34,1.23.42,2.36.23,3.38-.28,1.61-1.11,2.86-2.47,3.75-.07.06-.26.18-.57.37-1.57.98-1.95,2.31-1.14,3.98.1.17.65,1.19,1.65,3.07.04.04.08.09.11.16.04.07.08.13.11.18.04.06.07.11.09.17.25.55.08.89-.51,1.02-.36.07-.78.11-1.25.11-.23,0-.53-.01-.92-.04-.39-.03-.64-.05-.75-.07-.47-.02-.81-.1-1.02-.26s-.39-.45-.54-.88c-.61-1.76-1.51-3.48-2.73-5.14-.57-.78-1.3-1.16-2.19-1.16s-1.5.41-1.82,1.22c-.21.51-.31.97-.31,1.39,0,.98.05,2.17.14,3.55.06.76-.24,1.16-.88,1.22-.89.08-1.93.08-3.12.03-.51-.02-.75-.39-.71-1.11.07-1.38.12-2.26.14-2.64ZM56.7,38.82c.07.02.61.03,1.59.03.19-.02.6-.04,1.24-.07.63-.03,1.12-.07,1.46-.13.46-.1.8-.28,1.05-.56.25-.27.37-.61.36-.99-.01-.39-.14-.72-.4-.99-.26-.27-.62-.47-1.1-.58-.15-.02-.25-.03-.31-.03-2.21-.08-3.58-.11-4.09-.11-.32,0-.66.1-1.02.28-.64.32-.96.79-.96,1.42,0,.68.31,1.15.94,1.42.38.17.8.27,1.25.31Z"/><path d="M86.7,31.04c.15,0,.37-.01.65-.04.29-.03.49-.04.63-.04.72-.02,1.19,0,1.42.03.42.06.72.17.91.34.19.17.3.45.34.85.07.87.08,1.73.03,2.58-.04.4-.15.66-.34.78-.19.12-.49.15-.91.07-1.06-.19-1.87-.28-2.41-.28-2.29-.04-4.57-.04-6.82,0-.59,0-1.2.11-1.85.34-.7.25-1.02.77-.97,1.56.04.76.42,1.22,1.17,1.39.81.19,1.56.29,2.24.31.49,0,1.19-.02,2.1-.06s1.52-.06,1.85-.06c.3-.02.78.02,1.42.11.61.1.94.44.99,1.02.08.7.09,1.35.03,1.96-.02.21-.08.39-.2.55-.11.16-.26.29-.45.4s-.39.16-.6.16c-.59.02-2,.04-4.23.06-.08,0-.45,0-1.11-.01-.66,0-1.03,0-1.11.01-.32.02-.68.12-1.08.29-.68.28-1.02.77-1.02,1.45,0,.17.03.33.09.48.06.15.13.29.23.43.09.13.21.25.36.36.14.1.29.18.44.21.57.17,1.07.25,1.51.23,2.48-.02,5.21-.07,8.18-.14.19,0,.44-.04.77-.11.32-.08.52-.11.6-.11.42-.08.72-.04.89.11.18.15.27.43.27.82.04.78.04,1.58,0,2.42,0,.38-.09.66-.25.85-.17.19-.45.32-.83.4-.21.02-.51.03-.91.03-.3.02-1.03.02-2.19.01-1.16,0-1.89,0-2.22.01-1.12,0-2.89.02-5.31.06-2.42.04-4.27.07-5.54.08-.76,0-1.21-.09-1.36-.27-.15-.18-.16-.65-.03-1.41.15-.91.24-1.94.26-3.1.06-2.16.06-4.13,0-5.91-.02-1-.11-3.28-.29-6.82,0-.25-.05-.57-.14-.96-.15-.57-.15-.95.01-1.14.16-.19.53-.29,1.12-.29.3-.02,2-.03,5.08-.03h8.58Z"/><path d="M109.4,31.04c.15,0,.37-.01.65-.04.29-.03.49-.04.63-.04.72-.02,1.19,0,1.42.03.42.06.72.17.91.34.19.17.3.45.34.85.07.87.08,1.73.03,2.58-.04.4-.15.66-.34.78-.19.12-.49.15-.91.07-1.06-.19-1.87-.28-2.41-.28-2.29-.04-4.57-.04-6.82,0-.59,0-1.2.11-1.85.34-.7.25-1.02.77-.97,1.56.04.76.42,1.22,1.17,1.39.81.19,1.56.29,2.24.31.49,0,1.19-.02,2.1-.06s1.52-.06,1.85-.06c.3-.02.78.02,1.42.11.61.1.94.44.99,1.02.08.7.09,1.35.03,1.96-.02.21-.08.39-.2.55-.11.16-.26.29-.45.4s-.39.16-.6.16c-.59.02-2,.04-4.23.06-.08,0-.45,0-1.11-.01-.66,0-1.03,0-1.11.01-.32.02-.68.12-1.08.29-.68.28-1.02.77-1.02,1.45,0,.17.03.33.09.48.06.15.13.29.23.43.09.13.21.25.36.36.14.1.29.18.44.21.57.17,1.07.25,1.51.23,2.48-.02,5.21-.07,8.18-.14.19,0,.44-.04.77-.11.32-.08.52-.11.6-.11.42-.08.72-.04.89.11.18.15.27.43.27.82.04.78.04,1.58,0,2.42,0,.38-.09.66-.25.85-.17.19-.45.32-.83.4-.21.02-.51.03-.91.03-.3.02-1.03.02-2.19.01-1.16,0-1.89,0-2.22.01-1.12,0-2.89.02-5.31.06-2.42.04-4.27.07-5.54.08-.76,0-1.21-.09-1.36-.27-.15-.18-.16-.65-.03-1.41.15-.91.24-1.94.26-3.1.06-2.16.06-4.13,0-5.91-.02-1-.11-3.28-.29-6.82,0-.25-.05-.57-.14-.96-.15-.57-.15-.95.01-1.14.16-.19.53-.29,1.12-.29.3-.02,2-.03,5.08-.03h8.58Z"/><path d="M125.84,31.12h7.67c.68,0,1.18.06,1.49.18.31.12.53.35.65.67.12.32.18.82.18,1.51-.02.49-.04.85-.06,1.08-.08.46-.2.76-.38.91-.18.15-.51.22-.98.2-1.33-.06-2.39-.1-3.18-.14-.13-.02-.31-.02-.54,0-1.34.08-2.18.76-2.5,2.05-.17.68-.26,1.35-.26,2.02-.04,2.71-.04,5.11,0,7.21.02.51.11,1.44.28,2.78.08.47.05.81-.09,1.01-.13.2-.42.31-.85.33-.7.04-1.75,0-3.15-.11-.42-.04-.61-.37-.57-.99.15-4.3.23-6.83.23-7.58.02-1.12-.07-2.65-.25-4.6-.04-.42-.15-.78-.34-1.09-.19-.31-.43-.57-.74-.77-.3-.2-.65-.34-1.05-.41-.46-.08-1.34-.09-2.64-.06-.23,0-.54.03-.95.08-.41.06-.67.1-.78.11-.36.02-.63-.04-.79-.17-.17-.13-.27-.39-.29-.77-.04-.59-.04-1.17,0-1.73.04-.42.12-.75.24-1,.12-.25.31-.43.55-.54.25-.11.57-.17.97-.17h8.12Z"/><path d="M156.54,50.92c-.43-.02-.76-.12-.97-.3-.21-.18-.33-.49-.37-.92-.04-.36-.11-.75-.23-1.17-.11-.42-.21-.75-.3-.99-.09-.25-.23-.63-.44-1.15-.21-.52-.34-.86-.4-1.01-.23-.61-.59-1.52-1.08-2.76-1.65-4.07-2.9-7.14-3.75-9.2-.06-.15-.16-.35-.3-.6-.14-.25-.23-.41-.27-.48-.19-.36-.23-.65-.11-.88.11-.23.37-.35.77-.37.94-.06,1.91-.06,2.9,0,.38.02.67.12.87.31.2.19.37.48.5.88.34,1.08.74,2.2,1.19,3.35.29.76.8,2.02,1.56,3.78.13.34.29.63.45.88.44.61.97.91,1.59.91s1.15-.29,1.59-.88c.29-.4.5-.8.65-1.19.79-1.95,1.53-3.81,2.22-5.57.06-.17.13-.44.21-.81.08-.37.14-.58.16-.64.05-.26.14-.47.24-.61.1-.14.24-.25.4-.33.16-.08.38-.11.64-.11,1.1-.04,2.03-.04,2.81,0,.87.04,1.13.48.77,1.33-1.33,3.07-2.3,5.37-2.93,6.9-1.17,2.86-2.27,5.61-3.29,8.24-.21.53-.38,1.21-.51,2.04-.08.51-.21.86-.41,1.05-.2.19-.54.29-1.04.31-.06,0-3.05-.03-3.12-.03Z"/><path d="M173.51,31.12h1.5c.64.06.94.42.88,1.08-.13,1.53-.21,3.17-.23,4.9s-.01,3.65.01,5.74c.03,2.09.04,3.72.04,4.9-.02.19-.02.39.01.61.03.22.07.46.11.72.05.27.08.46.1.6.06.44,0,.75-.14.95-.15.2-.43.31-.85.33-.66.02-1.67-.03-3.01-.14-.45-.04-.67-.36-.65-.97.02-.15.05-.42.08-.81.04-.39.06-.7.06-.92.02-5.25.02-8.68,0-10.31-.02-.66-.14-2.52-.37-5.57-.04-.68.25-1.05.85-1.11.08,0,.61,0,1.59,0Z"/><path d="M187.39,30.9c.32,0,.83,0,1.54-.01.7,0,1.32-.01,1.86-.01s1.05.02,1.55.06c1.72.11,3.17.31,4.35.6,1.29.32,2.23,1.03,2.83,2.13s.66,2.27.18,3.52c-.19.53-.39.99-.6,1.39-.74,1.27-.7,2.5.11,3.69.42.62.75,1.28.99,1.96.38,1.1.39,2.12.04,3.07-.35.95-1.03,1.73-2.03,2.36-.65.38-1.33.66-2.06.84-.73.18-1.52.28-2.37.3-.51.02-1.21.02-2.09.01-.88,0-1.58,0-2.09.01-.97.02-2.36.05-4.18.08-1.82.04-2.88.06-3.18.06-.36,0-.63,0-.82-.03-.74-.08-1.03-.45-.88-1.14.28-1.16.41-2.92.37-5.28-.06-4.58-.12-8.05-.17-10.4,0-.34-.09-.98-.28-1.93-.06-.28-.07-.52-.03-.7.04-.18.14-.32.3-.41.16-.09.38-.14.67-.14.21-.02,1.17-.03,2.87-.03h3.12ZM187.1,38.59c.23.06.46.1.71.13.25.03.53.06.87.09.33.03.57.05.73.07.43,0,.89-.04,1.36-.11.85-.11,1.49-.26,1.9-.43.61-.23.88-.69.82-1.39-.06-.7-.38-1.15-.97-1.34-.59-.19-1.02-.28-1.31-.28-.93-.06-1.88-.06-2.87,0-.57.02-1.03.11-1.39.28-.74.34-1.11.83-1.11,1.48,0,.79.42,1.3,1.25,1.5ZM188.3,46.41h1.45c1,0,1.66-.02,1.96-.06.53-.06.96-.24,1.29-.54s.5-.66.5-1.08c.02-.87-.54-1.41-1.68-1.62-1.48-.28-2.88-.28-4.2,0-.49.1-.89.29-1.2.6s-.45.64-.45,1.02c.02.38.18.72.48,1.02s.69.5,1.17.6c.19.02.42.04.68.06Z"/><path d="M219.28,31.04c.15,0,.37-.01.65-.04.28-.03.49-.04.63-.04.72-.02,1.19,0,1.42.03.42.06.72.17.91.34.19.17.3.45.34.85.07.87.08,1.73.03,2.58-.04.4-.15.66-.34.78-.19.12-.49.15-.91.07-1.06-.19-1.87-.28-2.41-.28-2.29-.04-4.57-.04-6.82,0-.59,0-1.21.11-1.85.34-.7.25-1.02.77-.97,1.56.04.76.42,1.22,1.17,1.39.81.19,1.56.29,2.24.31.49,0,1.19-.02,2.1-.06s1.52-.06,1.85-.06c.3-.02.78.02,1.42.11.61.1.94.44.99,1.02.08.7.09,1.35.03,1.96-.02.21-.08.39-.2.55-.11.16-.26.29-.45.4s-.39.16-.6.16c-.59.02-2,.04-4.23.06-.08,0-.45,0-1.11-.01-.66,0-1.03,0-1.11.01-.32.02-.68.12-1.08.29-.68.28-1.02.77-1.02,1.45,0,.17.03.33.09.48.06.15.13.29.23.43.09.13.21.25.36.36.14.1.29.18.44.21.57.17,1.07.25,1.51.23,2.48-.02,5.21-.07,8.18-.14.19,0,.44-.04.76-.11.32-.08.52-.11.6-.11.42-.08.72-.04.89.11.18.15.27.43.27.82.04.78.04,1.58,0,2.42,0,.38-.09.66-.25.85-.17.19-.45.32-.83.4-.21.02-.51.03-.91.03-.3.02-1.03.02-2.19.01-1.16,0-1.89,0-2.22.01-1.12,0-2.89.02-5.31.06-2.42.04-4.27.07-5.54.08-.76,0-1.21-.09-1.36-.27-.15-.18-.16-.65-.03-1.41.15-.91.24-1.94.26-3.1.06-2.16.06-4.13,0-5.91-.02-1-.11-3.28-.28-6.82,0-.25-.05-.57-.14-.96-.15-.57-.15-.95.01-1.14.16-.19.53-.29,1.12-.29.3-.02,2-.03,5.09-.03h8.58Z"/><path d="M231.95,30.67c1.57-.49,2.84-.72,3.8-.68,2.44.06,4.32.38,5.62.96.11.04.24.08.38.11.14.04.27.07.37.09.1.02.24.04.41.07.17.03.3.05.4.07.47.08.79.21.95.4.16.19.25.53.27,1.02v1.59c-.06,1.31-.69,1.71-1.9,1.22-.34-.15-.98-.47-1.9-.96-1.1-.59-2.35-.97-3.75-1.14-.95-.13-1.88.07-2.78.6-.61.34-.97.89-1.08,1.63s.06,1.39.54,1.92c.51.59,1.13.96,1.85,1.11.32.08.85.18,1.59.3.74.12,1.3.23,1.68.33,1.63.36,2.7.65,3.21.88,1.51.64,2.52,1.59,3.02,2.84.5,1.25.45,2.56-.16,3.92-.7,1.68-1.97,2.86-3.81,3.52-2.82,1.06-5.93,1.17-9.32.31-1.02-.27-2.18-.54-3.47-.82-.43-.09-.73-.22-.88-.38-.15-.16-.24-.45-.26-.87-.06-.81-.07-1.6-.03-2.36.07-1.02.6-1.31,1.56-.85.34.15.91.42,1.7.81.79.39,1.41.69,1.85.89,1.38.62,2.96.86,4.74.71.76-.07,1.42-.36,1.99-.85.55-.49.81-1.1.79-1.82-.02-.72-.31-1.32-.88-1.79-.62-.51-1.4-.84-2.33-.99-2.06-.32-3.48-.58-4.26-.77-.95-.21-1.9-.64-2.87-1.31-.74-.51-1.26-1.18-1.58-2.02-.31-.83-.42-1.65-.31-2.46.1-.8.36-1.54.78-2.2.95-1.5,2.29-2.51,4.03-3.04Z"/><path d="M251.78,49.88c-.04.85-.5,1.32-1.39,1.39h-1.53c-.66-.09-1.04-.47-1.14-1.14-.04-.25-.05-.52-.03-.82.06-.72.42-1.11,1.08-1.17.59-.06,1.16-.06,1.7,0,.46.06.79.24,1.01.54.22.3.32.7.3,1.19Z"/></g></svg>