<?xml version="1.0" encoding="UTF-8"?><svg id="Layer_2" xmlns="http://www.w3.org/2000/svg" viewBox="0 0 199.08 9.57"><defs><style>.cls-1{fill:#fff;}</style></defs><g id="Layer_1-2"><path class="cls-1" d="M3.05.45c.14,0,.36,0,.67,0,.31,0,.58,0,.81,0s.46,0,.68.02c.75.05,1.39.14,1.9.26.56.14.97.45,1.23.93.26.48.29.99.08,1.54-.08.23-.17.43-.26.61-.32.55-.31,1.09.05,1.61.18.27.33.56.43.86.17.48.17.93.02,1.34-.15.41-.45.76-.89,1.03-.28.17-.58.29-.9.37-.32.08-.66.12-1.04.13-.22,0-.53.01-.91,0-.38,0-.69,0-.91,0-.42,0-1.03.02-1.83.04-.79.02-1.26.02-1.39.02-.16,0-.28,0-.36-.01-.32-.03-.45-.2-.38-.5.12-.5.18-1.27.16-2.31-.03-2-.05-3.52-.08-4.54,0-.15-.04-.43-.12-.84-.03-.12-.03-.22-.01-.3.02-.08.06-.14.13-.18.07-.04.17-.06.29-.06.09,0,.51-.01,1.25-.01.06,0,.51,0,1.36,0ZM2.93,3.81c.1.03.2.04.31.06s.23.03.38.04c.15.01.25.02.32.03.19,0,.39-.02.6-.05.37-.05.65-.11.83-.19.26-.1.38-.3.36-.61-.02-.31-.17-.5-.42-.58-.26-.08-.45-.12-.57-.12-.41-.03-.82-.03-1.25,0-.25,0-.45.05-.61.12-.32.15-.48.36-.48.65,0,.35.18.57.54.66ZM3.45,7.22h.63c.44,0,.72,0,.86-.02.23-.02.42-.1.56-.24.14-.13.22-.29.22-.47,0-.38-.24-.62-.73-.71-.64-.12-1.26-.12-1.83,0-.22.04-.39.13-.52.26-.13.13-.2.28-.2.45,0,.17.08.31.21.45s.3.22.51.26c.08,0,.18.02.3.02Z"/><path class="cls-1" d="M11.58.54c.4,0,.61,0,.63.01.34,0,.58.18.73.52.32.7.58,1.23.76,1.58.12.23.29.46.51.7.17.17.37.25.59.25.22,0,.42-.08.6-.24.12-.1.19-.19.24-.27.51-.97.84-1.6.98-1.89.12-.25.24-.42.37-.51.13-.09.32-.14.58-.14h.89c.15,0,.26,0,.33.03.18.03.29.09.34.18.04.09.01.21-.09.37-.08.14-.24.4-.48.77-.24.37-.42.66-.54.86-.69,1.16-1.32,2.25-1.91,3.28-.33.59-.44,1.32-.32,2.18,0,.06.02.14.04.24s.04.18.04.22c.03.17.02.29-.04.37-.06.08-.17.14-.32.16-.12.02-.41.02-.87.01-.03,0-.07,0-.12,0-.04,0-.09,0-.15-.02-.05,0-.1-.01-.13-.01-.17-.02-.28-.06-.34-.13-.06-.07-.09-.19-.08-.37,0-.09.02-.25.04-.47.02-.22.02-.4.02-.52.03-.6-.12-1.16-.42-1.67-.04-.08-.29-.51-.74-1.29-.45-.77-.79-1.36-1.02-1.75-.11-.17-.28-.46-.52-.87-.24-.41-.42-.72-.55-.93-.23-.4-.12-.6.35-.62.03,0,.22,0,.6,0Z"/><path class="cls-1" d="M34.68,7.6s-.05.88-.06.92c-.03.15-.07.25-.13.31-.06.06-.17.09-.32.09-.36,0-.83.1-1.4.32-.88.35-1.78.43-2.72.24-.93-.19-1.74-.61-2.42-1.26-1.16-1.13-1.52-2.56-1.09-4.28.5-2.01,1.87-3.28,4.13-3.8.7-.16,1.49-.06,2.4.29.58.22,1.01.34,1.3.36.17,0,.28.05.35.12.07.07.1.19.1.35,0,.51-.03.97-.06,1.38-.04.37-.25.51-.61.41-.11-.02-.24-.09-.38-.19-.07-.04-.17-.11-.32-.22-.15-.1-.26-.18-.34-.23-1.01-.64-2.02-.73-3.04-.27-.4.17-.73.42-1,.74-.27.32-.46.67-.56,1.05-.1.38-.14.77-.1,1.18.04.41.15.8.33,1.16.27.54.65.94,1.13,1.22.48.27.99.4,1.54.37.55-.02,1.08-.18,1.6-.47.1-.06.2-.12.3-.19s.22-.16.37-.27c.14-.11.24-.18.28-.22.21-.16.38-.2.52-.14.14.07.21.24.22.48v.53Z"/><path class="cls-1" d="M41.34,5.82c-.68.07-1.04.1-1.09.11-.46.07-.74.34-.87.83-.08.35-.07.86.04,1.55,0,.03,0,.1.03.19.02.1.03.17.04.23.02.14,0,.25-.06.33s-.15.13-.27.14c-.37,0-.87-.01-1.49-.06-.09,0-.16-.05-.21-.12-.05-.07-.06-.16-.04-.25.06-.3.09-.6.11-.91.01-.31.01-.7,0-1.18,0-.48-.01-.79-.01-.91,0-.75-.03-1.94-.08-3.57,0-.07-.03-.43-.1-1.09-.03-.21,0-.37.07-.46.08-.09.22-.14.42-.15.34,0,.78.02,1.32.07.23.02.33.18.31.48-.02.26-.04.74-.09,1.43,0,.06,0,.13.01.22.02.27.07.5.16.67s.21.31.38.41c.16.1.38.17.66.22.49.08,1.1.06,1.84-.07.31-.05.55-.16.71-.33s.24-.41.26-.71c.03-.48.02-1.06-.04-1.75-.02-.25,0-.42.07-.51s.22-.14.45-.14c.31,0,.7.02,1.15.06.3.03.43.21.4.53-.04.41-.07.74-.08.99-.04,2.28-.06,3.75-.05,4.41,0,.28.05,1.02.15,2.21,0,.11,0,.2-.01.27-.02.07-.05.13-.11.17-.06.04-.14.06-.24.06-.41.03-.88,0-1.39-.05-.12,0-.21-.05-.24-.12-.04-.07-.05-.19-.03-.35.04-.77.06-1.26.05-1.48-.02-.41-.12-.71-.3-.91-.18-.2-.48-.33-.88-.4-.12-.02-.29-.03-.52-.04-.02,0-.43-.03-.43-.04Z"/><path class="cls-1" d="M54.67.51c.07,0,.16,0,.28-.02.12-.01.22-.02.27-.02.31,0,.52,0,.62.01.18.02.31.07.4.15s.13.2.15.37c.03.38.04.76.01,1.13-.02.17-.07.29-.15.34-.08.05-.22.06-.4.03-.46-.08-.81-.12-1.05-.12-1-.02-2-.02-2.98,0-.26,0-.53.05-.81.15-.31.11-.45.33-.42.68.02.33.19.53.51.61.36.08.68.13.98.14.21,0,.52,0,.92-.02s.67-.02.81-.02c.13,0,.34,0,.62.05.26.04.41.19.43.45.03.31.04.59.01.86,0,.09-.04.17-.09.24-.05.07-.12.13-.2.17-.08.05-.17.07-.26.07-.26,0-.87.02-1.85.02-.03,0-.19,0-.48,0-.29,0-.45,0-.48,0-.14,0-.3.05-.47.12-.3.12-.45.33-.45.63,0,.07.01.14.04.21s.06.13.1.19c.04.06.09.11.16.16.06.05.13.08.19.09.25.07.47.11.66.1,1.08,0,2.27-.03,3.57-.06.08,0,.19-.02.33-.05.14-.03.23-.05.26-.05.18-.03.31-.02.39.05.08.07.12.19.12.36.02.34.02.69,0,1.06,0,.17-.04.29-.11.37-.08.08-.2.14-.36.17-.09,0-.22.01-.4.01-.13,0-.45.01-.96,0-.5,0-.83,0-.97,0-.49,0-1.26,0-2.32.02-1.06.02-1.87.03-2.42.04-.33,0-.53-.04-.59-.12-.07-.08-.07-.28-.01-.62.07-.4.1-.85.11-1.35.02-.94.02-1.8,0-2.58,0-.44-.05-1.43-.12-2.98,0-.11-.02-.25-.06-.42-.07-.25-.06-.41,0-.5s.23-.12.49-.12c.13,0,.87-.01,2.22-.01h3.75Z"/><path class="cls-1" d="M62.24.52c1.49,0,2.31,0,2.46-.01.17,0,.42,0,.75-.02.33-.02.55-.03.66-.03.15,0,.29,0,.43.03.19.04.33.11.4.21.08.09.12.24.13.44.03.58.03.92.03,1.02-.03.19-.07.31-.14.35-.07.04-.21.05-.4.01-.42-.07-.77-.12-1.04-.12-.83-.02-1.78-.02-2.85,0-.26,0-.53.03-.82.1-.16.04-.3.12-.42.24-.16.14-.23.3-.23.47,0,.17.08.33.24.46.14.12.27.18.4.2.42.07.8.1,1.13.1.24,0,.58,0,1.03-.02.45-.01.73-.02.86-.02.14,0,.26.02.35.05.17.07.26.14.29.21.14.44.14.86,0,1.27-.04.11-.16.19-.36.26-.12.03-.29.05-.52.06h-2.1c-.17,0-.31,0-.4.01-.35.05-.62.18-.81.38-.19.21-.3.48-.3.83,0,.36.03.91.08,1.65.02.17,0,.31-.07.4-.06.09-.17.14-.33.15-.4.03-.85.04-1.37.01-.26-.02-.38-.17-.35-.46.07-.6.11-1.24.12-1.92.01-.67.01-1.43,0-2.27-.02-.84-.02-1.47-.02-1.91,0-.16,0-.32-.01-.48-.02-.17-.04-.37-.08-.62-.03-.25-.05-.41-.06-.48-.03-.31.1-.48.4-.52.07,0,.2-.01.37-.01.3,0,1.16,0,2.58,0Z"/><path class="cls-1" d="M80.2,6.01c0-.08.04-.55.09-1.41-.04-1.81-.07-2.86-.09-3.15,0-.03-.03-.23-.08-.58-.06-.35.07-.53.38-.55.42-.02.87-.02,1.33,0,.15,0,.26.05.33.13.07.08.1.18.08.32-.07.44-.1.93-.12,1.48-.01.55,0,1.04,0,1.48.02.43.01.93-.01,1.48-.02.51-.07.99-.16,1.44-.15.8-.57,1.46-1.25,1.96-.76.55-1.51.81-2.25.78-.69-.02-1.15-.06-1.38-.11-1.26-.26-2.12-1.03-2.57-2.3-.08-.23-.17-.62-.26-1.17-.02-.12-.02-.23,0-.3.02-.08.07-.14.14-.17.07-.04.18-.06.31-.06.38,0,.76,0,1.13,0,.17,0,.29.03.35.1.06.07.09.19.09.36,0,.54.09.94.3,1.2.37.46.81.7,1.32.72.64.02,1.13-.08,1.46-.31.48-.34.76-.79.83-1.34Z"/><path class="cls-1" d="M91.59,9.21c-.5-.06-.78-.09-.82-.09-.28-.03-.47-.18-.57-.45-.19-.49-.53-.74-1.03-.76-.96-.04-1.63-.05-2.01-.04-.5.02-.82.26-.98.73-.13.4-.41.59-.82.57-.63-.02-.98-.04-1.05-.05-.21-.03-.34-.08-.38-.17-.04-.09-.02-.23.06-.42.67-1.53,1.09-2.49,1.25-2.89.36-.91.86-2.16,1.48-3.76.07-.2.14-.47.2-.81.03-.19.09-.33.18-.42.09-.09.22-.14.39-.15.41,0,.95.01,1.61.06.12,0,.21.05.27.14.07.08.1.19.11.31,0,.11.02.22.04.32.02.11.05.23.09.37.04.14.07.24.09.3.02.06.06.18.13.35.07.17.11.27.12.3.6,1.57.96,2.5,1.08,2.79.2.49.64,1.54,1.33,3.16.13.31.04.5-.29.55-.18.02-.35.04-.5.04ZM88.18,4.48c-.14,0-.27.03-.38.1-.11.07-.2.16-.26.28-.06.12-.09.25-.09.4,0,.24.07.43.21.58s.31.22.53.21c.21,0,.39-.07.52-.22.13-.15.2-.33.21-.55,0-.09-.01-.18-.04-.27-.03-.09-.06-.16-.1-.22-.04-.06-.09-.12-.15-.17-.06-.05-.13-.09-.21-.11-.08-.02-.16-.04-.24-.04Z"/><path class="cls-1" d="M94.68,7.51v-2.49c0-1.59,0-2.47-.01-2.66,0-.31-.03-.71-.09-1.18-.03-.22,0-.38.06-.46.06-.08.2-.14.42-.16.09-.02.2-.03.32-.03,2.57,0,4.07,0,4.52.01.4,0,.88.07,1.44.2.73.17,1.2.64,1.42,1.39.15.54.18,1.03.1,1.48-.12.7-.48,1.25-1.08,1.64-.03.03-.12.08-.25.16-.69.43-.85,1.01-.5,1.74.04.08.28.52.72,1.34.02.02.03.04.05.07.02.03.03.06.05.08.02.02.03.05.04.07.11.24.03.39-.22.45-.16.03-.34.05-.55.05-.1,0-.23,0-.4-.02s-.28-.02-.33-.03c-.21,0-.36-.04-.45-.11s-.17-.19-.24-.38c-.26-.77-.66-1.52-1.19-2.25-.25-.34-.57-.51-.96-.51s-.65.18-.79.53c-.09.22-.14.43-.14.61,0,.43.02.95.06,1.55.03.33-.1.51-.38.53-.39.03-.84.04-1.36.01-.22,0-.33-.17-.31-.48.03-.6.05-.99.06-1.15ZM97.82,3.91s.26.01.69.01c.08,0,.26-.02.54-.03.28-.01.49-.03.64-.05.2-.04.35-.12.46-.24.11-.12.16-.26.16-.43,0-.17-.06-.31-.17-.43-.11-.12-.27-.2-.48-.25-.07,0-.11-.01-.14-.01-.97-.03-1.56-.05-1.79-.05-.14,0-.29.04-.45.12-.28.14-.42.35-.42.62,0,.3.14.5.41.62.17.07.35.12.55.14Z"/><path class="cls-1" d="M111.7.51c.07,0,.16,0,.28-.02.12-.01.22-.02.27-.02.31,0,.52,0,.62.01.18.02.31.07.4.15s.13.2.15.37c.03.38.04.76.01,1.13-.02.17-.07.29-.15.34-.08.05-.22.06-.4.03-.46-.08-.81-.12-1.05-.12-1-.02-2-.02-2.98,0-.26,0-.53.05-.81.15-.31.11-.45.33-.42.68.02.33.19.53.51.61.36.08.68.13.98.14.21,0,.52,0,.92-.02s.67-.02.81-.02c.13,0,.34,0,.62.05.26.04.41.19.43.45.03.31.04.59.01.86,0,.09-.04.17-.09.24-.05.07-.12.13-.2.17-.08.05-.17.07-.26.07-.26,0-.87.02-1.85.02-.03,0-.19,0-.48,0-.29,0-.45,0-.48,0-.14,0-.3.05-.47.12-.3.12-.45.33-.45.63,0,.07.01.14.04.21s.06.13.1.19c.04.06.09.11.16.16.06.05.13.08.19.09.25.07.47.11.66.1,1.08,0,2.27-.03,3.57-.06.08,0,.19-.02.33-.05.14-.03.23-.05.26-.05.18-.03.31-.02.39.05.08.07.12.19.12.36.02.34.02.69,0,1.06,0,.17-.04.29-.11.37-.08.08-.2.14-.36.17-.09,0-.22.01-.4.01-.13,0-.45.01-.96,0-.5,0-.83,0-.97,0-.49,0-1.26,0-2.32.02-1.06.02-1.87.03-2.42.04-.33,0-.53-.04-.59-.12-.07-.08-.07-.28-.01-.62.07-.4.1-.85.11-1.35.02-.94.02-1.8,0-2.58,0-.44-.05-1.43-.12-2.98,0-.11-.02-.25-.06-.42-.07-.25-.06-.41,0-.5s.23-.12.49-.12c.13,0,.87-.01,2.22-.01h3.75Z"/><path class="cls-1" d="M117.86,7.06c0,.1.02.21.03.32s.02.22.03.32c0,.1.02.21.03.31s.02.21.03.32c.01.11.02.22.03.32.02.13.02.24,0,.32-.02.08-.06.14-.13.17-.07.04-.17.06-.3.06-.37.02-.76.02-1.17,0-.34-.02-.48-.19-.43-.52.07-.41.11-.85.12-1.3.01-.46.01-.98,0-1.56-.01-.59-.02-1.02-.02-1.3,0-.38-.01-1.04-.06-1.99-.02-.43-.05-.87-.1-1.32-.03-.21,0-.36.06-.44.07-.08.2-.12.41-.12.46,0,.88,0,1.25,0,.17,0,.3.05.39.12.09.07.14.18.17.34.05.36.2.68.46.98.62.71,1.21,1.38,1.78,2.01.19.21.4.32.63.32.5.03.78-.17.83-.61.05-.39.07-.97.06-1.75,0-.09,0-.19-.02-.29-.01-.1-.03-.21-.05-.34-.02-.13-.04-.23-.04-.29-.02-.11-.01-.2,0-.27s.06-.12.12-.16.14-.06.25-.06c.41-.03.84-.03,1.29,0,.15,0,.25.04.32.11.06.07.09.18.08.34-.02,2.08-.05,3.45-.06,4.11,0,.11-.01.33-.03.67-.02.34-.03.6-.02.78.02.45.07,1.12.16,2.01.02.18,0,.31-.07.4-.06.08-.18.12-.35.12-.42,0-.87,0-1.33,0-.29,0-.46-.14-.5-.38-.07-.41-.29-.82-.67-1.23-.14-.16-.39-.43-.74-.82s-.63-.69-.83-.91c-.07-.08-.17-.16-.27-.24-.28-.2-.55-.25-.81-.14s-.42.32-.48.66c-.02.09-.03.19-.03.29s0,.21-.01.35c0,.13,0,.23,0,.29Z"/><path class="cls-1" d="M134.09.52c.35,0,.62.19.81.53.12.24.48.81,1.06,1.71.04.05.12.14.25.26.19.18.41.28.66.28.25,0,.47-.08.65-.27.55-.56.99-1.22,1.29-1.98.04-.11.08-.19.12-.25s.08-.12.14-.16.12-.08.2-.1.17-.03.27-.03c.48,0,.92,0,1.33.01.17,0,.3.02.39.06.09.04.14.11.17.21.03.1.03.23,0,.4-.05.34-.07.64-.07.89,0,2.22,0,3.94,0,5.17,0,.3.05.76.14,1.38.03.2.02.34-.04.42-.06.08-.19.13-.39.14-.39.02-.77.02-1.15,0-.18,0-.31-.05-.38-.14s-.09-.22-.06-.39c.12-.74.13-1.61.01-2.62-.02-.15-.06-.29-.14-.43-.11-.19-.25-.31-.44-.35-.19-.05-.37,0-.55.12-.14.11-.34.31-.61.61-.05.07-.11.14-.17.23-.07.09-.13.17-.2.25-.07.08-.12.16-.17.22-.14.15-.27.22-.37.22-.11,0-.23-.09-.36-.25-.07-.09-.17-.23-.3-.4s-.23-.31-.3-.39c-.14-.18-.27-.32-.38-.41-.26-.23-.52-.3-.79-.21s-.44.31-.5.65c-.12.67-.12,1.47.02,2.41,0,.04.02.11.04.19s.03.16.03.21c.02.17,0,.3-.05.38-.06.08-.17.12-.33.13-.41.02-.79.02-1.15,0-.2-.02-.33-.07-.4-.16-.07-.09-.1-.23-.08-.43.04-.71.06-1.33.06-1.86.02-.98.02-1.97,0-2.95,0-.48-.03-1.21-.06-2.18,0-.05-.04-.22-.09-.52-.04-.22-.03-.37.03-.45.06-.08.2-.12.43-.13.03,0,1.43.01,1.46.01Z"/><path class="cls-1" d="M144.12,6.48c-.03-.11-.05-.23-.07-.36-.08-.41-.1-.85-.06-1.32.07-.82.21-1.47.43-1.96.39-.85,1-1.55,1.84-2.08.76-.47,1.58-.72,2.44-.76,1.29-.04,2.32.43,3.09,1.43.45.58.75,1.35.91,2.32.14.82.12,1.63-.06,2.44-.2.89-.62,1.61-1.27,2.15s-1.45.87-2.39.99c-.71.1-1.41.05-2.1-.15-1.43-.41-2.35-1.31-2.75-2.71ZM149.66,7.13c.67-.61.99-1.35.96-2.21,0-.12,0-.24,0-.33.02-.64-.11-1.22-.38-1.75-.34-.64-.8-1.02-1.39-1.12-.83-.14-1.51.14-2.06.86-.38.5-.61,1.22-.68,2.18-.05.63.02,1.17.22,1.62.3.7.78,1.13,1.44,1.29.68.17,1.31,0,1.9-.55Z"/><path class="cls-1" d="M155.42,7.51v-2.49c0-1.59,0-2.47-.01-2.66,0-.31-.03-.71-.09-1.18-.03-.22,0-.38.06-.46.06-.08.2-.14.42-.16.09-.02.2-.03.32-.03,2.57,0,4.07,0,4.52.01.4,0,.88.07,1.44.2.73.17,1.2.64,1.42,1.39.15.54.18,1.03.1,1.48-.12.7-.48,1.25-1.08,1.64-.03.03-.12.08-.25.16-.69.43-.85,1.01-.5,1.74.04.08.28.52.72,1.34.02.02.03.04.05.07.02.03.03.06.05.08.02.02.03.05.04.07.11.24.03.39-.22.45-.16.03-.34.05-.55.05-.1,0-.23,0-.4-.02s-.28-.02-.33-.03c-.21,0-.36-.04-.45-.11s-.17-.19-.24-.38c-.26-.77-.66-1.52-1.19-2.25-.25-.34-.57-.51-.96-.51s-.65.18-.79.53c-.09.22-.14.43-.14.61,0,.43.02.95.06,1.55.03.33-.1.51-.38.53-.39.03-.84.04-1.36.01-.22,0-.33-.17-.31-.48.03-.6.05-.99.06-1.15ZM158.56,3.91s.26.01.69.01c.08,0,.26-.02.54-.03.28-.01.49-.03.64-.05.2-.04.35-.12.46-.24.11-.12.16-.26.16-.43,0-.17-.06-.31-.17-.43-.11-.12-.27-.2-.48-.25-.07,0-.11-.01-.14-.01-.97-.03-1.56-.05-1.79-.05-.14,0-.29.04-.45.12-.28.14-.42.35-.42.62,0,.3.14.5.41.62.17.07.35.12.55.14Z"/><path class="cls-1" d="M166.1,7.51v-2.49c0-1.59,0-2.47-.01-2.66,0-.31-.03-.71-.09-1.18-.03-.22,0-.38.05-.46.06-.08.2-.14.42-.16.09-.02.2-.03.32-.03,2.57,0,4.07,0,4.52.01.4,0,.88.07,1.44.2.73.17,1.2.64,1.42,1.39.15.54.18,1.03.1,1.48-.12.7-.48,1.25-1.08,1.64-.03.03-.12.08-.25.16-.69.43-.85,1.01-.5,1.74.04.08.28.52.72,1.34.02.02.03.04.05.07.02.03.03.06.05.08.02.02.03.05.04.07.11.24.03.39-.22.45-.16.03-.34.05-.55.05-.1,0-.23,0-.4-.02s-.28-.02-.33-.03c-.21,0-.36-.04-.45-.11s-.17-.19-.24-.38c-.26-.77-.66-1.52-1.19-2.25-.25-.34-.57-.51-.96-.51s-.65.18-.79.53c-.09.22-.14.43-.14.61,0,.43.02.95.06,1.55.03.33-.1.51-.38.53-.39.03-.84.04-1.36.01-.22,0-.33-.17-.31-.48.03-.6.05-.99.06-1.15ZM169.24,3.91s.26.01.69.01c.08,0,.26-.02.54-.03.28-.01.49-.03.64-.05.2-.04.35-.12.46-.24.11-.12.16-.26.16-.43,0-.17-.06-.31-.17-.43-.11-.12-.27-.2-.48-.25-.07,0-.11-.01-.14-.01-.97-.03-1.56-.05-1.79-.05-.14,0-.29.04-.45.12-.28.14-.42.35-.42.62,0,.3.14.5.41.62.17.07.35.12.55.14Z"/><path class="cls-1" d="M176.55,6.48c-.03-.11-.05-.23-.07-.36-.08-.41-.1-.85-.06-1.32.07-.82.21-1.47.43-1.96.39-.85,1-1.55,1.84-2.08.76-.47,1.58-.72,2.44-.76,1.29-.04,2.32.43,3.09,1.43.45.58.75,1.35.91,2.32.14.82.12,1.63-.06,2.44-.2.89-.62,1.61-1.27,2.15s-1.45.87-2.39.99c-.71.1-1.41.05-2.1-.15-1.43-.41-2.35-1.31-2.75-2.71ZM182.08,7.13c.67-.61.99-1.35.96-2.21,0-.12,0-.24,0-.33.02-.64-.11-1.22-.38-1.75-.34-.64-.8-1.02-1.39-1.12-.83-.14-1.51.14-2.06.86-.38.5-.61,1.22-.68,2.18-.05.63.02,1.17.22,1.62.3.7.78,1.13,1.44,1.29.68.17,1.31,0,1.9-.55Z"/><path class="cls-1" d="M188.79.51c.18.02.31.07.37.14.07.07.12.2.15.39.17.95.25,1.44.26,1.46.06.26.15.53.29.82.13.29.35.44.65.45.25,0,.46-.14.61-.43.11-.21.18-.39.22-.55.12-.53.24-1.09.36-1.69.05-.25.12-.42.22-.5.1-.09.27-.13.51-.13.38,0,.9.03,1.55.07.26.02.41.19.47.51.16.82.3,1.51.43,2.07.04.18.13.36.26.53.14.18.32.27.54.25.22-.01.4-.11.53-.3.11-.16.17-.3.2-.42.24-.98.38-1.63.43-1.97.06-.34.13-.55.22-.63.09-.08.3-.12.64-.11.39,0,.73.02,1.03.06.16.02.26.07.31.15.05.08.05.2,0,.36-.07.24-.16.58-.29,1.01-.13.43-.24.83-.35,1.19-.1.36-.2.7-.29,1.01-.21.78-.54,2.01-.98,3.69-.02.1-.06.31-.1.62-.02.22-.09.39-.19.49-.1.1-.27.16-.49.16-.44,0-.98-.02-1.62-.07-.25-.02-.4-.19-.46-.52-.13-.67-.27-1.32-.41-1.94-.04-.17-.12-.33-.22-.48-.17-.22-.38-.32-.63-.3-.25.02-.44.16-.56.41-.27.56-.46,1.25-.57,2.07,0,.02,0,.06-.01.14,0,.08-.02.14-.03.18-.04.17-.1.28-.17.35-.07.07-.19.1-.35.1-.58.02-1.1.02-1.56,0-.1,0-.18,0-.25-.03-.07-.02-.13-.06-.18-.11s-.09-.11-.11-.18c-.02-.07-.04-.16-.06-.27-.07-.5-.16-.94-.25-1.3-.36-1.32-.87-3.21-1.54-5.67-.02-.07-.06-.18-.12-.32-.05-.14-.08-.23-.09-.26-.11-.31,0-.48.32-.53h.1s1.2.03,1.23.04Z"/></g></svg>