<?xml version="1.0" encoding="UTF-8"?><svg id="Layer_2" xmlns="http://www.w3.org/2000/svg" viewBox="0 0 182.37 145.9"><defs><style>.cls-1{fill:#db3200;}</style></defs><g id="Layer_1-2"><path class="cls-1" d="M135.75,75.27c-.68,0-1.32-.34-1.7-.94-.49-.79-.37-1.82.29-2.48l16.82-16.68c.78-.78,2.05-.77,2.83.01.78.78.77,2.05-.01,2.83l-10.57,10.49,32.31-11.22-20.11-12.25c-.93-.57-1.24-1.78-.69-2.72l9.76-16.65-30.98,4c-1.09.14-2.1-.63-2.24-1.73-.14-1.1.63-2.1,1.73-2.24l35.03-4.53c.76-.1,1.5.24,1.92.88.42.64.44,1.46.06,2.12l-10.83,18.47,22.05,13.44c.66.4,1.03,1.15.95,1.92-.08.77-.6,1.42-1.33,1.68l-44.63,15.49c-.22.08-.44.11-.66.11Z"/><path class="cls-1" d="M28.87,95.54c-.85,0-1.65-.55-1.91-1.41-.32-1.06.27-2.17,1.32-2.5l120.51-37.08-22.91-14.74c-.9-.58-1.19-1.78-.64-2.7l13.67-23.05L18.01,31.09c-1.1.15-2.11-.61-2.26-1.7-.15-1.09.61-2.11,1.7-2.26l125.02-17.62c.76-.11,1.52.23,1.94.87.43.64.45,1.47.06,2.13l-14.81,24.97,24.9,16.03c.65.42,1,1.18.9,1.95s-.65,1.41-1.39,1.64L29.46,95.45c-.2.06-.39.09-.59.09Z"/><path class="cls-1" d="M60.17,63.4v.04c-1.49.19-2.3.29-2.42.31-.78.07-1.5-.27-2.16-1.04-.36-.47-1.7-2.05-4.02-4.73-.06-.06-.15-.16-.28-.28-2.04-1.77-3.83-1.54-5.36.69-.43.63-.76,1.21-1.01,1.75-.56,1.19-.61,2.49-.15,3.89.16.46.25.71.25.73.07.26.12.48.13.66.01.18-.02.35-.11.49-.09.14-.21.25-.37.33-.16.08-.37.16-.62.23-1.28.27-2.43.48-3.45.62-.52.1-.91.05-1.14-.15-.24-.2-.37-.59-.41-1.15-.07-1.3-.18-2.29-.31-2.99-1.14-6.12-2.01-10.64-2.62-13.57-.2-1.08-.69-2.83-1.44-5.26-.08-.31-.14-.57-.17-.79-.03-.22,0-.4.08-.55.08-.15.21-.27.4-.35.18-.08.44-.16.77-.22,1.26-.26,2.29-.46,3.08-.59.72-.11,1.2-.06,1.44.15.24.21.39.7.46,1.45.19,1.79.49,3.29.89,4.47.35,1.07.94,1.68,1.77,1.82.83.14,1.62-.22,2.37-1.08.61-.68,1.24-1.55,1.89-2.59.61-.96,1.68-2.75,3.21-5.36.48-.83,1.16-1.35,2.01-1.53,1.02-.22,2.49-.5,4.41-.84.26-.05.52-.05.78,0,.67.14.86.53.56,1.16-.07.16-.24.44-.51.84-.29.42-.69,1.02-1.22,1.79-.52.77-1,1.47-1.44,2.11-.43.64-.85,1.24-1.23,1.81-.09.17-.2.36-.34.58-.13.22-.26.45-.39.67-.13.22-.25.42-.37.59-.35.54-.54,1.12-.58,1.74-.04.63.04,1.2.25,1.73s.5.98.87,1.36c2.27,2.42,4.43,4.7,6.5,6.86.19.21.52.54,1.01,1,.48.45.85.8,1.09,1.05.41.44.59.83.56,1.16,0,.08-.04.15-.07.22-.04.07-.08.13-.12.17-.04.05-.11.08-.22.12-.11.03-.18.06-.23.08-.04.02-.13.04-.27.07-.13.03-.21.04-.23.04-.07.01-.58.11-1.54.29Z"/><path class="cls-1" d="M67.84,35.47c1.86-1,3.41-1.59,4.64-1.77,3.1-.52,5.54-.56,7.33-.13.15.02.33.04.51.05.19.01.35.02.49.02.14,0,.31,0,.54,0,.22,0,.39,0,.52,0,.62-.02,1.05.07,1.3.27.25.2.44.61.59,1.22.15.77.27,1.43.38,2.01.24,1.66-.46,2.33-2.11,2-.46-.11-1.34-.36-2.63-.76-1.53-.48-3.19-.65-5-.53-1.23.06-2.35.53-3.37,1.42-.69.58-1.01,1.35-.97,2.32.04.97.41,1.73,1.14,2.29.79.62,1.65.93,2.6.95.42.02,1.12.02,2.08,0,.96-.02,1.69-.02,2.19,0,2.14.06,3.56.18,4.26.34,2.06.45,3.56,1.4,4.5,2.86.93,1.46,1.18,3.12.75,4.98-.48,2.29-1.8,4.08-3.96,5.36-3.31,2.02-7.2,2.89-11.68,2.63-1.35-.09-2.88-.16-4.57-.21-.57-.02-.97-.11-1.2-.27-.23-.17-.41-.51-.53-1.03-.27-1.01-.47-2-.6-2.97-.15-1.31.44-1.79,1.77-1.45.47.11,1.25.31,2.34.61,1.1.3,1.94.53,2.54.68,1.89.46,3.95.38,6.15-.24.94-.28,1.71-.79,2.3-1.55.57-.75.76-1.58.57-2.48-.2-.9-.71-1.58-1.54-2.05-.91-.49-1.97-.72-3.18-.69-2.68.09-4.53.11-5.56.05-1.25-.03-2.55-.36-3.93-.96-1.05-.47-1.88-1.19-2.47-2.17-.59-.98-.92-1.98-.98-3.02-.06-1.04.09-2.03.46-2.96.83-2.12,2.29-3.71,4.36-4.8Z"/><path class="cls-1" d="M99.28,30.08c5.92-1.13,9.15-1.74,9.68-1.84.86-.16,1.5-.21,1.92-.12.42.08.75.31.98.68.24.38.43.99.59,1.86.09.63.16,1.08.19,1.38.01.59-.08,1-.27,1.24-.19.24-.59.4-1.19.49-1.69.25-3.03.44-4.05.58-.17,0-.4.05-.68.13-1.68.42-2.57,1.48-2.66,3.18-.05.9,0,1.77.16,2.61.6,3.42,1.18,6.46,1.73,9.1.15.64.49,1.79,1.03,3.44.21.58.25,1.01.13,1.29-.12.28-.45.49-1,.62-.88.22-2.21.42-4,.61-.54.05-.85-.32-.96-1.12-.84-5.46-1.35-8.67-1.53-9.62-.24-1.42-.72-3.33-1.42-5.74-.15-.51-.38-.95-.69-1.3-.31-.35-.69-.61-1.11-.79-.43-.18-.91-.27-1.43-.27-.59.01-1.71.2-3.35.56-.29.05-.68.16-1.18.33-.5.17-.82.28-.96.33-.45.11-.8.1-1.04-.03-.25-.12-.43-.42-.54-.9-.19-.73-.33-1.46-.42-2.19-.05-.53-.03-.97.06-1.31.1-.34.29-.61.57-.81.28-.2.68-.35,1.18-.45.55-.1,3.2-.61,7.95-1.51.07-.01.84-.16,2.29-.44Z"/><path class="cls-1" d="M135.75,75.27c-.95,0-1.8-.69-1.97-1.66l-1.75-10.09c-.19-1.09.54-2.12,1.63-2.31,1.09-.19,2.12.54,2.31,1.63l1.75,10.09c.19,1.09-.54,2.12-1.63,2.31-.12.02-.23.03-.34.03Z"/><path class="cls-1" d="M28.35,145.9c-.4,0-.79-.12-1.13-.35-.45-.3-.75-.77-.84-1.3L3.71,16.3c-.19-1.07.51-2.09,1.57-2.31l2.35-.48c.2-.04.41-.05.61-.03.49.05.97.03,1.45-.07.48-.1.94-.27,1.37-.5.18-.1.37-.17.57-.21l2.44-.49c.53-.11,1.08,0,1.52.31.45.3.75.77.84,1.3l22.66,127.94c.19,1.07-.51,2.09-1.57,2.31l-8.79,1.78c-.13.03-.27.04-.4.04ZM7.99,17.52l21.97,124,4.87-.99L12.86,16.54l-.14.03c-.7.36-1.45.61-2.22.77-.77.16-1.56.21-2.34.15l-.16.03Z"/><path class="cls-1" d="M8.75,17.51c-4.08,0-7.74-2.87-8.58-7.02C-.78,5.77,2.28,1.14,7.02.18c4.73-.96,9.36,2.11,10.32,6.84h0c.46,2.29,0,4.63-1.28,6.58-1.29,1.95-3.27,3.28-5.56,3.74-.58.12-1.17.18-1.74.18ZM8.76,4c-.31,0-.63.03-.95.1-2.57.52-4.24,3.04-3.72,5.61.25,1.25.97,2.32,2.03,3.02s2.33.95,3.57.7c1.24-.25,2.32-.97,3.02-2.03.7-1.06.95-2.33.7-3.57h0c-.46-2.25-2.44-3.81-4.66-3.81Z"/></g></svg>