<?xml version="1.0" encoding="UTF-8"?>
<svg id="Layer_2" xmlns="http://www.w3.org/2000/svg" version="1.1" viewBox="0 0 182.4 145.9">
  <!-- Generator: Adobe Illustrator 29.0.1, SVG Export Plug-In . SVG Version: 2.1.0 Build 192)  -->
  <defs>
    <style>
      .st0 {
        fill: #fff;
      }
    </style>
  </defs>
  <g id="Layer_1-2">
    <path class="st0" d="M135.8,75.3c-.7,0-1.3-.3-1.7-.9-.5-.8-.4-1.8.3-2.5l16.8-16.7c.8-.8,2.1-.8,2.8,0s.8,2,0,2.8l-10.6,10.5,32.3-11.2-20.1-12.2c-.9-.6-1.2-1.8-.7-2.7l9.8-16.6-31,4c-1.1.1-2.1-.6-2.2-1.7s.6-2.1,1.7-2.2l35-4.5c.8-.1,1.5.2,1.9.9s.4,1.5,0,2.1l-10.8,18.5,22.1,13.4c.7.4,1,1.2.9,1.9,0,.8-.6,1.4-1.3,1.7l-44.6,15.5c-.2,0-.4.1-.7.1h0Z"/>
    <path class="st0" d="M28.9,95.5c-.9,0-1.6-.6-1.9-1.4-.3-1.1.3-2.2,1.3-2.5l120.5-37.1-22.9-14.7c-.9-.6-1.2-1.8-.6-2.7l13.7-23L18,31.1c-1.1.1-2.1-.6-2.3-1.7-.1-1.1.6-2.1,1.7-2.3l125-17.6c.8-.1,1.5.2,1.9.9.4.6.4,1.5,0,2.1l-14.8,25,24.9,16c.6.4,1,1.2.9,2s-.6,1.4-1.4,1.6L29.5,95.4c-.2,0-.4,0-.6,0Z"/>
    <path class="st0" d="M60.2,63.4h0c-1.5.2-2.3.3-2.4.4-.8,0-1.5-.3-2.2-1-.4-.5-1.7-2-4-4.7,0,0-.2-.2-.3-.3-2-1.8-3.8-1.5-5.4.7-.4.6-.8,1.2-1,1.8-.6,1.2-.6,2.5-.2,3.9.2.5.2.7.2.7,0,.3.1.5.1.7,0,.2,0,.3-.1.5s-.2.2-.4.3-.4.2-.6.2c-1.3.3-2.4.5-3.5.6-.5,0-.9,0-1.1-.2-.2-.2-.4-.6-.4-1.2,0-1.3-.2-2.3-.3-3-1.1-6.1-2-10.6-2.6-13.6-.2-1.1-.7-2.8-1.4-5.3,0-.3-.1-.6-.2-.8s0-.4,0-.5c0-.2.2-.3.4-.3.2,0,.4-.2.8-.2,1.3-.3,2.3-.5,3.1-.6.7-.1,1.2,0,1.4.2.2.2.4.7.5,1.5.2,1.8.5,3.3.9,4.5.3,1.1.9,1.7,1.8,1.8s1.6-.2,2.4-1.1c.6-.7,1.2-1.5,1.9-2.6.6-1,1.7-2.8,3.2-5.4.5-.8,1.2-1.3,2-1.5,1-.2,2.5-.5,4.4-.8.3,0,.5,0,.8,0,.7.1.9.5.6,1.2,0,.2-.2.4-.5.8-.3.4-.7,1-1.2,1.8-.5.8-1,1.5-1.4,2.1-.4.6-.8,1.2-1.2,1.8,0,.2-.2.4-.3.6-.1.2-.3.5-.4.7-.1.2-.2.4-.4.6-.3.5-.5,1.1-.6,1.7,0,.6,0,1.2.2,1.7s.5,1,.9,1.4c2.3,2.4,4.4,4.7,6.5,6.9.2.2.5.5,1,1,.5.5.8.8,1.1,1,.4.4.6.8.6,1.2,0,0,0,.2,0,.2,0,0,0,.1-.1.2,0,0-.1,0-.2.1-.1,0-.2,0-.2,0,0,0-.1,0-.3,0-.1,0-.2,0-.2,0,0,0-.6.1-1.5.3h0Z"/>
    <path class="st0" d="M67.8,35.5c1.9-1,3.4-1.6,4.6-1.8,3.1-.5,5.5-.6,7.3-.1.2,0,.3,0,.5,0,.2,0,.3,0,.5,0h1.1c.6,0,1.1,0,1.3.3s.4.6.6,1.2c.2.8.3,1.4.4,2,.2,1.7-.5,2.3-2.1,2-.5-.1-1.3-.4-2.6-.8-1.5-.5-3.2-.7-5-.5-1.2,0-2.3.5-3.4,1.4-.7.6-1,1.3-1,2.3s.4,1.7,1.1,2.3c.8.6,1.7.9,2.6,1,.4,0,1.1,0,2.1,0s1.7,0,2.2,0c2.1,0,3.6.2,4.3.3,2.1.5,3.6,1.4,4.5,2.9.9,1.5,1.2,3.1.8,5-.5,2.3-1.8,4.1-4,5.4-3.3,2-7.2,2.9-11.7,2.6-1.3,0-2.9-.2-4.6-.2-.6,0-1-.1-1.2-.3-.2-.2-.4-.5-.5-1-.3-1-.5-2-.6-3-.2-1.3.4-1.8,1.8-1.5.5.1,1.2.3,2.3.6,1.1.3,1.9.5,2.5.7,1.9.5,3.9.4,6.2-.2.9-.3,1.7-.8,2.3-1.5.6-.8.8-1.6.6-2.5-.2-.9-.7-1.6-1.5-2-.9-.5-2-.7-3.2-.7-2.7,0-4.5.1-5.6,0-1.2,0-2.6-.4-3.9-1-1.1-.5-1.9-1.2-2.5-2.2-.6-1-.9-2-1-3s0-2,.5-3c.8-2.1,2.3-3.7,4.4-4.8h0Z"/>
    <path class="st0" d="M99.3,30.1c5.9-1.1,9.2-1.7,9.7-1.8.9-.2,1.5-.2,1.9-.1.4,0,.8.3,1,.7.2.4.4,1,.6,1.9,0,.6.2,1.1.2,1.4,0,.6,0,1-.3,1.2-.2.2-.6.4-1.2.5-1.7.2-3,.4-4.1.6-.2,0-.4,0-.7.1-1.7.4-2.6,1.5-2.7,3.2,0,.9,0,1.8.2,2.6.6,3.4,1.2,6.5,1.7,9.1.2.6.5,1.8,1,3.4.2.6.2,1,.1,1.3-.1.3-.4.5-1,.6-.9.2-2.2.4-4,.6-.5,0-.8-.3-1-1.1-.8-5.5-1.3-8.7-1.5-9.6-.2-1.4-.7-3.3-1.4-5.7-.2-.5-.4-1-.7-1.3-.3-.3-.7-.6-1.1-.8-.4-.2-.9-.3-1.4-.3-.6,0-1.7.2-3.3.6-.3,0-.7.2-1.2.3-.5.2-.8.3-1,.3-.4.1-.8,0-1,0-.2-.1-.4-.4-.5-.9-.2-.7-.3-1.5-.4-2.2,0-.5,0-1,0-1.3,0-.3.3-.6.6-.8s.7-.3,1.2-.5c.6-.1,3.2-.6,7.9-1.5,0,0,.8-.2,2.3-.4h0Z"/>
    <path class="st0" d="M135.8,75.3c-.9,0-1.8-.7-2-1.7l-1.8-10.1c-.2-1.1.5-2.1,1.6-2.3,1.1-.2,2.1.5,2.3,1.6l1.8,10.1c.2,1.1-.5,2.1-1.6,2.3-.1,0-.2,0-.3,0Z"/>
    <path class="st0" d="M28.4,145.9c-.4,0-.8-.1-1.1-.4-.5-.3-.8-.8-.8-1.3L3.7,16.3c-.2-1.1.5-2.1,1.6-2.3l2.3-.5c.2,0,.4,0,.6,0,.5,0,1,0,1.4,0,.5-.1.9-.3,1.4-.5.2-.1.4-.2.6-.2l2.4-.5c.5-.1,1.1,0,1.5.3.5.3.8.8.8,1.3l22.7,127.9c.2,1.1-.5,2.1-1.6,2.3l-8.8,1.8c-.1,0-.3,0-.4,0h0ZM8,17.5l22,124,4.9-1L12.9,16.5h-.1c-.7.4-1.4.6-2.2.8-.8.2-1.6.2-2.3.1h-.2s0,0,0,0Z"/>
    <path class="st0" d="M8.8,17.5c-4.1,0-7.7-2.9-8.6-7C-.8,5.8,2.3,1.1,7,.2c4.7-1,9.4,2.1,10.3,6.8h0c.5,2.3,0,4.6-1.3,6.6-1.3,1.9-3.3,3.3-5.6,3.7-.6.1-1.2.2-1.7.2h0ZM8.8,4c-.3,0-.6,0-.9,0-2.6.5-4.2,3-3.7,5.6.2,1.2,1,2.3,2,3s2.3.9,3.6.7,2.3-1,3-2,.9-2.3.7-3.6h0c-.5-2.2-2.4-3.8-4.7-3.8h0Z"/>
  </g>
</svg>