<?xml version="1.0" encoding="UTF-8"?><svg id="Layer_2" xmlns="http://www.w3.org/2000/svg" viewBox="0 0 1151 359.93"><defs><style>.cls-1{fill:#fff;}</style></defs><g id="Layer_1-2"><path class="cls-1" d="M262.27,303.78c-4.39-12.21-13.06-17.08-27.78-15.72-7.7.7-15.39,3.01-23.03,6.87l-14.24-32.17c-.06-.24-.16-.46-.29-.66l-20.62-46.58c2.82-.58,5.71-1.26,8.7-2.09,14.53-4.05,22.01-9.95,28.78-15.93.87.65,1.75,1.31,2.61,1.97,4.72,3.61,9.6,7.33,15.57,9.38,3.65,1.22,7.71,1.92,11.76,1.92,7.32,0,14.58-2.32,19.18-8.14.04-.05.07-.1.1-.14,3.4-5.08,4.39-11.23,2.84-17.79-2.04-8.68-8.41-17.16-16.23-21.62-.03-.02-.07-.04-.1-.05-.44-.22-.91-.48-1.41-.76-1.96-1.07-4.39-2.4-6.83-2.65,2.97-11.91,1.89-24.5-3.53-35.25-4.92-10.1-13.26-18.82-24.16-25.22-6.88-3.86-14.66-6.98-23.17-9.31,10.77-5.07,20.29-12.85,27.24-22.49.46-.64.55-1.48.23-2.21-.32-.73-1-1.23-1.79-1.32-10.56-1.24-19.92,3.94-28.98,8.95-5.95,3.29-12.07,6.67-18.41,8.1l-.11-11.68s0-.03,0-.04c-.05-4.01-4.83-7.02-11.16-7.02s-11.16,3.05-11.16,7.09c0,.3.03.58.08.87l.09,10.07-1.65-.13c-8.12-4.21-12.11-15.09-8.54-23.54.32-.76.2-1.64-.33-2.28-.52-.64-1.36-.94-2.17-.78-8.32,1.63-15.06,9.24-15.67,17.7-.44,6.01,2.25,12.04,6.7,16.04-6.25-.05-12.61-1.6-19.24-3.21-9.4-2.29-19.12-4.66-28.79-2.42-2.06.48-5.06,1.38-7.25,3.68-.67.7-.81,1.76-.34,2.61.46.85,1.42,1.31,2.38,1.13,5.74-1.09,11.2,2.16,16.99,5.59,1.67.99,3.4,2.02,5.13,2.93-3.15,1.25-6.32,3.12-8.66,4.48-4.6,2.68-8.82,6-12.5,9.85-2.09,2.19-4.01,4.55-5.71,7.05-4.22,6.21-7.1,13.29-8.57,20.66-10.46,1.54-21.46,4.4-30.63,8.14C6.24,156.39-2.77,167.57.82,180.89c1.77,6.56,5.69,11.61,11.67,15.02,6.73,3.84,15.45,5.19,24.37,5.19,14.49,0,29.5-3.55,37.34-5.73l.49-.14c.09-.03.18-.07.26-.1,1.55,1.74,3.2,3.37,4.99,4.86,4.32,3.58,9.32,6.26,14.44,8.53,3.93,1.74,7.97,3.25,12.1,4.39l23.67,96.25c-6.16.44-13,1.62-20.58,3.83-2.75.88-6.17,1.98-9.48,3.37-7.77,3.26-12.64,7.15-15.35,12.32-3.84,8.06,1.45,17.49,8.78,21.23,6.56,3.45,17.05,5.2,28.23,5.2,16.69,0,34.92-3.89,43.85-11.8,4.64-3.93,7.36-8.73,7.65-13.4.19-.5.21-1.06.01-1.57,0-.03,0-.07,0-.1-.2-3.14-1.65-7.67-7.41-11.42l-.19-.13s-.07-.05-.11-.07c-2.73-1.65-6.03-3.25-9.92-4.57l-19.17-94.13c2.49.07,4.91.13,7.27.16l41.06,97.34c-5.7,6.92-7.98,14.22-6.1,20.4.97,3.2,3.32,6.95,8.69,9.69,2.1,2.12,5.59,3.21,10.37,3.21.16,0,.33-.02.5-.02.32.05.62.1.95.14.09.01.19.02.28.02.36,0,.7-.09,1-.25.95-.07,1.95-.18,2.98-.32,8.32-1.16,18.37-4.57,28.32-9.61,9.94-5.04,18.64-11.13,24.49-17.16,6.49-6.68,8.77-12.5,6.58-16.82-.16-.32-.36-.63-.56-.92ZM64.01,178.04c-1.14,3.48-4.87,4.22-8.12,4.49-10.3.86-22.19,1.63-31.93-2.54-2.75-1.18-4.91-3.56-3.85-6.73,1.11-3.34,6.66-5.91,9.32-7.64,4.42-2.87,8.82-4.41,14-5.18,5.23-.78,9.51-3.05,14.57-4.24,4.34-1.02,6.31,5.2,2.68,6.83.11.21.2.42.26.65,1.16,4.15,4.49,9.99,3.06,14.35Z"/><path d="M266.28,347.4h-57.92c7.45-1.67,15.76-4.79,23.43-8.68,9.95-5.04,18.65-11.14,24.5-17.17,6.51-6.7,8.79-12.54,6.59-16.88-.17-.33-.36-.64-.57-.93-4.4-12.22-13.09-17.1-27.83-15.74-7.69.7-15.37,3-23,6.85l-14.22-32.12c-.06-.25-.17-.48-.31-.69l-20.61-46.55c2.81-.57,5.67-1.25,8.65-2.08,14.51-4.04,21.99-9.93,28.74-15.89.88.65,1.75,1.31,2.62,1.98,4.72,3.61,9.6,7.34,15.58,9.39,3.65,1.22,7.72,1.93,11.77,1.93,7.34,0,14.61-2.32,19.22-8.16.04-.05.07-.1.11-.15,3.41-5.1,4.4-11.26,2.85-17.82-2.05-8.69-8.42-17.19-16.25-21.65-.03-.02-.07-.04-.11-.06-.44-.22-.91-.48-1.41-.76-1.95-1.07-4.36-2.38-6.79-2.64,2.96-11.91,1.87-24.49-3.55-35.22-4.93-10.11-13.28-18.84-24.18-25.24-6.85-3.84-14.59-6.95-23.06-9.28,10.73-5.07,20.21-12.83,27.14-22.45.47-.66.57-1.52.24-2.26-.33-.74-1.02-1.26-1.83-1.35-10.58-1.25-19.95,3.94-29.01,8.96-6.19,3.43-12.11,6.7-18.33,8.09l-.11-11.63s0-.03,0-.04c-.05-4.04-4.85-7.08-11.21-7.08s-11.21,3.07-11.21,7.14c0,.3.03.59.08.87l.09,10.01-1.58-.13c-8.09-4.2-12.06-15.05-8.51-23.47.33-.78.2-1.68-.33-2.33-.53-.66-1.38-.96-2.22-.8-8.34,1.64-15.09,9.27-15.71,17.74-.43,5.98,2.21,11.98,6.62,15.99-6.21-.07-12.52-1.61-19.1-3.21-9.41-2.29-19.13-4.66-28.81-2.42-2.07.48-5.08,1.39-7.28,3.69-.68.72-.83,1.8-.35,2.67.48.87,1.46,1.34,2.44,1.15,5.71-1.08,11.17,2.16,16.95,5.59,1.66.99,3.38,2,5.1,2.91-3.13,1.25-6.28,3.1-8.6,4.45-4.6,2.68-8.82,6-12.5,9.85-2.09,2.19-4.01,4.55-5.71,7.05-4.21,6.19-7.09,13.25-8.56,20.6-10.47,1.54-21.48,4.41-30.66,8.16C6.2,156.36-2.83,167.56.77,180.9c1.77,6.57,5.7,11.64,11.69,15.05,6.74,3.84,15.47,5.19,24.4,5.19,14.5,0,29.51-3.55,37.35-5.74l.49-.14c.1-.03.19-.07.28-.11,1.54,1.72,3.18,3.34,4.96,4.82,4.32,3.58,9.31,6.26,14.44,8.53,3.91,1.73,7.93,3.23,12.05,4.37l23.66,96.22c-6.15.44-12.97,1.63-20.53,3.83-2.75.88-6.17,1.98-9.48,3.37-7.78,3.26-12.66,7.16-15.38,12.34-3.16,6.62-.15,14.17,5.07,18.75h-21.99c-1.26,0-2.29,1.02-2.29,2.29s1.02,2.29,2.29,2.29h30.6c6.35,2.11,14.64,3.17,23.37,3.17s18.04-1.1,26.11-3.28c.21.06.43.11.66.11h117.76c1.26,0,2.29-1.02,2.29-2.29s-1.02-2.29-2.29-2.29ZM198.39,344.16c-3.19-.5-5.96-1.3-8.24-2.37-.04-.06-.08-.12-.12-.18-1.16-2.3,1.05-6.75,5.78-11.62,1.02-1.05,2.17-2.1,3.37-3.16l13.07,14.88c-5.48,1.62-10.19,2.38-13.87,2.45ZM216.99,340.16l-14.27-16.24c2.68-2.07,5.66-4.09,8.87-6.03l15.75,17.93c-3.63,1.74-7.1,3.18-10.35,4.35ZM251.04,304.18c3.55,0,6.04.68,7.23,1.87.18.55.37,1.1.53,1.69.06.23.17.43.3.62-.1,2.2-1.84,5.31-4.88,8.71l-10.65-12.12c2.83-.52,5.35-.77,7.48-.77ZM238.52,306.1c.07.1.13.21.22.3l12.24,13.93c-2.02,1.87-4.33,3.73-6.85,5.56l-14.75-16.79c3.25-1.26,6.31-2.26,9.14-3.01ZM225.06,311.12l15.29,17.4c-2.74,1.79-5.69,3.52-8.79,5.16l-15.93-18.13c1.14-.63,2.3-1.24,3.48-1.84,1.99-1.01,3.93-1.92,5.83-2.75.04.06.07.11.12.17ZM221.36,295.59c.84,2.77,2.07,7.6,1.76,11.17-2.05.89-4.08,1.85-6.07,2.86-9.95,5.04-18.65,11.14-24.51,17.17-4.16,4.28-6.58,8.2-7.22,11.61-1.08-1.16-1.86-2.47-2.3-3.9-1.84-6.08,2.14-14.29,10.43-21.46,9.22-8.31,18.56-14.14,27.91-17.45ZM207.4,296.93s.05.07.06.1c-5.73,3.32-11.42,7.5-17.05,12.57-.8.69-1.55,1.4-2.28,2.11l-7.11-16.86c5.87-5.26,13.48-8.63,21.27-9.43l5.1,11.51ZM198.03,275.77c-7.73.84-15.26,4.19-21.08,9.4l-4.66-11.04c5.31-5.04,14.3-7.82,21.28-8.44l4.47,10.09ZM191.62,261.28c-7.14.88-15.45,3.63-21.2,8.4l-21.75-51.58c7.81-.03,15.24-.45,23.07-1.73l19.89,44.92ZM245.94,166.25c.53.29,1.03.56,1.5.8,6.65,3.81,12.28,11.32,14.01,18.7.86,3.67,1.19,9.11-2.15,14.15-5.8,7.24-17.18,7.56-25.88,4.66-5.26-1.8-9.63-5.15-14.27-8.69-.64-.49-1.28-.96-1.91-1.44.27-.24.53-.47.8-.71.79-.7,1.6-1.33,2.2-1.96,1.84-1.55,3.6-3.17,5.27-4.87,1.09.64,2.19,1.39,3.35,2.17,3.73,2.52,7.93,5.35,12.89,5.35.46,0,.93-.02,1.4-.07.04,0,.08-.01.12-.02,3.64-.59,6.35-3.62,6.44-7.27-.05-7.1-7.14-10.89-11.41-13.18-.59-.3-1.52-.79-1.97-1.29,1.46-2.7,2.66-5.5,3.64-8.35,1.46-.42,4.14,1.04,5.97,2.04ZM228.67,183.46c1.36-1.56,2.65-3.17,3.88-4.84.49-.68.94-1.38,1.4-2.08.71.54,1.49.98,2.24,1.37,4.52,2.42,8.93,5.11,8.96,9.08-.04,1.34-1.13,2.53-2.55,2.79-3.89.39-7.43-2-11.18-4.52-.9-.61-1.82-1.22-2.75-1.8ZM157.45,76.36c2.55,0,4.85-.5,6.69-1.34l.06,6.47c-.1,0-.21.02-.31.02l-12.9-1.03-.05-5.37c1.81.79,4.04,1.25,6.51,1.25ZM150.9,92.14v-.58c.01-.82.04-1.65.07-2.47.04-1.08.08-2.17.07-3.25v-.76s12.63,1.01,12.63,1.01c.09,0,.19,0,.28,0,.1,0,.2-.02.29-.02l.06,6.26-.03,1.96c0,.74-2.33,2.56-6.64,2.56-2.41,0-5.38-.56-6.45-2.12-.32-.47-.3-1.69-.28-2.59ZM90.86,90.66c-3.32-1.97-6.71-3.99-10.26-5.22,7.72-1.03,15.6.89,23.9,2.91,9.04,2.2,18.38,4.48,27.73,2.69,1.02-.19,1.77-1.04,1.85-2.08.08-1.03-.55-1.99-1.52-2.33-6.14-2.17-10.41-8.69-9.94-15.18.37-5.12,3.66-9.83,8.17-12.21-1.68,9.77,3.42,20.66,12.41,25.04.26.12.53.2.82.22l2.44.2v1.17c.02,1.01-.02,2.03-.05,3.04-.03.87-.06,1.74-.07,2.61v.53c-.04,1.51-.08,3.59,1.08,5.27,2.55,3.71,8,4.11,10.22,4.11,6.39,0,11.21-3.07,11.21-7.1l.03-1.99-.06-6.85c7.28-1.43,13.98-5.14,20.51-8.75,7.41-4.1,14.48-8.01,21.95-8.52-9.37,11.24-22.61,19.28-36.92,22.32-1.12.24-1.89,1.27-1.81,2.41.09,1.14,1.01,2.05,2.15,2.11,10.01.57,21.33,1.77,28.88,8.74,1.97,1.82,3.62,3.98,5.36,6.26.86,1.12,1.74,2.29,2.68,3.41,1.87,2.25,3.91,4.33,6.01,6.32-3.12-1.16-6.19-3.15-9.35-5.21-2.16-1.41-4.4-2.86-6.7-4.06-9.12-4.77-19.76-5.55-30.01-5.55-.5,0-1,0-1.5,0-5.33.04-10.96.24-16.17,2.22-2.86,1.09-5.43,2.65-7.92,4.17-.68.41-1.36.82-2.04,1.23-3.13,1.84-7.29,4.02-11.76,4.6-2.3.29-4.55.11-6.53-.51,2.91-.7,5.92-1.43,8.74-2.85,5.02-2.52,9.36-8.11,7.93-13.92-.1-.42-.32-.79-.6-1.07-.48-.64-1.28-1.01-2.14-.89-13,1.77-29.7,2.87-43.65-4.38-1.67-.87-3.32-1.85-5.07-2.89ZM14.73,191.98c-4.96-2.83-8.08-6.84-9.54-12.27-2.9-10.76,5.22-20.13,24.14-27.86,14.26-5.83,33.1-9.45,46.89-9.03,1.58.05,3.66.15,5.69.51.62.11,2.13.61,2.81,2.91.24.79.1,1.64-.37,2.33-.44.64-1.09,1.03-1.78,1.09-11.03.83-21.73,2.6-31.78,5.28-2.05.55-4.18,1.05-6.24,1.53-6.72,1.58-13.66,3.21-19.89,6.78-5.64,3.23-8.57,8.21-7.65,12.99.95,4.91,5.7,8.43,12.71,9.41,13.45,1.89,30.22-.8,35.45-2.77.35-.13.65-.35.88-.61.33.6.66,1.21,1.01,1.81,1.46,2.5,3.05,4.94,4.78,7.26-12.77,3.45-41.4,9.62-57.11.66ZM64.07,178.46c-.17.02-.34.06-.51.12-4.71,1.78-20.69,4.28-33.19,2.52-4.99-.7-8.3-2.85-8.85-5.74-.54-2.8,1.54-5.92,5.43-8.15,5.65-3.24,12.26-4.79,18.66-6.29,2.09-.49,4.26-1,6.37-1.56,1.85-.49,3.73-.94,5.63-1.37,0,.03,0,.06.01.09.97,7.1,3.3,13.95,6.46,20.39ZM68.72,169.66c-1.78-4.25-2.92-8.69-3.41-13.24,5.73-1.01,11.61-1.76,17.6-2.21,2.08-.16,3.98-1.27,5.21-3.05,1.26-1.83,1.62-4.1.99-6.23-.98-3.3-3.38-5.58-6.41-6.11-2.32-.4-4.6-.52-6.34-.57-3-.09-6.23,0-9.59.26,4.17-15.7,15.48-29.4,30.6-36.88l.15-.08c.85-.42,1.71-.83,2.58-1.23,12.7,4.51,26.48,3.87,37.89,2.44-.31,2.86-2.89,5.6-5.65,6.98-2.38,1.2-5.03,1.83-7.84,2.51-1.79.43-3.65.88-5.47,1.49-.76.26-1.34.89-1.51,1.68-.17.79.08,1.61.67,2.16,3.54,3.32,8.98,4.87,14.57,4.15,5.3-.68,9.99-3.13,13.5-5.19.7-.41,1.4-.84,2.09-1.26,2.42-1.47,4.7-2.86,7.17-3.8,4.49-1.71,9.45-1.89,14.57-1.92,9.42-.07,20.24.27,29.36,5.03,2.11,1.1,4.16,2.43,6.33,3.84,5.3,3.44,10.77,6.99,17.14,6.99.64,0,1.3-.04,1.96-.11.9-.1,1.65-.73,1.92-1.59.27-.86,0-1.8-.67-2.4-3.81-3.36-7.75-6.84-11-10.76-.87-1.05-1.73-2.17-2.56-3.26-1.66-2.17-3.38-4.4-5.43-6.39,1.44.7,2.85,1.43,4.21,2.19,10.09,5.93,17.82,13.98,22.36,23.31,7.72,15.3,5.81,34.75-4.86,49.53-6.47,8.83-23.28,26.52-56.93,32.36-.39-.04-.79,0-1.17.17-.02,0-.04.02-.06.03-9.37,1.53-20.01,2.14-32.08,1.41-2.65-.18-5.57-.47-8.67-.89l-22.29-5.25c-15.62-5.51-31.14-15.63-38.92-34.1ZM111.44,214.07s.07.01.1.02c5.8,1.12,12.65,3.44,18.55,3.63.58.02,1.15.04,1.72.05l11.37,55.84c-5.76-1.21-11.55-.35-16.51,2.41l-15.24-61.96ZM129.88,289.07l-2.06-8.39c4.68-3.04,10.47-3.84,16.11-2.17.09.03.17.03.26.05l1.56,7.67c-5.59-1.14-11.21-.13-15.87,2.84ZM147.83,296.44l2.88,14.14c-4.61-1.1-9.91-1.76-15.95-1.68l-2.39-9.74c4.57-2.83,10.03-3.79,15.46-2.72ZM126.27,338.53c-3.29-8.79-10.3-16.17-18.84-20.08,1.23-.42,2.41-.8,3.47-1.14,8.14-2.37,15.36-3.5,21.74-3.78.11.02.23.03.35.03.16,0,.32-.02.48-.06.75-.02,1.5-.04,2.23-.04,12.5,0,21.47,3.39,27.47,6.99l.18.12c3.17,2.06,4.95,4.53,5.33,7.34-12.76,7.33-27.71,11.06-42.4,10.62ZM165.64,343.34c4.65-3.93,7.37-8.74,7.67-13.43.19-.51.21-1.07.01-1.6,0-.03,0-.06,0-.09-.2-3.15-1.66-7.7-7.44-11.46l-.19-.13s-.07-.05-.11-.07c-2.73-1.64-6.02-3.25-9.91-4.56l-.82-4.04s0,0,0,0l-18.33-90.04c2.45.07,4.83.12,7.17.16l41.05,97.34c-5.7,6.93-7.97,14.23-6.09,20.42.97,3.22,3.34,6.98,8.72,9.73.76.76,1.7,1.36,2.77,1.84h-30.5c2.28-1.21,4.31-2.56,6-4.06Z"/><path d="M56.84,347.4h-10.91c-1.26,0-2.29,1.02-2.29,2.29s1.02,2.29,2.29,2.29h10.91c1.26,0,2.29-1.02,2.29-2.29s-1.02-2.29-2.29-2.29Z"/><path d="M180.83,161.12c4.82,1.64,11.13-4.07,14.09-12.75,2.96-8.68,1.45-17.05-3.38-18.7-4.52-1.54-10.33,3.37-13.48,11.13,1.32-.24,2.72-.04,3.96.69,2.75,1.63,3.65,5.17,2.03,7.91-1.63,2.75-5.17,3.65-7.91,2.03-.06-.04-.11-.09-.18-.13.06,4.91,1.78,8.75,4.88,9.81Z"/><path d="M148.52,157.53c4.47,2.44,11.66-2.1,16.06-10.15,4.4-8.05,4.34-16.56-.13-19-4.19-2.29-10.76,1.55-15.19,8.66,1.34,0,2.68.42,3.78,1.36,2.43,2.07,2.72,5.72.64,8.14-2.07,2.43-5.72,2.72-8.14.65-.06-.05-.1-.11-.15-.16-.78,4.85.26,8.93,3.13,10.5Z"/><path d="M147.14,182.06c5.23,1.76,10.71,2.63,16.05,2.63,7.24,0,14.22-1.61,19.99-4.73.39,1.8,1.02,3.27,2.33,5.35.44.69,1.18,1.07,1.94,1.07.42,0,.84-.11,1.22-.35,1.07-.68,1.39-2.09.71-3.16-1.56-2.47-1.81-3.5-2.1-6.48-.15-1.56.14-3.19.83-4.6.55-1.14.08-2.51-1.05-3.06-1.13-.55-2.5-.08-3.06,1.05-.84,1.73-1.27,3.61-1.31,5.52-.35.02-.7.11-1.02.29-8.98,5.17-21.64,5.99-33.06,2.14-8.5-2.87-14.94-8.03-17.79-14.23,1.54-2.37,2.45-5.03,3.16-7.13.41-1.2-.24-2.5-1.43-2.9-1.19-.41-2.5.24-2.9,1.43-1.07,3.15-2.11,5.92-4.02,7.8-1.11,1.1-2.57,1.9-4.09,2.25-1.23.28-2,1.51-1.71,2.75.24,1.06,1.19,1.77,2.23,1.77.17,0,.34-.02.52-.06,1.8-.42,3.48-1.21,4.95-2.31,3.68,6.64,10.55,11.9,19.63,14.97Z"/><path class="cls-1" d="M852.72,343.16h-13.47c3.1-4.36,6.3-12.01,2.69-22.84-3.57-10.72-14.51-16.88-32.47-18.34,2.24-14.46,2.84-27.83.3-33.44-.03-.06-.06-.12-.09-.18-4.21-7.55-13.21-12.15-22.43-11.45-4.76.36-9.38,2.08-13.68,5.05-6.58-14.78-20.91-36.59-48.45-37.88-28.78-1.34-38.28,4.83-56.2,18.43-2.24-7.27-5.56-14.47-10.39-20.87-4.75-6.3-9.46-11.66-14.16-16.13,7.82-1.11,21.21-5.39,28.34-21.27,8.73-19.44,8.38-41.63,7.54-49.99,4.49-.68,8.51-2.12,10.83-5.09,2.09-2.67,2.56-6.16,1.41-10.36-.33-1.2-.87-2.17-1.57-2.95,6.62-1.69,13.92-5.09,17.09-11.94,1.55-3.35,1.19-7.12-1.02-10.63-.47-.74-1.01-1.44-1.61-2.11,4.54-1.41,10.46-4.04,9.79-10.55-.44-4.24-3.16-7.48-7.76-9.45.26-1.21.26-2.51-.04-3.78-.63-2.74-2.48-5.04-5.2-6.49-4.98-2.65-9.35-3.73-19.41-2.29-5.98.85-13.13,3.75-15.27,9.3-.14.36-.26.76-.36,1.18-1.16-.08-2.24.05-3.22.29.56-8.65-3.6-19.57-10.01-24.63-4.78-3.77-10.22-4.01-15.31-.67-3.27,2.15-5.17,5.13-5.63,8.86-1.2,9.63,8.02,21.6,11.41,25.63-4.06,6.64-5.15,11.35-4.28,17.93.89,6.74,4.11,11.44,9.32,13.84-3.19,1.73-5.94,4.45-6.19,8.7-.22,3.84.86,7.08,3.22,9.62,2.55,2.76,6.5,4.57,11.74,5.43.29,5.58.6,24.96-7.84,38.83-7.52,12.37-19.58,12.52-32.35,12.69-3.33.04-6.76.1-10.13.36-5.86-2.07-11.73-4.35-15.14-6.52-16.8-10.7-31.54-20.92-45.05-31.23-3.68-2.81-7.34-5.78-10.88-8.65-9.72-7.89-19.77-16.04-31.43-21.86-4.24-2.11-9.87-4.57-15.92-4.81-.4-.02-.79,0-1.18.01-2.32-.48-17.33-2.84-29.16,14.18l-3.31,4.29c-1.7.64-3.35,1.49-4.91,2.54h0c-1.86-.8-10.84,9.46-13.14,12.11-.21.24-.37.43-.46.53-.71.81-1.39,1.68-2.02,2.59-1.9,2.72-3.4,5.8-4.29,8.92-.56,1.98-.98,3.96-1.27,5.95s-.43,3.99-.45,5.98c-.01,1.33.03,2.66.13,3.98.05.66.11,1.32.19,1.98.15,1.32.36,2.64.63,3.95.13.65.27,1.31.43,1.96.63,2.61,1.46,5.18,2.49,7.71,1.17,2.89,2.49,5.83,3.98,8.68,1.11,2.14,2.31,4.23,3.6,6.21.43.66.87,1.31,1.32,1.94.52.73,1.06,1.45,1.61,2.16.2.26.41.52.62.78.35.44.7.89,1.06,1.33.27.33.54.66.82.99.3.37.61.73.91,1.1.42.49.83.99,1.25,1.48.21.24.41.49.62.73.07.08.13.16.2.23-1.72,2.73-8.33,13.99-7.99,24.65-3.89-2.48-9.23-4.44-13.92-1.13-2.14,1.51-3.41,3.84-3.67,6.73-.35,3.92,1.14,8.41,3.13,12.32-9.27,6.98-38.16,30.57-40.19,54.63-.81,9.56.83,17.96,4.75,24.31,3.01,4.89,6.91,8.56,11.68,11.02h-19.54c-1.34,0-2.43,1.09-2.43,2.43s1.09,2.43,2.43,2.43h161.64c.35,0,.67-.08.96-.21,11.14,5.03,23.11,7.52,35.02,7.52,14.27,0,28.44-3.57,40.92-10.55.14.02.28.05.42.05h129.58c.29.28.64.49,1.06.6,6.59,1.72,13.88,2.59,21.82,2.59,5.86,0,12.07-.47,18.6-1.42.62-.09,1.18-.41,1.57-.91.53-.68,1.07-1.51,1.61-2.47,12.1.12,20.34.16,25.98.16,2.2,0,4.01,0,5.49-.02.17.04.34.06.53.06h24.17c1.34,0,2.43-1.09,2.43-2.43s-1.09-2.43-2.43-2.43ZM432.41,325.22c-7.95,2.26-15.47,4.4-21.18-1.46-5.13-5.27-3.46-13.18.27-18.3,2.92-4.01,6.49-7.26,10.26-10.7,1.05-.96,2.1-1.92,3.14-2.89,6.49-6.11,12.94-12.09,18.52-17.26,2.52,1.51,6.55,3.61,10.4,3.61,2.62,0,5.16-.98,7.08-3.79,1.98-2.9,2.35-6.62,1.68-10.07,4.27,1.72,10.2,3.11,16.32,1.4,4.51,8.99,8.95,18.05,13.16,27.2.22.48.45.97.67,1.45-4.08,2.63-8.41,5.29-11.37,7.04-6.49,3.83-13.84,8.18-21.15,12.11-9.95,5.36-18.73,9.09-26.84,11.38l-.96.27ZM442.6,347.76c2.01-.6,4.06-1.25,6.17-2,18.24-6.46,38.64-18.08,53.08-30.03.13.36.27.72.39,1.08,2.51,7.23,5.53,14.64,10.7,20.41,4.46,4.99,10.38,8.62,16.79,10.53h-87.13ZM750.56,314.98c.22,2.64.55,6.64-1.24,7.45-.32.15-.59.36-.81.61h-96.32c12.56-15.6,17.51-30.08,19.01-35.4.22-.79.44-1.75.64-2.84,1.03-4.09,1.52-8.34,1.19-12.34-.03-.03-.04-.07-.07-.11.03-1.67.01-3.41-.05-5.22l1.4-1.03c12.13-8.95,28.73-21.22,50.99-16.16,22.49,5.11,27.48,27.8,29.58,38.12,0,.13,0,.26.01.39-3.5,9.57-4.94,19.38-4.35,26.53Z"/><path class="cls-1" d="M371.05,347.76h-8.03c-1.34,0-2.43,1.09-2.43,2.43s1.09,2.43,2.43,2.43h8.03c1.34,0,2.43-1.09,2.43-2.43s-1.09-2.43-2.43-2.43Z"/><path d="M852.72,343.16h-13.41c3.1-4.38,6.28-12.04,2.68-22.85-3.58-10.74-14.53-16.91-32.51-18.38,2.23-14.44,2.83-27.79.29-33.39-.03-.06-.06-.12-.09-.18-4.21-7.55-13.21-12.15-22.43-11.45-4.74.36-9.35,2.07-13.64,5.02-6.59-14.79-20.93-36.61-48.49-37.9-28.8-1.34-38.3,4.83-56.22,18.43-2.24-7.25-5.56-14.43-10.37-20.82-4.74-6.28-9.43-11.62-14.11-16.09,7.84-1.12,21.21-5.42,28.34-21.29,8.72-19.42,8.39-41.56,7.55-49.97,4.48-.68,8.49-2.13,10.82-5.11,2.1-2.68,2.57-6.18,1.42-10.41-.32-1.18-.85-2.13-1.53-2.9,6.61-1.7,13.87-5.11,17.04-11.94,1.56-3.37,1.2-7.16-1.02-10.68-.45-.72-.98-1.4-1.56-2.06,4.54-1.42,10.42-4.07,9.75-10.58-.44-4.25-3.16-7.5-7.75-9.47.25-1.2.25-2.5-.05-3.76-.64-2.75-2.49-5.07-5.23-6.52-4.99-2.65-9.36-3.74-19.44-2.3-5.99.86-13.16,3.76-15.31,9.34-.13.35-.25.73-.35,1.14-1.12-.07-2.17.05-3.12.28.53-8.65-3.63-19.55-10.03-24.61-4.8-3.79-10.26-4.03-15.38-.67-3.29,2.16-5.19,5.15-5.66,8.9-1.2,9.63,7.98,21.58,11.4,25.65-4.05,6.64-5.13,11.35-4.27,17.94.88,6.72,4.08,11.42,9.25,13.84-3.16,1.74-5.88,4.46-6.12,8.69-.22,3.85.87,7.1,3.23,9.66,2.55,2.76,6.5,4.57,11.72,5.44.28,5.64.56,24.96-7.83,38.76-7.5,12.34-19.55,12.5-32.31,12.66-3.37.04-6.84.1-10.25.37-5.82-2.06-11.63-4.32-15.02-6.48-16.8-10.7-31.54-20.92-45.05-31.23-3.68-2.81-7.34-5.78-10.88-8.65-9.72-7.89-19.77-16.04-31.43-21.86-4.24-2.11-9.87-4.57-15.92-4.81-.4-.02-.79,0-1.18.01-2.33-.49-17.33-2.84-29.16,14.18l-3.25,4.22c-1.74.65-3.43,1.52-5.03,2.59-2.17-.62-12.49,11.47-13.54,12.66-2.84,3.26-5.12,7.34-6.31,11.51-3,10.53-1.95,21.42,2.15,31.52,2.34,5.78,5.29,11.77,8.91,16.83,2.18,3.05,4.64,5.91,7.08,8.8-1.72,2.73-8.33,13.99-7.99,24.65-3.89-2.48-9.23-4.44-13.92-1.13-2.14,1.51-3.41,3.84-3.67,6.73-.35,3.92,1.14,8.41,3.13,12.32-9.27,6.98-38.16,30.57-40.19,54.63-.81,9.56.83,17.96,4.75,24.31,3.01,4.89,6.91,8.56,11.68,11.02h-19.54c-1.34,0-2.43,1.09-2.43,2.43s1.09,2.43,2.43,2.43h161.64c.35,0,.68-.08.98-.21,11.13,5.03,23.11,7.51,35.01,7.51,14.27,0,28.43-3.56,40.92-10.55.14.02.28.04.43.04h129.58c.29.28.64.49,1.06.6,6.59,1.72,13.88,2.59,21.82,2.59.43,0,.87-.02,1.3-.03.05,0,.09.02.14.02.09,0,.18-.02.26-.03,5.36-.08,10.99-.53,16.9-1.38.62-.09,1.18-.41,1.57-.91.52-.66,1.04-1.48,1.57-2.41,12.05.11,20.28.16,25.92.16,2.45,0,4.4,0,5.97-.03.04,0,.09.01.13.01h24.17c1.34,0,2.43-1.09,2.43-2.43s-1.09-2.43-2.43-2.43ZM769.67,265.06c-1.29,1.18-2.55,2.48-3.77,3.9-3.01,3.53-5.56,7.55-7.68,11.78-2.05-7.92-5.95-18.62-14.35-26.43,2.84-4.74,7.37-8.4,12.59-10.2,6.27,6.8,10.51,14.67,13.2,20.94ZM724.89,228.88c11.68.55,20.78,5.24,27.79,11.49-5.15,2.28-9.59,6.1-12.61,10.86-3.78-2.68-8.28-4.82-13.69-6.04-23.74-5.4-41.06,6.74-53.84,16.16-.4-4.44-1.12-9.12-2.26-13.84,18.52-14.09,26.74-19.93,54.6-18.62ZM671.2,287.64c1.07-3.79,2.03-11.34,1.71-20.51l1.4-1.03c12.13-8.95,28.73-21.22,50.99-16.16,22.69,5.16,27.57,28.21,29.64,38.4-.14.37-.28.74-.41,1.12-.09.19-.15.39-.19.59-3.09,9.06-4.35,18.19-3.78,24.94.22,2.64.55,6.64-1.24,7.45-.32.15-.59.36-.81.61h-96.32c12.56-15.6,17.51-30.08,19.01-35.4ZM703.72,74.94c3.26.97,6.3,2.78,6.65,6.15.31,3.03-2.75,4.47-8.51,6.06-.33.09-.64.18-.94.26-2.94-1.78-6.35-2.86-9.65-2.9-.92-.01-1.87-.03-2.86-.06-4.78-.12-10.24-.24-14.34,1.19-.41-.54-.83-1.28-.9-2.13-.09-1.13.47-2.35,1.68-3.62,6.06-6.38,18.5-6.23,22.17-6.04,1.63.09,4.2.34,6.65,1.07,0,0,.02,0,.03,0ZM671.99,69.62c1.3-3.37,6.85-5.61,11.46-6.27,8.85-1.26,12.23-.47,16.46,1.78,1.89,1,2.55,2.36,2.77,3.32.1.41.11.82.08,1.22-1.67-.34-3.49-.58-5.46-.68-5-.27-16.83-.14-24.33,6.04-1.25-2.06-1.58-3.88-.99-5.41ZM649.98,125.39c-1.45-1.57-2.09-3.55-1.94-6.07.34-5.99,11.9-7.1,12.01-7.11,1.32-.1,2.31-1.24,2.24-2.57-.08-1.32-1.18-2.34-2.52-2.3-8.97.32-13.84-3.44-14.9-11.48-.78-5.9.28-9.69,4.51-16.21.6-.93.5-2.15-.25-2.97-3.5-3.82-12.36-15.44-11.39-23.17.29-2.3,1.43-4.07,3.5-5.43,3.37-2.21,6.53-2.07,9.69.42,6.14,4.85,9.98,17.34,7.46,24.29-.38,1.04,0,2.2.92,2.83.91.63,2.14.55,2.98-.17.11-.09,2.29-1.95,4.94-1.53.4,1.46,1.15,3.09,2.4,4.85-.99,1.65-1.43,3.37-1.29,5.13.14,1.77.85,3.21,1.61,4.31-.8.89-1.42,1.96-1.77,3.29-1.06,4.04.29,8.35,3.44,10.99,3.32,2.78,7.89,3.26,12.68,1.37,1.6.63,4.64,1.47,8.09.59,1.3-.33,2.09-1.66,1.76-2.96-.33-1.3-1.66-2.09-2.96-1.76-3.03.77-5.65-.64-5.66-.64-.69-.39-1.52-.43-2.23-.09-3.38,1.57-6.5,1.49-8.55-.23-1.71-1.43-2.44-3.79-1.85-6.02.99-3.78,8.99-3.58,15.41-3.42,1,.02,1.99.05,2.92.06,4.45.05,9.36,2.76,11.68,6.44.92,1.47,1.8,3.71.72,6.03-4.59,9.9-22.01,10.73-25.19,10.8h-.54c-1.33.02-2.41,1.1-2.41,2.44s1.07,2.42,2.41,2.44c.1,0,.42,0,.92,0,4.56-.03,8.38.15,9.03,2.52.74,2.7.56,4.7-.56,6.13-3.24,4.14-13.95,3.9-21.04,3.73l-1.38-.03c-7.07-.14-12.35-1.73-14.89-4.48ZM654.46,175.43c8.84-14.54,8.89-33.86,8.58-40.78.58.03,1.13.07,1.73.09l1.37.03c1.59.04,3.29.07,5.04.07,1.41,0,2.85-.03,4.29-.1.81,7.78,1.2,28.93-7.15,47.5-8.15,18.15-25.17,18.88-28.96,18.82-5.6-4.57-11.2-7.9-16.89-10.02-.57-.21-1.18-.43-1.8-.66,12.69-.22,25.47-1.25,33.8-14.96ZM428.39,245.91c.18-1.95,1.02-2.76,1.63-3.19,4.9-3.46,12.96,4.89,13.04,4.98.8.86,2.11,1.03,3.1.39.99-.64,1.38-1.89.93-2.98-3.49-8.36,2.23-20.68,5.31-25.93.78.97,1.56,1.95,2.3,2.95,3.78,5.13,7.33,10.43,10.53,15.94,3.31,5.7,5.62,11.77,8.59,17.6.95,1.87,1.89,3.74,2.84,5.61-8.89,1.86-17.54-4.21-17.63-4.28-.99-.71-2.36-.59-3.2.3-.84.89-.89,2.26-.12,3.21,2.26,2.79,3.24,8.16,1.18,11.18-1.88,2.75-5.67,2.1-12.31-2.09-3.55-2.24-6.37-4.45-8.63-6.75-3.39-3.46-8.02-11.77-7.56-16.93ZM462.59,264.36c4.27,1.72,10.21,3.11,16.33,1.4,4.51,8.99,8.95,18.05,13.16,27.2.22.48.45.97.67,1.45-4.08,2.63-8.41,5.29-11.37,7.04-6.49,3.83-13.84,8.18-21.15,12.11-9.95,5.36-18.73,9.09-26.84,11.38l-.96.27c-7.95,2.26-15.47,4.4-21.18-1.46-5.13-5.27-3.46-13.18.27-18.3,2.92-4.01,6.49-7.26,10.26-10.7,1.05-.96,2.1-1.92,3.14-2.89,6.49-6.1,12.94-12.09,18.52-17.26,2.52,1.51,6.55,3.61,10.4,3.61,2.62,0,5.16-.98,7.08-3.79,1.98-2.9,2.35-6.62,1.68-10.07ZM395.36,334.18c-4.25-6.89-4.54-15.41-4.04-21.34,1.84-21.73,29.39-44.36,37.82-50.81,1.18,1.77,2.36,3.25,3.32,4.23,1.89,1.93,4.11,3.78,6.74,5.62-5.37,4.98-11.49,10.66-17.64,16.45-1.02.96-2.05,1.9-3.08,2.84-3.79,3.46-7.71,7.03-10.92,11.44-4.89,6.72-6.92,17.27.18,24.56,7.73,7.94,17.44,5.18,25.99,2.74l.96-.27c8.46-2.39,17.56-6.24,27.83-11.78,7.39-3.98,14.79-8.35,21.31-12.21,4.55-2.69,15.62-9.52,20.8-13.48.64-.48,1.3-.63,2-.47,1.27.31,2.56,1.56,3.37,3.27,1.6,3.36.32,5.54-.3,6.33-1.8,2.27-3.88,4.31-5.49,5.84-13.93,13.19-36.87,26.87-57.09,34.03-25.85,9.15-43.27,6.8-51.78-6.99ZM442.6,347.76c2.01-.6,4.06-1.25,6.17-2,18.24-6.46,38.64-18.08,53.08-30.03.13.36.27.72.39,1.08,2.51,7.23,5.53,14.64,10.7,20.41,4.45,4.98,10.36,8.61,16.76,10.53h-87.11ZM545.53,346.83c-13.89-6.86-24.98-20.06-33.88-40.28.64-.71,1.28-1.44,1.89-2.22,2.47-3.12,2.8-7.4.88-11.44-1.45-3.05-3.93-5.26-6.63-5.91-1.18-.28-2.37-.26-3.51.05-.74-2.16-1.49-4.38-2.23-6.68-9.5-29.5-51.99-86.13-54.65-89.67-6.73-11.01-8.41-24.91-4.49-37.2,1.91-6,4.96-10.88,8.8-14.14,4.33-3.67,10.03-5.31,14.86-4.28.84.18,1.67-.1,2.23-.67.28-.2.52-.46.69-.78,5.43-9.76,10.85-16.16,19.75-15.83,5.12.2,10.14,2.4,13.94,4.3,11.19,5.58,20.59,13.2,30.54,21.28,3.57,2.9,7.26,5.89,11,8.74,13.62,10.4,28.46,20.69,45.39,31.47,5.21,3.32,14.54,6.5,22.78,9.3,2.89.98,5.62,1.91,7.88,2.75,5.39,2,10.74,5.23,16.11,9.71.03.02.05.05.08.07,5.83,4.87,11.69,11.23,17.68,19.16,16.07,21.31,14.29,53.18,11.87,61.76-2.06,7.31-10.95,32.77-38.79,53.52-23.34,17.39-55.6,20.14-82.2,7ZM708.1,344.56h-78.62c.39-.28.78-.54,1.16-.82,6.84-5.1,12.58-10.48,17.4-15.83h59.61c2.15,5.26,2.31,11.28.46,16.65ZM751.06,344.56h-37.85c1.51-5.43,1.36-11.3-.4-16.65h37.22c1.54,1.45,5.65,6.54,1.03,16.65ZM774.97,347.73c-6.92.01-13.3-.67-19.11-2.03,4.79-11.3.52-18.06-2.03-20.81,2.18-2.83,1.83-7.19,1.57-10.31-.2-2.4-.14-5.13.16-8.05l14.42,11.43c.45.35.98.53,1.51.53.72,0,1.43-.32,1.91-.92.84-1.05.66-2.58-.4-3.42l-15.87-12.58c-.24-.19-.5-.32-.77-.4.41-2.14.94-4.33,1.59-6.54l13.12,10.4c.45.35.98.53,1.51.53.72,0,1.43-.32,1.91-.92.84-1.05.66-2.58-.4-3.42l-14.51-11.5c.03-.07.05-.14.08-.21.03-.07.06-.14.08-.22.71-1.87,1.51-3.72,2.4-5.54.03.02.05.04.07.06,8.1,5.33,14.82,8.51,24.01,8.51h.23c-.07,8.97-1.08,40.06-11.5,55.42ZM799.05,343.03c-.06,0-.12,0-.17,0,3.74-8.86,7.41-22.73,9.81-36.31.72.05,1.51.11,2.37.19-1.02,17.48-8.3,30.52-12.01,36.12Z"/><path d="M587.49,213.28c-30.24,0-54.85,24.61-54.85,54.85s24.61,54.85,54.85,54.85,54.85-24.61,54.85-54.85-24.61-54.85-54.85-54.85ZM587.49,318.11c-27.56,0-49.98-22.42-49.98-49.98s22.42-49.98,49.98-49.98,49.98,22.42,49.98,49.98-22.42,49.98-49.98,49.98Z"/><path d="M622.85,246.28c-1.9-3.06-4.19-5.87-6.81-8.35-7.75-7.33-17.89-11.36-28.55-11.36-9.74,0-19.22,3.44-26.68,9.69-1.03.86-1.17,2.4-.3,3.43s2.4,1.17,3.43.3c6.58-5.52,14.95-8.55,23.55-8.55,9.42,0,18.37,3.56,25.21,10.03,2.32,2.19,4.34,4.67,6.01,7.38.46.74,1.26,1.15,2.07,1.15.44,0,.88-.12,1.28-.36,1.14-.71,1.5-2.21.79-3.35Z"/><path d="M627.02,255.27c-.41-1.28-1.79-1.98-3.07-1.56-1.28.42-1.98,1.79-1.56,3.07,1.19,3.66,1.79,7.48,1.79,11.36,0,1.34,1.09,2.43,2.43,2.43s2.43-1.09,2.43-2.43c0-4.39-.68-8.72-2.03-12.86Z"/><path d="M506.64,199.08c5.02-1.05,7.72-8.78,6.38-17.69-1.09.94-2.49,1.53-4.04,1.53-3.43,0-6.21-2.78-6.21-6.21s2.78-6.21,6.21-6.21c.08,0,.16.02.24.02-2.74-4.52-6.44-7.13-9.89-6.41-5.36,1.12-8.07,9.86-6.05,19.52,2.02,9.66,8.01,16.58,13.37,15.45Z"/><path d="M539.12,176.73c-1.09.94-2.49,1.53-4.04,1.53-3.43,0-6.21-2.78-6.21-6.21s2.78-6.21,6.21-6.21c.08,0,.16.02.24.02-2.74-4.52-6.44-7.13-9.89-6.41-5.36,1.12-8.07,9.86-6.05,19.52,2.02,9.66,8.01,16.58,13.37,15.45,5.02-1.05,7.72-8.78,6.38-17.69Z"/><path d="M527.38,201.56c-1.29-.38-2.64.37-3.01,1.67-1.96,6.82-8.29,11.58-15.39,11.58-8.77,0-14.55-4.55-15.87-12.48-.03-.34-.07-.68-.1-1-.02-.24-.09-.45-.18-.66-.48-2.6-1.05-4.12-2.3-4.85-1.16-.68-2.65-.29-3.33.87-.57.98-.39,2.19.38,2.95.13.33.36,1.14.67,3.13l.02.12c.3,3.14.4,5.95-.52,8.39-.6,1.58-1.66,3.02-3,4.05-1.06.82-1.26,2.35-.44,3.42.48.62,1.2.94,1.93.94.52,0,1.05-.17,1.49-.51,2.07-1.6,3.65-3.74,4.57-6.18.06-.15.09-.3.14-.45,3.7,4.53,9.47,7.13,16.54,7.13,9.26,0,17.52-6.21,20.07-15.11.37-1.29-.37-2.64-1.67-3.01Z"/><path d="M371.05,347.76h-8.03c-1.34,0-2.43,1.09-2.43,2.43s1.09,2.43,2.43,2.43h8.03c1.34,0,2.43-1.09,2.43-2.43s-1.09-2.43-2.43-2.43Z"/><path class="cls-1" d="M1148.56,342.77h-34.9c3.52-2.9,5.86-7.43,6.14-12.31.32-5.52-1.89-11.1-6.41-16.15-7.99-8.94-20.78-14.07-29.28-14.53-.63-.03-.93-.09-1.05-.12-.06-.1-.16-.34-.31-.81.08-.12.17-.22.24-.36.87-1.88,1.25-2.76,1.44-3.21.03-.07.05-.12.07-.17.26-.32.79-.98,2.16-3.05,1.15-1.73,2.51-3.64,3.95-5.67,9.71-13.69,24.38-34.38,9.95-49.74-9.62-10.24-26.51-12.19-42.14-12.56-1.14-7.47-2.21-15.05-2.71-22.39l22.5,11.47,18.38,11.06c4.59,1.75,8.87.41,11.57-3.7l.04-.35,5.42-14.25,2.92-8.09c1.14-3.16-.48-6.71-3.55-7.89l-7.53-3.13s-.02,0-.03,0c-.02,0-.04-.02-.06-.03-11.94-4.43-41.35-13.86-48.37-16.1.33-2.13.69-4.26,1.12-6.4.13-.75.27-1.51.42-2.27,7.01.74,13.85,1.12,20.44,1.12,3.94,0,7.8-.13,11.55-.4,10.13-.72,17.96-4.49,23.28-11.22,13.14-16.62,8.03-47.92,4.65-68.63-.22-1.32-.42-2.59-.62-3.83-.05-.3-.15-.57-.3-.82,2.23-1.19,3.8-3.36,3.99-5.9.15-1.96-.52-3.86-1.89-5.35-.54-.59-1.17-1.08-1.86-1.48,3.21-2.03,5.67-5.04,6.43-9.28,1.01-5.72.55-9.94-1.4-12.58-2.03-2.7-5.11-1.5-6.59-.92-.13.05-.28.11-.43.17-.11-.37-.21-.82-.27-1.12-.33-1.51-.78-3.59-2.7-4.75-.21-.12-.43-.22-.66-.27-1.73-.43-3.16.28-4.28,1,.04-.65.1-1.33.15-1.93.36-4.36.76-9.31-1.61-11.93-.94-1.04-2.21-1.6-3.68-1.63-.06,0-.11,0-.17,0-6.34,0-7.36,6.18-8.04,10.28-.21,1.31-.55,3.33-1.02,4.26-.27-1.36-.47-3.33-.6-4.57-.12-1.22-.24-2.38-.4-3.35-.43-2.61-.68-3.24-1.21-4.41-.23-.5-.51-1.12-.92-2.26-1-2.86-3.01-4.62-5.2-4.48-1.01.05-3.48.59-4.52,4.71,0,0,0,.01,0,.02l-.04.16c-.04.14-.06.29-.06.44-.65,12.78,1.67,30.97,10.36,40.16.81.86,1.67,1.61,2.56,2.28-1.95,1.24-3.3,3.28-3.48,5.62-.15,1.96.52,3.86,1.89,5.35,1.5,1.64,3.69,2.59,6,2.61h1.33c3.39,17.87,5.47,33.88-.84,48.24-1.9,4.33-4.32,7.49-7.01,9.14-2.32,1.43-5.09,1.89-7.97,2.28-6.72.9-8.09.75-11.1.42-1.67-.18-3.96-.44-7.8-.59.08-.29.17-.59.25-.88,6.88-23.96,14-48.74,3.62-71.19-3.99-8.13-10.18-14.87-17.89-19.78,3.63-3.1,5.3-6.2,4.92-9.24-.41-3.32-3.21-6.17-8.31-8.46-2.22-11.79,1.3-17.63,5.09-21.76.45-.48.67-1.13.62-1.79-.05-.66-.37-1.26-.88-1.68-3.01-2.42-6.65-3.76-10.28-3.72-2.7.02-5.21.81-7.07,2.24-4.51,3.46-5.38,9.49-5.64,13.71-.11,1.82-.19,4.9.22,8.09-.94-.06-1.89-.07-2.85-.05-4.79.28-8.33,2.18-9.99,5.37-1.25,2.4-1.27,5.28-.11,8.3-.43.01-.86.05-1.29.08-.72.04-1.44.08-2.15.14-.38.03-.76.08-1.14.12-.82.09-1.63.18-2.44.3-.26.04-.51.09-.77.13-.93.15-1.86.32-2.78.51-.14.03-.28.06-.41.09-1.04.23-2.06.48-3.07.76-.03,0-.07.02-.1.03-2.82.79-5.53,1.78-8.11,2.96-18.62,5.53-25.48,19.59-32.09,32.28-4.44,8.54-5.41,26.57-4.69,47.21l-110.1-73.94c-.64-.43-1.45-.52-2.17-.25-.72.27-1.27.88-1.46,1.63-.16.6-3.69,14.96,6.04,34.65,12.41,25.11,39.74,46.63,81.25,64-8.2,4.49-13.37,9.5-15.4,14.93-1.53,4.09-1.28,8.36.74,12.68,4.96,10.63,15.35,16.51,30.03,17.01.71.02,1.4.04,2.1.04,6.07,0,11.67-.86,15.66-1.69,2.18,10.99,5.41,21.34,9.38,30.84.02.04.03.08.05.12.48,1.15.97,2.29,1.48,3.41.01.02.02.05.03.07,1.55,3.45,3.19,6.78,4.92,9.98.03.06.06.11.09.17.53.98,1.07,1.95,1.62,2.91.06.1.11.19.17.29,1.77,3.08,3.62,6.03,5.52,8.84l-23.16,64.03c-.14.38-.16.78-.11,1.16-.02.06-.04.11-.05.17l-.48,2.38c-1.42,7.02-2.88,14.27-3.53,21.39-.06.61.13,1.22.51,1.7,1.2,1.51,3.63,2.82,6.83,3.93h-37.96c-1.34,0-2.43,1.09-2.43,2.43s1.09,2.43,2.43,2.43h219.38c1.34,0,2.43-1.09,2.43-2.43s-1.09-2.43-2.43-2.43ZM943.11,174.69c-4.67-.52-7.94-2.46-8.53-5.07-.49-2.13.91-4.46,3.75-6.24,5.29-3.33,6.61-3.71,11.54-5.11.84-.24,1.77-.51,2.83-.82,2.2-.65,4.46-1.23,6.75-1.77.59,6.39,1.25,12.68,1.94,18.72-3.89.83-9.72,1.24-18.27.29ZM1022.32,330.61c-.65-4.84-3.52-9.31-8.29-12.92-3.75-2.84-8.29-4.88-12.84-6.19-.17-.07-.35-.11-.53-.14-5.61-1.54-11.19-1.98-15.27-1.39-.3.04-.57.09-.81.13-.08.01-.16.03-.24.04l18.24-43.73c7.44,6.92,14.24,9.23,19.68,9.54.04,0,.07,0,.11,0,.8.04,1.57.04,2.31,0,.07,0,.14,0,.21-.01.7-.04,1.36-.11,2-.2.09-.01.17-.03.26-.04.19-.03.38-.06.57-.1.04,0,.08-.02.13-.03.36-.07.71-.15,1.05-.23.08-.02.16-.04.24-.06.17-.04.34-.09.5-.13.05-.01.1-.03.16-.05.32-.09.63-.19.92-.29.04-.01.08-.03.12-.04.17-.06.33-.11.49-.17,0,0,0,0,0,0,1.16.21,2.33.37,3.49.49,1.22.14,2.42.2,3.6.2,9.56,0,17.43-4.44,20.57-11.85,2.36-5.63,2.74-11.23,2.32-17.69,1.72.29,3.52.47,5.26.65,5.59.56,10.86,1.08,13.29,4.96,2.4,3.83,2.48,8.08.27,13.78-1.73,4.47-4.53,8.38-7.49,12.53-.51.71-1.02,1.42-1.52,2.14-5.89,8.36-14.85,36.38-15.47,48.35-.05.92.44,1.79,1.26,2.23,4.85,2.58,19.87,8.73,33.05,12.37h-71.19c2.78-3.19,4.18-7.7,3.58-12.16Z"/><path class="cls-1" d="M916.86,342.77h-8.03c-1.34,0-2.43,1.09-2.43,2.43s1.09,2.43,2.43,2.43h8.03c1.34,0,2.43-1.09,2.43-2.43s-1.09-2.43-2.43-2.43Z"/><path d="M1148.56,342.77h-34.82c3.51-2.91,5.83-7.44,6.12-12.31.32-5.53-1.9-11.13-6.42-16.19-8-8.95-20.81-14.09-29.32-14.54-.6-.03-.89-.08-1.02-.12-.06-.11-.15-.33-.29-.76.08-.11.17-.21.22-.34.87-1.88,1.25-2.76,1.44-3.21.03-.06.05-.12.07-.16.26-.32.79-.99,2.16-3.05,1.15-1.73,2.51-3.64,3.94-5.67,9.72-13.7,24.4-34.42,9.94-49.81-9.62-10.25-26.51-12.2-42.13-12.57-1.13-7.42-2.2-14.95-2.7-22.25l23.08,11.77,17.74,10.67c3.58,1.36,6.96.84,9.56-1.4.63-.51,1.18-1.11,1.63-1.77.13-.17.26-.35.38-.53l.02-.16s.01-.03.02-.04l5.47-14.39,2.92-8.09c1.15-3.18-.49-6.77-3.58-7.96l-7.53-3.14s-.02,0-.02,0c-.02,0-.04-.02-.07-.03-11.91-4.42-41.23-13.82-48.33-16.08.33-2.11.69-4.23,1.11-6.35.12-.74.27-1.48.41-2.22,7,.74,13.82,1.12,20.4,1.12,3.94,0,7.8-.13,11.55-.4,10.15-.72,17.99-4.5,23.32-11.24,13.16-16.64,8.04-47.95,4.66-68.66l-.62-3.83c-.05-.29-.15-.55-.28-.79,2.22-1.21,3.78-3.38,3.98-5.92.15-1.97-.53-3.89-1.91-5.39-.52-.57-1.13-1.05-1.79-1.44,3.19-2.04,5.63-5.05,6.38-9.28,1.02-5.73.55-9.97-1.41-12.62-2.06-2.74-5.16-1.53-6.65-.94-.11.04-.24.1-.37.15-.1-.36-.19-.78-.26-1.06-.33-1.52-.78-3.61-2.72-4.78-.21-.13-.44-.22-.68-.28-1.71-.42-3.12.24-4.24.95.04-.62.09-1.26.14-1.83.36-4.38.76-9.34-1.62-11.97-.95-1.05-2.23-1.62-3.71-1.64-.06,0-.12,0-.17,0-6.39,0-7.41,6.2-8.09,10.32-.2,1.24-.52,3.14-.95,4.11-.26-1.35-.44-3.22-.56-4.42-.12-1.22-.24-2.38-.4-3.35-.43-2.62-.69-3.25-1.22-4.42-.23-.5-.51-1.12-.92-2.26-1.01-2.89-2.97-4.6-5.25-4.52-1.02.05-3.52.6-4.56,4.75,0,0,0,.01,0,.02l-.04.16c-.04.15-.06.3-.07.45-.66,12.79,1.67,31,10.38,40.19.8.85,1.65,1.59,2.53,2.26-1.95,1.25-3.28,3.26-3.46,5.61-.15,1.97.53,3.89,1.91,5.39,1.51,1.65,3.71,2.6,6.04,2.63h1.29c3.39,17.84,5.45,33.83-.85,48.17-1.9,4.32-4.31,7.47-6.99,9.12-2.31,1.42-5.08,1.89-7.95,2.27-6.71.9-8.09.75-11.09.42-1.66-.18-3.94-.43-7.74-.59.08-.27.16-.54.23-.82,6.89-23.97,14.01-48.76,3.61-71.22-3.99-8.12-10.16-14.85-17.85-19.76,3.6-3.09,5.26-6.2,4.89-9.24-.41-3.34-3.21-6.19-8.31-8.49-2.2-11.75,1.3-17.57,5.09-21.69.46-.5.68-1.16.63-1.83-.05-.67-.38-1.29-.9-1.71-3-2.41-6.62-3.73-10.22-3.73h-.09c-2.71.02-5.23.82-7.1,2.25-4.53,3.48-5.4,9.52-5.66,13.75-.11,1.81-.19,4.87.21,8.04-.92-.05-1.86-.07-2.79-.04-4.81.28-8.37,2.19-10.03,5.39-1.25,2.4-1.28,5.26-.14,8.27-.31.01-.61.04-.91.06-.86.04-1.73.09-2.58.17-.2.02-.39.04-.59.06-1.03.1-2.05.23-3.06.38-.04,0-.07.01-.11.02-5.48.84-10.66,2.4-15.39,4.63-18.27,5.63-25.07,19.56-31.63,32.15-4.44,8.53-5.41,26.53-4.69,47.15l-110.07-73.92c-.66-.44-1.49-.54-2.22-.25-.74.28-1.29.9-1.49,1.67-.16.6-3.7,14.97,6.05,34.69,12.41,25.11,39.73,46.64,81.24,64.01-8.17,4.49-13.32,9.48-15.34,14.89-1.53,4.09-1.28,8.36.74,12.68,4.96,10.63,15.35,16.51,30.03,17.01.71.02,1.4.04,2.1.04,6.07,0,11.67-.86,15.66-1.69,4.36,22,12.94,41.43,23.22,56.58l-23.17,64.07c-.14.39-.17.79-.11,1.17-.01.05-.04.1-.05.16l-.48,2.39c-1.41,7.01-2.88,14.26-3.53,21.38-.06.62.13,1.25.52,1.74,1.19,1.49,3.58,2.79,6.73,3.9h-37.82c-1.34,0-2.43,1.09-2.43,2.43s1.09,2.43,2.43,2.43h219.38c1.34,0,2.43-1.09,2.43-2.43s-1.09-2.43-2.43-2.43ZM990.16,283.66l-1.72,4.13c-3.11-1.22-6.44-1.93-9.82-2.1l1.32-3.65c3.5-.12,6.99.43,10.22,1.63ZM976.88,290.51c3.32-.01,6.63.6,9.69,1.78l-6.84,16.4c-.27.65-.23,1.34.03,1.93-.11.53-.05,1.1.22,1.62,1.58,2.99,3.29,2.97,5.37,2.62.21-.04.45-.07.71-.11.86-.12,1.8-.19,2.8-.2l-5.24,7.47c-.77,1.1-.51,2.62.59,3.39.43.3.91.44,1.4.44.77,0,1.52-.36,1.99-1.04l6.91-9.84c.57.09,1.15.19,1.73.3l-4.87,6.94c-.77,1.1-.51,2.62.59,3.39.43.3.91.44,1.4.44.77,0,1.52-.36,1.99-1.04l5.92-8.43c.62.2,1.24.42,1.86.65-2.48,4.46-4.01,8.51-3.86,13.56-8.79,1.17-26.62,2.02-33.1-4.31.58-3.27,1.24-6.54,1.89-9.76l.48-2.4c.05-.26.05-.53.02-.78l8.33-23.03ZM1022.37,330.61c-.65-4.86-3.53-9.34-8.31-12.95-3.75-2.84-8.28-4.88-12.83-6.19-.19-.08-.38-.12-.57-.15-5.61-1.54-11.19-1.97-15.28-1.39-.3.04-.57.09-.81.13-.05,0-.09.02-.14.02l18.19-43.62c12.47,11.58,23.16,10.19,28.61,8.2,1.19.21,2.38.39,3.58.51,1.22.14,2.43.2,3.6.2,9.58,0,17.47-4.45,20.61-11.89,2.36-5.62,2.74-11.21,2.32-17.65,1.7.28,3.48.47,5.2.64,5.57.55,10.83,1.08,13.25,4.94,2.39,3.81,2.47,8.05.26,13.74-1.73,4.46-4.52,8.37-7.48,12.52-.51.71-1.02,1.42-1.52,2.14-5.89,8.37-14.86,36.4-15.48,48.38-.05.94.45,1.83,1.29,2.28,4.83,2.57,19.74,8.68,32.89,12.32h-70.94c2.77-3.2,4.16-7.71,3.56-12.16ZM959.44,155.67c.59,6.4,1.25,12.69,1.94,18.74-3.89.83-9.71,1.25-18.27.29-4.67-.52-7.94-2.46-8.53-5.07-.49-2.13.91-4.46,3.75-6.24,5.29-3.33,6.61-3.71,11.54-5.11.84-.24,1.77-.51,2.83-.82,2.21-.65,4.46-1.24,6.75-1.79ZM1090.29,278.47c-1.34-1.48-3.2-2.58-5.39-3.14-1.51-.38-3.02-.49-4.49-.47.65-1.01,1.27-2.04,1.86-3.09,1.91-.15,3.84-.24,5.57.19,1.45.37,3.2,1.34,3.75,2.95.11.33.31.6.53.84-.61.92-1.22,1.82-1.83,2.72ZM1086.69,283.6c-1.46,2.06-2.84,4-4.03,5.79-1.31,1.97-1.73,2.49-1.92,2.72-.38.46-.48.69-.74,1.28-.19.44-.54,1.28-1.38,3.07-.19.41-.25.84-.21,1.26-.44.59-.61,1.37-.39,2.14,1,3.4,2.42,4.55,5.83,4.73.46.02.94.07,1.43.12l-6.97,6.81c-.96.94-.98,2.48-.04,3.44.48.49,1.11.73,1.74.73s1.23-.23,1.7-.69l9.26-9.05c1.19.36,2.4.79,3.63,1.28l-7.71,7.54c-.96.94-.98,2.48-.04,3.44.48.49,1.11.73,1.74.73s1.23-.23,1.7-.69l9.01-8.81c1.05.57,2.1,1.18,3.12,1.85-3.78,4.5-6.39,8.7-7.32,14.41-6.35-1.12-23.37-4.78-31.79-12.62,3.12-11.81,8.11-25.38,11.71-30.49.49-.7,1-1.4,1.5-2.11.13-.19.27-.38.41-.57.09,0,.18.01.28,0,2.21-.19,4.49-.39,6.48.12,1.36.35,2.97,1.23,3.62,2.67-.21.3-.42.59-.63.88ZM1095.02,271.12c-1.35-1.84-3.45-3.24-5.98-3.88-1.48-.38-2.96-.48-4.4-.47,2.72-7.1,2.49-12.81-.72-17.95-3.68-5.88-10.7-6.58-16.89-7.2-1.78-.18-3.46-.34-5.04-.62-.37-.06-.73-.04-1.06.06-.14-1.28-.29-2.59-.46-3.95-.38-2.67-.81-5.41-1.24-8.2,14.36.4,29.59,2.24,37.83,11.02,8.31,8.85,4.32,20.48-2.04,31.19ZM1112.02,196.19l-2.91,8.05-5.37,14.13c-.44.64-1.16,1.15-1.84,1.3-.24.05-.41.04-.54.02l-.44-.19s-.02-.02-.04-.02l-.86-.51c.89-1.69,2-4.24,3.51-8.15,1.78-4.62,4.03-11.11,4.5-14.21.11-.69.27-1.37.43-2.02.09-.36.19-.77.27-1.2l2.47,1.03c.71.27,1.07,1.07.82,1.79ZM1103.67,191.26l.29.12c.06.03.11.06.14.08.02.39-.21,1.32-.36,1.96-.18.72-.38,1.54-.51,2.44-.61,4-5.32,16.57-7.5,20.82l-40.23-20.5c-.24-6.78.06-13.68.9-20.65,8.25,2.63,35.84,11.5,47.27,15.74ZM1085.38,23.52c.05-.19.1-.34.15-.48.11.2.23.45.34.77.48,1.34.82,2.09,1.07,2.63.38.83.5,1.11.85,3.2.13.82.24,1.9.36,3.05.48,4.78.87,7.77,2.76,9.13.1.08.22.14.33.2,1.92.96,3.55-.09,4.34-.6l.17-.11c2.49-1.57,3.03-4.84,3.55-8,.83-5.05,1.52-6.26,3.37-6.24.12,0,.17.02.17.02,1.02.71.55,6.44.4,8.32-.32,3.88-.51,6.23,1.08,7.59.71.61,1.66.84,2.61.64,1.22-.24,2.19-.9,3.04-1.49.18-.12.4-.28.61-.41.1.34.18.75.25,1.04.3,1.38.67,3.11,2.08,4.34.08.07.16.13.24.19,1.68,1.13,3.51.42,4.84-.1.33-.13.82-.32,1.16-.41.91,1.56,1.03,4.65.34,8.58-1.16,6.53-8.93,8.84-15.26,8.84h-.09c-3.78-.02-6.95-1.43-9.69-4.33-7.12-7.52-9.67-23.63-9.06-36.37ZM1095.47,73.19c-.32-.35-.7-.94-.64-1.73.1-1.38,1.49-2.44,3.15-2.44.01,0,.03,0,.04,0l15.58.17c.99.01,1.9.39,2.5,1.05.32.35.7.94.64,1.73-.1,1.38-1.49,2.44-3.15,2.44-.01,0-.03,0-.04,0l-12.28-.13s-.02,0-.03,0l-3.27-.04c-.99-.01-1.9-.39-2.5-1.05ZM1064.28,143.36c3.71.15,5.83.38,7.53.57,1.49.16,2.65.29,4.14.29,1.81,0,4.12-.19,8.13-.73,3.41-.46,6.73-1.03,9.85-2.95,3.52-2.17,6.59-6.08,8.89-11.31,6.71-15.28,4.67-32.37,1.35-50.06l8.9.1c-.01.18,0,.36.02.54l.62,3.84c3.24,19.87,8.15,49.91-3.68,64.86-4.5,5.7-11,8.77-19.84,9.4-9.58.68-19.88.45-30.61-.65,1.04-4.6,2.32-9.31,3.69-14.17.3.15.63.25.99.26ZM1064.05,68.55c9.61,20.77,2.74,44.67-3.9,67.78-2.72,9.47-5.29,18.41-6.75,27.05-2.32,11.6-3.24,23.18-2.72,34.39.38,10.21,2.03,20.89,3.63,31.22.46,3,.92,5.95,1.33,8.76,1.21,9.91,1.79,16.93-1.11,23.83-3.24,7.66-12.04,9.53-19.22,8.73-16.35-1.61-32.9-13.47-44.27-31.73l-.11-.18c-15.38-24.95-19.49-55.65-22.78-80.24l-.41-4.21c3.91-.69,7.91-1.24,11.99-1.64,1.99-.19,3.71-1.3,4.73-3.02,1.06-1.81,1.17-4,.3-6.02-1.26-2.91-3.7-4.88-6.51-5.29-2.13-.31-4.21-.36-5.77-.37-.22,0-.44,0-.65,0-1.86,0-3.64.05-5.36.15-1-11.93-1.74-24.62-.63-37.03.01-.13.03-.26.04-.4.06-.63.12-1.26.19-1.88,1.38-12.54,4.72-24.68,11.6-35.34.05-.08.1-.17.16-.25.22-.34.46-.68.69-1.02.25-.37.5-.74.76-1.11.02-.04.05-.07.08-.1.53-.74,1.08-1.45,1.65-2.15.11-.14.24-.26.35-.4.51-.6,1.03-1.19,1.58-1.76.08-.08.17-.16.25-.25.61-.62,1.23-1.22,1.88-1.8.03-.02.05-.05.08-.07,5.79-5.14,13.21-8.75,21.45-10.51.05-.01.1-.02.15-.03.91-.19,1.83-.35,2.76-.5.17-.03.33-.06.5-.08.8-.12,1.6-.21,2.41-.29.29-.03.59-.07.88-.09.68-.06,1.37-.09,2.06-.13.41-.02.82-.05,1.23-.06.62-.02,1.25-.01,1.87,0,.47,0,.93,0,1.4,0,1.06.03,2.13.08,3.2.17,18.46,1.49,33.8,11.18,41.01,25.87ZM1033.77,16.31c.32-5.16,1.56-8.49,3.77-10.2,1.03-.79,2.51-1.23,4.16-1.24,1.75,0,3.5.44,5.14,1.29-4.4,5.78-5.97,12.37-4.94,20.68-2.36-.85-4.98-1.63-7.76-2.16-.59-3.31-.47-6.86-.37-8.37ZM1020.61,31.64c.84-1.62,2.97-2.6,5.93-2.78,1.75-.06,3.56.07,5.44.36,3.6.94,7.4,2.13,12.25,3.82.11.04.23.07.34.09.15.07.3.12.45.19,3.44,1.53,5.44,3.2,5.63,4.72.18,1.45-1.25,3.45-4.03,5.63-.18.14-.33.31-.46.49-6.77-3.47-14.45-5.68-22.72-6.35-.62-.05-1.24-.06-1.85-.1-1.41-2.41-1.76-4.57-.96-6.09ZM958.06,138.72c-4.09.68-7.87,1.66-11.52,2.88-59.52-25.69-81.68-56.98-89.38-80.65l100.29,67.35c.17,3.43.38,6.91.62,10.42ZM854.01,82.68c-6.34-12.63-6.73-22.95-6.37-28.11l3.23,2.17c6.15,24.63,26.78,59.19,89.18,87.31-1.11.46-2.23.94-3.35,1.44-.07.03-.14.06-.21.1-52.77-21.3-73.98-45.96-82.49-62.9ZM920.5,173.97c-1.46-3.13-1.66-6.05-.59-8.91,1.98-5.3,8.47-10.53,18.78-15.12,10.45-4.66,19.72-7.5,33.75-7.44,1.41,0,3.27.05,5.11.32.54.08,1.9.47,2.74,2.41.34.78.13,1.34-.03,1.61-.13.22-.43.59-1.01.65-9.81.96-19.2,2.74-27.93,5.31-1.05.31-1.97.57-2.8.81-5.17,1.48-6.91,1.97-12.79,5.67-4.67,2.93-6.87,7.21-5.9,11.45,1.09,4.75,5.85,8.05,12.74,8.82,8.77.98,15.01.58,19.38-.28.3,2.47.65,4.91,1.05,7.32-10.6,2.18-34.35,4.84-42.5-12.6ZM998.89,262.74l-6.85,16.43c-3.28-1.24-6.78-1.92-10.33-2.01l8.82-24.38c2.71,3.62,5.51,6.95,8.36,9.96Z"/><path d="M916.87,342.77h-8.03c-1.34,0-2.43,1.09-2.43,2.43s1.09,2.43,2.43,2.43h8.03c1.34,0,2.43-1.09,2.43-2.43s-1.09-2.43-2.43-2.43Z"/><path d="M1006.85,104.24c5.01,1.1,10.64-4.86,13.06-13.53-1.38.41-2.9.38-4.31-.26-3.13-1.4-4.53-5.08-3.13-8.21,1.4-3.13,5.08-4.53,8.21-3.13.07.03.13.08.21.12-.66-5.24-2.96-9.14-6.41-9.89-5.35-1.17-11.4,5.7-13.51,15.33-2.11,9.64.53,18.4,5.88,19.57Z"/><path d="M1033.21,114.2c5.01,1.1,10.63-4.86,13.06-13.53-1.38.41-2.9.38-4.31-.26-3.13-1.4-4.53-5.08-3.13-8.21,1.4-3.13,5.08-4.53,8.21-3.13.07.03.13.08.21.12-.66-5.24-2.96-9.14-6.41-9.89-5.35-1.17-11.4,5.7-13.51,15.33-2.11,9.64.53,18.4,5.88,19.57Z"/><path d="M1033.48,123.55c-.99-.91-2.53-.85-3.44.13-1.26,1.36-2.02,3.05-2.34,4.83-3.87,2.13-8.51,2.53-12.9,1.03-5-1.7-9.01-5.61-10.73-10.45-.03-.09-.08-.17-.12-.26.54-.69,1.03-1.42,1.45-2.19.64-1.18.2-2.66-.98-3.3-1.18-.64-2.66-.2-3.3.98-1.37,2.53-3.72,4.49-6.46,5.38-1.28.41-1.98,1.79-1.57,3.07.33,1.03,1.29,1.69,2.32,1.69.25,0,.5-.04.75-.12,1.43-.46,2.79-1.14,4.03-1.97,2.48,5.46,7.24,9.81,13.05,11.79,2.3.78,4.65,1.17,6.98,1.17,2.74,0,5.44-.55,7.96-1.61.27.71.59,1.41,1.03,2.05.47.68,1.23,1.05,2,1.05.48,0,.96-.14,1.39-.43,1.1-.77,1.38-2.28.61-3.39-1.21-1.75-1.02-4.44.42-5.99.91-.99.85-2.53-.13-3.44Z"/><path d="M988.14,194.07c-.29-1.31-1.59-2.14-2.9-1.85-1.31.29-2.14,1.59-1.85,2.9,3.48,15.77,10.1,31.18,19.12,44.56.47.7,1.24,1.07,2.02,1.07.47,0,.94-.13,1.36-.42,1.11-.75,1.41-2.26.66-3.38-8.69-12.88-15.05-27.72-18.4-42.89Z"/><path d="M984.72,182.47c-.61-1.03-.87-2.25-.74-3.43.14-1.34-.82-2.54-2.16-2.68-1.33-.14-2.54.82-2.68,2.16-.24,2.22.25,4.5,1.39,6.42.45.77,1.27,1.2,2.1,1.2.42,0,.85-.11,1.23-.34,1.16-.68,1.54-2.17.86-3.33Z"/><path d="M1089.37,204.24c2.53-.09,4.51-2.22,4.42-4.76-.09-2.53-2.22-4.51-4.76-4.41-2.53.09-4.51,2.22-4.41,4.76.09,2.53,2.22,4.51,4.76,4.41Z"/></g></svg>