<?xml version="1.0" encoding="UTF-8"?><svg id="Layer_2" xmlns="http://www.w3.org/2000/svg" viewBox="0 0 238.65 177.31"><defs><style>.cls-1{fill:#ff2600;}.cls-2{fill:#fff;}</style></defs><g id="Layer_1-2"><path class="cls-2" d="M0,156.09c.37-.37.73-.5.94-1.02.42-1.04.19-6.89.19-6.95,0-.62-.04-1.85-.25-2.41-.08-.21-.62-.58-.83-.67-.04-.04-.04-.1-.04-.15,0-.23.15-.64.21-.89.08-.33.08-.6.48-.62.31-.02.63-.04.94-.04h2.96c.12.08.19.08.25.21.1.21.17.89.17,1.12,0,.17-.67.5-.77.85-.33,1.19-.23,2.5-.23,3.72,0,.13-.08.48.13.48l.12-.06c.5-.58,2.48-3.77,2.48-4.06,0-.37-.6-.38-.6-.73,0-.17.17-1.46.44-1.46.4,0,.83.08,1.23.08.5,0,1.08,0,1.58-.04.29-.02.58-.08.87-.08.12,0,.25.02.37.04.12.17.39,1.14.39,1.33,0,.29-1.08.67-1.31,1.14-.08.15-.19.27-.29.41-.48.67-1.77,2.5-1.77,3.27,0,.48,1.42,3.79,1.67,4.54.06.17.23.33.33.48.54.33,1,.33,1.46.62.04.23.08.44.08.67s-.25,1.31-.37,1.52c-.15,0-.29.04-.44.04-.25,0-.48-.08-.71-.08-.69,0-1.39.12-2.06.12-.77,0-.92.21-1.16-.6-.08-.27-.21-.46-.31-.69,0-.02-.04-.1-.04-.12,0-.27.69-.19.69-.83s-.91-2.62-1.29-3.02h-.04c-.4,0-1.25,1.79-1.39,2.14.17.77.5,1.33,1.27,1.66-.12.42-.37.92-.54,1.33-1,0-2,.08-3,.08-.38,0-.73.1-1.12.1h-.12c-.19-.48-.42-.92-.62-1.41Z"/><path class="cls-2" d="M12.38,145.44c0-.19.17-.6.25-.79.13-.33.1-.91.19-1.08.12-.21.71-.12.94-.12.54,0,1.1-.06,1.66-.06.6,0,1.17.12,1.69.12.44,0,.89-.06,1.33-.06.56.02,1.14.02,1.7.02.83,0,1.67-.15,2.52-.15.23,0,.54-.04.69.17,0,.19-.02.38-.02.58,0,.29.04.58.04.87,0,.92-.06,1.85-.06,2.77-.35.13-.83.19-1.19.27-.44-.91-1.54-2-2.62-2-.29,0-.58.02-.87.02-.69,0-.98-.14-1.52.4-.06.06-.08.12-.08.19,0,.5-.04,1-.04,1.5s.17.67.42,1.06c.08.02.15.02.25.02.77,0,1.87-.35,2.2-1.08.1-.21.62-.31.85-.31h.12c.08.37.1,2.72.1,3.24,0,.44-.12.94-.02,1.39-.23.1-.44.13-.69.19-.69-.69-1.29-1.08-2.31-1.08-.13,0-.5.19-.62.27-.5.33-.37.83-.37,1.35,0,.4-.04.66.23.98.29.37,1.16.6,1.6.6,1.5,0,2.93-.6,3.72-1.95.17-.04.33-.1.5-.1h.31c.25.25.12,2.56.12,3.06,0,.29.08.56.08.83,0,.17-.1.37-.13.54-.12.08-.23.15-.35.25-.46,0-.91.08-1.35.08-1.85,0-3.7-.08-5.57-.08-1.02,0-2.08.06-3.1.06-.29-.13-.6-.98-.6-1.29,0-.64,1.14-1.1,1.21-1.81.04-.35.06-.71.06-1.06,0-.38-.04-.77-.04-1.16l-.06-4.41c0-.15.04-.31.04-.46,0-.89-.48-1.1-1.12-1.58l-.08-.06c-.02-.06-.02-.1-.02-.15Z"/><path class="cls-2" d="M26,153.93c0-2.04.17-4.1.17-6.16,0-.91-.27-1.93-1.23-2.21,0-.19.23-.92.29-1.16.04-.17-.02-.4.1-.56.1-.13.19-.29.29-.42.06-.02.1-.02.15-.02.46,0,.9.06,1.37.06.63,0,1.27-.06,1.91-.06.12.08.19.21.23.33.33,1,.69,1.94,1.25,2.87.29.48.42,1.02.71,1.5.21.37.37.81.5,1.21.04.12.54,1,.6,1.06.04.04.08.1.12.15.12.19.17.37.35.54.02-.92.19-1.85.19-2.77,0-.54-.04-1.1-.06-1.66-.33-.5-.33-.75-.89-1.04-.08-.04-.12-.1-.12-.19,0-.52.23-1.33.4-1.87.13-.08.4-.14.56-.14.35,0,.69.06,1.04.06.39,0,.79-.04,1.17-.04.31,0,.6-.1.87-.1.19,0,.62.21.67.4l.27,1.41c0,.25-1.06.89-1.06,2.29,0,.44-.04.9-.04,1.35l-.02,5.78c0,.25.08.65.23.85.13.15.5.15.5.4,0,.08-.02.17-.06.23-.25.38-.21.85-.4,1.23-.06.12-.13.19-.27.19-.17,0-.37-.08-.54-.08-.1,0-.19.04-.29.04-.69,0-1.41-.06-2.1-.06-.31,0-.71.13-.92.13-.04,0-.08-.06-.08-.1-.1-.44-.21-.83-.33-1.25-.02-.08-.08-.17-.06-.25.23-.23.37-.37.37-.69,0-.52-.48-1.12-.73-1.56-.19-.33-.37-.71-.5-1.06-.31-.79-.89-1.64-1.41-2.31-.08,0-.13,0-.21-.02-.19.37-.23,2.52-.23,3.08,0,.62-.04,1.43.44,1.91.12.12.73.64.73.79,0,.44-.23.94-.29,1.39-.08.02-.15.04-.23.04-.23,0-.44-.06-.67-.06-1.04,0-2.08.12-3.1.12-.13,0-.27-.04-.38-.1-.27-.35-.46-.96-.54-1.39.83-.69,1.27-.92,1.27-2.1Z"/><path class="cls-2" d="M39.34,153.93c0-2.04.17-4.1.17-6.16,0-.91-.27-1.93-1.23-2.21,0-.19.23-.92.29-1.16.04-.17-.02-.4.1-.56.1-.13.19-.29.29-.42.06-.02.1-.02.15-.02.46,0,.9.06,1.37.06.63,0,1.27-.06,1.91-.06.12.08.19.21.23.33.33,1,.69,1.94,1.25,2.87.29.48.42,1.02.71,1.5.21.37.37.81.5,1.21.04.12.54,1,.6,1.06.04.04.08.1.12.15.12.19.17.37.35.54.02-.92.19-1.85.19-2.77,0-.54-.04-1.1-.06-1.66-.33-.5-.33-.75-.89-1.04-.08-.04-.12-.1-.12-.19,0-.52.23-1.33.4-1.87.13-.08.4-.14.56-.14.35,0,.69.06,1.04.06.39,0,.79-.04,1.17-.04.31,0,.6-.1.87-.1.19,0,.62.21.67.4l.27,1.41c0,.25-1.06.89-1.06,2.29,0,.44-.04.9-.04,1.35l-.02,5.78c0,.25.08.65.23.85.13.15.5.15.5.4,0,.08-.02.17-.06.23-.25.38-.21.85-.4,1.23-.06.12-.13.19-.27.19-.17,0-.37-.08-.54-.08-.1,0-.19.04-.29.04-.69,0-1.41-.06-2.1-.06-.31,0-.71.13-.92.13-.04,0-.08-.06-.08-.1-.1-.44-.21-.83-.33-1.25-.02-.08-.08-.17-.06-.25.23-.23.37-.37.37-.69,0-.52-.48-1.12-.73-1.56-.19-.33-.37-.71-.5-1.06-.31-.79-.89-1.64-1.41-2.31-.08,0-.13,0-.21-.02-.19.37-.23,2.52-.23,3.08,0,.62-.04,1.43.44,1.91.12.12.73.64.73.79,0,.44-.23.94-.29,1.39-.08.02-.15.04-.23.04-.23,0-.44-.06-.67-.06-1.04,0-2.08.12-3.1.12-.13,0-.27-.04-.38-.1-.27-.35-.46-.96-.54-1.39.83-.69,1.27-.92,1.27-2.1Z"/><path class="cls-2" d="M51.61,145.44c0-.19.17-.6.25-.79.13-.33.1-.91.19-1.08.12-.21.71-.12.94-.12.54,0,1.1-.06,1.66-.06.6,0,1.17.12,1.7.12.44,0,.89-.06,1.33-.06.56.02,1.14.02,1.7.02.83,0,1.67-.15,2.52-.15.23,0,.54-.04.69.17,0,.19-.02.38-.02.58,0,.29.04.58.04.87,0,.92-.06,1.85-.06,2.77-.35.13-.83.19-1.19.27-.44-.91-1.54-2-2.62-2-.29,0-.58.02-.87.02-.69,0-.98-.14-1.52.4-.06.06-.08.12-.08.19,0,.5-.04,1-.04,1.5s.17.67.42,1.06c.08.02.15.02.25.02.77,0,1.87-.35,2.2-1.08.1-.21.62-.31.85-.31h.12c.08.37.1,2.72.1,3.24,0,.44-.12.94-.02,1.39-.23.1-.44.13-.69.19-.69-.69-1.29-1.08-2.31-1.08-.13,0-.5.19-.62.27-.5.33-.37.83-.37,1.35,0,.4-.04.66.23.98.29.37,1.16.6,1.6.6,1.5,0,2.93-.6,3.72-1.95.17-.04.33-.1.5-.1h.31c.25.25.12,2.56.12,3.06,0,.29.08.56.08.83,0,.17-.1.37-.13.54-.12.08-.23.15-.35.25-.46,0-.91.08-1.35.08-1.85,0-3.7-.08-5.57-.08-1.02,0-2.08.06-3.1.06-.29-.13-.6-.98-.6-1.29,0-.64,1.14-1.1,1.21-1.81.04-.35.06-.71.06-1.06,0-.38-.04-.77-.04-1.16l-.06-4.41c0-.15.04-.31.04-.46,0-.89-.48-1.1-1.12-1.58l-.08-.06c-.02-.06-.02-.1-.02-.15Z"/><path class="cls-2" d="M64.28,155.17c.54-.23.91-.35,1.1-.96.13-.42.21-.98.21-1.43,0-1.39.04-2.35.04-3.43,0-.85-.04-2.14-.23-2.97-.17-.71-1.12-.42-1.12-.94,0-.19.17-.54.19-.92,0-.29.19-1.23.56-1.23.33,0,.67.1,1.02.1,1.04,0,2.1-.17,3.14-.17h1.39c1.64,0,3.27.48,4.47,1.68.23.23.63.52.71.83.02.08.06.13.1.21.29.6.91,2.16.98,2.81.33,2.81-.08,4.68-1.77,6.95-.69.92-2.12,1.52-3.25,1.62-.23.02-.44.1-.67.1-.79,0-1.56-.13-2.35-.13-.56,0-1.12-.02-1.67-.02-.62,0-1.23.15-1.85.15h-.4c-.13-.27-.17-.52-.25-.81-.06-.19-.46-.85-.46-.94,0-.21.08-.29.13-.48ZM68.76,148.25c0,1.42.02,2.2.02,3.54v1.89c0,.15.04.29.12.42.25.17.56.27.87.27,1.06,0,2.5-.52,3.12-1.42.15-.23.29-.52.39-.77.87-2.25.12-5.7-2.87-5.7h-1.19c-.46.23-.44,1.35-.44,1.77Z"/><path class="cls-2" d="M76.87,143.42c1.44-.08,2.93-.13,4.37-.13.37,0,.75.04,1.12.04.04.27.04.58.04.87,0,.23.06.48.06.71,0,.13-.69.79-.69,1.44,0,.35,1.1,2.85,1.39,2.85.08,0,.15-.08.19-.15.12-.23,1.1-2.33,1.1-2.5,0-.71-.13-.96-.64-1.44-.02-.08-.02-.15-.02-.23,0-.35.04-1.1.19-1.41.75-.02,1.54-.12,2.29-.12.19,0,.38.04.58.04.73.02,1.48,0,2.21,0,.04,0,.06.02.1.02.08.1.12.21.12.35,0,.52-.15,1.14-.29,1.66-.04.15-.12.27-.29.27-.42.02-1.17.42-1.39.81-.25.46-.48.96-.66,1.46-.13.4-.31.79-.48,1.17-.19.44-.31.91-.48,1.35-.15.4-.35.83-.52,1.23-.23.54-.35,1.16-.35,1.7v.44c0,.67.13.89.58,1.37.21.23.46.21.65.38v.06s0,.04-.02.06c-.25.46-.27,1.02-.38,1.52l-.04.06c-.4.08-.85.21-1.25.21-.25,0-.5-.04-.73-.04h-2.54c-.06-.13-.44-1.41-.44-1.48,0-.31.58-.44.77-.77.25-.42.27-.98.27-1.46,0-.96-.17-1.33-.46-2.04-.19-.48-2.02-4.43-2.39-5.29-.23-.54-1.46-.5-1.54-.98-.04-.25-.38-1.77-.48-1.87.02-.04.04-.1.06-.13Z"/><path class="cls-2" d="M95.44,146.91c.19-1.14,1.54-2.98,2.52-3.37.39-.15.75-.33,1.14-.48.12-.04,1.25-.15,1.37-.15.77,0,1.81.02,2.52.27.48.17.96.46,1.48.46.17-.13.27-.33.39-.5.08-.02.15-.02.23-.02.17,0,.6,0,.71.12v.12c0,.12,0,.23-.02.33-.13.67-.04,1.44-.04,2.14,0,.37.04.75.04,1.12v.23c-.35.12-.77.12-1.12.12-.19-.38-.67-.77-1.04-1.04-.58-.42-1.77-.64-2.48-.64-1,0-1.68.19-2.14,1.16-.64,1.58,2.1,1.54,2.85,1.73,2.18.21,3.14.85,4.29,2.64.25.38.38,1.04.38,1.48,0,1.1-.33,2.68-1.29,3.37-.29.21-.46.54-.79.69-.67.33-1.71.73-2.46.73h-.98c-.37,0-1.1-.12-1.44-.21-.13-.04-.25-.1-.38-.12-.42-.06-.87-.31-1.29-.31-.6,0-.79.13-1.19.54h-.13c-.91,0-.71-.12-.71-.89v-2.96c0-.44-.12-.87-.12-1.31,0-.23.85-.19,1-.19h.27s.08.1.12.15c.52.79.98,1.5,1.85,1.93.42.21.83.4,1.31.4.29,0,.54.1.83.1.83,0,2.06-.48,2.06-1.46,0-.15-.02-.29-.08-.42-.37-.87-.83-1.06-1.73-1.06-1.83,0-4.37-.56-5.35-2.25-.4-.71-.73-1.42-.56-2.43Z"/><path class="cls-2" d="M107.76,146.33l.23-1.77c.04-.27,0-.83.1-1.06,1.44-.04,2.93-.08,4.37-.08h3.04c.62,0,1.21-.12,1.83-.12.5,0,1.06.06,1.56.12.1.17.33,1.71.35,2.02.04.6.27,1.21.27,1.81v.12c-.06.04-.14.06-.17.12-.15.23-.79.29-1.06.29-.5,0-.71-1.66-2.14-1.66-1.35,0-1.08,1.87-1.08,2.89,0,1.27.02,2.54.02,3.81,0,1.12.56,2.12,1.66,2.46-.02.17-.33,1.73-.37,1.79-.12.17-.31.23-.5.23-.69,0-1.37.13-2.04.13-.56,0-1.12-.08-1.68-.08-.37,0-.71.1-1.08.1-.02,0-.06-.02-.08-.02-.08-.33-.5-1.64-.5-1.89,0-.1.06-.23.13-.29.12-.08.29-.13.42-.19.44-.19.64-.62.91-.98.06-.27.08-.54.08-.81.04-3.04.35-6.87-.6-6.99-.98-.12-1.62.29-2.04,1.12-.23.46-.31.58-.48.58-.15,0-.42-.1-1.02-.1-.19,0-.35-.04-.35-.27,0-.17.17-1.02.21-1.29Z"/><path class="cls-2" d="M120.28,155.72c.21-.15.44-.29.65-.44s.39-.37.6-.54c0-.08.02-.13.02-.21l.04-7.24c0-.29-.15-.52-.15-.81,0-.37-.73-.71-1.02-.81-.04-.04-.06-.1-.06-.15,0-.58.35-1.16.37-1.75.06-.06.1-.12.15-.17.08-.02.13-.02.21-.02,1.23,0,2.45-.21,3.68-.21.4,0,.79.08,1.17.08.62,0,1.19-.04,1.81.08.44.08.83.31,1.25.46,1.02.37,2.1.94,2.48,2.06.13.38.31.89.31,1.29,0,1.02-.46,2.52-1.27,3.18l-.21.17c-.33.27-.71.37-1.04.6-.02.02-.08.06-.08.1s.98,2.35,1.12,2.68c.08.19.25.42.41.56.21.17,1.08.37,1.42.54.04.21.06.44.06.67,0,.29-.23,1.21-.37,1.48l-.15.04c-.35,0-.69-.08-1.02-.08-.4,0-1.6,0-1.93.12-.06.02-.13.02-.19.02-.33,0-.67.02-.98-.02-.13-.02-.17-.02-.23-.15-.19-.44-.38-1.29-.56-1.66-.02-.04-.06-.08-.06-.12,0-.23.71-.25.71-.83,0-.39-.75-2-.96-2.33-.15-.23-.4-.37-.67-.37-.73,0-.91.6-.91,1.23,0,.46-.17,1.71.54,1.93.19.06.37.15.56.23.04.04.08.1.08.15,0,.02-.66,1.79-.69,1.87-.04,0-.1.02-.13.02-.64,0-1.27.06-1.91.06-.25,0-.64-.1-.85-.06-.48.1-.94.17-1.41.29-.17-.12-.73-1.31-.77-1.52-.02-.13-.02-.27-.02-.41ZM124.88,147.41v.65c0,.27.15.56.35.75.12.04.96.15,1.08.15.71,0,1.87-.48,1.87-1.31,0-1.06-.75-1.23-1.64-1.23h-.58c-.67,0-1.08.25-1.08.98Z"/><path class="cls-2" d="M132.97,145.44c0-.19.17-.6.25-.79.13-.33.1-.91.19-1.08.12-.21.71-.12.94-.12.54,0,1.1-.06,1.66-.06.6,0,1.17.12,1.69.12.44,0,.89-.06,1.33-.06.56.02,1.14.02,1.7.02.83,0,1.67-.15,2.52-.15.23,0,.54-.04.69.17,0,.19-.02.38-.02.58,0,.29.04.58.04.87,0,.92-.06,1.85-.06,2.77-.35.13-.83.19-1.19.27-.44-.91-1.54-2-2.62-2-.29,0-.58.02-.87.02-.69,0-.98-.14-1.52.4-.06.06-.08.12-.08.19,0,.5-.04,1-.04,1.5s.17.67.42,1.06c.08.02.15.02.25.02.77,0,1.87-.35,2.2-1.08.1-.21.62-.31.85-.31h.12c.08.37.1,2.72.1,3.24,0,.44-.12.94-.02,1.39-.23.1-.44.13-.69.19-.69-.69-1.29-1.08-2.31-1.08-.13,0-.5.19-.62.27-.5.33-.37.83-.37,1.35,0,.4-.04.66.23.98.29.37,1.16.6,1.6.6,1.5,0,2.93-.6,3.72-1.95.17-.04.33-.1.5-.1h.31c.25.25.12,2.56.12,3.06,0,.29.08.56.08.83,0,.17-.1.37-.13.54-.12.08-.23.15-.35.25-.46,0-.91.08-1.35.08-1.85,0-3.7-.08-5.57-.08-1.02,0-2.08.06-3.1.06-.29-.13-.6-.98-.6-1.29,0-.64,1.14-1.1,1.21-1.81.04-.35.06-.71.06-1.06,0-.38-.04-.77-.04-1.16l-.06-4.41c0-.15.04-.31.04-.46,0-.89-.48-1.1-1.12-1.58l-.08-.06c-.02-.06-.02-.1-.02-.15Z"/><path class="cls-2" d="M145.12,145.44c0-.19.17-.6.25-.79.13-.33.1-.91.19-1.08.12-.21.71-.12.94-.12.54,0,1.1-.06,1.66-.06.6,0,1.17.12,1.69.12.44,0,.89-.06,1.33-.06.56.02,1.14.02,1.7.02.83,0,1.67-.15,2.52-.15.23,0,.54-.04.69.17,0,.19-.02.38-.02.58,0,.29.04.58.04.87,0,.92-.06,1.85-.06,2.77-.35.13-.83.19-1.19.27-.44-.91-1.54-2-2.62-2-.29,0-.58.02-.87.02-.69,0-.98-.14-1.52.4-.06.06-.08.12-.08.19,0,.5-.04,1-.04,1.5s.17.67.42,1.06c.08.02.15.02.25.02.77,0,1.87-.35,2.2-1.08.1-.21.62-.31.85-.31h.12c.08.37.1,2.72.1,3.24,0,.44-.12.94-.02,1.39-.23.1-.44.13-.69.19-.69-.69-1.29-1.08-2.31-1.08-.13,0-.5.19-.62.27-.5.33-.37.83-.37,1.35,0,.4-.04.66.23.98.29.37,1.16.6,1.6.6,1.5,0,2.93-.6,3.72-1.95.17-.04.33-.1.5-.1h.31c.25.25.12,2.56.12,3.06,0,.29.08.56.08.83,0,.17-.1.37-.13.54-.12.08-.23.15-.35.25-.46,0-.91.08-1.35.08-1.85,0-3.7-.08-5.57-.08-1.02,0-2.08.06-3.1.06-.29-.13-.6-.98-.6-1.29,0-.64,1.14-1.1,1.21-1.81.04-.35.06-.71.06-1.06,0-.38-.04-.77-.04-1.16l-.06-4.41c0-.15.04-.31.04-.46,0-.89-.48-1.1-1.12-1.58l-.08-.06c-.02-.06-.02-.1-.02-.15Z"/><path class="cls-2" d="M157.48,146.33l.23-1.77c.04-.27,0-.83.1-1.06,1.44-.04,2.93-.08,4.37-.08h3.04c.62,0,1.21-.12,1.83-.12.5,0,1.06.06,1.56.12.1.17.33,1.71.35,2.02.04.6.27,1.21.27,1.81v.12c-.06.04-.14.06-.17.12-.15.23-.79.29-1.06.29-.5,0-.71-1.66-2.14-1.66-1.35,0-1.08,1.87-1.08,2.89,0,1.27.02,2.54.02,3.81,0,1.12.56,2.12,1.66,2.46-.02.17-.33,1.73-.37,1.79-.12.17-.31.23-.5.23-.69,0-1.37.13-2.04.13-.56,0-1.12-.08-1.68-.08-.37,0-.71.1-1.08.1-.02,0-.06-.02-.08-.02-.08-.33-.5-1.64-.5-1.89,0-.1.06-.23.13-.29.12-.08.29-.13.42-.19.44-.19.64-.62.91-.98.06-.27.08-.54.08-.81.04-3.04.35-6.87-.6-6.99-.98-.12-1.62.29-2.04,1.12-.23.46-.31.58-.48.58-.15,0-.42-.1-1.02-.1-.19,0-.35-.04-.35-.27,0-.17.17-1.02.21-1.29Z"/><path class="cls-2" d="M173.87,146.33l.23-1.77c.04-.27,0-.83.1-1.06,1.44-.04,2.93-.08,4.37-.08h3.04c.62,0,1.21-.12,1.83-.12.5,0,1.06.06,1.56.12.1.17.33,1.71.35,2.02.04.6.27,1.21.27,1.81v.12c-.06.04-.14.06-.17.12-.15.23-.79.29-1.06.29-.5,0-.71-1.66-2.14-1.66-1.35,0-1.08,1.87-1.08,2.89,0,1.27.02,2.54.02,3.81,0,1.12.56,2.12,1.66,2.46-.02.17-.33,1.73-.37,1.79-.12.17-.31.23-.5.23-.69,0-1.37.13-2.04.13-.56,0-1.12-.08-1.68-.08-.37,0-.71.1-1.08.1-.02,0-.06-.02-.08-.02-.08-.33-.5-1.64-.5-1.89,0-.1.06-.23.13-.29.12-.08.29-.13.42-.19.44-.19.64-.62.91-.98.06-.27.08-.54.08-.81.04-3.04.35-6.87-.6-6.99-.98-.12-1.62.29-2.04,1.12-.23.46-.31.58-.48.58-.15,0-.42-.1-1.02-.1-.19,0-.35-.04-.35-.27,0-.17.17-1.02.21-1.29Z"/><path class="cls-2" d="M185.07,155.76l.06-.04c.37-.06,1.25-.62,1.41-.94.4-.85,1.96-6.74,1.96-7.36,0-.73-.04-1.75-.77-2.12.06-.56.08-1.21.19-1.77.06-.02.13-.04.19-.04,1.23,0,2.45-.1,3.68-.1.67,0,1.37.04,2.04.04.37,0,.71-.04,1.08-.04.21.14.33,1.33.33,1.6,0,.12-.02.25-.04.37-.02.15-.71.42-.71,1.08,0,.27,0,.56.02.83.06.83,1.33,7.05,1.85,7.63.19.21,1.12.81,1.17.94-.19.48-.29,1-.37,1.5-.31.06-1.87.04-2.29.04-.48,0-1.96.02-2.25-.08-.17-.5-.31-.96-.5-1.44.35-.35.79-.54.79-1s-.12-.98-.21-1.46l-.1-.06c-.21-.02-.42-.04-.64-.04-.25,0-.52.02-.79.02-.58,0-1.04.04-1.17.71-.06.29-.17.62-.17.92,0,.33.44.75.73.87-.15.52-.33,1.06-.48,1.58-.23-.08-.46-.12-.69-.12-.52,0-1.06.13-1.58.13-.21,0-.42-.08-.64-.08-.58,0-1.17.08-1.75.08h-.08c-.12-.12-.29-.98-.29-1.16s-.02-.33.02-.5ZM190.56,150.68c.13.15.5.27.69.27.29,0,.96-.1.96-.46,0-.33-.15-.71-.21-1.04-.1-.6-.27-1.23-.31-1.85,0-.13-.04-.25-.12-.35-.46.08-1.02,2.93-1.02,3.43Z"/><path class="cls-2" d="M198.46,147.14c1.27-2.56,4.03-4.1,6.88-4.1.64,0,1.81.46,1.98.46.58,0,.29-.79,1.06-.79.39,0,.79-.04,1.16-.04h.12s.04.04.04.06c0,.25-.04.48-.04.73,0,1.6.23,3.22.23,4.83,0,.31-.85.25-1.04.25-.29,0-1.06-.73-1.27-.94-.73-.79-1.37-.87-2.33-1.19-.17-.06-.35-.08-.54-.08-.52,0-1.37.25-1.98.81-1.73,1.58-1.66,5.97.29,6.95.46.23,1.44.46,1.93.46.25,0,.48-.06.71-.06.79,0,1.71-.98,1.96-1.67.08-.21.17-.4.27-.6,0-.15.19-.29.33-.29.15,0,.31.06.46.06.19,0,.4-.06.6-.06h1.14c.31,0,.42.21.42.52,0,.92-.27,1.79-.77,2.54-.23.35-.35.69-.67.98-.29.27-1.29,1.14-1.56,1.27-.81.4-1.79.56-2.68.56-1.33,0-2.6-.25-3.83-.69-.79-.29-1.04-.64-1.6-1.19-.17-.17-.4-.29-.56-.48-.31-.39-.48-.87-.73-1.29-1-1.66-.75-5.41.04-7.01Z"/><path class="cls-2" d="M212.23,147.64c.48-1.44,1.83-3.2,3.27-3.81.13-.06.23-.1.33-.19.56-.56,1.16-.38,1.81-.58.13-.04.27-.08.42-.08.1,0,.21.04.33.04.96,0,1.83,0,2.79.19.79.15,1.81.77,2.35,1.37.17.19.33.4.52.6.31.31.5.48.69.87.25.5.44,1,.66,1.5.81,1.93.87,4.2-.33,6.74-.44.94-.79,1.29-1.52,2.02-1.08,1.08-3.5,1.5-5.01,1.5-.58,0-1.29-.12-1.85-.33-.15-.06-.29-.08-.44-.12-.52-.13-.91-.41-1.37-.66-.73-.38-1.85-2.06-2.14-2.75-1.1-1.94-1.19-4.35-.52-6.32ZM215.56,152.09c.58,1.44,1.66,2.64,3.33,2.64,1.48,0,2.62-.96,3.18-2.31.46-1.1.6-1.87.4-3.02-.06-.35-.25-.73-.37-1.04-.39-1.04-.94-1.46-1.75-2.16-.58-.21-1.04-.42-1.67-.42-1.54,0-2.7,1.39-3.18,2.7-.37,1.02-.42,2.41.06,3.62Z"/><path class="cls-2" d="M227.55,146.91c.19-1.14,1.54-2.98,2.52-3.37.39-.15.75-.33,1.14-.48.12-.04,1.25-.15,1.37-.15.77,0,1.81.02,2.52.27.48.17.96.46,1.48.46.17-.13.27-.33.39-.5.08-.02.15-.02.23-.02.17,0,.6,0,.71.12v.12c0,.12,0,.23-.02.33-.13.67-.04,1.44-.04,2.14,0,.37.04.75.04,1.12v.23c-.35.12-.77.12-1.12.12-.19-.38-.67-.77-1.04-1.04-.58-.42-1.77-.64-2.48-.64-1,0-1.68.19-2.14,1.16-.64,1.58,2.1,1.54,2.85,1.73,2.18.21,3.14.85,4.29,2.64.25.38.38,1.04.38,1.48,0,1.1-.33,2.68-1.29,3.37-.29.21-.46.54-.79.69-.67.33-1.71.73-2.46.73h-.98c-.37,0-1.1-.12-1.44-.21-.13-.04-.25-.1-.38-.12-.42-.06-.87-.31-1.29-.31-.6,0-.79.13-1.19.54h-.13c-.91,0-.71-.12-.71-.89v-2.96c0-.44-.12-.87-.12-1.31,0-.23.85-.19,1-.19h.27s.08.1.12.15c.52.79.98,1.5,1.85,1.93.42.21.83.4,1.31.4.29,0,.54.1.83.1.83,0,2.06-.48,2.06-1.46,0-.15-.02-.29-.08-.42-.37-.87-.83-1.06-1.73-1.06-1.83,0-4.37-.56-5.35-2.25-.4-.71-.73-1.42-.56-2.43Z"/><path class="cls-1" d="M195.13,93.94H48.74c-9.8,0-19.11-4.24-25.55-11.63-6.44-7.39-9.36-17.2-8.01-26.91l3.63-26.17C21.12,12.57,35.55,0,52.37,0h137.98c16.37,0,30.39,11.69,33.33,27.79l4.78,26.17c1.81,9.92-.85,20.05-7.31,27.79-6.46,7.74-15.94,12.18-26.02,12.18ZM52.37,3.33c-15.17,0-28.18,11.33-30.27,26.36l-3.63,26.17c-1.21,8.75,1.42,17.6,7.22,24.26,5.8,6.66,14.2,10.49,23.04,10.49h146.39c9.09,0,17.64-4,23.47-10.99,5.82-6.98,8.22-16.12,6.59-25.06l-4.78-26.17c-2.65-14.52-15.29-25.06-30.06-25.06H52.37Z"/><path class="cls-2" d="M55.28,33.77h-3.86c-.44,0-.72-.08-.83-.23-.12-.15-.14-.46-.07-.91.15-.86.22-1.64.22-2.33.01-.86.02-3.58.02-8.14,0-1.19,0-1.96-.02-2.33,0-.1-.02-.24-.06-.41-.04-.17-.06-.27-.08-.3-.07-.5.14-.78.64-.83.07-.01.19-.02.35-.02,4.24,0,6.64,0,7.2.02,1.32.03,2.38.25,3.21.66,1.17.6,2.1,1.57,2.79,2.9.63,1.26.94,2.56.94,3.91,0,2.97-1.06,5.26-3.18,6.87-.32.25-.68.46-1.06.62s-.78.29-1.19.37c-.4.08-.82.13-1.26.14h-3.76ZM55.7,30.22c.09.01.67.08,1.73.2,1.18-.12,1.81-.18,1.89-.2,1.32-.26,2.19-1.01,2.61-2.24.36-1.07.33-2.24-.11-3.51-.38-1.1-.99-1.85-1.82-2.26-1.46-.73-2.98-.83-4.54-.29-.51.16-.86.51-1.03,1.05-.15.44-.23.89-.26,1.36-.07,1.1-.1,2.06-.09,2.88,0,.54.07,1.1.22,1.67.18.73.64,1.18,1.4,1.34Z"/><path class="cls-2" d="M71.05,18.45h1.16c.5.04.73.32.68.83-.1,1.19-.16,2.45-.17,3.79s-.01,2.82.01,4.43c.02,1.62.03,2.88.03,3.79-.02.15-.01.3.01.47.02.17.05.36.09.56.04.21.06.36.08.46.04.34,0,.58-.11.74-.12.15-.34.24-.66.25-.51.01-1.29-.02-2.33-.11-.35-.03-.52-.28-.5-.75.01-.12.04-.33.07-.63.03-.3.04-.54.04-.71.01-4.05.01-6.71,0-7.97-.01-.51-.11-1.95-.29-4.3-.03-.53.19-.81.66-.86h1.23Z"/><path class="cls-2" d="M80.58,18.1c1.21-.38,2.19-.56,2.94-.53,1.89.04,3.34.29,4.35.75.09.03.19.06.3.09.11.03.21.05.29.07.08.01.19.03.32.05.13.02.23.04.31.05.37.06.61.16.74.31.12.15.19.41.21.79v1.23c-.04,1.01-.54,1.32-1.47.94-.26-.12-.75-.37-1.47-.75-.85-.45-1.81-.75-2.9-.88-.73-.1-1.45.05-2.15.46-.47.26-.75.68-.83,1.26-.09.58.05,1.07.42,1.48.39.45.87.74,1.43.86.25.06.66.14,1.23.23.57.1,1,.18,1.3.25,1.26.28,2.08.5,2.48.68,1.17.5,1.95,1.23,2.34,2.19s.35,1.98-.12,3.03c-.54,1.3-1.52,2.21-2.94,2.72-2.18.82-4.58.9-7.2.24-.79-.21-1.68-.42-2.68-.64-.34-.07-.56-.17-.68-.3-.12-.12-.18-.35-.2-.67-.04-.63-.05-1.24-.02-1.82.06-.79.46-1.01,1.21-.66.26.12.7.33,1.32.63.61.3,1.09.53,1.43.69,1.07.48,2.29.67,3.67.55.58-.06,1.1-.28,1.54-.66.42-.38.63-.85.62-1.41-.01-.56-.24-1.02-.68-1.38-.48-.39-1.08-.65-1.8-.77-1.59-.25-2.69-.45-3.29-.59-.73-.16-1.47-.5-2.22-1.01-.57-.4-.98-.91-1.22-1.56-.24-.64-.32-1.28-.24-1.9.08-.62.28-1.19.6-1.7.73-1.16,1.77-1.94,3.12-2.35Z"/><path class="cls-2" d="M100.68,18.45h5.93c.53,0,.91.05,1.15.14s.41.27.5.52c.1.25.14.64.14,1.16-.01.38-.03.66-.04.83-.06.35-.16.58-.3.7-.14.12-.39.17-.76.15-1.03-.04-1.84-.08-2.46-.11-.1-.01-.24-.01-.42,0-1.04.06-1.68.58-1.93,1.58-.13.53-.2,1.04-.2,1.56-.03,2.09-.03,3.95,0,5.58.01.39.09,1.11.22,2.15.06.37.04.63-.07.78-.1.15-.32.24-.66.25-.54.03-1.35,0-2.44-.09-.32-.03-.47-.29-.44-.77.12-3.32.17-5.28.17-5.86.01-.86-.05-2.05-.2-3.56-.03-.32-.12-.6-.26-.84s-.34-.44-.57-.59c-.23-.15-.51-.26-.81-.32-.35-.06-1.03-.07-2.04-.04-.17,0-.42.02-.73.06-.32.04-.52.07-.6.09-.28.01-.48-.03-.61-.13-.13-.1-.21-.3-.22-.59-.03-.45-.03-.9,0-1.34.03-.32.09-.58.19-.77.09-.19.24-.33.43-.42.19-.09.44-.13.75-.13h6.28Z"/><path class="cls-2" d="M111.51,30.76v-4.41c0-2.81,0-4.38-.02-4.7,0-.55-.05-1.25-.15-2.08-.04-.4-.01-.67.1-.81.11-.15.36-.24.74-.29.16-.03.35-.04.57-.04,4.54,0,7.2,0,7.99.02.72.01,1.56.13,2.55.35,1.29.31,2.12,1.13,2.5,2.46.26.95.32,1.82.18,2.61-.22,1.24-.86,2.21-1.91,2.9-.06.04-.2.14-.44.29-1.21.76-1.51,1.79-.88,3.07.07.13.5.92,1.27,2.37.03.03.06.07.09.12s.06.1.09.14c.03.04.05.09.07.13.19.42.06.69-.39.79-.28.06-.6.09-.97.09-.17,0-.41-.01-.71-.03-.3-.02-.49-.04-.58-.05-.37-.01-.63-.08-.79-.2-.16-.12-.3-.34-.42-.68-.47-1.36-1.17-2.69-2.11-3.97-.44-.6-1-.9-1.69-.9s-1.16.31-1.41.94c-.16.39-.24.75-.24,1.08,0,.76.04,1.68.11,2.74.04.58-.18.9-.68.94-.69.06-1.49.07-2.41.02-.39-.01-.58-.3-.55-.86.06-1.07.09-1.75.11-2.04ZM117.06,24.4c.06.02.47.02,1.23.02.15-.02.46-.03.96-.06.49-.02.87-.05,1.13-.1.35-.07.62-.22.81-.43.19-.21.28-.47.28-.77,0-.3-.11-.56-.31-.77-.2-.21-.48-.36-.85-.45-.12-.01-.2-.02-.24-.02-1.71-.06-2.77-.09-3.16-.09-.25,0-.51.07-.79.22-.5.25-.75.61-.75,1.1,0,.53.24.89.72,1.1.29.13.61.21.97.24Z"/><path class="cls-2" d="M131.14,18.45h1.16c.5.04.73.32.68.83-.1,1.19-.16,2.45-.17,3.79s-.01,2.82.01,4.43c.02,1.62.03,2.88.03,3.79-.02.15-.01.3.01.47.02.17.05.36.09.56.04.21.06.36.08.46.04.34,0,.58-.11.74-.12.15-.34.24-.66.25-.51.01-1.29-.02-2.33-.11-.35-.03-.52-.28-.5-.75.01-.12.04-.33.07-.63.03-.3.04-.54.04-.71.01-4.05.01-6.71,0-7.97-.01-.51-.11-1.95-.29-4.3-.03-.53.19-.81.66-.86h1.23Z"/><path class="cls-2" d="M151.18,30.92s-.09,1.55-.11,1.62c-.04.26-.12.45-.23.55-.11.1-.3.15-.56.15-.64-.01-1.47.18-2.48.57-1.55.61-3.15.76-4.81.43-1.65-.33-3.08-1.07-4.28-2.23-2.05-2.01-2.69-4.53-1.93-7.57.88-3.56,3.32-5.79,7.31-6.72,1.23-.28,2.64-.11,4.24.5,1.02.4,1.79.61,2.3.64.29.01.5.08.61.21.12.12.18.33.18.63-.02.91-.05,1.72-.11,2.44-.07.66-.43.9-1.08.72-.19-.04-.42-.15-.68-.33-.12-.07-.3-.2-.56-.38-.26-.18-.46-.32-.6-.41-1.79-1.13-3.58-1.29-5.38-.48-.7.31-1.29.75-1.78,1.32-.48.57-.82,1.19-1,1.85-.18.67-.24,1.36-.18,2.09.07.72.26,1.41.58,2.05.48.95,1.15,1.67,2,2.15.85.48,1.76.7,2.72.66.97-.04,1.91-.32,2.83-.83.17-.1.35-.21.53-.33.17-.12.39-.27.65-.47.26-.2.42-.33.49-.38.37-.28.67-.36.92-.24.25.13.38.42.39.86v.95Z"/><path class="cls-2" d="M161.56,18.45h5.93c.53,0,.91.05,1.15.14s.41.27.5.52c.1.25.14.64.14,1.16-.01.38-.03.66-.04.83-.06.35-.16.58-.3.7-.14.12-.39.17-.76.15-1.03-.04-1.84-.08-2.46-.11-.1-.01-.24-.01-.42,0-1.04.06-1.68.58-1.93,1.58-.13.53-.2,1.04-.2,1.56-.03,2.09-.03,3.95,0,5.58.01.39.09,1.11.22,2.15.06.37.04.63-.07.78-.1.15-.32.24-.66.25-.54.03-1.35,0-2.44-.09-.32-.03-.47-.29-.44-.77.12-3.32.17-5.28.17-5.86.01-.86-.05-2.05-.2-3.56-.03-.32-.12-.6-.26-.84s-.34-.44-.57-.59c-.23-.15-.51-.26-.81-.32-.35-.06-1.03-.07-2.04-.04-.17,0-.42.02-.73.06-.32.04-.52.07-.6.09-.28.01-.48-.03-.61-.13-.13-.1-.21-.3-.22-.59-.03-.45-.03-.9,0-1.34.03-.32.09-.58.19-.77.09-.19.24-.33.43-.42.19-.09.44-.13.75-.13h6.28Z"/><path class="cls-2" d="M173.49,18.4c-.04.35-.18.61-.42.78-.23.17-.54.25-.92.23-.66-.03-1.02-.39-1.08-1.08v-1.18c.07-.51.37-.81.88-.88.19-.03.4-.04.64-.02.56.04.86.32.9.83.04.45.04.89,0,1.32Z"/><path class="cls-2" d="M179.99,18.1c1.21-.38,2.19-.56,2.94-.53,1.89.04,3.34.29,4.35.75.09.03.19.06.3.09.11.03.21.05.29.07.08.01.19.03.32.05.13.02.23.04.31.05.37.06.61.16.74.31.12.15.19.41.21.79v1.23c-.04,1.01-.54,1.32-1.47.94-.26-.12-.75-.37-1.47-.75-.85-.45-1.81-.75-2.9-.88-.73-.1-1.45.05-2.15.46-.47.26-.75.68-.83,1.26-.09.58.05,1.07.42,1.48.39.45.87.74,1.43.86.25.06.66.14,1.23.23.57.1,1,.18,1.3.25,1.26.28,2.08.5,2.48.68,1.17.5,1.95,1.23,2.34,2.19s.35,1.98-.12,3.03c-.54,1.3-1.52,2.21-2.94,2.72-2.18.82-4.58.9-7.2.24-.79-.21-1.68-.42-2.68-.64-.34-.07-.56-.17-.68-.3-.12-.12-.18-.35-.2-.67-.04-.63-.05-1.24-.02-1.82.06-.79.46-1.01,1.21-.66.26.12.7.33,1.32.63.61.3,1.09.53,1.43.69,1.07.48,2.29.67,3.67.55.58-.06,1.1-.28,1.54-.66.42-.38.63-.85.62-1.41-.01-.56-.24-1.02-.68-1.38-.48-.39-1.08-.65-1.8-.77-1.59-.25-2.69-.45-3.29-.59-.73-.16-1.47-.5-2.22-1.01-.57-.4-.98-.91-1.22-1.56-.24-.64-.32-1.28-.24-1.9.08-.62.28-1.19.6-1.7.73-1.16,1.77-1.94,3.12-2.35Z"/><path class="cls-2" d="M40.11,39.88c2.63,0,4.08,0,4.35-.02.31,0,.75-.01,1.33-.04.58-.03.97-.04,1.17-.04.26-.01.52,0,.77.04.34.07.58.19.71.36.14.17.22.43.23.78.04,1.03.06,1.62.04,1.8-.04.34-.13.54-.25.62-.12.07-.36.08-.71.02-.75-.13-1.36-.2-1.84-.22-1.46-.03-3.15-.03-5.05,0-.45,0-.94.06-1.45.18-.28.07-.53.21-.75.42-.28.25-.41.53-.41.83,0,.31.15.58.43.81.25.21.48.32.7.35.74.12,1.41.18,2,.18.42,0,1.03-.01,1.82-.03.79-.02,1.29-.03,1.51-.03.25,0,.45.03.62.09.29.12.46.24.5.37.25.78.25,1.52,0,2.24-.07.19-.28.34-.64.46-.21.06-.51.09-.92.11h-3.71c-.31,0-.54,0-.7.02-.61.09-1.09.32-1.44.68-.34.37-.52.86-.54,1.47,0,.64.04,1.62.13,2.92.03.31-.01.54-.12.7-.11.16-.3.25-.58.26-.7.06-1.51.07-2.42.02-.47-.03-.67-.3-.61-.81.12-1.07.19-2.2.21-3.39.02-1.19.02-2.53-.01-4.02-.03-1.49-.04-2.61-.04-3.37.01-.28,0-.56-.02-.86-.03-.29-.08-.66-.13-1.1-.06-.44-.1-.72-.11-.86-.06-.54.18-.85.7-.92.13-.01.35-.02.66-.02.53,0,2.05,0,4.57,0Z"/><path class="cls-2" d="M51.87,52.24v-4.41c0-2.81,0-4.38-.02-4.7,0-.55-.05-1.25-.15-2.08-.04-.4-.01-.67.1-.81.11-.15.36-.24.74-.29.16-.03.35-.04.57-.04,4.54,0,7.2,0,7.99.02.72.01,1.56.13,2.55.35,1.29.31,2.12,1.13,2.5,2.46.26.95.32,1.82.18,2.61-.22,1.24-.86,2.21-1.91,2.9-.06.04-.2.14-.44.29-1.21.76-1.51,1.79-.88,3.07.07.13.5.92,1.27,2.37.03.03.06.07.09.12s.06.1.09.14c.03.04.05.09.07.13.19.42.06.69-.39.79-.28.06-.6.09-.97.09-.17,0-.41-.01-.71-.03-.3-.02-.49-.04-.58-.05-.37-.01-.63-.08-.79-.2-.16-.12-.3-.34-.42-.68-.47-1.36-1.17-2.69-2.11-3.97-.44-.6-1-.9-1.69-.9s-1.16.31-1.41.94c-.16.39-.24.75-.24,1.08,0,.76.04,1.68.11,2.74.04.58-.18.9-.68.94-.69.06-1.49.07-2.41.02-.39-.01-.58-.3-.55-.86.06-1.07.09-1.75.11-2.04ZM57.42,45.87c.06.02.47.02,1.23.02.15-.02.46-.03.96-.06.49-.02.87-.05,1.13-.1.35-.07.62-.22.81-.43.19-.21.28-.47.28-.77,0-.3-.11-.56-.31-.77-.2-.21-.48-.36-.85-.45-.12-.01-.2-.02-.24-.02-1.71-.06-2.77-.09-3.16-.09-.25,0-.51.07-.79.22-.5.25-.75.61-.75,1.1,0,.53.24.89.72,1.1.29.13.61.21.97.24Z"/><path class="cls-2" d="M71.5,39.93h1.16c.5.04.73.32.68.83-.1,1.19-.16,2.45-.17,3.79s-.01,2.82.01,4.43c.02,1.62.03,2.88.03,3.79-.02.15-.01.3.01.47.02.17.05.36.09.56.04.21.06.36.08.46.04.34,0,.58-.11.74-.12.15-.34.24-.66.25-.51.01-1.29-.02-2.33-.11-.35-.03-.52-.28-.5-.75.01-.12.04-.33.07-.63.03-.3.04-.54.04-.71.01-4.05.01-6.71,0-7.97-.01-.51-.11-1.95-.29-4.3-.03-.53.19-.81.66-.86h1.23Z"/><path class="cls-2" d="M88.78,39.86c.12,0,.28-.01.5-.03.22-.02.38-.03.48-.03.55-.01.92,0,1.1.02.32.04.56.13.7.26.15.13.23.35.26.66.06.67.06,1.34.02,2-.03.31-.12.51-.26.6-.15.09-.38.11-.7.05-.82-.15-1.44-.22-1.87-.22-1.77-.03-3.53-.03-5.27,0-.45,0-.93.09-1.43.26-.54.19-.79.59-.75,1.21.03.58.33.94.9,1.08.63.15,1.21.23,1.73.24.38,0,.92-.01,1.62-.04.7-.03,1.18-.04,1.43-.04.23-.01.6.02,1.1.09.47.07.73.34.77.79.06.54.07,1.05.02,1.51-.01.16-.06.3-.15.43-.09.12-.2.23-.35.31-.15.08-.3.12-.46.12-.45.01-1.54.03-3.27.04-.06,0-.34,0-.86,0-.51,0-.8,0-.86,0-.25.02-.53.09-.83.22-.53.22-.79.59-.79,1.12,0,.13.02.26.07.37.04.12.1.23.17.33.07.1.16.19.28.27.11.08.22.14.34.17.44.13.83.19,1.17.18,1.92-.01,4.02-.05,6.32-.11.15,0,.34-.03.59-.09.25-.06.4-.09.46-.09.32-.06.55-.03.69.09.14.12.21.33.21.64.03.6.03,1.22,0,1.87,0,.29-.07.51-.2.66-.13.15-.34.25-.64.31-.16.01-.4.02-.7.02-.23.01-.8.02-1.69.01-.89,0-1.46,0-1.71.01-.86,0-2.23.02-4.1.04-1.87.03-3.3.05-4.28.07-.58,0-.94-.07-1.05-.21-.12-.14-.13-.5-.02-1.09.12-.7.18-1.5.2-2.39.04-1.67.04-3.19,0-4.57-.01-.78-.09-2.53-.22-5.27,0-.19-.04-.44-.11-.75-.12-.44-.11-.73.01-.88.12-.15.41-.22.87-.22.23-.01,1.54-.02,3.93-.02h6.63Z"/><path class="cls-2" d="M98.77,51.45c.01.18.03.36.06.56.02.2.04.39.05.57.01.18.03.37.04.55.01.18.03.37.06.57.02.2.04.38.05.56.03.23.03.42,0,.56-.03.14-.11.24-.23.31-.12.07-.3.1-.54.1-.66.03-1.35.03-2.06,0-.6-.03-.86-.34-.77-.92.12-.73.19-1.5.21-2.3s.02-1.73,0-2.77-.03-1.81-.03-2.3c.01-.67-.02-1.84-.11-3.51-.03-.76-.09-1.54-.17-2.33-.04-.38,0-.64.11-.78.12-.14.36-.21.73-.21.82-.02,1.56-.02,2.22,0,.31.01.54.08.69.21s.25.33.3.6c.09.63.36,1.21.81,1.73,1.1,1.26,2.14,2.44,3.14,3.56.33.37.71.56,1.12.57.89.06,1.38-.3,1.47-1.08.09-.69.12-1.72.11-3.09,0-.16,0-.33-.03-.5-.02-.18-.05-.38-.09-.6-.04-.23-.06-.4-.08-.52-.03-.19-.02-.35.01-.47.04-.12.11-.22.21-.28.1-.07.25-.1.44-.1.73-.04,1.49-.04,2.28,0,.26,0,.45.06.56.19.11.12.16.33.14.6-.04,3.69-.08,6.11-.11,7.27,0,.19-.02.58-.06,1.18-.04.6-.05,1.06-.03,1.38.03.79.12,1.98.28,3.56.03.32-.01.56-.12.7-.11.15-.32.22-.62.22-.75.02-1.53.02-2.35,0-.51-.01-.8-.24-.88-.68-.12-.72-.51-1.44-1.18-2.17-.25-.28-.68-.76-1.31-1.45-.62-.69-1.11-1.22-1.46-1.6-.13-.15-.29-.29-.48-.42-.5-.35-.98-.44-1.44-.25-.46.18-.74.57-.84,1.17-.03.16-.05.33-.05.5,0,.18-.01.38-.02.62,0,.23-.01.4-.01.5Z"/><path class="cls-2" d="M118.29,55.25h-3.86c-.44,0-.72-.08-.83-.23-.12-.15-.14-.46-.07-.91.15-.86.22-1.64.22-2.33.01-.86.02-3.58.02-8.14,0-1.19,0-1.96-.02-2.33,0-.1-.02-.24-.06-.41-.04-.17-.06-.27-.08-.3-.07-.5.14-.78.64-.83.07-.01.19-.02.35-.02,4.24,0,6.64,0,7.2.02,1.32.03,2.38.25,3.21.66,1.17.6,2.1,1.57,2.79,2.9.63,1.26.94,2.56.94,3.91,0,2.97-1.06,5.26-3.18,6.87-.32.25-.68.46-1.06.63s-.78.29-1.19.37c-.4.08-.82.13-1.26.14h-3.76ZM118.71,51.69c.09.01.67.08,1.73.2,1.18-.12,1.81-.18,1.89-.2,1.32-.26,2.19-1.01,2.61-2.24.36-1.07.33-2.24-.11-3.51-.38-1.1-.99-1.85-1.82-2.26-1.46-.73-2.98-.83-4.54-.29-.51.16-.86.51-1.03,1.05-.15.44-.23.89-.26,1.36-.07,1.1-.1,2.06-.09,2.88,0,.54.07,1.1.22,1.67.18.73.64,1.18,1.4,1.34Z"/><path class="cls-2" d="M141.74,55.14v-.02c-.34,0-1.08.01-2.23.03-1.15.02-2.1.04-2.85.06-.75.01-1.5.03-2.25.04-.32,0-.83-.04-1.51-.11-.25-.03-.42-.1-.52-.22-.09-.12-.12-.29-.08-.53.17-1.1.21-2.15.11-3.16-.03-.18-.03-.44.01-.79.04-.35.05-.59.05-.72-.03-2.71-.07-5.17-.13-7.38,0-.2-.03-.51-.08-.91-.05-.4-.08-.62-.08-.67-.03-.2-.02-.37.02-.49s.12-.22.23-.27c.11-.06.27-.1.47-.11.75-.01,1.43,0,2.04.02.37.01.62.1.75.26.13.16.17.43.13.79-.04.42-.06.83-.06,1.23-.06,3-.1,5.17-.11,6.5,0,.39.04.88.13,1.45.15.83.62,1.35,1.43,1.54.44.12.85.18,1.23.18,2.03.03,3.58.03,4.63,0,.57-.01,1.42-.1,2.55-.26.41-.06.68-.04.81.05.13.1.22.34.26.74.06.66.09,1.21.09,1.65,0,.4-.09.68-.26.84-.18.17-.46.26-.86.27h-3.93Z"/><path class="cls-2" d="M151.56,39.93h1.16c.5.04.73.32.68.83-.1,1.19-.16,2.45-.17,3.79s-.01,2.82.01,4.43c.02,1.62.03,2.88.03,3.79-.02.15-.01.3.01.47.02.17.05.36.09.56.04.21.06.36.08.46.04.34,0,.58-.11.74-.12.15-.34.24-.66.25-.51.01-1.29-.02-2.33-.11-.35-.03-.52-.28-.5-.75.01-.12.04-.33.07-.63.03-.3.04-.54.04-.71.01-4.05.01-6.71,0-7.97-.01-.51-.11-1.95-.29-4.3-.03-.53.19-.81.66-.86h1.23Z"/><path class="cls-2" d="M168.85,39.86c.12,0,.28-.01.5-.03.22-.02.38-.03.48-.03.55-.01.92,0,1.1.02.32.04.56.13.7.26.15.13.23.35.26.66.06.67.06,1.34.02,2-.03.31-.12.51-.26.6-.15.09-.38.11-.7.05-.82-.15-1.44-.22-1.87-.22-1.77-.03-3.53-.03-5.27,0-.45,0-.93.09-1.43.26-.54.19-.79.59-.75,1.21.03.58.33.94.9,1.08.63.15,1.21.23,1.73.24.38,0,.92-.01,1.62-.04.7-.03,1.18-.04,1.43-.04.23-.01.6.02,1.1.09.47.07.73.34.77.79.06.54.07,1.05.02,1.51-.01.16-.06.3-.15.43-.09.12-.2.23-.35.31-.15.08-.3.12-.46.12-.45.01-1.54.03-3.27.04-.06,0-.34,0-.86,0-.51,0-.8,0-.86,0-.25.02-.53.09-.83.22-.53.22-.79.59-.79,1.12,0,.13.02.26.07.37.04.12.1.23.17.33.07.1.16.19.28.27.11.08.22.14.34.17.44.13.83.19,1.17.18,1.92-.01,4.02-.05,6.32-.11.15,0,.34-.03.59-.09.25-.06.4-.09.46-.09.32-.06.55-.03.69.09.14.12.21.33.21.64.03.6.03,1.22,0,1.87,0,.29-.07.51-.2.66-.13.15-.34.25-.64.31-.16.01-.4.02-.7.02-.23.01-.8.02-1.69.01-.89,0-1.46,0-1.71.01-.86,0-2.23.02-4.1.04-1.87.03-3.3.05-4.28.07-.58,0-.94-.07-1.05-.21-.12-.14-.13-.5-.02-1.09.12-.7.18-1.5.2-2.39.04-1.67.04-3.19,0-4.57-.01-.78-.09-2.53-.22-5.27,0-.19-.04-.44-.11-.75-.12-.44-.11-.73.01-.88.12-.15.41-.22.87-.22.23-.01,1.54-.02,3.93-.02h6.63Z"/><path class="cls-2" d="M179.09,39.57c1.21-.38,2.19-.56,2.94-.53,1.89.04,3.34.29,4.35.75.09.03.19.06.3.09.11.03.21.05.29.07.08.01.19.03.32.05.13.02.23.04.31.05.37.06.61.16.74.31.12.15.19.41.21.79v1.23c-.04,1.01-.54,1.32-1.47.94-.26-.12-.75-.37-1.47-.75-.85-.45-1.81-.75-2.9-.88-.73-.1-1.45.05-2.15.46-.47.26-.75.68-.83,1.26-.09.58.05,1.07.42,1.48.39.45.87.74,1.43.86.25.06.66.14,1.23.23.57.1,1,.18,1.3.25,1.26.28,2.08.5,2.48.68,1.17.5,1.95,1.23,2.34,2.19s.35,1.98-.12,3.03c-.54,1.3-1.52,2.21-2.94,2.72-2.18.82-4.58.9-7.2.24-.79-.21-1.68-.42-2.68-.64-.34-.07-.56-.17-.68-.3-.12-.12-.18-.35-.2-.67-.04-.63-.05-1.24-.02-1.82.06-.79.46-1.01,1.21-.66.26.12.7.33,1.32.63.61.3,1.09.53,1.43.69,1.07.48,2.29.67,3.67.55.58-.06,1.1-.28,1.54-.66.42-.38.63-.85.62-1.41-.01-.56-.24-1.02-.68-1.38-.48-.39-1.08-.65-1.8-.77-1.59-.25-2.69-.45-3.29-.59-.73-.16-1.47-.5-2.22-1.01-.57-.4-.98-.91-1.22-1.56-.24-.64-.32-1.28-.24-1.9.08-.62.28-1.19.6-1.7.73-1.16,1.77-1.94,3.12-2.35Z"/><path class="cls-2" d="M199.19,39.93h5.93c.53,0,.91.05,1.15.14s.41.27.5.52c.1.25.14.64.14,1.16-.01.38-.03.66-.04.83-.06.35-.16.58-.3.7-.14.12-.39.17-.76.15-1.03-.04-1.84-.08-2.46-.11-.1-.01-.24-.01-.42,0-1.04.06-1.68.58-1.93,1.58-.13.53-.2,1.04-.2,1.56-.03,2.09-.03,3.95,0,5.58.01.39.09,1.11.22,2.15.06.37.04.63-.07.78-.1.15-.32.24-.66.25-.54.03-1.35,0-2.44-.09-.32-.03-.47-.29-.44-.77.12-3.32.17-5.28.17-5.86.01-.86-.05-2.05-.2-3.56-.03-.32-.12-.6-.26-.84s-.34-.44-.57-.59c-.23-.15-.51-.26-.81-.32-.35-.06-1.03-.07-2.04-.04-.17,0-.42.02-.73.06-.32.04-.52.07-.6.09-.28.01-.48-.03-.61-.13-.13-.1-.21-.3-.22-.59-.03-.45-.03-.9,0-1.34.03-.32.09-.58.19-.77.09-.19.24-.33.43-.42.19-.09.44-.13.75-.13h6.28Z"/><path class="cls-2" d="M50.72,61.4h5.93c.53,0,.91.05,1.15.14s.41.27.5.52c.1.25.14.64.14,1.16-.01.38-.03.66-.04.83-.06.35-.16.58-.3.7-.14.12-.39.17-.76.15-1.03-.04-1.84-.08-2.46-.11-.1-.01-.24-.01-.42,0-1.04.06-1.68.58-1.93,1.58-.13.53-.2,1.04-.2,1.56-.03,2.09-.03,3.95,0,5.58.01.39.09,1.11.22,2.15.06.37.04.63-.07.78-.1.15-.32.24-.66.25-.54.03-1.35,0-2.44-.09-.32-.03-.47-.29-.44-.77.12-3.32.17-5.28.17-5.86.01-.86-.05-2.05-.2-3.56-.03-.32-.12-.6-.26-.84s-.34-.44-.57-.59c-.23-.15-.51-.26-.81-.32-.35-.06-1.03-.07-2.04-.04-.17,0-.42.02-.73.06-.32.04-.52.07-.6.09-.28.01-.48-.03-.61-.13-.13-.1-.21-.3-.22-.59-.03-.45-.03-.9,0-1.34.03-.32.09-.58.19-.77.09-.19.24-.33.43-.42.19-.09.44-.13.75-.13h6.28Z"/><path class="cls-2" d="M71.75,76.72c-.89-.1-1.38-.15-1.45-.15-.5-.06-.83-.32-1.01-.79-.34-.86-.94-1.31-1.82-1.34-1.7-.07-2.88-.09-3.56-.07-.88.03-1.46.46-1.73,1.3-.23.7-.72,1.04-1.45,1.01-1.11-.04-1.73-.07-1.86-.09-.38-.04-.61-.14-.68-.3-.07-.15-.04-.4.11-.74,1.19-2.71,1.93-4.41,2.22-5.11.64-1.61,1.51-3.83,2.61-6.65.13-.35.25-.83.35-1.43.06-.34.17-.58.32-.75s.38-.25.69-.26c.73-.01,1.68.02,2.85.11.21.01.37.09.48.24.12.15.18.33.2.55.01.19.04.38.08.57.04.19.09.41.16.65.07.24.13.42.16.53.04.11.11.31.23.61.12.3.19.48.22.54,1.07,2.78,1.7,4.43,1.91,4.94.35.86,1.13,2.73,2.35,5.6.23.56.07.88-.51.96-.32.04-.61.07-.88.07ZM65.71,68.36c-.25,0-.47.06-.67.18-.2.12-.35.28-.46.49-.11.21-.17.45-.17.71,0,.42.12.77.36,1.03.24.26.55.39.93.37.38,0,.69-.13.92-.38.23-.26.36-.58.37-.98,0-.16-.02-.32-.07-.47-.04-.15-.1-.29-.17-.4-.08-.11-.16-.21-.26-.3-.1-.09-.22-.15-.36-.2s-.28-.07-.43-.07Z"/><path class="cls-2" d="M89.94,73.87s-.09,1.55-.11,1.62c-.04.26-.12.45-.23.55-.11.1-.3.15-.56.15-.64-.01-1.47.18-2.48.57-1.55.61-3.15.76-4.81.43-1.65-.33-3.08-1.07-4.28-2.23-2.05-2.01-2.69-4.53-1.93-7.57.88-3.56,3.32-5.79,7.31-6.72,1.23-.28,2.64-.11,4.24.5,1.02.4,1.79.61,2.3.64.29.01.5.08.61.21.12.12.18.33.18.63-.02.91-.05,1.72-.11,2.44-.07.66-.43.9-1.08.72-.19-.04-.42-.15-.68-.33-.12-.07-.3-.2-.56-.38-.26-.18-.46-.32-.6-.41-1.79-1.13-3.58-1.29-5.38-.48-.7.31-1.29.75-1.78,1.32-.48.57-.82,1.19-1,1.85-.18.67-.24,1.36-.18,2.09.07.72.26,1.41.58,2.05.48.95,1.15,1.67,2,2.15.85.48,1.76.7,2.72.66.97-.04,1.91-.32,2.83-.83.17-.1.35-.21.53-.33.17-.12.39-.27.65-.47.26-.2.42-.33.49-.38.37-.28.67-.36.92-.24.25.13.38.42.39.86v.95Z"/><path class="cls-2" d="M93.55,71.89c-.04-.19-.09-.4-.13-.64-.13-.73-.17-1.51-.11-2.33.12-1.45.37-2.61.77-3.47.69-1.51,1.77-2.74,3.25-3.69,1.35-.83,2.79-1.28,4.32-1.34,2.28-.07,4.11.77,5.47,2.52.79,1.02,1.32,2.39,1.6,4.1.25,1.45.21,2.89-.11,4.32-.35,1.58-1.1,2.85-2.25,3.81-1.15.96-2.56,1.54-4.23,1.75-1.26.18-2.49.09-3.71-.26-2.53-.72-4.16-2.31-4.87-4.79ZM103.34,73.03c1.19-1.08,1.75-2.38,1.69-3.91-.01-.22-.01-.42,0-.59.03-1.13-.2-2.16-.68-3.09-.6-1.14-1.42-1.8-2.46-1.98-1.46-.25-2.68.26-3.64,1.51-.67.88-1.08,2.17-1.21,3.86-.09,1.11.04,2.07.39,2.88.53,1.24,1.38,2,2.55,2.28,1.2.31,2.32-.01,3.36-.97Z"/><path class="cls-2" d="M130.79,71.06c.01-.15.07-.98.15-2.5-.07-3.21-.12-5.06-.15-5.58,0-.06-.04-.4-.13-1.03-.1-.61.12-.94.68-.96.75-.04,1.53-.04,2.35,0,.26.01.46.09.58.23.13.14.17.33.14.56-.12.78-.19,1.65-.21,2.62-.02.97-.02,1.84.01,2.61.03.77.02,1.64-.02,2.62-.03.91-.12,1.76-.28,2.55-.26,1.42-1,2.58-2.22,3.47-1.34.96-2.67,1.43-3.97,1.38-1.21-.04-2.03-.11-2.44-.2-2.24-.47-3.75-1.82-4.54-4.06-.15-.41-.3-1.1-.46-2.06-.03-.22-.03-.4.01-.54.04-.14.12-.24.25-.31.13-.07.32-.1.55-.1.67-.01,1.34-.01,2,0,.31,0,.51.06.62.18.11.12.16.33.16.64-.01.95.16,1.66.53,2.13.66.82,1.43,1.24,2.33,1.27,1.14.04,2.01-.14,2.59-.55.85-.6,1.34-1.39,1.47-2.37Z"/><path class="cls-2" d="M137.93,71.89c-.04-.19-.09-.4-.13-.64-.13-.73-.17-1.51-.11-2.33.12-1.45.37-2.61.77-3.47.69-1.51,1.77-2.74,3.25-3.69,1.35-.83,2.79-1.28,4.32-1.34,2.28-.07,4.11.77,5.47,2.52.79,1.02,1.32,2.39,1.6,4.1.25,1.45.21,2.89-.11,4.32-.35,1.58-1.1,2.85-2.25,3.81-1.15.96-2.56,1.54-4.23,1.75-1.26.18-2.49.09-3.71-.26-2.53-.72-4.16-2.31-4.87-4.79ZM147.72,73.03c1.19-1.08,1.75-2.38,1.69-3.91-.01-.22-.01-.42,0-.59.03-1.13-.2-2.16-.68-3.09-.6-1.14-1.42-1.8-2.46-1.98-1.46-.25-2.68.26-3.64,1.51-.67.88-1.08,2.17-1.21,3.86-.09,1.11.04,2.07.39,2.88.53,1.24,1.38,2,2.55,2.28,1.2.31,2.32-.01,3.36-.97Z"/><path class="cls-2" d="M158.65,61.4h1.16c.5.04.73.32.68.83-.1,1.19-.16,2.45-.17,3.79s-.01,2.82.01,4.43c.02,1.62.03,2.88.03,3.79-.02.15-.01.3.01.47.02.17.05.36.09.56.04.21.06.36.08.46.04.34,0,.58-.11.74-.12.15-.34.24-.66.25-.51.01-1.29-.02-2.33-.11-.35-.03-.52-.28-.5-.75.01-.12.04-.33.07-.63.03-.3.04-.54.04-.71.01-4.05.01-6.71,0-7.97-.01-.51-.11-1.95-.29-4.3-.03-.53.19-.81.66-.86h1.23Z"/><path class="cls-2" d="M167.92,72.92c.01.18.03.36.06.56.02.2.04.39.05.57.01.18.03.37.04.55.01.18.03.37.06.57.02.2.04.38.05.56.03.23.03.42,0,.56-.03.14-.11.24-.23.31-.12.07-.3.1-.54.1-.66.03-1.35.03-2.06,0-.6-.03-.86-.34-.77-.92.12-.73.19-1.5.21-2.3s.02-1.73,0-2.77-.03-1.81-.03-2.3c.01-.67-.02-1.84-.11-3.51-.03-.76-.09-1.54-.17-2.33-.04-.38,0-.64.11-.78.12-.14.36-.21.73-.21.82-.02,1.56-.02,2.22,0,.31.01.54.08.69.21s.25.33.3.6c.09.63.36,1.21.81,1.73,1.1,1.26,2.14,2.44,3.14,3.56.33.37.71.56,1.12.57.89.06,1.38-.3,1.47-1.08.09-.69.12-1.72.11-3.09,0-.16,0-.33-.03-.5-.02-.18-.05-.38-.09-.6-.04-.23-.06-.4-.08-.52-.03-.19-.02-.35.01-.47.04-.12.11-.22.21-.28.1-.07.25-.1.44-.1.73-.04,1.49-.04,2.28,0,.26,0,.45.06.56.19.11.12.16.33.14.6-.04,3.69-.08,6.11-.11,7.27,0,.19-.02.58-.06,1.18-.04.6-.05,1.06-.03,1.38.03.79.12,1.98.28,3.56.03.32-.01.56-.12.7-.11.15-.32.22-.62.22-.75.02-1.53.02-2.35,0-.51-.01-.8-.24-.88-.68-.12-.72-.51-1.44-1.18-2.17-.25-.28-.68-.76-1.31-1.45-.62-.69-1.11-1.22-1.46-1.6-.13-.15-.29-.29-.48-.42-.5-.35-.98-.44-1.44-.25-.46.18-.74.57-.84,1.17-.03.16-.05.33-.06.5,0,.18-.01.38-.02.62,0,.23-.01.4-.01.5Z"/><path class="cls-2" d="M189.26,61.4h5.93c.53,0,.91.05,1.15.14s.41.27.5.52c.1.25.14.64.14,1.16-.01.38-.03.66-.04.83-.06.35-.16.58-.3.7-.14.12-.39.17-.76.15-1.03-.04-1.84-.08-2.46-.11-.1-.01-.24-.01-.42,0-1.04.06-1.68.58-1.93,1.58-.13.53-.2,1.04-.2,1.56-.03,2.09-.03,3.95,0,5.58.01.39.09,1.11.22,2.15.06.37.04.63-.07.78-.1.15-.32.24-.66.25-.54.03-1.35,0-2.44-.09-.32-.03-.47-.29-.44-.77.12-3.32.17-5.28.17-5.86.01-.86-.05-2.05-.2-3.56-.03-.32-.12-.6-.26-.84s-.34-.44-.57-.59c-.23-.15-.51-.26-.81-.32-.35-.06-1.03-.07-2.04-.04-.17,0-.42.02-.73.06-.32.04-.52.07-.6.09-.28.01-.48-.03-.61-.13-.13-.1-.21-.3-.22-.59-.03-.45-.03-.9,0-1.34.03-.32.09-.58.19-.77.09-.19.24-.33.43-.42.19-.09.44-.13.75-.13h6.28Z"/><g id="Layer_1-2"><path class="cls-2" d="M43.38,170.18h1.15c.18,0,.36,0,.53.02.59.04,1.08.11,1.48.2.44.11.76.35.96.73s.23.77.06,1.2c-.06.18-.13.34-.2.48-.25.43-.24.85.04,1.26.14.21.26.44.34.67.13.37.13.73.02,1.05s-.35.59-.69.8c-.22.13-.45.23-.7.29s-.52.09-.81.1c-.17,0-.41,0-.71,0h-.71c-.33,0-.8.02-1.43.03-.62.02-.98.02-1.08.02-.12,0-.22,0-.28,0-.25-.02-.35-.16-.3-.39.09-.39.14-.99.12-1.8-.02-1.56-.04-2.75-.06-3.54,0-.12-.03-.34-.09-.66-.02-.09-.02-.17,0-.23s.05-.11.1-.14c.05-.03.13-.05.23-.05.07,0,.4,0,.98,0h1.08ZM43.29,172.8c.08.02.16.03.24.05s.18.02.3.03c.12,0,.2.02.25.02.15,0,.3-.02.47-.04.29-.04.51-.09.65-.15.2-.08.3-.23.28-.48-.02-.24-.13-.39-.33-.45-.2-.06-.35-.09-.44-.09-.32-.02-.64-.02-.98,0-.2,0-.35.04-.48.09-.25.12-.37.28-.37.51,0,.27.14.44.42.52h0ZM43.69,175.46h.49c.34,0,.56,0,.67-.02.18-.02.33-.08.44-.19.11-.1.17-.23.17-.37,0-.3-.19-.48-.57-.55-.5-.09-.98-.09-1.43,0-.17.03-.3.1-.41.2-.1.1-.16.22-.16.35s.06.24.16.35.23.17.4.2c.06,0,.14.02.23.02h0Z"/><path class="cls-2" d="M50.04,170.25c.31,0,.48,0,.49,0,.27,0,.45.14.57.41.25.55.45.96.59,1.23.09.18.23.36.4.55.13.13.29.2.46.2s.33-.06.47-.19c.09-.08.15-.15.19-.21.4-.76.66-1.25.76-1.47.09-.2.19-.33.29-.4.1-.07.25-.11.45-.11h.69c.12,0,.2,0,.26.02.14.02.23.07.27.14.03.07,0,.16-.07.29-.06.11-.19.31-.37.6-.19.29-.33.52-.42.67-.54.91-1.03,1.76-1.49,2.56-.26.46-.34,1.03-.25,1.7,0,.05.02.11.03.19s.03.14.03.17c.02.13.02.23-.03.29s-.13.11-.25.12c-.09.02-.32.02-.68,0h-.09s-.07,0-.12-.02c-.04,0-.08,0-.1,0-.13-.02-.22-.05-.27-.1s-.07-.15-.06-.29c0-.07.02-.2.03-.37.02-.17.02-.31.02-.41.02-.47-.09-.91-.33-1.3-.03-.06-.23-.4-.58-1.01-.35-.6-.62-1.06-.8-1.37-.09-.13-.22-.36-.41-.68-.19-.32-.33-.56-.43-.73-.18-.31-.09-.47.27-.48h.47v-.02Z"/><path class="cls-2" d="M68.06,175.76s-.04.69-.05.72c-.02.12-.05.2-.1.24s-.13.07-.25.07c-.28,0-.65.08-1.09.25-.69.27-1.39.34-2.12.19-.73-.15-1.36-.48-1.89-.98-.91-.88-1.19-2-.85-3.34.39-1.57,1.46-2.56,3.22-2.97.55-.12,1.16-.05,1.87.23.45.17.79.27,1.01.28.13,0,.22.04.27.09s.08.15.08.27c0,.4-.02.76-.05,1.08-.03.29-.2.4-.48.32-.09-.02-.19-.07-.3-.15-.05-.03-.13-.09-.25-.17-.12-.08-.2-.14-.27-.18-.79-.5-1.58-.57-2.37-.21-.31.13-.57.33-.78.58s-.36.52-.44.82-.11.6-.08.92c.03.32.12.62.26.91.21.42.51.73.88.95.37.21.77.31,1.2.29.43-.02.84-.14,1.25-.37.08-.05.16-.09.23-.15s.17-.12.29-.21c.11-.09.19-.14.22-.17.16-.12.3-.16.41-.11.11.05.16.19.17.37v.41l-.02.02Z"/><path class="cls-2" d="M73.26,174.37c-.53.05-.81.08-.85.09-.36.05-.58.27-.68.65-.06.27-.05.67.03,1.21,0,.02,0,.08.02.15.02.08.02.13.03.18.02.11,0,.2-.05.26s-.12.1-.21.11c-.29,0-.68,0-1.16-.05-.07,0-.12-.04-.16-.09s-.05-.12-.03-.2c.05-.23.07-.47.09-.71,0-.24,0-.55,0-.92,0-.37,0-.62,0-.71,0-.59-.02-1.51-.06-2.79,0-.05-.02-.34-.08-.85-.02-.16,0-.29.05-.36.06-.07.17-.11.33-.12.27,0,.61.02,1.03.05.18.02.26.14.24.37-.02.2-.03.58-.07,1.12,0,.05,0,.1,0,.17.02.21.05.39.12.52s.16.24.3.32c.12.08.3.13.52.17.38.06.86.05,1.44-.05.24-.04.43-.12.55-.26s.19-.32.2-.55c.02-.37.02-.83-.03-1.37-.02-.2,0-.33.05-.4s.17-.11.35-.11c.24,0,.55.02.9.05.23.02.34.16.31.41-.03.32-.05.58-.06.77-.03,1.78-.05,2.93-.04,3.44,0,.22.04.8.12,1.72,0,.09,0,.16,0,.21-.02.05-.04.1-.09.13s-.11.05-.19.05c-.32.02-.69,0-1.08-.04-.09,0-.16-.04-.19-.09-.03-.05-.04-.15-.02-.27.03-.6.05-.98.04-1.15-.02-.32-.09-.55-.23-.71s-.37-.26-.69-.31c-.09-.02-.23-.02-.41-.03-.02,0-.34-.02-.34-.03v.02Z"/><path class="cls-2" d="M83.66,170.23c.05,0,.12,0,.22-.02.09,0,.17-.02.21-.02.24,0,.41,0,.48,0,.14.02.24.05.31.12s.1.16.12.29c.02.3.03.59,0,.88-.02.13-.05.23-.12.27s-.17.05-.31.02c-.36-.06-.63-.09-.82-.09-.78-.02-1.56-.02-2.33,0-.2,0-.41.04-.63.12-.24.09-.35.26-.33.53.02.26.15.41.4.48.28.06.53.1.76.11.16,0,.41,0,.72-.02s.52-.02.63-.02c.1,0,.27,0,.48.04.2.03.32.15.34.35.02.24.03.46,0,.67,0,.07-.03.13-.07.19-.04.05-.09.1-.16.13-.06.04-.13.05-.2.05-.2,0-.68.02-1.44.02h-.75c-.11,0-.23.04-.37.09-.23.09-.35.26-.35.49,0,.05,0,.11.03.16s.05.1.08.15c.03.05.07.09.12.12.05.04.1.06.15.07.2.05.37.09.52.08.84,0,1.77-.02,2.79-.05.06,0,.15-.02.26-.04.11-.02.18-.04.2-.04.14-.02.24-.02.3.04.06.05.09.15.09.28.02.27.02.54,0,.83,0,.13-.03.23-.09.29-.06.06-.16.11-.28.13-.07,0-.17,0-.31,0-.1,0-.35,0-.75,0h-.76c-.38,0-.98,0-1.81.02s-1.46.02-1.89.03c-.26,0-.41-.03-.46-.09-.05-.06-.05-.22,0-.48.05-.31.08-.66.09-1.05.02-.73.02-1.4,0-2.01,0-.34-.04-1.12-.09-2.33,0-.09-.02-.2-.05-.33-.05-.2-.05-.32,0-.39s.18-.09.38-.09c.1,0,.68,0,1.73,0h2.93Z"/><path class="cls-2" d="M89.57,170.24c1.16,0,1.8,0,1.92,0,.13,0,.33,0,.59-.02s.43-.02.52-.02c.12,0,.23,0,.34.02.15.03.26.09.31.16.06.07.09.19.1.34.02.45.02.72.02.8-.02.15-.05.24-.11.27s-.16.04-.31,0c-.33-.05-.6-.09-.81-.09-.65-.02-1.39-.02-2.22,0-.2,0-.41.02-.64.08-.12.03-.23.09-.33.19-.12.11-.18.23-.18.37s.06.26.19.36c.11.09.21.14.31.16.33.05.62.08.88.08.19,0,.45,0,.8-.02.35,0,.57-.02.67-.02.11,0,.2.02.27.04.13.05.2.11.23.16.11.34.11.67,0,.99-.03.09-.12.15-.28.2-.09.02-.23.04-.41.05h-1.64c-.13,0-.24,0-.31,0-.27.04-.48.14-.63.3-.15.16-.23.37-.23.65s.02.71.06,1.29c.02.13,0,.24-.05.31-.05.07-.13.11-.26.12-.31.02-.66.03-1.07,0-.2-.02-.3-.13-.27-.36.05-.47.09-.97.09-1.5,0-.52,0-1.12,0-1.77-.02-.66-.02-1.15-.02-1.49,0-.12,0-.25,0-.37-.02-.13-.03-.29-.06-.48-.02-.2-.04-.32-.05-.37-.02-.24.08-.37.31-.41.05,0,.16,0,.29,0h2.01l-.02-.02Z"/><path class="cls-2" d="M103.58,174.52c0-.06.03-.43.07-1.1-.03-1.41-.05-2.23-.07-2.46,0-.02-.02-.18-.06-.45-.05-.27.05-.41.3-.43.33-.02.68-.02,1.04,0,.12,0,.2.04.26.1s.08.14.06.25c-.05.34-.08.73-.09,1.15,0,.43,0,.81,0,1.15.02.34,0,.73,0,1.15-.02.4-.05.77-.12,1.12-.12.62-.44,1.14-.98,1.53-.59.43-1.18.63-1.76.61-.54-.02-.9-.05-1.08-.09-.98-.2-1.65-.8-2.01-1.79-.06-.18-.13-.48-.2-.91-.02-.09-.02-.18,0-.23.02-.06.05-.11.11-.13.05-.03.14-.05.24-.05h.88c.13,0,.23.02.27.08.05.05.07.15.07.28,0,.42.07.73.23.94.29.36.63.55,1.03.56.5.02.88-.06,1.14-.24.37-.27.59-.62.65-1.05h.02Z"/><path class="cls-2" d="M112.47,177.02c-.39-.05-.61-.07-.64-.07-.22-.02-.37-.14-.44-.35-.15-.38-.41-.58-.8-.59-.75-.03-1.27-.04-1.57-.03-.39.02-.64.2-.76.57-.1.31-.32.46-.64.44-.49-.02-.76-.03-.82-.04-.16-.02-.27-.06-.3-.13s-.02-.18.05-.33c.52-1.19.85-1.94.98-2.26.28-.71.67-1.69,1.15-2.93.05-.16.11-.37.16-.63.02-.15.07-.26.14-.33.07-.07.17-.11.3-.12.32,0,.74,0,1.26.05.09,0,.16.04.21.11.05.06.08.15.09.24,0,.09.02.17.03.25.02.09.04.18.07.29.03.11.05.19.07.23.02.05.05.14.1.27.05.13.09.21.09.23.47,1.23.75,1.95.84,2.18.16.38.5,1.2,1.04,2.47.1.24.03.39-.23.43-.14.02-.27.03-.39.03l.02.02ZM109.81,173.33c-.11,0-.21.02-.3.08-.09.05-.16.12-.2.22-.05.09-.07.2-.07.31,0,.19.05.34.16.45s.24.17.41.16c.16,0,.3-.05.41-.17.1-.12.16-.26.16-.43,0-.07,0-.14-.03-.21s-.05-.12-.08-.17-.07-.09-.12-.13c-.05-.04-.1-.07-.16-.09s-.12-.03-.19-.03h0Z"/><path class="cls-2" d="M114.88,175.69v-1.94c0-1.24,0-1.93,0-2.08,0-.24-.02-.55-.07-.92-.02-.17,0-.3.05-.36.05-.06.16-.11.33-.12.07-.02.16-.02.25-.02,2.01,0,3.18,0,3.53,0,.31,0,.69.05,1.12.16.57.13.94.5,1.11,1.08.12.42.14.8.08,1.15-.09.55-.37.98-.84,1.28-.02.02-.09.06-.2.12-.54.34-.66.79-.39,1.36.03.06.22.41.56,1.05.02.02.02.03.04.05.02.02.02.05.04.06.02.02.02.04.03.05.09.19.02.3-.17.35-.12.02-.27.04-.43.04-.08,0-.18,0-.31-.02s-.22-.02-.26-.02c-.16,0-.28-.03-.35-.09s-.13-.15-.19-.3c-.2-.6-.52-1.19-.93-1.76-.2-.27-.44-.4-.75-.4s-.51.14-.62.41c-.07.17-.11.34-.11.48,0,.34.02.74.05,1.21.02.26-.08.4-.3.41-.3.02-.66.03-1.06,0-.17,0-.26-.13-.24-.37.02-.47.04-.77.05-.9h0ZM117.33,172.88s.2,0,.54,0c.06,0,.2-.02.42-.02s.38-.02.5-.04c.16-.03.27-.09.36-.19.09-.09.12-.2.12-.34s-.05-.24-.13-.34c-.09-.09-.21-.16-.37-.2-.05,0-.09,0-.11,0-.76-.02-1.22-.04-1.4-.04-.11,0-.23.03-.35.09-.22.11-.33.27-.33.48,0,.23.11.39.32.48.13.05.27.09.43.11v-.02Z"/><path class="cls-2" d="M128.17,170.23c.05,0,.12,0,.22-.02.09,0,.17-.02.21-.02.24,0,.41,0,.48,0,.14.02.24.05.31.12s.1.16.12.29c.02.3.03.59,0,.88-.02.13-.05.23-.12.27s-.17.05-.31.02c-.36-.06-.63-.09-.82-.09-.78-.02-1.56-.02-2.33,0-.2,0-.41.04-.63.12-.24.09-.35.26-.33.53.02.26.15.41.4.48.28.06.53.1.76.11.16,0,.41,0,.72-.02s.52-.02.63-.02c.1,0,.27,0,.48.04.2.03.32.15.34.35.02.24.03.46,0,.67,0,.07-.03.13-.07.19-.04.05-.09.1-.16.13-.06.04-.13.05-.2.05-.2,0-.68.02-1.44.02h-.75c-.11,0-.23.04-.37.09-.23.09-.35.26-.35.49,0,.05,0,.11.03.16s.05.1.08.15.07.09.12.12c.05.04.1.06.15.07.2.05.37.09.52.08.84,0,1.77-.02,2.79-.05.06,0,.15-.02.26-.04s.18-.04.2-.04c.14-.02.24-.02.3.04s.09.15.09.28c.02.27.02.54,0,.83,0,.13-.03.23-.09.29-.06.06-.16.11-.28.13-.07,0-.17,0-.31,0-.1,0-.35,0-.75,0h-.76c-.38,0-.98,0-1.81.02s-1.46.02-1.89.03c-.26,0-.41-.03-.46-.09-.05-.06-.05-.22,0-.48.05-.31.08-.66.09-1.05.02-.73.02-1.4,0-2.01,0-.34-.04-1.12-.09-2.33,0-.09-.02-.2-.05-.33-.05-.2-.05-.32,0-.39s.18-.09.38-.09c.1,0,.68,0,1.73,0h2.93Z"/><path class="cls-2" d="M132.97,175.34c0,.08.02.16.02.25s.02.17.02.25c0,.08.02.16.02.24,0,.08.02.16.02.25s.02.17.02.25c.02.1.02.19,0,.25s-.05.11-.1.13c-.05.03-.13.05-.23.05-.29.02-.59.02-.91,0-.27-.02-.37-.15-.34-.41.05-.32.09-.66.09-1.01,0-.36,0-.76,0-1.22,0-.46-.02-.8-.02-1.01,0-.3,0-.81-.05-1.55-.02-.34-.04-.68-.08-1.03-.02-.16,0-.28.05-.34.05-.06.16-.09.32-.09h.98c.13,0,.23.04.3.09s.11.14.13.27c.04.28.16.53.36.76.48.55.94,1.08,1.39,1.57.15.16.31.25.49.25.39.02.61-.13.65-.48.04-.3.05-.76.05-1.37,0-.07,0-.15-.02-.23,0-.08-.02-.16-.04-.27-.02-.1-.03-.18-.03-.23-.02-.09,0-.16,0-.21s.05-.09.09-.12.11-.05.2-.05c.32-.02.66-.02,1.01,0,.12,0,.2.03.25.09.05.05.07.14.06.27-.02,1.62-.04,2.69-.05,3.21,0,.09,0,.26-.02.52s-.02.47-.02.61c.02.35.05.87.12,1.57.02.14,0,.24-.05.31-.05.06-.14.09-.27.09h-1.04c-.23,0-.36-.11-.39-.3-.05-.32-.23-.64-.52-.96-.11-.12-.3-.34-.58-.64s-.49-.54-.65-.71c-.05-.06-.13-.12-.21-.19-.22-.16-.43-.2-.63-.11s-.33.25-.37.52c-.02.07-.02.15-.02.23s0,.16,0,.27v.23h0Z"/><path class="cls-2" d="M145.64,170.24c.27,0,.48.15.63.41.09.19.37.63.83,1.33.03.04.09.11.2.2.15.14.32.22.52.22s.37-.06.51-.21c.43-.44.77-.95,1.01-1.55.03-.09.06-.15.09-.2s.06-.09.11-.12.09-.06.16-.08.13-.02.21-.02c.37,0,.72,0,1.04,0,.13,0,.23.02.3.05s.11.09.13.16c.02.08.02.18,0,.31-.04.27-.05.5-.05.69v4.03c0,.23.04.59.11,1.08.02.16.02.27-.03.33s-.15.1-.3.11c-.3.02-.6.02-.9,0-.14,0-.24-.04-.3-.11s-.07-.17-.05-.3c.09-.58.1-1.26,0-2.04-.02-.12-.05-.23-.11-.34-.09-.15-.2-.24-.34-.27-.15-.04-.29,0-.43.09-.11.09-.27.24-.48.48-.04.05-.09.11-.13.18-.05.07-.1.13-.16.2-.05.06-.09.12-.13.17-.11.12-.21.17-.29.17-.09,0-.18-.07-.28-.2-.05-.07-.13-.18-.23-.31s-.18-.24-.23-.3c-.11-.14-.21-.25-.3-.32-.2-.18-.41-.23-.62-.16s-.34.24-.39.51c-.09.52-.09,1.15.02,1.88,0,.03.02.09.03.15s.02.12.02.16c.02.13,0,.23-.04.3-.05.06-.13.09-.26.1-.32.02-.62.02-.9,0-.16-.02-.26-.05-.31-.12-.05-.07-.08-.18-.06-.34.03-.55.05-1.04.05-1.45.02-.76.02-1.54,0-2.3,0-.37-.02-.94-.05-1.7,0-.04-.03-.17-.07-.41-.03-.17-.02-.29.02-.35s.16-.09.34-.1c.02,0,1.12,0,1.14,0l-.02-.02Z"/><path class="cls-2" d="M153.47,174.89c-.02-.09-.04-.18-.05-.28-.06-.32-.08-.66-.05-1.03.05-.64.16-1.15.34-1.53.3-.66.78-1.21,1.44-1.62.59-.37,1.23-.56,1.9-.59,1.01-.03,1.81.34,2.41,1.12.35.45.59,1.05.71,1.81.11.64.09,1.27-.05,1.9-.16.69-.48,1.26-.99,1.68-.51.42-1.13.68-1.87.77-.55.08-1.1.04-1.64-.12-1.12-.32-1.83-1.02-2.15-2.11h0ZM157.79,175.39c.52-.48.77-1.05.75-1.72v-.26c.02-.5-.09-.95-.3-1.37-.27-.5-.62-.8-1.08-.87-.65-.11-1.18.11-1.61.67-.3.39-.48.95-.53,1.7-.04.49.02.91.17,1.26.23.55.61.88,1.12,1.01.53.13,1.02,0,1.48-.43h0Z"/><path class="cls-2" d="M162.28,175.69v-1.94c0-1.24,0-1.93,0-2.08,0-.24-.02-.55-.07-.92-.02-.17,0-.3.05-.36.05-.06.16-.11.33-.12.07-.02.16-.02.25-.02,2.01,0,3.18,0,3.53,0,.31,0,.69.05,1.12.16.57.13.94.5,1.11,1.08.12.42.14.8.08,1.15-.09.55-.37.98-.84,1.28-.02.02-.09.06-.2.12-.54.34-.66.79-.39,1.36.03.06.22.41.56,1.05.02.02.02.03.04.05s.02.05.04.06c.02.02.02.04.03.05.09.19.02.3-.17.35-.12.02-.27.04-.43.04-.08,0-.18,0-.31-.02s-.22-.02-.26-.02c-.16,0-.28-.03-.35-.09s-.13-.15-.19-.3c-.2-.6-.52-1.19-.93-1.76-.2-.27-.44-.4-.75-.4s-.51.14-.62.41c-.07.17-.11.34-.11.48,0,.34.02.74.05,1.21.02.26-.08.4-.3.41-.3.02-.66.03-1.06,0-.17,0-.26-.13-.24-.37.02-.47.04-.77.05-.9h0ZM164.73,172.88s.2,0,.54,0c.06,0,.2-.02.42-.02s.38-.02.5-.04c.16-.03.27-.09.36-.19.09-.09.12-.2.12-.34s-.05-.24-.13-.34c-.09-.09-.21-.16-.37-.2-.05,0-.09,0-.11,0-.76-.02-1.22-.04-1.4-.04-.11,0-.23.03-.35.09-.22.11-.33.27-.33.48,0,.23.11.39.32.48.13.05.27.09.43.11v-.02Z"/><path class="cls-2" d="M170.62,175.69v-1.94c0-1.24,0-1.93,0-2.08,0-.24-.02-.55-.07-.92-.02-.17,0-.3.04-.36.05-.06.16-.11.33-.12.07-.02.16-.02.25-.02,2.01,0,3.18,0,3.53,0,.31,0,.69.05,1.12.16.57.13.94.5,1.11,1.08.12.42.14.8.08,1.15-.09.55-.37.98-.84,1.28-.02.02-.09.06-.2.12-.54.34-.66.79-.39,1.36.03.06.22.41.56,1.05.02.02.02.03.04.05s.02.05.04.06c.02.02.02.04.03.05.09.19.02.3-.17.35-.12.02-.27.04-.43.04-.08,0-.18,0-.31-.02s-.22-.02-.26-.02c-.16,0-.28-.03-.35-.09s-.13-.15-.19-.3c-.2-.6-.52-1.19-.93-1.76-.2-.27-.44-.4-.75-.4s-.51.14-.62.41c-.07.17-.11.34-.11.48,0,.34.02.74.05,1.21.02.26-.08.4-.3.41-.3.02-.66.03-1.06,0-.17,0-.26-.13-.24-.37.02-.47.04-.77.05-.9h0ZM173.07,172.88s.2,0,.54,0c.06,0,.2-.02.42-.02s.38-.02.5-.04c.16-.03.27-.09.36-.19.09-.09.12-.2.12-.34s-.05-.24-.13-.34c-.09-.09-.21-.16-.37-.2-.05,0-.09,0-.11,0-.76-.02-1.22-.04-1.4-.04-.11,0-.23.03-.35.09-.22.11-.33.27-.33.48,0,.23.11.39.32.48.13.05.27.09.43.11v-.02Z"/><path class="cls-2" d="M178.77,174.89c-.02-.09-.04-.18-.05-.28-.06-.32-.08-.66-.05-1.03.05-.64.16-1.15.34-1.53.3-.66.78-1.21,1.44-1.62.59-.37,1.23-.56,1.9-.59,1.01-.03,1.81.34,2.41,1.12.35.45.59,1.05.71,1.81.11.64.09,1.27-.05,1.9-.16.69-.48,1.26-.99,1.68-.51.42-1.13.68-1.87.77-.55.08-1.1.04-1.64-.12-1.12-.32-1.83-1.02-2.15-2.11h0ZM183.09,175.39c.52-.48.77-1.05.75-1.72v-.26c.02-.5-.09-.95-.3-1.37-.27-.5-.62-.8-1.08-.87-.65-.11-1.18.11-1.61.67-.3.39-.48.95-.53,1.7-.04.49.02.91.17,1.26.23.55.61.88,1.12,1.01.53.13,1.02,0,1.48-.43h0Z"/><path class="cls-2" d="M188.32,170.23c.14.02.24.05.29.11.05.05.09.16.12.3.13.74.2,1.12.2,1.14.05.2.12.41.23.64.1.23.27.34.51.35.2,0,.36-.11.48-.34.09-.16.14-.3.17-.43.09-.41.19-.85.28-1.32.04-.2.09-.33.17-.39.08-.07.21-.1.4-.1.3,0,.7.02,1.21.05.2.02.32.15.37.4.12.64.23,1.18.34,1.62.03.14.1.28.2.41.11.14.25.21.42.2.17,0,.31-.09.41-.23.09-.12.13-.23.16-.33.19-.76.3-1.27.34-1.54.05-.27.1-.43.17-.49s.23-.09.5-.09c.3,0,.57.02.8.05.12.02.2.05.24.12.04.06.04.16,0,.28-.05.19-.12.45-.23.79-.1.34-.19.65-.27.93-.08.28-.16.55-.23.79-.16.61-.42,1.57-.76,2.88-.02.08-.05.24-.08.48-.02.17-.07.3-.15.38-.08.08-.21.12-.38.12-.34,0-.76-.02-1.26-.05-.2-.02-.31-.15-.36-.41-.1-.52-.21-1.03-.32-1.51-.03-.13-.09-.26-.17-.37-.13-.17-.3-.25-.49-.23s-.34.12-.44.32c-.21.44-.36.98-.44,1.62,0,.02,0,.05,0,.11,0,.06-.02.11-.02.14-.03.13-.08.22-.13.27-.05.05-.15.08-.27.08-.45.02-.86.02-1.22,0-.08,0-.14,0-.2-.02-.05-.02-.1-.05-.14-.09s-.07-.09-.09-.14c-.02-.05-.03-.12-.05-.21-.05-.39-.12-.73-.2-1.01-.28-1.03-.68-2.5-1.2-4.42-.02-.05-.05-.14-.09-.25-.04-.11-.06-.18-.07-.2-.09-.24,0-.37.25-.41h.08s.94.02.96.03h-.02Z"/></g></g></svg>