<?xml version="1.0" encoding="UTF-8"?>
<svg id="Layer_2" xmlns="http://www.w3.org/2000/svg" version="1.1" viewBox="0 0 945.7 60.7">
  <!-- Generator: Adobe Illustrator 29.0.1, SVG Export Plug-In . SVG Version: 2.1.0 Build 192)  -->
  <defs>
    <style>
      .st0 {
        fill: #fff;
      }
    </style>
  </defs>
  <g id="Layer_1-2">
    <path class="st0" d="M0,53.8c1.5-1.5,2.9-2,3.8-4.1,1.7-4.2.8-27.6.8-27.9,0-2.5-.2-7.4-1-9.6-.3-.9-2.5-2.3-3.3-2.7-.2-.1-.2-.4-.2-.6,0-.9.6-2.6.9-3.6.3-1.3.3-2.4,1.9-2.5,1.2,0,2.5-.2,3.8-.2h11.9c.5.3.8.3,1,.9.4.8.7,3.5.7,4.5s-2.7,2-3.1,3.4c-1.3,4.8-.9,10-.9,14.9s-.3,1.9.5,1.9l.5-.2c2-2.3,10-15.1,10-16.3s-2.4-1.5-2.4-2.9.7-5.9,1.8-5.9c1.6,0,3.3.3,4.9.3s4.3,0,6.3-.2c1.2,0,2.3-.3,3.5-.3s1,0,1.5.2c.5.7,1.5,4.6,1.5,5.3,0,1.2-4.3,2.7-5.2,4.6-.3.6-.8,1.1-1.2,1.6-1.9,2.7-7.1,10-7.1,13.1s5.7,15.2,6.7,18.2c.2.7.9,1.3,1.3,1.9,2.2,1.3,4,1.3,5.9,2.5.2.9.3,1.8.3,2.7s-1,5.2-1.5,6.1c-.6,0-1.2.2-1.8.2-1,0-1.9-.3-2.9-.3-2.8,0-5.6.5-8.3.5s-3.7.8-4.6-2.4c-.3-1.1-.9-1.8-1.2-2.8,0,0-.1-.4-.1-.5,0-1.1,2.8-.8,2.8-3.3s-3.6-10.5-5.2-12.1h-.1c-1.6,0-5,7.2-5.6,8.6.7,3.1,2,5.3,5.1,6.6-.5,1.7-1.5,3.7-2.2,5.3-4,0-8,.3-12,.3s-2.9.4-4.5.4h-.5C1.7,57.5.8,55.8,0,53.8h0Z"/>
    <path class="st0" d="M48.1,11.1c0-.8.7-2.4,1-3.2.5-1.3.4-3.6.8-4.3.5-.8,2.9-.5,3.8-.5,2.2,0,4.4-.2,6.6-.2s4.7.5,6.8.5,3.6-.2,5.3-.2c2.2,0,4.6,0,6.8,0,3.3,0,6.7-.6,10.1-.6s2.2-.2,2.8.7c0,.8,0,1.5,0,2.3,0,1.2.2,2.3.2,3.5,0,3.7-.2,7.4-.2,11.1-1.4.5-3.3.8-4.8,1.1-1.8-3.6-6.2-8-10.5-8s-2.3,0-3.5,0c-2.8,0-3.9-.5-6.1,1.6-.2.2-.3.5-.3.8,0,2-.2,4-.2,6s.7,2.7,1.7,4.2c.3,0,.6,0,1,0,3.1,0,7.5-1.4,8.8-4.3.4-.9,2.5-1.2,3.4-1.2h.5c.3,1.5.4,10.9.4,13s-.5,3.8,0,5.6c-.9.4-1.8.5-2.8.8-2.8-2.8-5.2-4.3-9.3-4.3s-2,.8-2.5,1.1c-2,1.3-1.5,3.3-1.5,5.4s-.2,2.6.9,3.9c1.2,1.5,4.6,2.4,6.4,2.4,6,0,11.7-2.4,14.9-7.8.7-.2,1.3-.4,2-.4h1.2c1,1,.5,10.3.5,12.3s.3,2.2.3,3.3-.4,1.5-.5,2.2c-.5.3-.9.6-1.4,1-1.8,0-3.6.3-5.4.3-7.4,0-14.8-.3-22.3-.3s-8.3.2-12.4.2c-1.2-.5-2.4-3.9-2.4-5.2,0-2.5,4.5-4.4,4.9-7.3.2-1.4.2-2.9.2-4.2s-.2-3.1-.2-4.6l-.2-17.7c0-.6.2-1.2.2-1.9,0-3.6-1.9-4.4-4.5-6.3l-.3-.2c0-.2,0-.4,0-.6h0Z"/>
    <path class="st0" d="M101.1,45.2c0-8.2.7-16.4.7-24.7s-1.1-7.7-4.9-8.9c0-.8.9-3.7,1.2-4.6.2-.7,0-1.6.4-2.2.4-.5.8-1.2,1.2-1.7.2,0,.4,0,.6,0,1.8,0,3.6.2,5.5.2s5.1-.2,7.6-.2c.5.3.8.9.9,1.3,1.3,4,2.8,7.8,5,11.5,1.2,1.9,1.7,4.1,2.9,6,.8,1.5,1.5,3.2,2,4.9.2.5,2.2,4,2.4,4.2.2.1.3.4.5.6.5.8.7,1.5,1.4,2.2,0-3.7.8-7.4.8-11.1s-.1-4.4-.2-6.6c-1.3-2-1.3-3-3.6-4.2-.3-.1-.5-.4-.5-.8,0-2.1.9-5.3,1.6-7.5.5-.3,1.6-.5,2.2-.5,1.4,0,2.8.2,4.2.2s3.2-.2,4.7-.2,2.4-.4,3.5-.4,2.5.8,2.7,1.6l1.1,5.6c0,1-4.2,3.6-4.2,9.2s-.1,3.6-.1,5.4v23.2c0,1,.2,2.6.8,3.4.5.6,2,.6,2,1.6s0,.7-.2.9c-1,1.5-.9,3.4-1.6,4.9-.2.5-.5.8-1.1.8s-1.5-.3-2.2-.3-.8.2-1.2.2c-2.8,0-5.6-.2-8.4-.2s-2.9.5-3.7.5-.3-.2-.3-.4c-.4-1.8-.8-3.3-1.3-5,0-.3-.3-.7-.2-1,.9-.9,1.5-1.5,1.5-2.8,0-2.1-1.9-4.5-2.9-6.2-.8-1.3-1.5-2.9-2-4.2-1.2-3.2-3.6-6.6-5.6-9.3-.3,0-.5,0-.8,0-.8,1.5-.9,10.1-.9,12.4s-.2,5.7,1.8,7.6,2.9,2.5,2.9,3.2c0,1.8-.9,3.8-1.2,5.6-.3,0-.6.2-.9.2-.9,0-1.8-.2-2.7-.2-4.2,0-8.3.5-12.4.5s-1.1-.2-1.5-.4c-1.1-1.4-1.8-3.9-2.2-5.6,3.3-2.8,5.1-3.7,5.1-8.4h0Z"/>
    <path class="st0" d="M154.6,45.2c0-8.2.7-16.4.7-24.7s-1.1-7.7-4.9-8.9c0-.8.9-3.7,1.2-4.6.1-.7,0-1.6.4-2.2.4-.5.8-1.2,1.2-1.7.2,0,.4,0,.6,0,1.9,0,3.6.2,5.5.2s5.1-.2,7.6-.2c.5.3.8.9.9,1.3,1.3,4,2.8,7.8,5,11.5,1.2,1.9,1.7,4.1,2.9,6,.9,1.5,1.5,3.2,2,4.9.1.5,2.2,4,2.4,4.2.1.1.3.4.5.6.5.8.7,1.5,1.4,2.2,0-3.7.8-7.4.8-11.1s-.1-4.4-.2-6.6c-1.3-2-1.3-3-3.6-4.2-.3-.1-.5-.4-.5-.8,0-2.1.9-5.3,1.6-7.5.5-.3,1.6-.5,2.2-.5,1.4,0,2.8.2,4.2.2s3.2-.2,4.7-.2,2.4-.4,3.5-.4,2.5.8,2.7,1.6l1.1,5.6c0,1-4.2,3.6-4.2,9.2s-.1,3.6-.1,5.4v23.2c0,1,.2,2.6.8,3.4.5.6,2,.6,2,1.6s0,.7-.2.9c-1,1.5-.9,3.4-1.6,4.9-.2.5-.5.8-1.1.8s-1.5-.3-2.2-.3-.8.2-1.2.2c-2.8,0-5.6-.2-8.4-.2s-2.9.5-3.7.5-.3-.2-.3-.4c-.4-1.8-.9-3.3-1.3-5,0-.3-.3-.7-.2-1,.9-.9,1.5-1.5,1.5-2.8,0-2.1-1.9-4.5-2.9-6.2-.8-1.3-1.5-2.9-2-4.2-1.2-3.2-3.6-6.6-5.6-9.3-.3,0-.5,0-.9,0-.8,1.5-.9,10.1-.9,12.4s-.1,5.7,1.8,7.6c.5.5,2.9,2.5,2.9,3.2,0,1.8-.9,3.8-1.2,5.6-.3,0-.6.2-.9.2-.9,0-1.8-.2-2.7-.2-4.2,0-8.3.5-12.4.5s-1.1-.2-1.5-.4c-1.1-1.4-1.9-3.9-2.2-5.6,3.3-2.8,5.1-3.7,5.1-8.4h0Z"/>
    <path class="st0" d="M203.8,11.1c0-.8.7-2.4,1-3.2.5-1.3.4-3.6.8-4.3.5-.8,2.9-.5,3.8-.5,2.2,0,4.4-.2,6.6-.2s4.7.5,6.8.5,3.6-.2,5.3-.2c2.2,0,4.6,0,6.8,0,3.3,0,6.7-.6,10.1-.6s2.2-.2,2.8.7c0,.8,0,1.5,0,2.3,0,1.2.1,2.3.1,3.5,0,3.7-.2,7.4-.2,11.1-1.4.5-3.3.8-4.8,1.1-1.8-3.6-6.2-8-10.5-8s-2.3,0-3.5,0c-2.8,0-3.9-.5-6.1,1.6-.2.2-.3.5-.3.8,0,2-.1,4-.1,6s.7,2.7,1.7,4.2c.3,0,.6,0,1,0,3.1,0,7.5-1.4,8.8-4.3.4-.9,2.5-1.2,3.4-1.2h.5c.3,1.5.4,10.9.4,13s-.5,3.8,0,5.6c-.9.4-1.8.5-2.8.8-2.8-2.8-5.2-4.3-9.3-4.3s-2,.8-2.5,1.1c-2,1.3-1.5,3.3-1.5,5.4s-.1,2.6.9,3.9c1.2,1.5,4.6,2.4,6.4,2.4,6,0,11.7-2.4,14.9-7.8.7-.2,1.3-.4,2-.4h1.2c1,1,.5,10.3.5,12.3s.3,2.2.3,3.3-.4,1.5-.5,2.2c-.5.3-.9.6-1.4,1-1.9,0-3.6.3-5.4.3-7.4,0-14.8-.3-22.3-.3s-8.3.2-12.4.2c-1.2-.5-2.4-3.9-2.4-5.2,0-2.5,4.6-4.4,4.9-7.3.1-1.4.2-2.9.2-4.2s-.1-3.1-.1-4.6l-.2-17.7c0-.6.1-1.2.1-1.9,0-3.6-1.9-4.4-4.5-6.3l-.3-.2c0-.2,0-.4,0-.6h0Z"/>
    <path class="st0" d="M253,50.1c2.2-.9,3.6-1.4,4.4-3.9.5-1.7.9-3.9.9-5.7,0-5.6.1-9.4.1-13.7s-.1-8.6-.9-11.9c-.7-2.9-4.5-1.7-4.5-3.8s.7-2.2.8-3.7c0-1.2.8-4.9,2.2-4.9s2.7.4,4.1.4c4.2,0,8.4-.7,12.6-.7h5.6c6.6,0,13.1,1.9,17.9,6.7.9.9,2.5,2.1,2.9,3.3,0,.3.2.5.4.9,1.2,2.4,3.6,8.7,3.9,11.3,1.3,11.3-.3,18.8-7.1,27.9-2.8,3.7-8.5,6.1-13,6.5-.9,0-1.8.4-2.7.4-3.2,0-6.2-.5-9.4-.5s-4.5,0-6.7,0-4.9.6-7.4.6h-1.6c-.5-1.1-.7-2.1-1-3.2-.2-.8-1.9-3.4-1.9-3.8,0-.8.3-1.2.5-1.9h0ZM271,22.4c0,5.7,0,8.8,0,14.2v7.6c0,.6.1,1.2.5,1.7,1,.7,2.2,1.1,3.5,1.1,4.2,0,10-2.1,12.5-5.7.6-.9,1.2-2.1,1.5-3.1,3.5-9,.5-22.9-11.5-22.9h-4.8c-1.9.9-1.8,5.4-1.8,7.1h0Z"/>
    <path class="st0" d="M301.9,3c5.8-.3,11.7-.5,17.5-.5s3,.2,4.5.2c.1,1.1.1,2.3.1,3.5s.2,1.9.2,2.9-2.8,3.2-2.8,5.8,4.4,11.4,5.6,11.4.6-.3.8-.6c.5-.9,4.4-9.3,4.4-10,0-2.9-.5-3.9-2.5-5.8,0-.3,0-.6,0-.9,0-1.4.1-4.4.8-5.6,3,0,6.2-.5,9.2-.5s1.5.2,2.3.2c2.9,0,5.9,0,8.9,0s.2,0,.4,0c.3.4.5.8.5,1.4,0,2.1-.6,4.6-1.2,6.6-.1.6-.5,1.1-1.2,1.1-1.7,0-4.7,1.7-5.6,3.2-1,1.9-1.9,3.9-2.6,5.9-.5,1.6-1.2,3.2-1.9,4.7-.8,1.8-1.2,3.6-1.9,5.4-.6,1.6-1.4,3.3-2.1,4.9-.9,2.2-1.4,4.6-1.4,6.8v1.8c0,2.7.5,3.5,2.3,5.5.9.9,1.9.8,2.6,1.5v.2c0,0,0,.2,0,.2-1,1.8-1.1,4.1-1.5,6.1v.2c-1.8.3-3.5.8-5.2.8s-2-.2-2.9-.2h-10.2c-.2-.5-1.8-5.6-1.8-5.9,0-1.2,2.3-1.8,3.1-3.1,1-1.7,1.1-3.9,1.1-5.9,0-3.9-.7-5.3-1.9-8.2-.8-1.9-8.1-17.8-9.6-21.2-.9-2.2-5.9-2-6.2-3.9-.1-1-1.5-7.1-1.9-7.5,0-.2.1-.4.2-.5h0Z"/>
    <path class="st0" d="M373.2,17c.8-4.6,6.2-12,10.1-13.5,1.5-.6,3-1.3,4.5-1.9.5-.1,5-.6,5.5-.6,3.1,0,7.3,0,10.1,1.1,1.9.7,3.9,1.9,5.9,1.9.7-.5,1.1-1.3,1.5-2,.3,0,.6,0,.9,0,.7,0,2.4,0,2.9.5v.5c0,.5,0,.9,0,1.3-.5,2.7-.1,5.8-.1,8.6s.1,3,.1,4.5v.9c-1.4.5-3.1.5-4.5.5-.8-1.5-2.7-3.1-4.2-4.2-2.3-1.7-7.1-2.6-10-2.6s-6.7.8-8.6,4.6c-2.5,6.3,8.4,6.2,11.4,6.9,8.7.9,12.6,3.4,17.2,10.6,1,1.5,1.5,4.2,1.5,5.9,0,4.4-1.3,10.7-5.2,13.5-1.2.8-1.9,2.2-3.2,2.8-2.7,1.3-6.9,2.9-9.9,2.9h-3.9c-1.5,0-4.4-.5-5.8-.8-.5-.2-1-.4-1.5-.5-1.7-.2-3.5-1.2-5.2-1.2s-3.2.5-4.8,2.2h-.5c-3.6,0-2.9-.5-2.9-3.5v-11.9c0-1.8-.5-3.5-.5-5.2s3.4-.8,4-.8h1.1c.1.2.3.4.5.6,2.1,3.2,3.9,6,7.4,7.7,1.7.8,3.3,1.6,5.2,1.6s2.2.4,3.3.4c3.3,0,8.3-1.9,8.3-5.9s0-1.2-.3-1.7c-1.5-3.5-3.3-4.2-7-4.2-7.3,0-17.5-2.2-21.5-9-1.6-2.9-2.9-5.7-2.2-9.7h0Z"/>
    <path class="st0" d="M422.6,14.7l.9-7.1c.1-1.1,0-3.3.4-4.2,5.8-.2,11.7-.3,17.5-.3h12.2c2.5,0,4.9-.5,7.3-.5s4.2.2,6.2.5c.4.7,1.3,6.9,1.4,8.1.1,2.4,1.1,4.9,1.1,7.3v.5c-.2.1-.5.2-.7.5-.6.9-3.2,1.2-4.2,1.2-2,0-2.9-6.6-8.6-6.6s-4.3,7.5-4.3,11.6,0,10.2,0,15.3,2.2,8.5,6.6,9.9c0,.7-1.3,7-1.5,7.2-.5.7-1.2.9-2,.9-2.8,0-5.5.5-8.2.5s-4.5-.3-6.7-.3-2.9.4-4.3.4-.2,0-.3,0c-.3-1.3-2-6.6-2-7.6s.2-.9.5-1.2c.5-.3,1.2-.5,1.7-.8,1.8-.8,2.5-2.5,3.6-3.9.2-1.1.3-2.2.3-3.2.1-12.2,1.4-27.6-2.4-28-3.9-.5-6.5,1.2-8.2,4.5-.9,1.9-1.2,2.3-1.9,2.3s-1.7-.4-4.1-.4-1.4-.1-1.4-1.1.7-4.1.9-5.2h0Z"/>
    <path class="st0" d="M472.8,52.3c.9-.6,1.8-1.2,2.6-1.8.9-.6,1.5-1.5,2.4-2.2,0-.3,0-.5,0-.8v-29c.1-1.2-.5-2.1-.5-3.2s-2.9-2.9-4.1-3.2c-.1-.1-.2-.4-.2-.6,0-2.3,1.4-4.6,1.5-7,.2-.2.4-.5.6-.7.3,0,.5,0,.9,0,4.9,0,9.8-.8,14.7-.8s3.2.3,4.7.3c2.5,0,4.8-.2,7.3.3,1.8.3,3.3,1.2,5,1.8,4.1,1.5,8.4,3.8,10,8.3.5,1.5,1.2,3.6,1.2,5.2,0,4.1-1.8,10.1-5.1,12.7l-.8.7c-1.3,1.1-2.9,1.5-4.2,2.4,0,0-.3.2-.3.4s3.9,9.4,4.5,10.7c.3.8,1,1.7,1.6,2.2.8.7,4.3,1.5,5.7,2.2.2.8.2,1.8.2,2.7s-.9,4.9-1.5,5.9l-.6.2c-1.4,0-2.8-.3-4.1-.3s-6.4,0-7.7.5c-.2,0-.5,0-.8,0-1.3,0-2.7,0-3.9,0-.5,0-.7,0-.9-.6-.8-1.8-1.5-5.2-2.2-6.6,0-.2-.2-.3-.2-.5,0-.9,2.9-1,2.9-3.3s-3-8-3.9-9.3c-.6-.9-1.6-1.5-2.7-1.5-2.9,0-3.6,2.4-3.6,4.9s-.7,6.9,2.2,7.7c.8.2,1.5.6,2.2.9.1.2.3.4.3.6s-2.6,7.2-2.8,7.5c-.1,0-.4,0-.5,0-2.5,0-5.1.2-7.6.2s-2.5-.4-3.4-.2c-1.9.4-3.8.7-5.6,1.2-.7-.5-2.9-5.2-3.1-6.1,0-.5,0-1.1,0-1.6h0ZM491.3,19v2.6c0,1.1.6,2.2,1.4,3,.5.1,3.9.6,4.3.6,2.9,0,7.5-1.9,7.5-5.2s-3-4.9-6.6-4.9h-2.3c-2.7,0-4.3,1-4.3,3.9Z"/>
    <path class="st0" d="M523.7,11.1c0-.8.7-2.4,1-3.2.5-1.3.4-3.6.8-4.3.5-.8,2.9-.5,3.8-.5,2.2,0,4.4-.2,6.6-.2s4.7.5,6.8.5,3.5-.2,5.3-.2c2.2,0,4.5,0,6.8,0,3.3,0,6.7-.6,10.1-.6s2.2-.2,2.8.7c0,.8,0,1.5,0,2.3,0,1.2.2,2.3.2,3.5,0,3.7-.2,7.4-.2,11.1-1.4.5-3.3.8-4.8,1.1-1.8-3.6-6.2-8-10.5-8s-2.3,0-3.5,0c-2.8,0-3.9-.5-6.1,1.6-.2.2-.3.5-.3.8,0,2-.2,4-.2,6s.7,2.7,1.7,4.2c.3,0,.6,0,1,0,3.1,0,7.5-1.4,8.8-4.3.4-.9,2.5-1.2,3.4-1.2h.5c.3,1.5.4,10.9.4,13s-.5,3.8,0,5.6c-.9.4-1.8.5-2.8.8-2.8-2.8-5.2-4.3-9.3-4.3s-2,.8-2.5,1.1c-2,1.3-1.5,3.3-1.5,5.4s-.2,2.6.9,3.9c1.2,1.5,4.6,2.4,6.4,2.4,6,0,11.7-2.4,14.9-7.8.7-.2,1.3-.4,2-.4h1.2c1,1,.5,10.3.5,12.3s.3,2.2.3,3.3-.4,1.5-.5,2.2c-.5.3-.9.6-1.4,1-1.8,0-3.6.3-5.4.3-7.4,0-14.8-.3-22.3-.3s-8.3.2-12.4.2c-1.2-.5-2.4-3.9-2.4-5.2,0-2.5,4.5-4.4,4.9-7.3.2-1.4.2-2.9.2-4.2s-.2-3.1-.2-4.6l-.2-17.7c0-.6.2-1.2.2-1.9,0-3.6-1.9-4.4-4.5-6.3l-.3-.2c0-.2,0-.4,0-.6h0Z"/>
    <path class="st0" d="M572.4,11.1c0-.8.7-2.4,1-3.2.5-1.3.4-3.6.8-4.3.5-.8,2.9-.5,3.8-.5,2.2,0,4.4-.2,6.6-.2s4.7.5,6.8.5,3.5-.2,5.3-.2c2.2,0,4.5,0,6.8,0,3.3,0,6.7-.6,10.1-.6s2.2-.2,2.8.7c0,.8,0,1.5,0,2.3,0,1.2.2,2.3.2,3.5,0,3.7-.2,7.4-.2,11.1-1.4.5-3.3.8-4.8,1.1-1.8-3.6-6.2-8-10.5-8s-2.3,0-3.5,0c-2.8,0-3.9-.5-6.1,1.6-.2.2-.3.5-.3.8,0,2-.2,4-.2,6s.7,2.7,1.7,4.2c.3,0,.6,0,1,0,3.1,0,7.5-1.4,8.8-4.3.4-.9,2.5-1.2,3.4-1.2h.5c.3,1.5.4,10.9.4,13s-.5,3.8,0,5.6c-.9.4-1.8.5-2.8.8-2.8-2.8-5.2-4.3-9.3-4.3s-2,.8-2.5,1.1c-2,1.3-1.5,3.3-1.5,5.4s-.2,2.6.9,3.9c1.2,1.5,4.6,2.4,6.4,2.4,6,0,11.7-2.4,14.9-7.8.7-.2,1.3-.4,2-.4h1.2c1,1,.5,10.3.5,12.3s.3,2.2.3,3.3-.4,1.5-.5,2.2c-.5.3-.9.6-1.4,1-1.8,0-3.6.3-5.4.3-7.4,0-14.8-.3-22.3-.3s-8.3.2-12.4.2c-1.2-.5-2.4-3.9-2.4-5.2,0-2.5,4.5-4.4,4.9-7.3.2-1.4.2-2.9.2-4.2s-.2-3.1-.2-4.6l-.2-17.7c0-.6.2-1.2.2-1.9,0-3.6-1.9-4.4-4.5-6.3l-.3-.2c0-.2,0-.4,0-.6h0Z"/>
    <path class="st0" d="M618.8,14.7l.9-7.1c.2-1.1,0-3.3.4-4.2,5.8-.2,11.7-.3,17.5-.3h12.2c2.5,0,4.9-.5,7.3-.5s4.2.2,6.2.5c.4.7,1.3,6.9,1.4,8.1.2,2.4,1.1,4.9,1.1,7.3v.5c-.2.1-.5.2-.7.5-.6.9-3.2,1.2-4.2,1.2-2,0-2.9-6.6-8.6-6.6s-4.3,7.5-4.3,11.6,0,10.2,0,15.3,2.2,8.5,6.6,9.9c0,.7-1.3,7-1.5,7.2-.5.7-1.2.9-2,.9-2.8,0-5.5.5-8.2.5s-4.5-.3-6.7-.3-2.9.4-4.3.4-.2,0-.3,0c-.3-1.3-2-6.6-2-7.6s.2-.9.5-1.2c.5-.3,1.2-.5,1.7-.8,1.8-.8,2.5-2.5,3.6-3.9.2-1.1.3-2.2.3-3.2.2-12.2,1.4-27.6-2.4-28-3.9-.5-6.5,1.2-8.2,4.5-.9,1.9-1.2,2.3-1.9,2.3s-1.7-.4-4.1-.4-1.4-.1-1.4-1.1.7-4.1.8-5.2h0Z"/>
    <path class="st0" d="M684.5,14.7l.9-7.1c.2-1.1,0-3.3.4-4.2,5.8-.2,11.7-.3,17.5-.3h12.2c2.5,0,4.9-.5,7.3-.5s4.2.2,6.2.5c.4.7,1.3,6.9,1.4,8.1.2,2.4,1.1,4.9,1.1,7.3v.5c-.2.1-.5.2-.7.5-.6.9-3.2,1.2-4.2,1.2-2,0-2.9-6.6-8.6-6.6s-4.3,7.5-4.3,11.6,0,10.2,0,15.3,2.2,8.5,6.6,9.9c0,.7-1.3,7-1.5,7.2-.5.7-1.2.9-2,.9-2.8,0-5.5.5-8.2.5s-4.5-.3-6.7-.3-2.9.4-4.3.4-.2,0-.3,0c-.3-1.3-2-6.6-2-7.6s.2-.9.5-1.2c.5-.3,1.2-.5,1.7-.8,1.8-.8,2.5-2.5,3.6-3.9.2-1.1.3-2.2.3-3.2.2-12.2,1.4-27.6-2.4-28-3.9-.5-6.5,1.2-8.2,4.5-.9,1.9-1.2,2.3-1.9,2.3s-1.7-.4-4.1-.4-1.4-.1-1.4-1.1.7-4.1.8-5.2h0Z"/>
    <path class="st0" d="M729.4,52.5l.2-.2c1.5-.2,5-2.5,5.6-3.8,1.6-3.4,7.9-27,7.9-29.5s-.2-7-3.1-8.5c.2-2.2.3-4.9.8-7.1.2,0,.5-.2.8-.2,4.9,0,9.8-.4,14.7-.4s5.5.2,8.2.2,2.9-.2,4.3-.2c.8.5,1.3,5.3,1.3,6.4s0,1-.2,1.5c0,.6-2.9,1.7-2.9,4.3s0,2.2,0,3.3c.2,3.3,5.3,28.2,7.4,30.6.8.8,4.5,3.2,4.7,3.8-.8,1.9-1.2,4-1.5,6-1.2.2-7.5.2-9.2.2s-7.9,0-9-.3c-.7-2-1.2-3.9-2-5.8,1.4-1.4,3.2-2.2,3.2-4s-.5-3.9-.8-5.9l-.4-.2c-.8,0-1.7-.2-2.5-.2s-2.1,0-3.2,0c-2.3,0-4.2.2-4.7,2.9-.2,1.2-.7,2.5-.7,3.7s1.8,3,2.9,3.5c-.6,2.1-1.3,4.2-1.9,6.3-.9-.3-1.8-.5-2.8-.5-2.1,0-4.2.5-6.3.5s-1.7-.3-2.5-.3c-2.3,0-4.7.3-7,.3h-.3c-.5-.5-1.2-3.9-1.2-4.6s0-1.3,0-2h0ZM751.4,32.1c.5.6,2,1.1,2.8,1.1,1.2,0,3.9-.4,3.9-1.9s-.6-2.9-.8-4.2c-.4-2.4-1.1-4.9-1.2-7.4,0-.5-.2-1-.5-1.4-1.8.3-4.1,11.7-4.1,13.7Z"/>
    <path class="st0" d="M784.6,17.9c5.1-10.3,16.1-16.4,27.6-16.4s7.3,1.8,8,1.8c2.3,0,1.2-3.2,4.2-3.2s3.2-.2,4.6-.2h.5c0,0,.2.2.2.2,0,1-.2,1.9-.2,2.9,0,6.4.9,12.9.9,19.4s-3.4,1-4.2,1c-1.2,0-4.2-2.9-5.1-3.8-2.9-3.2-5.5-3.5-9.3-4.8-.7-.2-1.4-.3-2.2-.3-2.1,0-5.5,1-8,3.2-7,6.3-6.6,23.9,1.2,27.9,1.8.9,5.8,1.8,7.7,1.8s1.9-.2,2.9-.2c3.2,0,6.9-3.9,7.9-6.7.3-.8.7-1.6,1.1-2.4,0-.6.8-1.2,1.3-1.2s1.2.2,1.8.2,1.6-.2,2.4-.2h4.5c1.2,0,1.7.8,1.7,2.1,0,3.7-1.1,7.2-3.1,10.2-.9,1.4-1.4,2.8-2.7,3.9-1.2,1.1-5.2,4.5-6.2,5.1-3.2,1.6-7.2,2.2-10.7,2.2-5.3,0-10.4-1-15.4-2.8-3.2-1.2-4.2-2.5-6.4-4.8-.7-.7-1.6-1.2-2.2-1.9-1.2-1.5-1.9-3.5-2.9-5.2-4-6.6-3-21.7.2-28.1h0Z"/>
    <path class="st0" d="M839.8,19.9c1.9-5.8,7.3-12.8,13.1-15.3.5-.2.9-.4,1.3-.8,2.2-2.2,4.6-1.5,7.3-2.3.5-.1,1.1-.3,1.7-.3s.8.1,1.3.1c3.9,0,7.3,0,11.2.8,3.2.6,7.3,3.1,9.4,5.5.7.8,1.3,1.6,2.1,2.4,1.2,1.2,2,1.9,2.8,3.5,1,2,1.8,4,2.6,6,3.2,7.7,3.5,16.8-1.3,27-1.8,3.8-3.2,5.2-6.1,8.1-4.3,4.3-14,6-20.1,6s-5.2-.5-7.4-1.3c-.6-.2-1.2-.3-1.8-.5-2.1-.5-3.6-1.6-5.5-2.6-2.9-1.5-7.4-8.3-8.6-11-4.4-7.8-4.8-17.4-2.1-25.3h0ZM853.2,37.7c2.3,5.8,6.6,10.6,13.3,10.6s10.5-3.9,12.7-9.3c1.8-4.4,2.4-7.5,1.6-12.1-.2-1.4-1-2.9-1.5-4.2-1.5-4.2-3.8-5.9-7-8.6-2.3-.9-4.2-1.7-6.7-1.7-6.2,0-10.8,5.6-12.7,10.8-1.5,4.1-1.7,9.6.2,14.5h0Z"/>
    <path class="st0" d="M901.3,17c.8-4.6,6.2-12,10.1-13.5,1.5-.6,3-1.3,4.5-1.9.5-.1,5-.6,5.5-.6,3.1,0,7.3,0,10.1,1.1,1.9.7,3.9,1.9,5.9,1.9.7-.5,1.1-1.3,1.5-2,.3,0,.6,0,.9,0,.7,0,2.4,0,2.9.5v.5c0,.5,0,.9,0,1.3-.5,2.7-.2,5.8-.2,8.6s.2,3,.2,4.5v.9c-1.4.5-3.1.5-4.5.5-.8-1.5-2.7-3.1-4.2-4.2-2.3-1.7-7.1-2.6-10-2.6s-6.7.8-8.6,4.6c-2.5,6.3,8.4,6.2,11.4,6.9,8.7.9,12.6,3.4,17.2,10.6,1,1.5,1.5,4.2,1.5,5.9,0,4.4-1.3,10.7-5.2,13.5-1.2.8-1.8,2.2-3.2,2.8-2.7,1.3-6.9,2.9-9.9,2.9h-3.9c-1.5,0-4.4-.5-5.8-.8-.5-.2-1-.4-1.5-.5-1.7-.2-3.5-1.2-5.2-1.2s-3.2.5-4.8,2.2h-.5c-3.6,0-2.9-.5-2.9-3.5v-11.9c0-1.8-.5-3.5-.5-5.2s3.4-.8,4-.8h1.1c.2.2.3.4.5.6,2.1,3.2,3.9,6,7.4,7.7,1.7.8,3.3,1.6,5.2,1.6s2.2.4,3.3.4c3.3,0,8.3-1.9,8.3-5.9s0-1.2-.3-1.7c-1.5-3.5-3.3-4.2-7-4.2-7.3,0-17.5-2.2-21.5-9-1.6-2.9-2.9-5.7-2.2-9.7h0Z"/>
  </g>
</svg>