<?xml version="1.0" encoding="UTF-8"?><svg id="Layer_2" xmlns="http://www.w3.org/2000/svg" viewBox="0 0 207.04 215.59"><defs><style>.cls-1{fill:#fff;}</style></defs><g id="Layer_1-2"><path class="cls-1" d="M7.46,76.1l-2.81-1.71c-.42-.27-1.39-.62-1.71-.95,1.01-2.46,2.05-4.99,3.13-7.42l2.27-5.12c.46-1.04.71-2.13,1.17-3.17.37-.84.89-1.74,1.36-2.54.36-.03,3.13.73,3.66.93,1.03.38,2.24.45,3.25.9l.2.09c.02.13,0,.27.06.38.27.43-.1,1.54-.3,2-.37.84-3.32-.03-4.38,2.37-1.01,2.27,2.34,3.21,4.06,3.97,2.14.95,4.3,1.86,6.44,2.81,1.88.83,3.98.64,5.39-.95.28.16,2.67,1.84,2.74,1.95.2.32.16.69.02,1.02-.52,1.17-.79,2.4-1.3,3.54-.42.94-.96,1.82-1.38,2.76-.27.62-.37,1.27-.64,1.89-.01.03-.08.08-.09.11-.61-.11-3.13-.38-3.55-.56-.16-.07-.35-.27-.39-.44-.04-.25-.01-.59,0-.86,0-.89-.56-1.53-.98-2.26-.41-.3-.85-.53-1.3-.73-5.1-2.33-11.32-5.71-12.22-4.21-.93,1.57-.72,2.94.36,4.27.61.73.74.95.61,1.24-.12.26-.48.64-.92,1.65-.14.32-.32.56-.71.38-.29-.13-1.59-1.05-2.02-1.32Z"/><path class="cls-1" d="M32.47,63.65c-.35-.8.52-2.47-.06-2.99l-.55-.45c-1.45-1.2-2.86-2.5-4.31-3.69-2.3-1.9-4.52-3.82-6.88-5.76l-.52-.43c-.73.05-2.58.95-3.1.52l-.38-.77c-.22-.41-1.83-1.79-1.45-2.25.16-.19.37-.34.53-.53.95-1.15,1.84-2.39,2.78-3.54.77-.93,1.59-2.04,2.5-2.81.45,0,2.7,1.58,3.13,1.94l.11.09c-.2.57-.72,1.2-.79,1.51-.32,1.39,1.06,2.11,1.96,2.86.41.34.73.74,1.14,1.07,1.31,1.08,2.57-.55,3.36-1.51,1.15-1.4,1.71-2.18,1.99-3.97-.08-.34-1.32-1.18-1.65-1.45-.55-.45-1.03-.98-1.57-1.44-1.26-1.04-2.17-.6-3.54-.11-.57-.65-1.07-1.44-1.52-2.17.37-.61.78-1.06,1.23-1.6.68-.82,1.22-1.75,1.89-2.57.79-.96,1.63-1.87,2.48-2.78.25-.02,1.78.46,2,.64.14.11.16.31.12.47-.22.88.04,1.46.13,2.36.06.65,2.15,2.19,2.56,2.53.6.5,1.11,1.1,1.72,1.6,2.13,1.76,3.92,3.33,6.52,5.47.66.54,1.36,1.03,2.06,1.52.62.42,1.97-.21,2.49-.62.05,0,.1.04.13.06.16.14,1.53,2.32,1.63,2.59.06.15.04.4-.08.49-.38.29-.68.77-.97,1.13-.32.38-.55.78-.85,1.14-.52.63-1.04,1.21-1.56,1.84-.47.57-.87,1.22-1.36,1.82-1.06-.28-2.12-.55-3.05-1.09-.02-.53.23-1.06.23-1.56-.01-.93-1.88-2.79-2.62-3.4-.36-.29-1.37-1.13-1.87-1.08-.29.13-.94.75-1.14.99-.11.14-.19.35-.31.48-.66.97-1.3,1.91-2.07,2.84-.29.36-.96,1.32-.44,1.75l2.87,2.37c1.39,1.15,2.79-.32,3.76-.16l.86,1.13c.75.99,1.05,1.01.15,2.1-1.51,1.83-3.07,3.67-4.59,5.5-.7.85-2.22.19-3.13-.05Z"/><path class="cls-1" d="M47.4,44.71l.05-.12c.49-.47,1.25-2.25,1.14-2.9-.28-1.71-4.09-12.27-4.74-13.2-.77-1.11-1.9-2.61-3.39-2.4-.5-.91-1.16-1.92-1.57-2.88.07-.09.16-.2.25-.26,1.87-1.29,3.6-2.71,5.47-4,1.02-.71,2.11-1.38,3.13-2.08.55-.38,1.04-.8,1.59-1.19.46-.02,1.89,1.67,2.17,2.08.12.18.23.4.33.59.13.25-.63,1.39.05,2.38.28.41.59.84.9,1.23.96,1.19,9.4,9.28,10.8,9.61.51.12,2.54.05,2.77.2.21.93.61,1.82,1.02,2.66-.41.41-2.79,2.02-3.43,2.46-.73.5-2.95,2.09-3.49,2.25-.79-.58-1.48-1.14-2.27-1.66.16-.89.63-1.64.15-2.34-.51-.73-1.21-1.36-1.86-1.99h-.21c-.34.21-.68.4-1,.62-.38.26-.77.57-1.18.86-.88.6-1.53,1.15-1.03,2.31.22.5.38,1.11.71,1.58.34.5,1.46.67,2.02.55.31.95.62,1.95.93,2.9-.43.13-.82.31-1.17.55-.79.54-1.46,1.31-2.25,1.86-.32.22-.72.33-1.04.55-.88.61-1.7,1.35-2.57,1.95l-.12.08c-.3-.05-1.47-1.19-1.65-1.45-.18-.26-.37-.47-.5-.78ZM50.38,31.26c.37.09,1.04-.12,1.33-.32.44-.3,1.36-1.16.97-1.71-.34-.5-.98-.92-1.41-1.35-.77-.8-1.7-1.58-2.41-2.48-.14-.2-.32-.34-.54-.4-.62.6,1.52,5.5,2.05,6.26Z"/><path class="cls-1" d="M67.08,27.87c-1.26-3.54-2.23-7.22-3.5-10.8-.56-1.57-1.65-3.18-3.5-3.08-.12-.34-.17-1.75-.21-2.18-.04-.32-.28-.69-.18-1.03.08-.29.16-.62.24-.91.09-.07.15-.09.25-.13.8-.29,1.61-.46,2.41-.74,1.1-.39,2.17-.88,3.27-1.28.25.06.46.25.6.43,1.19,1.54,2.4,2.95,3.94,4.21.8.66,1.36,1.51,2.16,2.17.59.5,1.13,1.18,1.62,1.8.14.18,1.55,1.4,1.69,1.47.09.04.19.12.3.2.32.26.53.53.93.72-.54-1.62-.81-3.33-1.38-4.93-.33-.94-.74-1.88-1.12-2.84-.88-.67-1.03-1.1-2.18-1.26-.16-.02-.26-.1-.32-.26-.32-.9-.42-2.45-.45-3.49.19-.22.62-.48.89-.58.6-.21,1.24-.33,1.84-.54.67-.24,1.35-.55,2.01-.79.53-.19.98-.53,1.44-.7.33-.12,1.2-.01,1.42.29l1.33,2.27c.15.44-1.29,2.19-.43,4.63.27.77.49,1.59.76,2.36l3.53,10.04c.15.44.54,1.09.92,1.33.33.19.96-.04,1.12.39.05.13.07.31.04.44-.2.82.15,1.6.06,2.39-.03.24-.12.42-.35.5-.3.11-.68.09-.98.2-.17.06-.31.19-.48.25-1.2.43-2.48.77-3.68,1.19-.53.19-1.15.67-1.52.8-.07.02-.17-.05-.19-.12-.44-.71-.88-1.31-1.34-1.97-.08-.12-.24-.25-.25-.4.26-.54.41-.86.21-1.43-.32-.9-1.52-1.64-2.23-2.26-.54-.45-1.07-1.01-1.52-1.53-1.02-1.18-2.55-2.3-3.86-3.14-.13.05-.23.08-.38.1-.11.75,1.15,4.52,1.5,5.49.38,1.07.81,2.5,1.94,3.04.27.13,1.66.65,1.76.92.27.77.18,1.78.35,2.58-.12.08-.24.16-.38.21-.4.14-.8.17-1.21.31-1.8.64-3.54,1.48-5.31,2.11-.23.08-.49.1-.73.07-.68-.44-1.4-1.39-1.79-2.07,1.01-1.71,1.64-2.39.91-4.43Z"/><path class="cls-1" d="M88.33,24.89c.62-.73,1.27-1.03,1.58-2.01.62-1.97-.67-12.68-.67-12.79-.09-1.13-.34-3.39-.81-4.38-.17-.38-1.22-.97-1.62-1.11-.08-.06-.08-.17-.09-.28-.03-.42.19-1.19.26-1.66.09-.61.05-1.11.79-1.2.56-.08,1.16-.16,1.73-.21l5.44-.44c.22.12.36.11.49.35.21.37.45,1.6.48,2.02.03.32-1.16,1.02-1.29,1.67-.42,2.24-.05,4.63.13,6.86.02.25-.07.9.32.86l.2-.12c.83-1.14,4-7.3,3.96-7.83-.05-.67-1.15-.62-1.2-1.26-.03-.32.1-2.71.6-2.75.74-.06,1.53.02,2.27-.04.92-.07,1.98-.16,2.89-.3.53-.08,1.05-.23,1.58-.27.21-.02.46,0,.68.02.24.3.88,2.03.9,2.38.04.53-1.88,1.4-2.24,2.28-.12.3-.31.52-.47.79-.78,1.31-2.88,4.86-2.77,6.27.07.88,3.18,6.75,3.75,8.09.13.31.47.57.67.84,1.04.52,1.89.45,2.78.92.1.42.21.8.24,1.22.03.42-.27,2.44-.45,2.85-.28.02-.52.11-.81.14-.46.04-.9-.07-1.32-.04-1.27.1-2.53.42-3.76.52-1.41.11-1.67.53-2.21-.93-.18-.48-.46-.82-.67-1.23,0-.04-.09-.17-.09-.21-.04-.49,1.24-.46,1.15-1.62-.09-1.17-2.05-4.67-2.81-5.36h-.07c-.74.06-2.03,3.48-2.23,4.13.43,1.39,1.12,2.36,2.58,2.85-.15.8-.54,1.75-.79,2.52-1.84.15-3.67.44-5.5.58-.71.06-1.33.29-2.04.34l-.21.02c-.42-.85-.91-1.63-1.34-2.49Z"/><path class="cls-1" d="M112.08,6.68c.71-2,3.74-4.93,5.65-5.31.75-.16,1.47-.36,2.21-.51.22-.03,2.32.12,2.53.15,1.4.24,3.28.61,4.49,1.29.82.47,1.6,1.14,2.54,1.31.36-.19.59-.51.86-.79.15-.01.29.01.43.04.31.06,1.08.19,1.26.44l-.04.21c-.04.21-.07.42-.14.59-.46,1.18-.53,2.61-.75,3.87-.12.66-.17,1.38-.28,2.04l-.07.42c-.67.1-1.43-.04-2.06-.15-.23-.76-.98-1.61-1.56-2.22-.91-.95-3.01-1.72-4.31-1.94-1.82-.32-3.1-.18-4.25,1.42-1.65,2.66,3.32,3.46,4.62,4.05,3.88,1.07,5.43,2.53,6.95,6.15.33.78.37,2.01.23,2.81-.35,1.99-1.44,4.75-3.41,5.7-.59.29-1.01.83-1.65,1.01-1.33.38-3.34.78-4.7.55l-1.78-.31c-.66-.12-1.95-.56-2.55-.84-.23-.11-.42-.25-.66-.33-.75-.24-1.47-.83-2.24-.97-1.08-.19-1.48,0-2.34.6l-.25-.04c-1.64-.29-1.26-.44-1.01-1.83l.94-5.38c.14-.8.07-1.61.21-2.41.07-.42,1.6-.08,1.88-.03l.49.09c.06.08.11.2.16.31.69,1.6,1.31,3.04,2.74,4.08.7.52,1.37,1,2.25,1.15.52.09.95.35,1.47.44,1.5.26,3.89-.22,4.2-2,.05-.28.06-.53,0-.79-.39-1.69-1.17-2.18-2.81-2.47-3.32-.58-7.75-2.4-9-5.79-.51-1.42-.88-2.82-.24-4.58Z"/><path class="cls-1" d="M147.42,12.98c.18-.31,2.77-2.54,3.2-2.94l.17.06c.61.43,1.22.86,1.87,1.23.65.37,1.38.59,2.03.96.92.53,1.94,1.11,2.75,1.83.85.73,2.09,1.2,3.07,1.77.49.28.92.61,1.38.87.43.25.9.35,1.3.58,1.08.62,2.16,1.16,3.2,1.76.31.18.83.48,1.08.75.01.05,0,.13-.03.19-.16.28-.43.53-.59.81-.37.65-.59,1.38-.96,2.02-.62,1.08-1.94,2.73-2.33,3.69l-.15.2c-.37-.21-.72-.38-1.09-.59-.21-.78.05-1.65-.25-2.35-.46-1.12-2.1-3.04-3.17-3.66-1.04-.6-2.66-1.28-3.78-1.68-.37-.13-.76-.11-1.13.05-.55.95-1.17,1.82-1.72,2.78-.37.65-1.32,2.51-.43,3.03.58.34,1.32.84,1.94,1.03,1.87.58,2.36-1.34,3.93-.44.49.28.56.81.27,1.3-.34.58-.76,1.12-1.08,1.67-.83,1.45-1.55,2.99-2.29,4.49-.12.22-.12.5-.22.73-.23.11-.51.11-.76-.03-.37-.21-.74-.42-1.09-.67-.17-1.77-.19-2.23-1.79-3.15-.49-.28-1.39-.64-1.97-.64-.44,0-1.33,1.32-1.56,1.72-.23.4-.28.78-.5,1.15-.69,1.2,1.41,2.74,1.22,3.07-.02.03-.08.07-.1.11-.61.71-1,1.59-1.64,2.29l-.1.1c-.08,0-3.81-1.7-4.06-1.84-1.42-.81-2.81-1.66-4.23-2.47-.25-.14-.49-.28-.7-.49l-.04-.15c.12-.5.68-2.39.87-2.73l.07-.12c.63-.17,1.26-.05,1.79-.4,2.25-1.49,4.58-6.12,6.06-8.7.79-1.38,1.56-2.79,2.35-4.17.37-.64-.55-2.24-.92-2.82,0-.08.04-.14.08-.2Z"/><path class="cls-1" d="M167.84,29.91c2.53-1.2,6.58-1.64,9.24-.51.25.11.42.19.67.19,1.45.03,1.98,1.04,3.07,1.67.22.13.45.26.64.46.12.13.22.33.37.49,1.23,1.28,2.33,2.43,3.3,3.96.8,1.25,1.28,3.39,1.18,4.87-.03.48-.12.95-.13,1.45-.02.8,0,1.28-.27,2.03-.35.97-.77,1.87-1.16,2.79-1.53,3.53-4.48,6.5-9.38,8.15-1.82.61-2.72.59-4.63.56-2.81-.06-6.46-2.74-8.38-4.74-.74-.77-1.49-1.86-1.92-2.87-.12-.28-.27-.48-.41-.74-.48-.86-.62-1.72-.87-2.65-.42-1.46.38-5.08.94-6.35,1.19-3.94,4.26-7.13,7.73-8.74ZM166.17,40.01c-1.18,2.61-1.4,5.57.74,7.79,1.89,1.97,4.62,2.25,7.12,1.28,2.05-.78,3.24-1.59,4.53-3.32.39-.52.65-1.27.92-1.81.89-1.84.74-3.12.63-5.08-.45-1.04-.76-1.92-1.57-2.77-1.96-2.05-5.28-1.82-7.63-.79-1.82.81-3.74,2.51-4.74,4.69Z"/><path class="cls-1" d="M175.18,59.98c.43.22.85.48,1.28.7.43.22.92.32,1.38.52.13-.06.24-.08.36-.15l11.9-6.02c.47-.24.72-.69,1.2-.93.6-.31.55-1.8.47-2.35.03-.1.11-.18.2-.22.95-.49,2.19-.4,3.18-.87.14.05.27.06.41.1.1.11.14.21.21.33,1.04,2.02,2.4,3.83,3.44,5.85.34.66.54,1.36.86,1.99.52,1.01,1.07,1.92,1.39,3.03.25.79.19,1.62.29,2.44.26,1.98.22,4.23-1.29,5.8-.52.55-1.19,1.25-1.86,1.59-1.67.86-4.52,1.36-6.27.59l-.46-.2c-.72-.31-1.2-.86-1.85-1.2-.05-.01-.16-.08-.22-.05s-3.02,3.58-3.45,4.08c-.25.29-.48.77-.57,1.13-.11.49.31,2.07.31,2.79-.31.24-.68.47-1.06.66-.47.24-2.18.64-2.74.65l-.19-.22c-.29-.57-.46-1.2-.73-1.74-.34-.66-1.34-2.62-1.81-3.06-.08-.08-.14-.2-.19-.3-.27-.54-.6-1.09-.79-1.63-.08-.24-.11-.3.06-.51.56-.69,1.79-1.71,2.24-2.31.05-.06.08-.16.14-.19.38-.19,1.01.96,1.95.47.63-.32,2.65-2.91,3.01-3.54.25-.45.26-.97.03-1.41-.61-1.2-1.74-.98-2.78-.45-.76.39-2.95,1.16-2.7,2.5.07.36.05.73.09,1.11-.03.1-.09.21-.19.26-.03.02-3.49.43-3.64.43-.03-.06-.11-.14-.15-.2-.53-1.04-1.16-2.03-1.7-3.07-.21-.41-.38-1.12-.62-1.44-.56-.71-1.08-1.4-1.66-2.06.04-.38,1.53-2.3,1.85-2.54.2-.14.43-.26.65-.37ZM192.68,60.53l-1.07.55c-.44.23-.79.72-.94,1.2.03.22.56,1.71.65,1.9.6,1.17,2.36,2.66,3.72,1.96,1.74-.89,1.39-2.27.64-3.72l-.49-.94c-.57-1.1-1.32-1.56-2.52-.94Z"/><path class="cls-1" d="M2.5,135.44c.87.07,1.92,1.64,2.66,1.38l.66-.26c1.75-.7,3.56-1.31,5.31-2.01,2.76-1.11,5.52-2.14,8.36-3.27l.63-.25c.31-.66.4-2.72,1.03-2.97l.86.04c.46,0,2.45-.75,2.67-.19.09.23.12.49.21.72.55,1.38,1.22,2.76,1.78,4.14.45,1.12,1.03,2.38,1.27,3.54-.22.4-2.68,1.61-3.21,1.82l-.13.05c-.41-.45-.71-1.2-.95-1.42-1.07-.95-2.36-.08-3.45.35-.49.2-.99.28-1.49.48-1.58.63-.75,2.52-.29,3.67.67,1.68,1.09,2.54,2.53,3.65.34.09,1.67-.59,2.07-.75.66-.26,1.36-.43,2.02-.69,1.51-.61,1.57-1.62,1.8-3.05.84-.19,1.77-.25,2.63-.29.36.62.55,1.19.82,1.85.4.99.96,1.91,1.35,2.9.46,1.15.86,2.33,1.25,3.51-.1.23-1.26,1.35-1.52,1.45-.17.07-.35-.01-.47-.12-.67-.61-1.3-.66-2.13-1.02-.6-.26-2.95.84-3.44,1.04-.72.29-1.5.45-2.23.74-2.57,1.03-4.8,1.85-7.93,3.1-.79.31-1.55.7-2.32,1.08-.67.34-.76,1.83-.65,2.48-.02.05-.09.07-.12.08-.2.08-2.77.23-3.06.19-.16-.02-.37-.16-.39-.3-.07-.47-.35-.97-.52-1.4-.18-.46-.42-.86-.59-1.29-.3-.76-.56-1.5-.86-2.25-.28-.69-.65-1.34-.94-2.07.75-.8,1.5-1.59,2.42-2.16.47.23.82.7,1.26.95.82.44,3.35-.31,4.24-.67.43-.17,1.65-.66,1.84-1.12.03-.32-.2-1.18-.32-1.48-.07-.16-.21-.34-.28-.5-.53-1.05-1.06-2.06-1.5-3.18-.17-.43-.71-1.47-1.33-1.22l-3.46,1.39c-1.68.67-1.06,2.6-1.66,3.38l-1.4.22c-1.23.19-1.39.44-1.92-.87-.88-2.2-1.75-4.46-2.63-6.66-.41-1.02.9-2.04,1.55-2.72Z"/><path class="cls-1" d="M13.74,160.47l.12.04c.49.48,2.28,1.18,2.94,1.05,1.7-.33,12.14-4.46,13.05-5.13,1.09-.8,2.56-1.97,2.3-3.46.89-.53,1.88-1.21,2.84-1.65.09.06.2.16.27.24,1.35,1.83,2.82,3.52,4.16,5.35.74,1,1.44,2.07,2.17,3.07.4.54.84,1.01,1.24,1.56.03.46-1.61,1.94-2.01,2.23-.17.13-.39.25-.58.34-.25.14-1.41-.59-2.38.12-.4.29-.83.61-1.21.93-1.16.99-9,9.68-9.28,11.08-.1.52.02,2.54-.11,2.77-.92.24-1.8.67-2.63,1.1-.42-.39-2.1-2.73-2.56-3.36-.53-.71-2.18-2.89-2.35-3.42.55-.8,1.09-1.51,1.59-2.32.89.13,1.66.58,2.35.08.71-.53,1.33-1.25,1.94-1.92l-.02-.21c-.2-.33-.41-.67-.64-.98-.27-.37-.6-.75-.89-1.15-.63-.86-1.19-1.5-2.34-.96-.49.23-1.1.42-1.56.75-.49.36-.63,1.48-.49,2.03-.94.34-1.93.67-2.87,1.01-.14-.43-.33-.81-.59-1.15-.57-.77-1.36-1.42-1.93-2.19-.23-.31-.35-.71-.58-1.03-.63-.86-1.4-1.66-2.03-2.51l-.08-.12c.05-.3,1.14-1.5,1.4-1.69.26-.19.46-.39.76-.52ZM27.28,163.05c-.08.37.15,1.04.36,1.32.32.43,1.2,1.32,1.74.92.48-.36.89-1.01,1.31-1.45.78-.8,1.53-1.75,2.4-2.48.2-.15.33-.33.39-.55-.62-.6-5.45,1.69-6.2,2.23Z"/><path class="cls-1" d="M33.77,180.38c2.38-2.91,5.03-5.64,7.44-8.58,1.06-1.29,1.86-3.06.83-4.59.22-.28,1.41-1.05,1.76-1.31.26-.2.44-.6.79-.68.29-.08.61-.19.91-.27.11.04.16.09.24.15.66.54,1.22,1.14,1.88,1.68.91.74,1.88,1.4,2.78,2.14.08.24.03.53-.05.74-.7,1.81-1.28,3.58-1.56,5.55-.15,1.02-.59,1.95-.74,2.97-.12.77-.42,1.58-.7,2.31-.08.21-.4,2.06-.38,2.21.01.1,0,.23-.01.35-.06.41-.18.72-.14,1.17,1.11-1.3,2.43-2.41,3.51-3.73.63-.77,1.23-1.61,1.85-2.43.12-1.1.41-1.45-.05-2.52-.06-.14-.05-.27.06-.41.61-.74,1.88-1.63,2.76-2.19.28.05.73.28.95.46.49.41.92.89,1.42,1.3.55.45,1.17.87,1.72,1.31.44.36.96.56,1.35.87.28.22.63,1.02.49,1.36l-1.26,2.32c-.29.35-2.54.03-4.18,2.03-.52.63-1.11,1.25-1.63,1.88l-6.77,8.21c-.29.36-.65,1.02-.66,1.48.01.38.53.8.24,1.16-.09.11-.23.22-.35.26-.81.26-1.29.96-2.01,1.29-.22.1-.42.12-.61-.04-.25-.2-.43-.54-.68-.74-.14-.11-.32-.17-.46-.28-.99-.81-1.94-1.72-2.93-2.53-.44-.36-1.17-.64-1.47-.89-.05-.04-.04-.17,0-.23.38-.74.66-1.43.99-2.17.06-.13.09-.34.21-.42.6-.06.95-.09,1.33-.56.61-.74.62-2.15.78-3.08.11-.69.31-1.44.52-2.09.48-1.48.65-3.37.69-4.94-.11-.09-.19-.16-.28-.27-.7.3-3.27,3.33-3.92,4.12-.72.88-1.72,1.99-1.59,3.24.03.3.3,1.76.12,1.98-.52.63-1.43,1.08-2.03,1.64-.13-.06-.26-.13-.38-.22-.33-.27-.56-.6-.89-.87-1.48-1.21-3.1-2.26-4.56-3.45-.19-.16-.34-.37-.44-.59.02-.81.46-1.91.85-2.61,1.99-.02,2.89.17,4.26-1.51Z"/><path class="cls-1" d="M58.87,184.85c2.51-2.07,3.43-2.48,6.72-3.34,2.42-.63,6.09.26,8.33,1.26.78.34,1.47.89,2.16,1.35.33.22.6.57.92.72.81.36,1.63-.09,2.36-.42l2.43,1.08.04.09-.32.71c-.79,1.78-1.7,3.47-2.49,5.26-.37.84-.59,1.76-.99,2.59-.86-.15-1.78-.44-2.56-.87-.13-.33-.25-.66-.33-1-.4-1.81-2.23-3.71-3.95-4.47-.45-.2-2.25-.61-2.73-.59-4.55.19-8.67,5.62-7.55,10.27.43,1.82,1.63,3.83,3.32,4.58,1.43.63,3.18.44,4.63.15.94-.2,1.78-.95,2.17-1.83.09-.19.14-.4.16-.63-.94-.42-1.57-.66-2.33-1.31,0-1.13,1.04-2.6,1.53-3.71.09-.19.09-.38.18-.58.2-.45.95.04,1.25.17,1.01.45,2.02.78,3.02,1.23,1.17.52,2.35,1.08,3.52,1.6.04.09.11.2.17.31-.03.42-.17.82-.33,1.17-.29.65-.71,1.24-1.01,1.92-.32.71-.59,1.41-.9,2.12-.84,1.88-1.85,3.72-2.68,5.6-.32.71-.59,1.41-.9,2.12-.12.26-.13.56-.23.79-.07.16-.23.25-.4.21-.42-.11-1.88-.49-2.2-.63-.55-.24-.79-1.36-.99-1.88-.23-.1-.49-.22-.73-.29-.03-.01-3.02-.18-3.42-.24-.94-.15-1.95-.6-2.82-.98-.78-.35-3.01-1.61-3.64-2.12-.58-.45-1.05-1.05-1.61-1.53-.48-.41-1.13-1.55-1.4-2.25-.09-.23-.21-.48-.33-.73-.79-1.63-1.06-3.81-.92-5.61.34-3.92,1.39-6.45,4.88-10.29Z"/><path class="cls-1" d="M79.15,208.96c.86.06,1.61-.48,2.16-1.09.97-1.07,1.42-3.73,1.69-5.16l1.15-5.52c.2-1.05.35-2.14.56-3.22.07-.38.18-1.84.03-2.16-.34-.68-.71-1.19-1.4-1.5-.26-.12-.48-.31-.41-.66.19-.97.97-1.83,1.18-2.88.29-.19,1.49.15,1.87.22,1.98.39,3.95.84,5.94,1.23.45.09.9.03,1.35.12.63.12.36.76.28,1.14-.16.8.11,1.65-.04,2.41-.07.35-.27.45-.6.46-.95.03-1.49.43-2.09,1.07-.28.31-.85,1.78-.94,2.2-.05.24.02.47-.03.68-.19.8-.38,1.59-.54,2.39-.84,3.74-.75,3.65-1.09,5.39-.09.45-.27.85-.36,1.3-.16.84-.51,3.73.06,4.31.3.31.84.7,1.02,1.06.13.28.51.53.57.8-.16.8-.66,1.53-1.09,2.24-.48.23-2.15-.27-2.74-.39-.8-.16-1.62-.21-2.42-.36-.7-.14-1.31-.51-1.97-.64-.63-.12-1.27-.14-1.9-.26-.49-.09-.59-2.35-.69-2.95.12-.23.19-.25.44-.24Z"/><path class="cls-1" d="M97.83,208.98c-.07-3.76.18-7.56.11-11.36-.03-1.67-.56-3.54-2.35-4.04,0-.36.4-1.71.49-2.14.06-.32-.05-.75.16-1.03.17-.25.35-.54.52-.79.11-.04.18-.04.28-.04.85-.02,1.67.08,2.52.06,1.17-.02,2.34-.15,3.51-.17.22.14.36.38.44.59.64,1.83,1.34,3.56,2.4,5.24.55.88.82,1.87,1.36,2.74.4.67.7,1.48.96,2.22.07.21,1.03,1.83,1.14,1.93.07.07.14.18.22.28.22.35.33.67.66.98,0-1.7.29-3.41.26-5.12-.02-.99-.11-2.02-.16-3.05-.62-.91-.63-1.37-1.67-1.89-.14-.07-.22-.17-.22-.35-.02-.96.38-2.45.68-3.45.25-.15.74-.26,1.02-.27.64-.01,1.28.08,1.92.07.71-.01,1.45-.1,2.16-.11.57,0,1.1-.2,1.59-.21.36,0,1.14.37,1.26.72l.54,2.58c0,.46-1.92,1.67-1.87,4.26.02.82-.04,1.67-.02,2.48l.16,10.64c0,.46.16,1.2.45,1.55.25.28.93.27.94.73,0,.14-.03.32-.1.43-.45.72-.36,1.57-.7,2.28-.1.21-.24.36-.49.36-.32,0-.68-.13-1-.12-.18,0-.35.08-.53.08-1.28.02-2.59-.06-3.87-.03-.57,0-1.31.27-1.7.28-.07,0-.14-.1-.15-.18-.19-.81-.42-1.52-.64-2.29-.04-.14-.15-.32-.12-.46.42-.43.66-.69.65-1.29-.02-.96-.92-2.04-1.4-2.85-.37-.6-.7-1.3-.96-1.93-.59-1.44-1.69-2.99-2.67-4.21-.14,0-.25,0-.39-.03-.34.68-.34,4.65-.32,5.68.02,1.14-.02,2.63.88,3.5.22.21,1.37,1.14,1.38,1.43.02.81-.39,1.75-.48,2.56-.14.04-.28.07-.43.08-.43,0-.82-.09-1.24-.08-1.92.03-3.83.28-5.71.32-.25,0-.5-.06-.71-.17-.51-.63-.88-1.76-1.04-2.54,1.5-1.3,2.31-1.75,2.27-3.91Z"/><path class="cls-1" d="M119.82,196.17c.58-3.2,1.02-4.1,2.97-6.89,1.43-2.05,4.82-3.74,7.17-4.43.82-.24,1.69-.27,2.52-.37.39-.04.83.05,1.17-.05.85-.25,1.19-1.12,1.53-1.85l2.55-.75.09.05.22.75c.55,1.87.95,3.75,1.5,5.62.26.89.69,1.72.91,2.62-.76.44-1.65.81-2.52.99-.31-.17-.62-.34-.9-.55-1.47-1.12-4.1-1.39-5.91-.86-.48.14-2.11.99-2.46,1.31-3.35,3.08-2.98,9.89.87,12.72,1.51,1.11,3.72,1.87,5.5,1.35,1.5-.44,2.71-1.72,3.63-2.87.59-.76.74-1.88.47-2.8-.06-.2-.15-.4-.28-.58-.99.29-1.62.51-2.62.51-.73-.86-.89-2.66-1.23-3.82-.06-.2-.18-.35-.24-.56-.14-.48.75-.59,1.06-.68,1.06-.31,2.05-.71,3.1-1.02,1.23-.36,2.5-.69,3.72-1.05.09.05.21.09.33.12.25.33.4.73.51,1.11.2.68.26,1.4.47,2.12.22.75.46,1.45.68,2.2.58,1.98,1,4.03,1.57,6.01.22.75.46,1.45.68,2.2.08.27.26.52.33.75.05.17-.01.33-.17.42-.39.19-1.75.84-2.09.94-.58.17-1.48-.53-1.97-.79-.24.07-.51.15-.74.25-.03.01-2.42,1.82-2.77,2.03-.82.5-1.87.81-2.79,1.07-.82.24-3.34.72-4.15.73-.73.03-1.48-.12-2.22-.13-.63,0-1.87-.45-2.53-.81-.22-.12-.47-.23-.73-.34-1.66-.73-3.27-2.22-4.33-3.69-2.27-3.22-3.11-5.82-2.92-11.01Z"/><path class="cls-1" d="M150.09,185.9c-.93-2.64-.96-6.72.45-9.25.13-.24.23-.4.26-.65.18-1.44,1.24-1.87,1.98-2.89.15-.21.31-.42.53-.59.14-.11.35-.18.52-.31,1.4-1.09,2.66-2.07,4.28-2.88,1.32-.67,3.5-.93,4.96-.67.47.08.93.22,1.43.28.8.1,1.27.13,1.99.47.93.45,1.78.96,2.65,1.44,3.35,1.89,6.01,5.12,7.15,10.17.42,1.87.31,2.77.07,4.66-.35,2.79-3.4,6.15-5.58,7.85-.84.65-2.01,1.29-3.06,1.62-.29.09-.51.21-.77.33-.91.39-1.77.44-2.73.59-1.5.27-5.02-.91-6.22-1.59-3.8-1.59-6.66-4.98-7.9-8.6ZM159.97,188.6c2.47,1.45,5.39,1.96,7.83.07,2.16-1.68,2.72-4.36,2.01-6.95-.57-2.12-1.25-3.39-2.83-4.85-.48-.44-1.19-.78-1.71-1.1-1.74-1.08-3.03-1.06-4.99-1.16-1.08.35-1.99.56-2.92,1.28-2.24,1.74-2.35,5.07-1.57,7.51.62,1.9,2.11,3.98,4.18,5.2Z"/><path class="cls-1" d="M163.69,165.57l.11-.14c.44-.29,5.21-6.91,5.91-7.84.13-.17.3-.4.52-.23.85.64,1.83,1.81,2.58,2.64.39.43-.21.82.11,1.81.23.7.4.88.98,1.35,3.05,2.37,5.27,4.03,8.68,6.23,2.21,1.43,3.65.39,4.7-1.01.96-1.28-1.14-3.51-2.11-4.23-1.53-1.15-3-2.33-4.5-3.45-1.02-.77-2.06-1.45-3.08-2.22-.48-.36-1.33-.95-1.91-1.12-.41.13-.84.3-1.16.6-.18.18-.43.21-.67.12-1.02-.41-2.19-1.15-3.03-1.87-.05-.35.09-.6.28-.85.68-.91,1.55-1.72,2.23-2.63.79-1.05,1.49-2.11,2.28-3.17.49-.65,1-1.29,1.5-1.94.06.04.16.08.22.12.77.57,1.53,1.63,2.17,2.37.4.47-.24,1.15.12,1.68.52.79,3.13,2.92,4.01,3.58l6.99,5.1c1.22.91,2.27,2.41,2.95,3.76.43.85.5,1.4.26,2.32-.13.48.08.9-.1,1.43-.39,1.17-.9,2.21-1.48,3.28-.22.41-.36.84-.64,1.21-.53.71-1.47,1.38-2.15,1.98-.38.33-.87.68-1.16,1.08-.17.23-.43.39-.69.51-3.01,1.3-5.68.36-8.25-1.52l-7.07-5.29c-.48-.36-1.01-.54-1.47-.88-.17-.13-.35-.31-.55-.45-.31-.23-1.59-.83-1.92-.69-.31.12-.61.34-.92.46-.38-.2-.7-.3-1.04-.56-.77-.57-1.82-.83-2.58-1.4-.06-.04-.06-.09-.12-.14Z"/><path class="cls-1" d="M182.78,148.11l-2.91-1.54c-.44-.24-1.43-.53-1.77-.85.86-2.52,1.75-5.1,2.68-7.59l1.96-5.25c.4-1.06.58-2.17.98-3.23.32-.86.78-1.79,1.2-2.62.36-.05,3.17.54,3.71.7,1.06.32,2.27.31,3.3.7l.2.07c.03.12.01.27.09.37.3.42-.01,1.55-.18,2.01-.32.86-3.32.16-4.24,2.62-.87,2.33,2.53,3.07,4.29,3.72,2.19.82,4.4,1.6,6.59,2.42,1.93.72,4.02.4,5.32-1.27.29.15,2.78,1.68,2.86,1.79.22.31.2.68.08,1.01-.45,1.2-.65,2.44-1.08,3.61-.36.96-.85,1.88-1.21,2.84-.24.63-.29,1.29-.53,1.92-.01.03-.07.09-.08.12-.62-.08-3.15-.19-3.58-.35-.17-.06-.36-.25-.41-.42-.06-.25-.05-.58-.06-.85-.05-.89-.65-1.49-1.11-2.2-.43-.27-.88-.48-1.35-.65-5.23-2.03-11.64-5.03-12.45-3.47-.83,1.62-.54,2.98.61,4.24.65.7.8.9.69,1.2-.1.26-.44.67-.82,1.7-.12.33-.29.57-.69.43-.3-.11-1.65-.96-2.09-1.2Z"/><path class="cls-1" d="M197.07,91.79l1,3.96c.41,1.64,1.95,2.76,3.64,2.64l4.08-.28c.98-.07,1.4,1.23.57,1.75l-3.46,2.18c-1.44.9-2.02,2.7-1.39,4.28l1.52,3.8c.37.91-.73,1.71-1.49,1.08l-3.14-2.62c-1.3-1.09-3.19-1.09-4.5,0l-3.14,2.62c-.76.63-1.86-.17-1.49-1.08l1.52-3.8c.63-1.57.05-3.37-1.39-4.28l-3.46-2.18c-.83-.52-.41-1.82.57-1.75l4.08.28c1.69.11,3.22-1,3.64-2.64l1-3.96c.24-.96,1.6-.96,1.84,0Z"/><path class="cls-1" d="M11.57,93.92l1,3.96c.41,1.64,1.95,2.76,3.64,2.64l4.08-.28c.98-.07,1.4,1.23.57,1.75l-3.46,2.18c-1.44.9-2.02,2.7-1.39,4.28l1.52,3.8c.37.91-.73,1.71-1.49,1.08l-3.14-2.62c-1.3-1.09-3.19-1.09-4.5,0l-3.14,2.62c-.76.63-1.86-.17-1.49-1.08l1.52-3.8c.63-1.57.05-3.37-1.39-4.28l-3.46-2.18c-.83-.52-.41-1.82.57-1.75l4.08.28c1.69.11,3.22-1,3.64-2.64l1-3.96c.24-.96,1.6-.96,1.84,0Z"/></g></svg>